<svg width="160.00000004mm" height="115.00000114mm" viewBox="0 0 62992126 45275591"  version="1.1" xmlns="http://www.w3.org/2000/svg" xmlns:xlink="http://www.w3.org/1999/xlink">
<desc>
Origin 10000000 10000000 Bound 10000000 10000000 62992126 45275591
</desc>
<g fill-rule="evenodd" fill="rgb(174, 78, 0)" stroke="black" stroke-width="1" transform="translate(0, 45275591) scale(1, -1) translate(-10000000, -10000000)">
<path id="N" d="M 44448821.61 24748039.35 m -338168.19 0 a 338168.19 338168.19 0 1 1 676336.37 0a 338168.19 338168.19 0 1 1 -676336.37 0M 44448821.44 24748038.65 m -180637.35 0 a 180637.35 180637.35 0 1 1 361274.69 0a 180637.35 180637.35 0 1 1 -361274.69 0"/>
<path id="N" d="M 22763780.61 31653539.35 m -338168.19 0 a 338168.19 338168.19 0 1 1 676336.37 0a 338168.19 338168.19 0 1 1 -676336.37 0M 22763780.44 31653538.65 m -180637.35 0 a 180637.35 180637.35 0 1 1 361274.69 0a 180637.35 180637.35 0 1 1 -361274.69 0"/>
<path id="N" d="M 23763780.61 31653539.35 m -338168.19 0 a 338168.19 338168.19 0 1 1 676336.37 0a 338168.19 338168.19 0 1 1 -676336.37 0M 23763780.44 31653538.65 m -180637.35 0 a 180637.35 180637.35 0 1 1 361274.69 0a 180637.35 180637.35 0 1 1 -361274.69 0"/>
<path id="N" d="M 44448821.61 23748039.35 m -338168.19 0 a 338168.19 338168.19 0 1 1 676336.37 0a 338168.19 338168.19 0 1 1 -676336.37 0M 44448821.44 23748038.65 m -180637.35 0 a 180637.35 180637.35 0 1 1 361274.69 0a 180637.35 180637.35 0 1 1 -361274.69 0"/>
<path id="N" d="M 33606300.61 31653539.35 m -338168.19 0 a 338168.19 338168.19 0 1 1 676336.37 0a 338168.19 338168.19 0 1 1 -676336.37 0M 33606300.44 31653538.65 m -180637.35 0 a 180637.35 180637.35 0 1 1 361274.69 0a 180637.35 180637.35 0 1 1 -361274.69 0"/>
<path id="N" d="M 44448821.61 37669300.35 m -338168.19 0 a 338168.19 338168.19 0 1 1 676336.37 0a 338168.19 338168.19 0 1 1 -676336.37 0M 44448821.44 37669299.65 m -180637.35 0 a 180637.35 180637.35 0 1 1 361274.69 0a 180637.35 180637.35 0 1 1 -361274.69 0"/>
<path id="N" d="M 60448817.61 17858263.35 m -338168.19 0 a 338168.19 338168.19 0 1 1 676336.37 0a 338168.19 338168.19 0 1 1 -676336.37 0M 60448817.44 17858262.65 m -180637.35 0 a 180637.35 180637.35 0 1 1 361274.69 0a 180637.35 180637.35 0 1 1 -361274.69 0"/>
<path id="N" d="M 32606300.61 31653539.35 m -338168.19 0 a 338168.19 338168.19 0 1 1 676336.37 0a 338168.19 338168.19 0 1 1 -676336.37 0M 32606300.44 31653538.65 m -180637.35 0 a 180637.35 180637.35 0 1 1 361274.69 0a 180637.35 180637.35 0 1 1 -361274.69 0"/>
<path id="N" d="M 32606300.61 30653539.35 m -338168.19 0 a 338168.19 338168.19 0 1 1 676336.37 0a 338168.19 338168.19 0 1 1 -676336.37 0M 32606300.44 30653538.65 m -180637.35 0 a 180637.35 180637.35 0 1 1 361274.69 0a 180637.35 180637.35 0 1 1 -361274.69 0"/>
<path id="N" d="M 59448817.61 18858263.35 m -338168.19 0 a 338168.19 338168.19 0 1 1 676336.37 0a 338168.19 338168.19 0 1 1 -676336.37 0M 59448817.44 18858262.65 m -180637.35 0 a 180637.35 180637.35 0 1 1 361274.69 0a 180637.35 180637.35 0 1 1 -361274.69 0"/>
<path id="N" d="M 21763780.61 31653539.35 m -338168.19 0 a 338168.19 338168.19 0 1 1 676336.37 0a 338168.19 338168.19 0 1 1 -676336.37 0M 21763780.44 31653538.65 m -180637.35 0 a 180637.35 180637.35 0 1 1 361274.69 0a 180637.35 180637.35 0 1 1 -361274.69 0"/>
<path id="N" d="M 32622040.61 45433079.35 m -338168.19 0 a 338168.19 338168.19 0 1 1 676336.37 0a 338168.19 338168.19 0 1 1 -676336.37 0M 32622040.44 45433078.65 m -180637.35 0 a 180637.35 180637.35 0 1 1 361274.69 0a 180637.35 180637.35 0 1 1 -361274.69 0"/>
<path id="N" d="M 32622040.61 49370079.35 m -338168.19 0 a 338168.19 338168.19 0 1 1 676336.37 0a 338168.19 338168.19 0 1 1 -676336.37 0M 32622040.44 49370078.65 m -180637.35 0 a 180637.35 180637.35 0 1 1 361274.69 0a 180637.35 180637.35 0 1 1 -361274.69 0"/>
<path id="N" d="M 25669300.61 39527559.35 m -338168.19 0 a 338168.19 338168.19 0 1 1 676336.37 0a 338168.19 338168.19 0 1 1 -676336.37 0M 25669300.44 39527558.65 m -180637.35 0 a 180637.35 180637.35 0 1 1 361274.69 0a 180637.35 180637.35 0 1 1 -361274.69 0"/>
<path id="N" d="M 64133859.61 39448807.35 m -338168.19 0 a 338168.19 338168.19 0 1 1 676336.37 0a 338168.19 338168.19 0 1 1 -676336.37 0M 64133859.44 39448806.65 m -180637.35 0 a 180637.35 180637.35 0 1 1 361274.69 0a 180637.35 180637.35 0 1 1 -361274.69 0"/>
<path id="N" d="M 23130555.00 45097805.00 L 22460005.00 45097805.00 L 22460005.00 45768355.00 L 23130555.00 45768355.00 L 23130555.00 45097805.00  zM 22795280.44 45433078.65 m -180637.35 0 a 180637.35 180637.35 0 1 1 361274.69 0a 180637.35 180637.35 0 1 1 -361274.69 0"/>
<path id="N" d="M 34941575.00 31318265.00 L 34271025.00 31318265.00 L 34271025.00 31988815.00 L 34941575.00 31988815.00 L 34941575.00 31318265.00  zM 34606300.44 31653538.65 m -180637.35 0 a 180637.35 180637.35 0 1 1 361274.69 0a 180637.35 180637.35 0 1 1 -361274.69 0"/>
<path id="N" d="M 23130555.00 49034805.00 L 22460005.00 49034805.00 L 22460005.00 49705355.00 L 23130555.00 49705355.00 L 23130555.00 49034805.00  zM 22795280.44 49370078.65 m -180637.35 0 a 180637.35 180637.35 0 1 1 361274.69 0a 180637.35 180637.35 0 1 1 -361274.69 0"/>
<path id="N" d="M 33606300.61 30653539.35 m -338168.19 0 a 338168.19 338168.19 0 1 1 676336.37 0a 338168.19 338168.19 0 1 1 -676336.37 0M 33606300.44 30653538.65 m -180637.35 0 a 180637.35 180637.35 0 1 1 361274.69 0a 180637.35 180637.35 0 1 1 -361274.69 0"/>
<path id="N" d="M 44784096.00 39192286.00 L 44113546.00 39192286.00 L 44113546.00 39862836.00 L 44784096.00 39862836.00 L 44784096.00 39192286.00  zM 44448821.44 39527559.65 m -180637.35 0 a 180637.35 180637.35 0 1 1 361274.69 0a 180637.35 180637.35 0 1 1 -361274.69 0"/>
<path id="N" d="M 44448821.61 47527560.35 m -338168.19 0 a 338168.19 338168.19 0 1 1 676336.37 0a 338168.19 338168.19 0 1 1 -676336.37 0M 44448821.44 47527559.65 m -180637.35 0 a 180637.35 180637.35 0 1 1 361274.69 0a 180637.35 180637.35 0 1 1 -361274.69 0"/>
<path id="N" d="M 44448821.61 44527560.35 m -338168.19 0 a 338168.19 338168.19 0 1 1 676336.37 0a 338168.19 338168.19 0 1 1 -676336.37 0M 44448821.44 44527559.65 m -180637.35 0 a 180637.35 180637.35 0 1 1 361274.69 0a 180637.35 180637.35 0 1 1 -361274.69 0"/>
<path id="N" d="M 44448821.61 42527560.35 m -338168.19 0 a 338168.19 338168.19 0 1 1 676336.37 0a 338168.19 338168.19 0 1 1 -676336.37 0M 44448821.44 42527559.65 m -180637.35 0 a 180637.35 180637.35 0 1 1 361274.69 0a 180637.35 180637.35 0 1 1 -361274.69 0"/>
<path id="N" d="M 44448821.61 46527560.35 m -338168.19 0 a 338168.19 338168.19 0 1 1 676336.37 0a 338168.19 338168.19 0 1 1 -676336.37 0M 44448821.44 46527559.65 m -180637.35 0 a 180637.35 180637.35 0 1 1 361274.69 0a 180637.35 180637.35 0 1 1 -361274.69 0"/>
<path id="N" d="M 44448821.61 45527560.35 m -338168.19 0 a 338168.19 338168.19 0 1 1 676336.37 0a 338168.19 338168.19 0 1 1 -676336.37 0M 44448821.44 45527559.65 m -180637.35 0 a 180637.35 180637.35 0 1 1 361274.69 0a 180637.35 180637.35 0 1 1 -361274.69 0"/>
<path id="N" d="M 44448821.61 48527560.35 m -338168.19 0 a 338168.19 338168.19 0 1 1 676336.37 0a 338168.19 338168.19 0 1 1 -676336.37 0M 44448821.44 48527559.65 m -180637.35 0 a 180637.35 180637.35 0 1 1 361274.69 0a 180637.35 180637.35 0 1 1 -361274.69 0"/>
<path id="N" d="M 64133859.61 42448807.35 m -338168.19 0 a 338168.19 338168.19 0 1 1 676336.37 0a 338168.19 338168.19 0 1 1 -676336.37 0M 64133859.44 42448806.65 m -180637.35 0 a 180637.35 180637.35 0 1 1 361274.69 0a 180637.35 180637.35 0 1 1 -361274.69 0"/>
<path id="N" d="M 44448821.61 28748039.35 m -338168.19 0 a 338168.19 338168.19 0 1 1 676336.37 0a 338168.19 338168.19 0 1 1 -676336.37 0M 44448821.44 28748038.65 m -180637.35 0 a 180637.35 180637.35 0 1 1 361274.69 0a 180637.35 180637.35 0 1 1 -361274.69 0"/>
<path id="N" d="M 31606300.61 30653539.35 m -338168.19 0 a 338168.19 338168.19 0 1 1 676336.37 0a 338168.19 338168.19 0 1 1 -676336.37 0M 31606300.44 30653538.65 m -180637.35 0 a 180637.35 180637.35 0 1 1 361274.69 0a 180637.35 180637.35 0 1 1 -361274.69 0"/>
<path id="N" d="M 64133859.61 30590567.35 m -338168.19 0 a 338168.19 338168.19 0 1 1 676336.37 0a 338168.19 338168.19 0 1 1 -676336.37 0M 64133859.44 30590566.65 m -180637.35 0 a 180637.35 180637.35 0 1 1 361274.69 0a 180637.35 180637.35 0 1 1 -361274.69 0"/>
<path id="N" d="M 44448821.61 43527560.35 m -338168.19 0 a 338168.19 338168.19 0 1 1 676336.37 0a 338168.19 338168.19 0 1 1 -676336.37 0M 44448821.44 43527559.65 m -180637.35 0 a 180637.35 180637.35 0 1 1 361274.69 0a 180637.35 180637.35 0 1 1 -361274.69 0"/>
<path id="N" d="M 64133859.61 43448807.35 m -338168.19 0 a 338168.19 338168.19 0 1 1 676336.37 0a 338168.19 338168.19 0 1 1 -676336.37 0M 64133859.44 43448806.65 m -180637.35 0 a 180637.35 180637.35 0 1 1 361274.69 0a 180637.35 180637.35 0 1 1 -361274.69 0"/>
<path id="N" d="M 64133859.61 29590567.35 m -338168.19 0 a 338168.19 338168.19 0 1 1 676336.37 0a 338168.19 338168.19 0 1 1 -676336.37 0M 64133859.44 29590566.65 m -180637.35 0 a 180637.35 180637.35 0 1 1 361274.69 0a 180637.35 180637.35 0 1 1 -361274.69 0"/>
<path id="N" d="M 56448817.61 17858263.35 m -338168.19 0 a 338168.19 338168.19 0 1 1 676336.37 0a 338168.19 338168.19 0 1 1 -676336.37 0M 56448817.44 17858262.65 m -180637.35 0 a 180637.35 180637.35 0 1 1 361274.69 0a 180637.35 180637.35 0 1 1 -361274.69 0"/>
<path id="N" d="M 64133859.61 40448807.35 m -338168.19 0 a 338168.19 338168.19 0 1 1 676336.37 0a 338168.19 338168.19 0 1 1 -676336.37 0M 64133859.44 40448806.65 m -180637.35 0 a 180637.35 180637.35 0 1 1 361274.69 0a 180637.35 180637.35 0 1 1 -361274.69 0"/>
<path id="N" d="M 29669300.61 39527559.35 m -338168.19 0 a 338168.19 338168.19 0 1 1 676336.37 0a 338168.19 338168.19 0 1 1 -676336.37 0M 29669300.44 39527558.65 m -180637.35 0 a 180637.35 180637.35 0 1 1 361274.69 0a 180637.35 180637.35 0 1 1 -361274.69 0"/>
<path id="N" d="M 55448817.61 17858263.35 m -338168.19 0 a 338168.19 338168.19 0 1 1 676336.37 0a 338168.19 338168.19 0 1 1 -676336.37 0M 55448817.44 17858262.65 m -180637.35 0 a 180637.35 180637.35 0 1 1 361274.69 0a 180637.35 180637.35 0 1 1 -361274.69 0"/>
<path id="N" d="M 54448817.61 17858263.35 m -338168.19 0 a 338168.19 338168.19 0 1 1 676336.37 0a 338168.19 338168.19 0 1 1 -676336.37 0M 54448817.44 17858262.65 m -180637.35 0 a 180637.35 180637.35 0 1 1 361274.69 0a 180637.35 180637.35 0 1 1 -361274.69 0"/>
<path id="N" d="M 58448817.61 17858263.35 m -338168.19 0 a 338168.19 338168.19 0 1 1 676336.37 0a 338168.19 338168.19 0 1 1 -676336.37 0M 58448817.44 17858262.65 m -180637.35 0 a 180637.35 180637.35 0 1 1 361274.69 0a 180637.35 180637.35 0 1 1 -361274.69 0"/>
<path id="N" d="M 44448821.61 41527560.35 m -338168.19 0 a 338168.19 338168.19 0 1 1 676336.37 0a 338168.19 338168.19 0 1 1 -676336.37 0M 44448821.44 41527559.65 m -180637.35 0 a 180637.35 180637.35 0 1 1 361274.69 0a 180637.35 180637.35 0 1 1 -361274.69 0"/>
<path id="N" d="M 64133859.61 34590567.35 m -338168.19 0 a 338168.19 338168.19 0 1 1 676336.37 0a 338168.19 338168.19 0 1 1 -676336.37 0M 64133859.44 34590566.65 m -180637.35 0 a 180637.35 180637.35 0 1 1 361274.69 0a 180637.35 180637.35 0 1 1 -361274.69 0"/>
<path id="N" d="M 24669300.61 39527559.35 m -338168.19 0 a 338168.19 338168.19 0 1 1 676336.37 0a 338168.19 338168.19 0 1 1 -676336.37 0M 24669300.44 39527558.65 m -180637.35 0 a 180637.35 180637.35 0 1 1 361274.69 0a 180637.35 180637.35 0 1 1 -361274.69 0"/>
<path id="N" d="M 64133859.61 38448807.35 m -338168.19 0 a 338168.19 338168.19 0 1 1 676336.37 0a 338168.19 338168.19 0 1 1 -676336.37 0M 64133859.44 38448806.65 m -180637.35 0 a 180637.35 180637.35 0 1 1 361274.69 0a 180637.35 180637.35 0 1 1 -361274.69 0"/>
<path id="N" d="M 44448821.61 40527560.35 m -338168.19 0 a 338168.19 338168.19 0 1 1 676336.37 0a 338168.19 338168.19 0 1 1 -676336.37 0M 44448821.44 40527559.65 m -180637.35 0 a 180637.35 180637.35 0 1 1 361274.69 0a 180637.35 180637.35 0 1 1 -361274.69 0"/>
<path id="N" d="M 28669300.61 39527559.35 m -338168.19 0 a 338168.19 338168.19 0 1 1 676336.37 0a 338168.19 338168.19 0 1 1 -676336.37 0M 28669300.44 39527558.65 m -180637.35 0 a 180637.35 180637.35 0 1 1 361274.69 0a 180637.35 180637.35 0 1 1 -361274.69 0"/>
<path id="N" d="M 44448821.61 34669300.35 m -338168.19 0 a 338168.19 338168.19 0 1 1 676336.37 0a 338168.19 338168.19 0 1 1 -676336.37 0M 44448821.44 34669299.65 m -180637.35 0 a 180637.35 180637.35 0 1 1 361274.69 0a 180637.35 180637.35 0 1 1 -361274.69 0"/>
<path id="N" d="M 44448821.61 26748039.35 m -338168.19 0 a 338168.19 338168.19 0 1 1 676336.37 0a 338168.19 338168.19 0 1 1 -676336.37 0M 44448821.44 26748038.65 m -180637.35 0 a 180637.35 180637.35 0 1 1 361274.69 0a 180637.35 180637.35 0 1 1 -361274.69 0"/>
<path id="N" d="M 64133859.61 31590567.35 m -338168.19 0 a 338168.19 338168.19 0 1 1 676336.37 0a 338168.19 338168.19 0 1 1 -676336.37 0M 64133859.44 31590566.65 m -180637.35 0 a 180637.35 180637.35 0 1 1 361274.69 0a 180637.35 180637.35 0 1 1 -361274.69 0"/>
<path id="N" d="M 44448821.61 32669300.35 m -338168.19 0 a 338168.19 338168.19 0 1 1 676336.37 0a 338168.19 338168.19 0 1 1 -676336.37 0M 44448821.44 32669299.65 m -180637.35 0 a 180637.35 180637.35 0 1 1 361274.69 0a 180637.35 180637.35 0 1 1 -361274.69 0"/>
<path id="N" d="M 64133859.61 32590567.35 m -338168.19 0 a 338168.19 338168.19 0 1 1 676336.37 0a 338168.19 338168.19 0 1 1 -676336.37 0M 64133859.44 32590566.65 m -180637.35 0 a 180637.35 180637.35 0 1 1 361274.69 0a 180637.35 180637.35 0 1 1 -361274.69 0"/>
<path id="N" d="M 44448821.61 25748039.35 m -338168.19 0 a 338168.19 338168.19 0 1 1 676336.37 0a 338168.19 338168.19 0 1 1 -676336.37 0M 44448821.44 25748038.65 m -180637.35 0 a 180637.35 180637.35 0 1 1 361274.69 0a 180637.35 180637.35 0 1 1 -361274.69 0"/>
<path id="N" d="M 64133859.61 28590567.35 m -338168.19 0 a 338168.19 338168.19 0 1 1 676336.37 0a 338168.19 338168.19 0 1 1 -676336.37 0M 64133859.44 28590566.65 m -180637.35 0 a 180637.35 180637.35 0 1 1 361274.69 0a 180637.35 180637.35 0 1 1 -361274.69 0"/>
<path id="N" d="M 44448821.61 27748039.35 m -338168.19 0 a 338168.19 338168.19 0 1 1 676336.37 0a 338168.19 338168.19 0 1 1 -676336.37 0M 44448821.44 27748038.65 m -180637.35 0 a 180637.35 180637.35 0 1 1 361274.69 0a 180637.35 180637.35 0 1 1 -361274.69 0"/>
<path id="N" d="M 44448821.61 33669300.35 m -338168.19 0 a 338168.19 338168.19 0 1 1 676336.37 0a 338168.19 338168.19 0 1 1 -676336.37 0M 44448821.44 33669299.65 m -180637.35 0 a 180637.35 180637.35 0 1 1 361274.69 0a 180637.35 180637.35 0 1 1 -361274.69 0"/>
<path id="N" d="M 64133859.61 33590567.35 m -338168.19 0 a 338168.19 338168.19 0 1 1 676336.37 0a 338168.19 338168.19 0 1 1 -676336.37 0M 64133859.44 33590566.65 m -180637.35 0 a 180637.35 180637.35 0 1 1 361274.69 0a 180637.35 180637.35 0 1 1 -361274.69 0"/>
<path id="N" d="M 44448821.61 31669300.35 m -338168.19 0 a 338168.19 338168.19 0 1 1 676336.37 0a 338168.19 338168.19 0 1 1 -676336.37 0M 44448821.44 31669299.65 m -180637.35 0 a 180637.35 180637.35 0 1 1 361274.69 0a 180637.35 180637.35 0 1 1 -361274.69 0"/>
<path id="N" d="M 61448817.61 17858263.35 m -338168.19 0 a 338168.19 338168.19 0 1 1 676336.37 0a 338168.19 338168.19 0 1 1 -676336.37 0M 61448817.44 17858262.65 m -180637.35 0 a 180637.35 180637.35 0 1 1 361274.69 0a 180637.35 180637.35 0 1 1 -361274.69 0"/>
<path id="N" d="M 55448817.61 18858263.35 m -338168.19 0 a 338168.19 338168.19 0 1 1 676336.37 0a 338168.19 338168.19 0 1 1 -676336.37 0M 55448817.44 18858262.65 m -180637.35 0 a 180637.35 180637.35 0 1 1 361274.69 0a 180637.35 180637.35 0 1 1 -361274.69 0"/>
<path id="N" d="M 54448817.61 18858263.35 m -338168.19 0 a 338168.19 338168.19 0 1 1 676336.37 0a 338168.19 338168.19 0 1 1 -676336.37 0M 54448817.44 18858262.65 m -180637.35 0 a 180637.35 180637.35 0 1 1 361274.69 0a 180637.35 180637.35 0 1 1 -361274.69 0"/>
<path id="N" d="M 50448817.61 18858263.35 m -338168.19 0 a 338168.19 338168.19 0 1 1 676336.37 0a 338168.19 338168.19 0 1 1 -676336.37 0M 50448817.44 18858262.65 m -180637.35 0 a 180637.35 180637.35 0 1 1 361274.69 0a 180637.35 180637.35 0 1 1 -361274.69 0"/>
<path id="N" d="M 49448817.61 18858263.35 m -338168.19 0 a 338168.19 338168.19 0 1 1 676336.37 0a 338168.19 338168.19 0 1 1 -676336.37 0M 49448817.44 18858262.65 m -180637.35 0 a 180637.35 180637.35 0 1 1 361274.69 0a 180637.35 180637.35 0 1 1 -361274.69 0"/>
<path id="N" d="M 52448817.61 18858263.35 m -338168.19 0 a 338168.19 338168.19 0 1 1 676336.37 0a 338168.19 338168.19 0 1 1 -676336.37 0M 52448817.44 18858262.65 m -180637.35 0 a 180637.35 180637.35 0 1 1 361274.69 0a 180637.35 180637.35 0 1 1 -361274.69 0"/>
<path id="N" d="M 57448817.61 18858263.35 m -338168.19 0 a 338168.19 338168.19 0 1 1 676336.37 0a 338168.19 338168.19 0 1 1 -676336.37 0M 57448817.44 18858262.65 m -180637.35 0 a 180637.35 180637.35 0 1 1 361274.69 0a 180637.35 180637.35 0 1 1 -361274.69 0"/>
<path id="N" d="M 56448817.61 18858263.35 m -338168.19 0 a 338168.19 338168.19 0 1 1 676336.37 0a 338168.19 338168.19 0 1 1 -676336.37 0M 56448817.44 18858262.65 m -180637.35 0 a 180637.35 180637.35 0 1 1 361274.69 0a 180637.35 180637.35 0 1 1 -361274.69 0"/>
<path id="N" d="M 53448817.61 18858263.35 m -338168.19 0 a 338168.19 338168.19 0 1 1 676336.37 0a 338168.19 338168.19 0 1 1 -676336.37 0M 53448817.44 18858262.65 m -180637.35 0 a 180637.35 180637.35 0 1 1 361274.69 0a 180637.35 180637.35 0 1 1 -361274.69 0"/>
<path id="N" d="M 51448817.61 18858263.35 m -338168.19 0 a 338168.19 338168.19 0 1 1 676336.37 0a 338168.19 338168.19 0 1 1 -676336.37 0M 51448817.44 18858262.65 m -180637.35 0 a 180637.35 180637.35 0 1 1 361274.69 0a 180637.35 180637.35 0 1 1 -361274.69 0"/>
<path id="N" d="M 47448817.61 17858263.35 m -338168.19 0 a 338168.19 338168.19 0 1 1 676336.37 0a 338168.19 338168.19 0 1 1 -676336.37 0M 47448817.44 17858262.65 m -180637.35 0 a 180637.35 180637.35 0 1 1 361274.69 0a 180637.35 180637.35 0 1 1 -361274.69 0"/>
<path id="N" d="M 44448817.61 17858263.35 m -338168.19 0 a 338168.19 338168.19 0 1 1 676336.37 0a 338168.19 338168.19 0 1 1 -676336.37 0M 44448817.44 17858262.65 m -180637.35 0 a 180637.35 180637.35 0 1 1 361274.69 0a 180637.35 180637.35 0 1 1 -361274.69 0"/>
<path id="N" d="M 45448817.61 17858263.35 m -338168.19 0 a 338168.19 338168.19 0 1 1 676336.37 0a 338168.19 338168.19 0 1 1 -676336.37 0M 45448817.44 17858262.65 m -180637.35 0 a 180637.35 180637.35 0 1 1 361274.69 0a 180637.35 180637.35 0 1 1 -361274.69 0"/>
<path id="N" d="M 46448817.61 18858263.35 m -338168.19 0 a 338168.19 338168.19 0 1 1 676336.37 0a 338168.19 338168.19 0 1 1 -676336.37 0M 46448817.44 18858262.65 m -180637.35 0 a 180637.35 180637.35 0 1 1 361274.69 0a 180637.35 180637.35 0 1 1 -361274.69 0"/>
<path id="N" d="M 53448817.61 17858263.35 m -338168.19 0 a 338168.19 338168.19 0 1 1 676336.37 0a 338168.19 338168.19 0 1 1 -676336.37 0M 53448817.44 17858262.65 m -180637.35 0 a 180637.35 180637.35 0 1 1 361274.69 0a 180637.35 180637.35 0 1 1 -361274.69 0"/>
<path id="N" d="M 46448817.61 17858263.35 m -338168.19 0 a 338168.19 338168.19 0 1 1 676336.37 0a 338168.19 338168.19 0 1 1 -676336.37 0M 46448817.44 17858262.65 m -180637.35 0 a 180637.35 180637.35 0 1 1 361274.69 0a 180637.35 180637.35 0 1 1 -361274.69 0"/>
<path id="N" d="M 49448817.61 17858263.35 m -338168.19 0 a 338168.19 338168.19 0 1 1 676336.37 0a 338168.19 338168.19 0 1 1 -676336.37 0M 49448817.44 17858262.65 m -180637.35 0 a 180637.35 180637.35 0 1 1 361274.69 0a 180637.35 180637.35 0 1 1 -361274.69 0"/>
<path id="N" d="M 52448817.61 17858263.35 m -338168.19 0 a 338168.19 338168.19 0 1 1 676336.37 0a 338168.19 338168.19 0 1 1 -676336.37 0M 52448817.44 17858262.65 m -180637.35 0 a 180637.35 180637.35 0 1 1 361274.69 0a 180637.35 180637.35 0 1 1 -361274.69 0"/>
<path id="N" d="M 51448817.61 17858263.35 m -338168.19 0 a 338168.19 338168.19 0 1 1 676336.37 0a 338168.19 338168.19 0 1 1 -676336.37 0M 51448817.44 17858262.65 m -180637.35 0 a 180637.35 180637.35 0 1 1 361274.69 0a 180637.35 180637.35 0 1 1 -361274.69 0"/>
<path id="N" d="M 48448817.61 17858263.35 m -338168.19 0 a 338168.19 338168.19 0 1 1 676336.37 0a 338168.19 338168.19 0 1 1 -676336.37 0M 48448817.44 17858262.65 m -180637.35 0 a 180637.35 180637.35 0 1 1 361274.69 0a 180637.35 180637.35 0 1 1 -361274.69 0"/>
<path id="N" d="M 64133859.61 19732287.35 m -338168.19 0 a 338168.19 338168.19 0 1 1 676336.37 0a 338168.19 338168.19 0 1 1 -676336.37 0M 64133859.44 19732286.65 m -180637.35 0 a 180637.35 180637.35 0 1 1 361274.69 0a 180637.35 180637.35 0 1 1 -361274.69 0"/>
<path id="N" d="M 50448817.61 17858263.35 m -338168.19 0 a 338168.19 338168.19 0 1 1 676336.37 0a 338168.19 338168.19 0 1 1 -676336.37 0M 50448817.44 17858262.65 m -180637.35 0 a 180637.35 180637.35 0 1 1 361274.69 0a 180637.35 180637.35 0 1 1 -361274.69 0"/>
<path id="N" d="M 45448817.61 18858263.35 m -338168.19 0 a 338168.19 338168.19 0 1 1 676336.37 0a 338168.19 338168.19 0 1 1 -676336.37 0M 45448817.44 18858262.65 m -180637.35 0 a 180637.35 180637.35 0 1 1 361274.69 0a 180637.35 180637.35 0 1 1 -361274.69 0"/>
<path id="N" d="M 64133859.61 25732287.35 m -338168.19 0 a 338168.19 338168.19 0 1 1 676336.37 0a 338168.19 338168.19 0 1 1 -676336.37 0M 64133859.44 25732286.65 m -180637.35 0 a 180637.35 180637.35 0 1 1 361274.69 0a 180637.35 180637.35 0 1 1 -361274.69 0"/>
<path id="N" d="M 64133859.61 24732287.35 m -338168.19 0 a 338168.19 338168.19 0 1 1 676336.37 0a 338168.19 338168.19 0 1 1 -676336.37 0M 64133859.44 24732286.65 m -180637.35 0 a 180637.35 180637.35 0 1 1 361274.69 0a 180637.35 180637.35 0 1 1 -361274.69 0"/>
<path id="N" d="M 64133859.61 21732287.35 m -338168.19 0 a 338168.19 338168.19 0 1 1 676336.37 0a 338168.19 338168.19 0 1 1 -676336.37 0M 64133859.44 21732286.65 m -180637.35 0 a 180637.35 180637.35 0 1 1 361274.69 0a 180637.35 180637.35 0 1 1 -361274.69 0"/>
<path id="N" d="M 58448817.61 18858263.35 m -338168.19 0 a 338168.19 338168.19 0 1 1 676336.37 0a 338168.19 338168.19 0 1 1 -676336.37 0M 58448817.44 18858262.65 m -180637.35 0 a 180637.35 180637.35 0 1 1 361274.69 0a 180637.35 180637.35 0 1 1 -361274.69 0"/>
<path id="N" d="M 64133859.61 23732287.35 m -338168.19 0 a 338168.19 338168.19 0 1 1 676336.37 0a 338168.19 338168.19 0 1 1 -676336.37 0M 64133859.44 23732286.65 m -180637.35 0 a 180637.35 180637.35 0 1 1 361274.69 0a 180637.35 180637.35 0 1 1 -361274.69 0"/>
<path id="N" d="M 64133859.61 22732287.35 m -338168.19 0 a 338168.19 338168.19 0 1 1 676336.37 0a 338168.19 338168.19 0 1 1 -676336.37 0M 64133859.44 22732286.65 m -180637.35 0 a 180637.35 180637.35 0 1 1 361274.69 0a 180637.35 180637.35 0 1 1 -361274.69 0"/>
<path id="N" d="M 64133859.61 20732287.35 m -338168.19 0 a 338168.19 338168.19 0 1 1 676336.37 0a 338168.19 338168.19 0 1 1 -676336.37 0M 64133859.44 20732286.65 m -180637.35 0 a 180637.35 180637.35 0 1 1 361274.69 0a 180637.35 180637.35 0 1 1 -361274.69 0"/>
<path id="N" d="M 48448817.61 18858263.35 m -338168.19 0 a 338168.19 338168.19 0 1 1 676336.37 0a 338168.19 338168.19 0 1 1 -676336.37 0M 48448817.44 18858262.65 m -180637.35 0 a 180637.35 180637.35 0 1 1 361274.69 0a 180637.35 180637.35 0 1 1 -361274.69 0"/>
<path id="N" d="M 47448817.61 18858263.35 m -338168.19 0 a 338168.19 338168.19 0 1 1 676336.37 0a 338168.19 338168.19 0 1 1 -676336.37 0M 47448817.44 18858262.65 m -180637.35 0 a 180637.35 180637.35 0 1 1 361274.69 0a 180637.35 180637.35 0 1 1 -361274.69 0"/>
<path id="N" d="M 61448817.61 18858263.35 m -338168.19 0 a 338168.19 338168.19 0 1 1 676336.37 0a 338168.19 338168.19 0 1 1 -676336.37 0M 61448817.44 18858262.65 m -180637.35 0 a 180637.35 180637.35 0 1 1 361274.69 0a 180637.35 180637.35 0 1 1 -361274.69 0"/>
<path id="N" d="M 60448817.61 18858263.35 m -338168.19 0 a 338168.19 338168.19 0 1 1 676336.37 0a 338168.19 338168.19 0 1 1 -676336.37 0M 60448817.44 18858262.65 m -180637.35 0 a 180637.35 180637.35 0 1 1 361274.69 0a 180637.35 180637.35 0 1 1 -361274.69 0"/>
<path id="N" d="M 64469134.00 26397013.00 L 63798584.00 26397013.00 L 63798584.00 27067563.00 L 64469134.00 27067563.00 L 64469134.00 26397013.00  zM 64133859.44 26732286.65 m -180637.35 0 a 180637.35 180637.35 0 1 1 361274.69 0a 180637.35 180637.35 0 1 1 -361274.69 0"/>
<path id="N" d="M 44784096.00 30334026.00 L 44113546.00 30334026.00 L 44113546.00 31004576.00 L 44784096.00 31004576.00 L 44784096.00 30334026.00  zM 44448821.44 30669299.65 m -180637.35 0 a 180637.35 180637.35 0 1 1 361274.69 0a 180637.35 180637.35 0 1 1 -361274.69 0"/>
<path id="N" d="M 64469134.00 35255293.00 L 63798584.00 35255293.00 L 63798584.00 35925843.00 L 64469134.00 35925843.00 L 64469134.00 35255293.00  zM 64133859.44 35590566.65 m -180637.35 0 a 180637.35 180637.35 0 1 1 361274.69 0a 180637.35 180637.35 0 1 1 -361274.69 0"/>
<path id="N" d="M 31004575.00 39192285.00 L 30334025.00 39192285.00 L 30334025.00 39862835.00 L 31004575.00 39862835.00 L 31004575.00 39192285.00  zM 30669300.44 39527558.65 m -180637.35 0 a 180637.35 180637.35 0 1 1 361274.69 0a 180637.35 180637.35 0 1 1 -361274.69 0"/>
<path id="N" d="M 44784092.00 18522989.00 L 44113542.00 18522989.00 L 44113542.00 19193539.00 L 44784092.00 19193539.00 L 44784092.00 18522989.00  zM 44448817.44 18858262.65 m -180637.35 0 a 180637.35 180637.35 0 1 1 361274.69 0a 180637.35 180637.35 0 1 1 -361274.69 0"/>
<path id="N" d="M 64469134.00 44113533.00 L 63798584.00 44113533.00 L 63798584.00 44784083.00 L 64469134.00 44784083.00 L 64469134.00 44113533.00  zM 64133859.44 44448806.65 m -180637.35 0 a 180637.35 180637.35 0 1 1 361274.69 0a 180637.35 180637.35 0 1 1 -361274.69 0"/>
<path id="N" d="M 25099055.00 31318265.00 L 24428505.00 31318265.00 L 24428505.00 31988815.00 L 25099055.00 31988815.00 L 25099055.00 31318265.00  zM 24763780.44 31653538.65 m -180637.35 0 a 180637.35 180637.35 0 1 1 361274.69 0a 180637.35 180637.35 0 1 1 -361274.69 0"/>
<path id="N" d="M 20795280.61 49370079.35 m -338168.19 0 a 338168.19 338168.19 0 1 1 676336.37 0a 338168.19 338168.19 0 1 1 -676336.37 0M 20795280.44 49370078.65 m -180637.35 0 a 180637.35 180637.35 0 1 1 361274.69 0a 180637.35 180637.35 0 1 1 -361274.69 0"/>
<path id="N" d="M 44448821.61 36669300.35 m -338168.19 0 a 338168.19 338168.19 0 1 1 676336.37 0a 338168.19 338168.19 0 1 1 -676336.37 0M 44448821.44 36669299.65 m -180637.35 0 a 180637.35 180637.35 0 1 1 361274.69 0a 180637.35 180637.35 0 1 1 -361274.69 0"/>
<path id="N" d="M 21795280.61 45433079.35 m -338168.19 0 a 338168.19 338168.19 0 1 1 676336.37 0a 338168.19 338168.19 0 1 1 -676336.37 0M 21795280.44 45433078.65 m -180637.35 0 a 180637.35 180637.35 0 1 1 361274.69 0a 180637.35 180637.35 0 1 1 -361274.69 0"/>
<path id="N" d="M 21795280.61 49370079.35 m -338168.19 0 a 338168.19 338168.19 0 1 1 676336.37 0a 338168.19 338168.19 0 1 1 -676336.37 0M 21795280.44 49370078.65 m -180637.35 0 a 180637.35 180637.35 0 1 1 361274.69 0a 180637.35 180637.35 0 1 1 -361274.69 0"/>
<path id="N" d="M 23669300.61 39527559.35 m -338168.19 0 a 338168.19 338168.19 0 1 1 676336.37 0a 338168.19 338168.19 0 1 1 -676336.37 0M 23669300.44 39527558.65 m -180637.35 0 a 180637.35 180637.35 0 1 1 361274.69 0a 180637.35 180637.35 0 1 1 -361274.69 0"/>
<path id="N" d="M 64133859.61 37448807.35 m -338168.19 0 a 338168.19 338168.19 0 1 1 676336.37 0a 338168.19 338168.19 0 1 1 -676336.37 0M 64133859.44 37448806.65 m -180637.35 0 a 180637.35 180637.35 0 1 1 361274.69 0a 180637.35 180637.35 0 1 1 -361274.69 0"/>
<path id="N" d="M 33957315.00 49034805.00 L 33286765.00 49034805.00 L 33286765.00 49705355.00 L 33957315.00 49705355.00 L 33957315.00 49034805.00  zM 33622040.44 49370078.65 m -180637.35 0 a 180637.35 180637.35 0 1 1 361274.69 0a 180637.35 180637.35 0 1 1 -361274.69 0"/>
<path id="N" d="M 57448817.61 17858263.35 m -338168.19 0 a 338168.19 338168.19 0 1 1 676336.37 0a 338168.19 338168.19 0 1 1 -676336.37 0M 57448817.44 17858262.65 m -180637.35 0 a 180637.35 180637.35 0 1 1 361274.69 0a 180637.35 180637.35 0 1 1 -361274.69 0"/>
<path id="N" d="M 33957315.00 45097805.00 L 33286765.00 45097805.00 L 33286765.00 45768355.00 L 33957315.00 45768355.00 L 33957315.00 45097805.00  zM 33622040.44 45433078.65 m -180637.35 0 a 180637.35 180637.35 0 1 1 361274.69 0a 180637.35 180637.35 0 1 1 -361274.69 0"/>
<path id="N" d="M 34606300.61 30653539.35 m -338168.19 0 a 338168.19 338168.19 0 1 1 676336.37 0a 338168.19 338168.19 0 1 1 -676336.37 0M 34606300.44 30653538.65 m -180637.35 0 a 180637.35 180637.35 0 1 1 361274.69 0a 180637.35 180637.35 0 1 1 -361274.69 0"/>
<path id="N" d="M 20763780.61 31653539.35 m -338168.19 0 a 338168.19 338168.19 0 1 1 676336.37 0a 338168.19 338168.19 0 1 1 -676336.37 0M 20763780.44 31653538.65 m -180637.35 0 a 180637.35 180637.35 0 1 1 361274.69 0a 180637.35 180637.35 0 1 1 -361274.69 0"/>
<path id="N" d="M 64133859.61 41448807.35 m -338168.19 0 a 338168.19 338168.19 0 1 1 676336.37 0a 338168.19 338168.19 0 1 1 -676336.37 0M 64133859.44 41448806.65 m -180637.35 0 a 180637.35 180637.35 0 1 1 361274.69 0a 180637.35 180637.35 0 1 1 -361274.69 0"/>
<path id="N" d="M 44448821.61 22748039.35 m -338168.19 0 a 338168.19 338168.19 0 1 1 676336.37 0a 338168.19 338168.19 0 1 1 -676336.37 0M 44448821.44 22748038.65 m -180637.35 0 a 180637.35 180637.35 0 1 1 361274.69 0a 180637.35 180637.35 0 1 1 -361274.69 0"/>
<path id="N" d="M 26669300.61 39527559.35 m -338168.19 0 a 338168.19 338168.19 0 1 1 676336.37 0a 338168.19 338168.19 0 1 1 -676336.37 0M 26669300.44 39527558.65 m -180637.35 0 a 180637.35 180637.35 0 1 1 361274.69 0a 180637.35 180637.35 0 1 1 -361274.69 0"/>
<path id="N" d="M 44448821.61 35669300.35 m -338168.19 0 a 338168.19 338168.19 0 1 1 676336.37 0a 338168.19 338168.19 0 1 1 -676336.37 0M 44448821.44 35669299.65 m -180637.35 0 a 180637.35 180637.35 0 1 1 361274.69 0a 180637.35 180637.35 0 1 1 -361274.69 0"/>
<path id="N" d="M 20795280.61 45433079.35 m -338168.19 0 a 338168.19 338168.19 0 1 1 676336.37 0a 338168.19 338168.19 0 1 1 -676336.37 0M 20795280.44 45433078.65 m -180637.35 0 a 180637.35 180637.35 0 1 1 361274.69 0a 180637.35 180637.35 0 1 1 -361274.69 0"/>
<path id="N" d="M 27669300.61 39527559.35 m -338168.19 0 a 338168.19 338168.19 0 1 1 676336.37 0a 338168.19 338168.19 0 1 1 -676336.37 0M 27669300.44 39527558.65 m -180637.35 0 a 180637.35 180637.35 0 1 1 361274.69 0a 180637.35 180637.35 0 1 1 -361274.69 0"/>
<path id="N" d="M 44784096.00 21412765.00 L 44113546.00 21412765.00 L 44113546.00 22083315.00 L 44784096.00 22083315.00 L 44784096.00 21412765.00  zM 44448821.44 21748038.65 m -180637.35 0 a 180637.35 180637.35 0 1 1 361274.69 0a 180637.35 180637.35 0 1 1 -361274.69 0"/>
<path id="N" d="M 59448817.61 17858263.35 m -338168.19 0 a 338168.19 338168.19 0 1 1 676336.37 0a 338168.19 338168.19 0 1 1 -676336.37 0M 59448817.44 17858262.65 m -180637.35 0 a 180637.35 180637.35 0 1 1 361274.69 0a 180637.35 180637.35 0 1 1 -361274.69 0"/>
<path id="N" d="M 31606300.61 31653539.35 m -338168.19 0 a 338168.19 338168.19 0 1 1 676336.37 0a 338168.19 338168.19 0 1 1 -676336.37 0M 31606300.44 31653538.65 m -180637.35 0 a 180637.35 180637.35 0 1 1 361274.69 0a 180637.35 180637.35 0 1 1 -361274.69 0"/>
</g>
</svg>
