<svg width="160.00000004mm" height="115.00000114mm" viewBox="0 0 62992126 45275591"  version="1.1" xmlns="http://www.w3.org/2000/svg" xmlns:xlink="http://www.w3.org/1999/xlink">
<desc>
Origin 10000000 10000000 Bound 10000000 10000000 62992126 45275591
</desc>
<g fill-rule="evenodd" fill="rgb(192, 212, 212)" stroke="black" stroke-width="1" transform="translate(0, 45275591) scale(1, -1) translate(-10000000, -10000000)">
<path id="N" d="M 19859445.00 31365983.00 L 19884420.00 31360433.00 L 19906620.00 31350998.00 L 19925490.00 31338233.00 L 19942695.00 31319918.00 L 19958790.00 31294388.00 L 19969335.00 31262753.00 L 19975440.00 31212803.00 L 19973220.00 31175063.00 L 19965450.00 31142873.00 L 19954350.00 31118453.00 L 19940475.00 31099583.00 L 19923270.00 31082933.00 L 19898295.00 31069058.00 L 19866105.00 31061843.00 A 95867.55 95867.55 0 0 0 19783965.00 31100693.00 L 19770090.00 31122338.00 L 19761210.00 31143983.00 L 19737900.00 31233893.00 L 19725690.00 31269413.00 L 19715145.00 31289393.00 L 19704045.00 31297718.00 L 19688505.00 31303268.00 L 19672410.00 31302713.00 L 19657980.00 31297163.00 L 19641330.00 31284398.00 L 19630785.00 31263863.00 L 19624680.00 31231673.00 L 19624125.00 31200593.00 L 19629675.00 31175618.00 L 19639665.00 31153418.00 L 19650210.00 31141763.00 L 19667415.00 31130663.00 L 19696830.00 31122338.00 L 19692945.00 31073498.00 L 19680735.00 31074608.00 L 19659090.00 31080158.00 L 19642995.00 31087373.00 L 19623570.00 31100138.00 L 19608030.00 31116233.00 L 19593600.00 31139543.00 L 19584165.00 31168403.00 L 19578615.00 31202813.00 L 19578615.00 31232228.00 L 19586940.00 31276073.00 A 117196.43 117196.43 0 0 0 19629120.00 31336013.00 L 19649100.00 31346003.00 L 19674075.00 31351553.00 L 19694055.00 31352108.00 L 19724025.00 31343783.00 L 19740120.00 31333793.00 L 19753440.00 31320473.00 L 19768425.00 31298828.00 L 19780635.00 31265528.00 L 19807830.00 31166738.00 L 19818375.00 31140653.00 L 19831140.00 31124003.00 L 19843905.00 31115123.00 L 19861665.00 31110683.00 L 19883310.00 31114013.00 L 19903290.00 31126223.00 L 19915500.00 31142318.00 L 19924380.00 31163408.00 L 19929375.00 31195598.00 L 19928265.00 31229453.00 L 19920495.00 31261088.00 L 19909395.00 31282733.00 L 19895520.00 31298828.00 L 19873875.00 31311593.00 L 19841130.00 31319363.00 L 19845570.00 31367093.00 L 19859445.00 31365983.00  z"/>
<path id="N" d="M 19799505.00 32137433.00 L 19836135.00 32131328.00 L 19873320.00 32119118.00 L 19897740.00 32105243.00 L 19911615.00 32094143.00 L 19933815.00 32071388.00 L 19951575.00 32045303.00 L 19965450.00 32009783.00 L 19972665.00 31976483.00 L 19975440.00 31947623.00 L 19973220.00 31911548.00 L 19966560.00 31880468.00 L 19954350.00 31845503.00 L 19939365.00 31818308.00 L 19915500.00 31782788.00 L 19772865.00 31782788.00 L 19772865.00 31945958.00 L 19818375.00 31945958.00 L 19818375.00 31832738.00 L 19890525.00 31832738.00 L 19896075.00 31839398.00 L 19915500.00 31876028.00 L 19924935.00 31904333.00 L 19929930.00 31943738.00 L 19927155.00 31972598.00 L 19917165.00 32008673.00 A 123868.54 123868.54 0 0 1 19865550.00 32067503.00 L 19833915.00 32079158.00 L 19793955.00 32085263.00 L 19760100.00 32085818.00 L 19732905.00 32081933.00 L 19701825.00 32073053.00 L 19671300.00 32056403.00 L 19654095.00 32041418.00 L 19636890.00 32015333.00 L 19625790.00 31986473.00 L 19621350.00 31949288.00 L 19624680.00 31916543.00 L 19631340.00 31894343.00 L 19644660.00 31871033.00 L 19658535.00 31856603.00 L 19680180.00 31843838.00 L 19704600.00 31834958.00 L 19692390.00 31788893.00 L 19666305.00 31797773.00 L 19639110.00 31811648.00 L 19620795.00 31826078.00 L 19606920.00 31843283.00 L 19594155.00 31865483.00 L 19584165.00 31897118.00 L 19578615.00 31931528.00 L 19579170.00 31967048.00 L 19587495.00 32011448.00 L 19598040.00 32040308.00 L 19611915.00 32063618.00 L 19635225.00 32088593.00 L 19662420.00 32108573.00 L 19692945.00 32123003.00 L 19711260.00 32128553.00 L 19745115.00 32135768.00 L 19778970.00 32138543.00 L 19799505.00 32137433.00  z"/>
<path id="N" d="M 19968780.00 31656803.00 L 19812825.00 31656803.00 L 19812825.00 31558568.00 L 19811160.00 31530263.00 L 19805055.00 31496408.00 L 19792845.00 31465883.00 L 19780635.00 31448123.00 L 19758990.00 31432028.00 L 19737900.00 31422593.00 L 19708485.00 31415933.00 L 19685730.00 31415378.00 L 19666860.00 31418708.00 L 19643550.00 31426478.00 L 19621350.00 31441463.00 L 19607475.00 31456448.00 L 19595265.00 31480868.00 L 19589715.00 31499738.00 L 19585830.00 31532483.00 L 19584720.00 31707863.00 L 19968780.00 31707863.00 L 19968780.00 31656803.00  zM 19767315.00 31656803.00 L 19630230.00 31656803.00 L 19630785.00 31536923.00 L 19634115.00 31511393.00 L 19643550.00 31492523.00 A 60683.68 60683.68 0 0 1 19689060.00 31467548.00 L 19709595.00 31468103.00 L 19728465.00 31473653.00 L 19745670.00 31484753.00 L 19755105.00 31496963.00 L 19762875.00 31519163.00 L 19767315.00 31558013.00 L 19767315.00 31656803.00  z"/>
<path id="N" d="M 25293913.00 32183676.00 L 25306394.00 32153543.00 L 25306394.00 31153543.00 L 25293913.00 31123410.00 L 25263780.00 31110929.00 L 20263780.00 31110929.00 L 20233647.00 31123410.00 L 20221166.00 31153543.00 L 20221166.00 32153543.00 L 20233647.00 32183676.00 L 20263780.00 32196157.00 L 25263780.00 32196157.00 L 25293913.00 32183676.00  zM 25221166.00 32110929.00 L 20306394.00 32110929.00 L 20306394.00 31196157.00 L 25221166.00 31196157.00 L 25221166.00 32110929.00  z"/>
</g>
</svg>
