<svg width="142.49999948mm" height="100.00000066mm" viewBox="0 0 56102362 39370079"  version="1.1" xmlns="http://www.w3.org/2000/svg" xmlns:xlink="http://www.w3.org/1999/xlink">
<desc>
Origin 10000000 10000000 Bound 8031496 10000000 56102362 39370079
</desc>
<g fill-rule="evenodd" fill="rgb(174, 78, 0)" stroke="black" stroke-width="1" transform="translate(0, 39370079) scale(1, -1) translate(-8031496, -10000000)">
<path id="N" d="M 62007875.61 19732283.35 m -338168.19 0 a 338168.19 338168.19 0 1 1 676336.37 0a 338168.19 338168.19 0 1 1 -676336.37 0M 62007875.44 19732282.65 m -180637.35 0 a 180637.35 180637.35 0 1 1 361274.69 0a 180637.35 180637.35 0 1 1 -361274.69 0"/>
<path id="N" d="M 20669291.61 21685038.35 m -338168.19 0 a 338168.19 338168.19 0 1 1 676336.37 0a 338168.19 338168.19 0 1 1 -676336.37 0M 20669291.44 21685037.65 m -180637.35 0 a 180637.35 180637.35 0 1 1 361274.69 0a 180637.35 180637.35 0 1 1 -361274.69 0"/>
<path id="N" d="M 17716535.61 14795275.35 m -338168.19 0 a 338168.19 338168.19 0 1 1 676336.37 0a 338168.19 338168.19 0 1 1 -676336.37 0M 17716535.44 14795274.65 m -180637.35 0 a 180637.35 180637.35 0 1 1 361274.69 0a 180637.35 180637.35 0 1 1 -361274.69 0"/>
<path id="N" d="M 44039370.61 13763779.35 m -338168.19 0 a 338168.19 338168.19 0 1 1 676336.37 0a 338168.19 338168.19 0 1 1 -676336.37 0M 44039370.44 13763778.65 m -180637.35 0 a 180637.35 180637.35 0 1 1 361274.69 0a 180637.35 180637.35 0 1 1 -361274.69 0"/>
<path id="N" d="M 17716535.61 13795275.35 m -338168.19 0 a 338168.19 338168.19 0 1 1 676336.37 0a 338168.19 338168.19 0 1 1 -676336.37 0M 17716535.44 13795274.65 m -180637.35 0 a 180637.35 180637.35 0 1 1 361274.69 0a 180637.35 180637.35 0 1 1 -361274.69 0"/>
<path id="N" d="M 62007875.61 44401575.35 m -338168.19 0 a 338168.19 338168.19 0 1 1 676336.37 0a 338168.19 338168.19 0 1 1 -676336.37 0M 62007875.44 44401574.65 m -180637.35 0 a 180637.35 180637.35 0 1 1 361274.69 0a 180637.35 180637.35 0 1 1 -361274.69 0"/>
<path id="N" d="M 62007875.61 18732283.35 m -338168.19 0 a 338168.19 338168.19 0 1 1 676336.37 0a 338168.19 338168.19 0 1 1 -676336.37 0M 62007875.44 18732282.65 m -180637.35 0 a 180637.35 180637.35 0 1 1 361274.69 0a 180637.35 180637.35 0 1 1 -361274.69 0"/>
<path id="N" d="M 20669291.61 20685038.35 m -338168.19 0 a 338168.19 338168.19 0 1 1 676336.37 0a 338168.19 338168.19 0 1 1 -676336.37 0M 20669291.44 20685037.65 m -180637.35 0 a 180637.35 180637.35 0 1 1 361274.69 0a 180637.35 180637.35 0 1 1 -361274.69 0"/>
<path id="N" d="M 16716535.61 14795275.35 m -338168.19 0 a 338168.19 338168.19 0 1 1 676336.37 0a 338168.19 338168.19 0 1 1 -676336.37 0M 16716535.44 14795274.65 m -180637.35 0 a 180637.35 180637.35 0 1 1 361274.69 0a 180637.35 180637.35 0 1 1 -361274.69 0"/>
<path id="N" d="M 45039370.61 14763779.35 m -338168.19 0 a 338168.19 338168.19 0 1 1 676336.37 0a 338168.19 338168.19 0 1 1 -676336.37 0M 45039370.44 14763778.65 m -180637.35 0 a 180637.35 180637.35 0 1 1 361274.69 0a 180637.35 180637.35 0 1 1 -361274.69 0"/>
<path id="N" d="M 13779528.61 33480314.35 m -338168.19 0 a 338168.19 338168.19 0 1 1 676336.37 0a 338168.19 338168.19 0 1 1 -676336.37 0M 13779528.44 33480313.65 m -180637.35 0 a 180637.35 180637.35 0 1 1 361274.69 0a 180637.35 180637.35 0 1 1 -361274.69 0"/>
<path id="N" d="M 20811024.61 46417322.35 m -338168.19 0 a 338168.19 338168.19 0 1 1 676336.37 0a 338168.19 338168.19 0 1 1 -676336.37 0M 20811024.44 46417321.65 m -180637.35 0 a 180637.35 180637.35 0 1 1 361274.69 0a 180637.35 180637.35 0 1 1 -361274.69 0"/>
<path id="N" d="M 41338583.61 39448819.35 m -338168.19 0 a 338168.19 338168.19 0 1 1 676336.37 0a 338168.19 338168.19 0 1 1 -676336.37 0M 41338583.44 39448818.65 m -180637.35 0 a 180637.35 180637.35 0 1 1 361274.69 0a 180637.35 180637.35 0 1 1 -361274.69 0"/>
<path id="N" d="M 20669291.61 22685038.35 m -338168.19 0 a 338168.19 338168.19 0 1 1 676336.37 0a 338168.19 338168.19 0 1 1 -676336.37 0M 20669291.44 22685037.65 m -180637.35 0 a 180637.35 180637.35 0 1 1 361274.69 0a 180637.35 180637.35 0 1 1 -361274.69 0"/>
<path id="N" d="M 17716535.61 33543306.35 m -338168.19 0 a 338168.19 338168.19 0 1 1 676336.37 0a 338168.19 338168.19 0 1 1 -676336.37 0M 17716535.44 33543305.65 m -180637.35 0 a 180637.35 180637.35 0 1 1 361274.69 0a 180637.35 180637.35 0 1 1 -361274.69 0"/>
<path id="N" d="M 14114803.00 37066300.00 L 13444253.00 37066300.00 L 13444253.00 37736850.00 L 14114803.00 37736850.00 L 14114803.00 37066300.00  zM 13779528.44 37401573.65 m -180637.35 0 a 180637.35 180637.35 0 1 1 361274.69 0a 180637.35 180637.35 0 1 1 -361274.69 0"/>
<path id="N" d="M 14114803.00 41987560.00 L 13444253.00 41987560.00 L 13444253.00 42658110.00 L 14114803.00 42658110.00 L 14114803.00 41987560.00  zM 13779528.44 42322833.65 m -180637.35 0 a 180637.35 180637.35 0 1 1 361274.69 0a 180637.35 180637.35 0 1 1 -361274.69 0"/>
<path id="N" d="M 18051810.00 12460001.00 L 17381260.00 12460001.00 L 17381260.00 13130551.00 L 18051810.00 13130551.00 L 18051810.00 12460001.00  zM 17716535.44 12795274.65 m -180637.35 0 a 180637.35 180637.35 0 1 1 361274.69 0a 180637.35 180637.35 0 1 1 -361274.69 0"/>
<path id="N" d="M 16716535.61 13795275.35 m -338168.19 0 a 338168.19 338168.19 0 1 1 676336.37 0a 338168.19 338168.19 0 1 1 -676336.37 0M 16716535.44 13795274.65 m -180637.35 0 a 180637.35 180637.35 0 1 1 361274.69 0a 180637.35 180637.35 0 1 1 -361274.69 0"/>
<path id="N" d="M 62343150.00 26239529.00 L 61672600.00 26239529.00 L 61672600.00 26910079.00 L 62343150.00 26910079.00 L 62343150.00 26239529.00  zM 62007875.44 26574802.65 m -180637.35 0 a 180637.35 180637.35 0 1 1 361274.69 0a 180637.35 180637.35 0 1 1 -361274.69 0"/>
<path id="N" d="M 41338583.61 40448819.35 m -338168.19 0 a 338168.19 338168.19 0 1 1 676336.37 0a 338168.19 338168.19 0 1 1 -676336.37 0M 41338583.44 40448818.65 m -180637.35 0 a 180637.35 180637.35 0 1 1 361274.69 0a 180637.35 180637.35 0 1 1 -361274.69 0"/>
<path id="N" d="M 41338583.61 38448819.35 m -338168.19 0 a 338168.19 338168.19 0 1 1 676336.37 0a 338168.19 338168.19 0 1 1 -676336.37 0M 41338583.44 38448818.65 m -180637.35 0 a 180637.35 180637.35 0 1 1 361274.69 0a 180637.35 180637.35 0 1 1 -361274.69 0"/>
<path id="N" d="M 62007875.61 35574803.35 m -338168.19 0 a 338168.19 338168.19 0 1 1 676336.37 0a 338168.19 338168.19 0 1 1 -676336.37 0M 62007875.44 35574802.65 m -180637.35 0 a 180637.35 180637.35 0 1 1 361274.69 0a 180637.35 180637.35 0 1 1 -361274.69 0"/>
<path id="N" d="M 62007875.61 40401575.35 m -338168.19 0 a 338168.19 338168.19 0 1 1 676336.37 0a 338168.19 338168.19 0 1 1 -676336.37 0M 62007875.44 40401574.65 m -180637.35 0 a 180637.35 180637.35 0 1 1 361274.69 0a 180637.35 180637.35 0 1 1 -361274.69 0"/>
<path id="N" d="M 62007875.61 39401575.35 m -338168.19 0 a 338168.19 338168.19 0 1 1 676336.37 0a 338168.19 338168.19 0 1 1 -676336.37 0M 62007875.44 39401574.65 m -180637.35 0 a 180637.35 180637.35 0 1 1 361274.69 0a 180637.35 180637.35 0 1 1 -361274.69 0"/>
<path id="N" d="M 62007875.61 41401575.35 m -338168.19 0 a 338168.19 338168.19 0 1 1 676336.37 0a 338168.19 338168.19 0 1 1 -676336.37 0M 62007875.44 41401574.65 m -180637.35 0 a 180637.35 180637.35 0 1 1 361274.69 0a 180637.35 180637.35 0 1 1 -361274.69 0"/>
<path id="N" d="M 41338583.61 35448819.35 m -338168.19 0 a 338168.19 338168.19 0 1 1 676336.37 0a 338168.19 338168.19 0 1 1 -676336.37 0M 41338583.44 35448818.65 m -180637.35 0 a 180637.35 180637.35 0 1 1 361274.69 0a 180637.35 180637.35 0 1 1 -361274.69 0"/>
<path id="N" d="M 62007875.61 21732283.35 m -338168.19 0 a 338168.19 338168.19 0 1 1 676336.37 0a 338168.19 338168.19 0 1 1 -676336.37 0M 62007875.44 21732282.65 m -180637.35 0 a 180637.35 180637.35 0 1 1 361274.69 0a 180637.35 180637.35 0 1 1 -361274.69 0"/>
<path id="N" d="M 62007875.61 27574803.35 m -338168.19 0 a 338168.19 338168.19 0 1 1 676336.37 0a 338168.19 338168.19 0 1 1 -676336.37 0M 62007875.44 27574802.65 m -180637.35 0 a 180637.35 180637.35 0 1 1 361274.69 0a 180637.35 180637.35 0 1 1 -361274.69 0"/>
<path id="N" d="M 41338583.61 22732283.35 m -338168.19 0 a 338168.19 338168.19 0 1 1 676336.37 0a 338168.19 338168.19 0 1 1 -676336.37 0M 41338583.44 22732282.65 m -180637.35 0 a 180637.35 180637.35 0 1 1 361274.69 0a 180637.35 180637.35 0 1 1 -361274.69 0"/>
<path id="N" d="M 62007875.61 38401575.35 m -338168.19 0 a 338168.19 338168.19 0 1 1 676336.37 0a 338168.19 338168.19 0 1 1 -676336.37 0M 62007875.44 38401574.65 m -180637.35 0 a 180637.35 180637.35 0 1 1 361274.69 0a 180637.35 180637.35 0 1 1 -361274.69 0"/>
<path id="N" d="M 41338583.61 36448819.35 m -338168.19 0 a 338168.19 338168.19 0 1 1 676336.37 0a 338168.19 338168.19 0 1 1 -676336.37 0M 41338583.44 36448818.65 m -180637.35 0 a 180637.35 180637.35 0 1 1 361274.69 0a 180637.35 180637.35 0 1 1 -361274.69 0"/>
<path id="N" d="M 41338583.61 26590551.35 m -338168.19 0 a 338168.19 338168.19 0 1 1 676336.37 0a 338168.19 338168.19 0 1 1 -676336.37 0M 41338583.44 26590550.65 m -180637.35 0 a 180637.35 180637.35 0 1 1 361274.69 0a 180637.35 180637.35 0 1 1 -361274.69 0"/>
<path id="N" d="M 41338583.61 32590551.35 m -338168.19 0 a 338168.19 338168.19 0 1 1 676336.37 0a 338168.19 338168.19 0 1 1 -676336.37 0M 41338583.44 32590550.65 m -180637.35 0 a 180637.35 180637.35 0 1 1 361274.69 0a 180637.35 180637.35 0 1 1 -361274.69 0"/>
<path id="N" d="M 62007875.61 32574803.35 m -338168.19 0 a 338168.19 338168.19 0 1 1 676336.37 0a 338168.19 338168.19 0 1 1 -676336.37 0M 62007875.44 32574802.65 m -180637.35 0 a 180637.35 180637.35 0 1 1 361274.69 0a 180637.35 180637.35 0 1 1 -361274.69 0"/>
<path id="N" d="M 17716535.61 34543306.35 m -338168.19 0 a 338168.19 338168.19 0 1 1 676336.37 0a 338168.19 338168.19 0 1 1 -676336.37 0M 17716535.44 34543305.65 m -180637.35 0 a 180637.35 180637.35 0 1 1 361274.69 0a 180637.35 180637.35 0 1 1 -361274.69 0"/>
<path id="N" d="M 55039370.61 13763779.35 m -338168.19 0 a 338168.19 338168.19 0 1 1 676336.37 0a 338168.19 338168.19 0 1 1 -676336.37 0M 55039370.44 13763778.65 m -180637.35 0 a 180637.35 180637.35 0 1 1 361274.69 0a 180637.35 180637.35 0 1 1 -361274.69 0"/>
<path id="N" d="M 58039370.61 13763779.35 m -338168.19 0 a 338168.19 338168.19 0 1 1 676336.37 0a 338168.19 338168.19 0 1 1 -676336.37 0M 58039370.44 13763778.65 m -180637.35 0 a 180637.35 180637.35 0 1 1 361274.69 0a 180637.35 180637.35 0 1 1 -361274.69 0"/>
<path id="N" d="M 57039370.61 13763779.35 m -338168.19 0 a 338168.19 338168.19 0 1 1 676336.37 0a 338168.19 338168.19 0 1 1 -676336.37 0M 57039370.44 13763778.65 m -180637.35 0 a 180637.35 180637.35 0 1 1 361274.69 0a 180637.35 180637.35 0 1 1 -361274.69 0"/>
<path id="N" d="M 62007875.61 33574803.35 m -338168.19 0 a 338168.19 338168.19 0 1 1 676336.37 0a 338168.19 338168.19 0 1 1 -676336.37 0M 62007875.44 33574802.65 m -180637.35 0 a 180637.35 180637.35 0 1 1 361274.69 0a 180637.35 180637.35 0 1 1 -361274.69 0"/>
<path id="N" d="M 62007875.61 31574803.35 m -338168.19 0 a 338168.19 338168.19 0 1 1 676336.37 0a 338168.19 338168.19 0 1 1 -676336.37 0M 62007875.44 31574802.65 m -180637.35 0 a 180637.35 180637.35 0 1 1 361274.69 0a 180637.35 180637.35 0 1 1 -361274.69 0"/>
<path id="N" d="M 41338583.61 30590551.35 m -338168.19 0 a 338168.19 338168.19 0 1 1 676336.37 0a 338168.19 338168.19 0 1 1 -676336.37 0M 41338583.44 30590550.65 m -180637.35 0 a 180637.35 180637.35 0 1 1 361274.69 0a 180637.35 180637.35 0 1 1 -361274.69 0"/>
<path id="N" d="M 62007875.61 34574803.35 m -338168.19 0 a 338168.19 338168.19 0 1 1 676336.37 0a 338168.19 338168.19 0 1 1 -676336.37 0M 62007875.44 34574802.65 m -180637.35 0 a 180637.35 180637.35 0 1 1 361274.69 0a 180637.35 180637.35 0 1 1 -361274.69 0"/>
<path id="N" d="M 41338583.61 31590551.35 m -338168.19 0 a 338168.19 338168.19 0 1 1 676336.37 0a 338168.19 338168.19 0 1 1 -676336.37 0M 41338583.44 31590550.65 m -180637.35 0 a 180637.35 180637.35 0 1 1 361274.69 0a 180637.35 180637.35 0 1 1 -361274.69 0"/>
<path id="N" d="M 62007875.61 30574803.35 m -338168.19 0 a 338168.19 338168.19 0 1 1 676336.37 0a 338168.19 338168.19 0 1 1 -676336.37 0M 62007875.44 30574802.65 m -180637.35 0 a 180637.35 180637.35 0 1 1 361274.69 0a 180637.35 180637.35 0 1 1 -361274.69 0"/>
<path id="N" d="M 17716535.61 30543306.35 m -338168.19 0 a 338168.19 338168.19 0 1 1 676336.37 0a 338168.19 338168.19 0 1 1 -676336.37 0M 17716535.44 30543305.65 m -180637.35 0 a 180637.35 180637.35 0 1 1 361274.69 0a 180637.35 180637.35 0 1 1 -361274.69 0"/>
<path id="N" d="M 41338583.61 23732283.35 m -338168.19 0 a 338168.19 338168.19 0 1 1 676336.37 0a 338168.19 338168.19 0 1 1 -676336.37 0M 41338583.44 23732282.65 m -180637.35 0 a 180637.35 180637.35 0 1 1 361274.69 0a 180637.35 180637.35 0 1 1 -361274.69 0"/>
<path id="N" d="M 62007875.61 29574803.35 m -338168.19 0 a 338168.19 338168.19 0 1 1 676336.37 0a 338168.19 338168.19 0 1 1 -676336.37 0M 62007875.44 29574802.65 m -180637.35 0 a 180637.35 180637.35 0 1 1 361274.69 0a 180637.35 180637.35 0 1 1 -361274.69 0"/>
<path id="N" d="M 41338583.61 29590551.35 m -338168.19 0 a 338168.19 338168.19 0 1 1 676336.37 0a 338168.19 338168.19 0 1 1 -676336.37 0M 41338583.44 29590550.65 m -180637.35 0 a 180637.35 180637.35 0 1 1 361274.69 0a 180637.35 180637.35 0 1 1 -361274.69 0"/>
<path id="N" d="M 41338583.61 28590551.35 m -338168.19 0 a 338168.19 338168.19 0 1 1 676336.37 0a 338168.19 338168.19 0 1 1 -676336.37 0M 41338583.44 28590550.65 m -180637.35 0 a 180637.35 180637.35 0 1 1 361274.69 0a 180637.35 180637.35 0 1 1 -361274.69 0"/>
<path id="N" d="M 62007875.61 22732283.35 m -338168.19 0 a 338168.19 338168.19 0 1 1 676336.37 0a 338168.19 338168.19 0 1 1 -676336.37 0M 62007875.44 22732282.65 m -180637.35 0 a 180637.35 180637.35 0 1 1 361274.69 0a 180637.35 180637.35 0 1 1 -361274.69 0"/>
<path id="N" d="M 62007875.61 23732283.35 m -338168.19 0 a 338168.19 338168.19 0 1 1 676336.37 0a 338168.19 338168.19 0 1 1 -676336.37 0M 62007875.44 23732282.65 m -180637.35 0 a 180637.35 180637.35 0 1 1 361274.69 0a 180637.35 180637.35 0 1 1 -361274.69 0"/>
<path id="N" d="M 17716535.61 29543306.35 m -338168.19 0 a 338168.19 338168.19 0 1 1 676336.37 0a 338168.19 338168.19 0 1 1 -676336.37 0M 17716535.44 29543305.65 m -180637.35 0 a 180637.35 180637.35 0 1 1 361274.69 0a 180637.35 180637.35 0 1 1 -361274.69 0"/>
<path id="N" d="M 41338583.61 21732283.35 m -338168.19 0 a 338168.19 338168.19 0 1 1 676336.37 0a 338168.19 338168.19 0 1 1 -676336.37 0M 41338583.44 21732282.65 m -180637.35 0 a 180637.35 180637.35 0 1 1 361274.69 0a 180637.35 180637.35 0 1 1 -361274.69 0"/>
<path id="N" d="M 41338583.61 27590551.35 m -338168.19 0 a 338168.19 338168.19 0 1 1 676336.37 0a 338168.19 338168.19 0 1 1 -676336.37 0M 41338583.44 27590550.65 m -180637.35 0 a 180637.35 180637.35 0 1 1 361274.69 0a 180637.35 180637.35 0 1 1 -361274.69 0"/>
<path id="N" d="M 62007875.61 28574803.35 m -338168.19 0 a 338168.19 338168.19 0 1 1 676336.37 0a 338168.19 338168.19 0 1 1 -676336.37 0M 62007875.44 28574802.65 m -180637.35 0 a 180637.35 180637.35 0 1 1 361274.69 0a 180637.35 180637.35 0 1 1 -361274.69 0"/>
<path id="N" d="M 56039370.61 13763779.35 m -338168.19 0 a 338168.19 338168.19 0 1 1 676336.37 0a 338168.19 338168.19 0 1 1 -676336.37 0M 56039370.44 13763778.65 m -180637.35 0 a 180637.35 180637.35 0 1 1 361274.69 0a 180637.35 180637.35 0 1 1 -361274.69 0"/>
<path id="N" d="M 54039370.61 14763779.35 m -338168.19 0 a 338168.19 338168.19 0 1 1 676336.37 0a 338168.19 338168.19 0 1 1 -676336.37 0M 54039370.44 14763778.65 m -180637.35 0 a 180637.35 180637.35 0 1 1 361274.69 0a 180637.35 180637.35 0 1 1 -361274.69 0"/>
<path id="N" d="M 53039370.61 14763779.35 m -338168.19 0 a 338168.19 338168.19 0 1 1 676336.37 0a 338168.19 338168.19 0 1 1 -676336.37 0M 53039370.44 14763778.65 m -180637.35 0 a 180637.35 180637.35 0 1 1 361274.69 0a 180637.35 180637.35 0 1 1 -361274.69 0"/>
<path id="N" d="M 49039370.61 14763779.35 m -338168.19 0 a 338168.19 338168.19 0 1 1 676336.37 0a 338168.19 338168.19 0 1 1 -676336.37 0M 49039370.44 14763778.65 m -180637.35 0 a 180637.35 180637.35 0 1 1 361274.69 0a 180637.35 180637.35 0 1 1 -361274.69 0"/>
<path id="N" d="M 48039370.61 14763779.35 m -338168.19 0 a 338168.19 338168.19 0 1 1 676336.37 0a 338168.19 338168.19 0 1 1 -676336.37 0M 48039370.44 14763778.65 m -180637.35 0 a 180637.35 180637.35 0 1 1 361274.69 0a 180637.35 180637.35 0 1 1 -361274.69 0"/>
<path id="N" d="M 51039370.61 14763779.35 m -338168.19 0 a 338168.19 338168.19 0 1 1 676336.37 0a 338168.19 338168.19 0 1 1 -676336.37 0M 51039370.44 14763778.65 m -180637.35 0 a 180637.35 180637.35 0 1 1 361274.69 0a 180637.35 180637.35 0 1 1 -361274.69 0"/>
<path id="N" d="M 56039370.61 14763779.35 m -338168.19 0 a 338168.19 338168.19 0 1 1 676336.37 0a 338168.19 338168.19 0 1 1 -676336.37 0M 56039370.44 14763778.65 m -180637.35 0 a 180637.35 180637.35 0 1 1 361274.69 0a 180637.35 180637.35 0 1 1 -361274.69 0"/>
<path id="N" d="M 55039370.61 14763779.35 m -338168.19 0 a 338168.19 338168.19 0 1 1 676336.37 0a 338168.19 338168.19 0 1 1 -676336.37 0M 55039370.44 14763778.65 m -180637.35 0 a 180637.35 180637.35 0 1 1 361274.69 0a 180637.35 180637.35 0 1 1 -361274.69 0"/>
<path id="N" d="M 52039370.61 14763779.35 m -338168.19 0 a 338168.19 338168.19 0 1 1 676336.37 0a 338168.19 338168.19 0 1 1 -676336.37 0M 52039370.44 14763778.65 m -180637.35 0 a 180637.35 180637.35 0 1 1 361274.69 0a 180637.35 180637.35 0 1 1 -361274.69 0"/>
<path id="N" d="M 50039370.61 14763779.35 m -338168.19 0 a 338168.19 338168.19 0 1 1 676336.37 0a 338168.19 338168.19 0 1 1 -676336.37 0M 50039370.44 14763778.65 m -180637.35 0 a 180637.35 180637.35 0 1 1 361274.69 0a 180637.35 180637.35 0 1 1 -361274.69 0"/>
<path id="N" d="M 49039370.61 13763779.35 m -338168.19 0 a 338168.19 338168.19 0 1 1 676336.37 0a 338168.19 338168.19 0 1 1 -676336.37 0M 49039370.44 13763778.65 m -180637.35 0 a 180637.35 180637.35 0 1 1 361274.69 0a 180637.35 180637.35 0 1 1 -361274.69 0"/>
<path id="N" d="M 43039370.61 13763779.35 m -338168.19 0 a 338168.19 338168.19 0 1 1 676336.37 0a 338168.19 338168.19 0 1 1 -676336.37 0M 43039370.44 13763778.65 m -180637.35 0 a 180637.35 180637.35 0 1 1 361274.69 0a 180637.35 180637.35 0 1 1 -361274.69 0"/>
<path id="N" d="M 46039370.61 13763779.35 m -338168.19 0 a 338168.19 338168.19 0 1 1 676336.37 0a 338168.19 338168.19 0 1 1 -676336.37 0M 46039370.44 13763778.65 m -180637.35 0 a 180637.35 180637.35 0 1 1 361274.69 0a 180637.35 180637.35 0 1 1 -361274.69 0"/>
<path id="N" d="M 60039370.61 13763779.35 m -338168.19 0 a 338168.19 338168.19 0 1 1 676336.37 0a 338168.19 338168.19 0 1 1 -676336.37 0M 60039370.44 13763778.65 m -180637.35 0 a 180637.35 180637.35 0 1 1 361274.69 0a 180637.35 180637.35 0 1 1 -361274.69 0"/>
<path id="N" d="M 43039370.61 14763779.35 m -338168.19 0 a 338168.19 338168.19 0 1 1 676336.37 0a 338168.19 338168.19 0 1 1 -676336.37 0M 43039370.44 14763778.65 m -180637.35 0 a 180637.35 180637.35 0 1 1 361274.69 0a 180637.35 180637.35 0 1 1 -361274.69 0"/>
<path id="N" d="M 48039370.61 13763779.35 m -338168.19 0 a 338168.19 338168.19 0 1 1 676336.37 0a 338168.19 338168.19 0 1 1 -676336.37 0M 48039370.44 13763778.65 m -180637.35 0 a 180637.35 180637.35 0 1 1 361274.69 0a 180637.35 180637.35 0 1 1 -361274.69 0"/>
<path id="N" d="M 54039370.61 13763779.35 m -338168.19 0 a 338168.19 338168.19 0 1 1 676336.37 0a 338168.19 338168.19 0 1 1 -676336.37 0M 54039370.44 13763778.65 m -180637.35 0 a 180637.35 180637.35 0 1 1 361274.69 0a 180637.35 180637.35 0 1 1 -361274.69 0"/>
<path id="N" d="M 50039370.61 13763779.35 m -338168.19 0 a 338168.19 338168.19 0 1 1 676336.37 0a 338168.19 338168.19 0 1 1 -676336.37 0M 50039370.44 13763778.65 m -180637.35 0 a 180637.35 180637.35 0 1 1 361274.69 0a 180637.35 180637.35 0 1 1 -361274.69 0"/>
<path id="N" d="M 53039370.61 13763779.35 m -338168.19 0 a 338168.19 338168.19 0 1 1 676336.37 0a 338168.19 338168.19 0 1 1 -676336.37 0M 53039370.44 13763778.65 m -180637.35 0 a 180637.35 180637.35 0 1 1 361274.69 0a 180637.35 180637.35 0 1 1 -361274.69 0"/>
<path id="N" d="M 47039370.61 14763779.35 m -338168.19 0 a 338168.19 338168.19 0 1 1 676336.37 0a 338168.19 338168.19 0 1 1 -676336.37 0M 47039370.44 14763778.65 m -180637.35 0 a 180637.35 180637.35 0 1 1 361274.69 0a 180637.35 180637.35 0 1 1 -361274.69 0"/>
<path id="N" d="M 52039370.61 13763779.35 m -338168.19 0 a 338168.19 338168.19 0 1 1 676336.37 0a 338168.19 338168.19 0 1 1 -676336.37 0M 52039370.44 13763778.65 m -180637.35 0 a 180637.35 180637.35 0 1 1 361274.69 0a 180637.35 180637.35 0 1 1 -361274.69 0"/>
<path id="N" d="M 51039370.61 13763779.35 m -338168.19 0 a 338168.19 338168.19 0 1 1 676336.37 0a 338168.19 338168.19 0 1 1 -676336.37 0M 51039370.44 13763778.65 m -180637.35 0 a 180637.35 180637.35 0 1 1 361274.69 0a 180637.35 180637.35 0 1 1 -361274.69 0"/>
<path id="N" d="M 46039370.61 14763779.35 m -338168.19 0 a 338168.19 338168.19 0 1 1 676336.37 0a 338168.19 338168.19 0 1 1 -676336.37 0M 46039370.44 14763778.65 m -180637.35 0 a 180637.35 180637.35 0 1 1 361274.69 0a 180637.35 180637.35 0 1 1 -361274.69 0"/>
<path id="N" d="M 41338583.61 20732283.35 m -338168.19 0 a 338168.19 338168.19 0 1 1 676336.37 0a 338168.19 338168.19 0 1 1 -676336.37 0M 41338583.44 20732282.65 m -180637.35 0 a 180637.35 180637.35 0 1 1 361274.69 0a 180637.35 180637.35 0 1 1 -361274.69 0"/>
<path id="N" d="M 41338583.61 17732283.35 m -338168.19 0 a 338168.19 338168.19 0 1 1 676336.37 0a 338168.19 338168.19 0 1 1 -676336.37 0M 41338583.44 17732282.65 m -180637.35 0 a 180637.35 180637.35 0 1 1 361274.69 0a 180637.35 180637.35 0 1 1 -361274.69 0"/>
<path id="N" d="M 58039370.61 14763779.35 m -338168.19 0 a 338168.19 338168.19 0 1 1 676336.37 0a 338168.19 338168.19 0 1 1 -676336.37 0M 58039370.44 14763778.65 m -180637.35 0 a 180637.35 180637.35 0 1 1 361274.69 0a 180637.35 180637.35 0 1 1 -361274.69 0"/>
<path id="N" d="M 41338583.61 19732283.35 m -338168.19 0 a 338168.19 338168.19 0 1 1 676336.37 0a 338168.19 338168.19 0 1 1 -676336.37 0M 41338583.44 19732282.65 m -180637.35 0 a 180637.35 180637.35 0 1 1 361274.69 0a 180637.35 180637.35 0 1 1 -361274.69 0"/>
<path id="N" d="M 41338583.61 18732283.35 m -338168.19 0 a 338168.19 338168.19 0 1 1 676336.37 0a 338168.19 338168.19 0 1 1 -676336.37 0M 41338583.44 18732282.65 m -180637.35 0 a 180637.35 180637.35 0 1 1 361274.69 0a 180637.35 180637.35 0 1 1 -361274.69 0"/>
<path id="N" d="M 62007875.61 20732283.35 m -338168.19 0 a 338168.19 338168.19 0 1 1 676336.37 0a 338168.19 338168.19 0 1 1 -676336.37 0M 62007875.44 20732282.65 m -180637.35 0 a 180637.35 180637.35 0 1 1 361274.69 0a 180637.35 180637.35 0 1 1 -361274.69 0"/>
<path id="N" d="M 57039370.61 14763779.35 m -338168.19 0 a 338168.19 338168.19 0 1 1 676336.37 0a 338168.19 338168.19 0 1 1 -676336.37 0M 57039370.44 14763778.65 m -180637.35 0 a 180637.35 180637.35 0 1 1 361274.69 0a 180637.35 180637.35 0 1 1 -361274.69 0"/>
<path id="N" d="M 59039370.61 14763779.35 m -338168.19 0 a 338168.19 338168.19 0 1 1 676336.37 0a 338168.19 338168.19 0 1 1 -676336.37 0M 59039370.44 14763778.65 m -180637.35 0 a 180637.35 180637.35 0 1 1 361274.69 0a 180637.35 180637.35 0 1 1 -361274.69 0"/>
<path id="N" d="M 44039370.61 14763779.35 m -338168.19 0 a 338168.19 338168.19 0 1 1 676336.37 0a 338168.19 338168.19 0 1 1 -676336.37 0M 44039370.44 14763778.65 m -180637.35 0 a 180637.35 180637.35 0 1 1 361274.69 0a 180637.35 180637.35 0 1 1 -361274.69 0"/>
<path id="N" d="M 16716535.61 15795275.35 m -338168.19 0 a 338168.19 338168.19 0 1 1 676336.37 0a 338168.19 338168.19 0 1 1 -676336.37 0M 16716535.44 15795274.65 m -180637.35 0 a 180637.35 180637.35 0 1 1 361274.69 0a 180637.35 180637.35 0 1 1 -361274.69 0"/>
<path id="N" d="M 59039370.61 13763779.35 m -338168.19 0 a 338168.19 338168.19 0 1 1 676336.37 0a 338168.19 338168.19 0 1 1 -676336.37 0M 59039370.44 13763778.65 m -180637.35 0 a 180637.35 180637.35 0 1 1 361274.69 0a 180637.35 180637.35 0 1 1 -361274.69 0"/>
<path id="N" d="M 41673858.00 25255277.00 L 41003308.00 25255277.00 L 41003308.00 25925827.00 L 41673858.00 25925827.00 L 41673858.00 25255277.00  zM 41338583.44 25590550.65 m -180637.35 0 a 180637.35 180637.35 0 1 1 361274.69 0a 180637.35 180637.35 0 1 1 -361274.69 0"/>
<path id="N" d="M 41673858.00 34113545.00 L 41003308.00 34113545.00 L 41003308.00 34784095.00 L 41673858.00 34784095.00 L 41673858.00 34113545.00  zM 41338583.44 34448818.65 m -180637.35 0 a 180637.35 180637.35 0 1 1 361274.69 0a 180637.35 180637.35 0 1 1 -361274.69 0"/>
<path id="N" d="M 18051810.00 28208032.00 L 17381260.00 28208032.00 L 17381260.00 28878582.00 L 18051810.00 28878582.00 L 18051810.00 28208032.00  zM 17716535.44 28543305.65 m -180637.35 0 a 180637.35 180637.35 0 1 1 361274.69 0a 180637.35 180637.35 0 1 1 -361274.69 0"/>
<path id="N" d="M 21004566.00 19349764.00 L 20334016.00 19349764.00 L 20334016.00 20020314.00 L 21004566.00 20020314.00 L 21004566.00 19349764.00  zM 20669291.44 19685037.65 m -180637.35 0 a 180637.35 180637.35 0 1 1 361274.69 0a 180637.35 180637.35 0 1 1 -361274.69 0"/>
<path id="N" d="M 62343150.00 37066301.00 L 61672600.00 37066301.00 L 61672600.00 37736851.00 L 62343150.00 37736851.00 L 62343150.00 37066301.00  zM 62007875.44 37401574.65 m -180637.35 0 a 180637.35 180637.35 0 1 1 361274.69 0a 180637.35 180637.35 0 1 1 -361274.69 0"/>
<path id="N" d="M 41673858.00 16397009.00 L 41003308.00 16397009.00 L 41003308.00 17067559.00 L 41673858.00 17067559.00 L 41673858.00 16397009.00  zM 41338583.44 16732282.65 m -180637.35 0 a 180637.35 180637.35 0 1 1 361274.69 0a 180637.35 180637.35 0 1 1 -361274.69 0"/>
<path id="N" d="M 60374645.00 14428505.00 L 59704095.00 14428505.00 L 59704095.00 15099055.00 L 60374645.00 15099055.00 L 60374645.00 14428505.00  zM 60039370.44 14763778.65 m -180637.35 0 a 180637.35 180637.35 0 1 1 361274.69 0a 180637.35 180637.35 0 1 1 -361274.69 0"/>
<path id="N" d="M 62007875.61 43401575.35 m -338168.19 0 a 338168.19 338168.19 0 1 1 676336.37 0a 338168.19 338168.19 0 1 1 -676336.37 0M 62007875.44 43401574.65 m -180637.35 0 a 180637.35 180637.35 0 1 1 361274.69 0a 180637.35 180637.35 0 1 1 -361274.69 0"/>
<path id="N" d="M 13779528.61 39401574.35 m -338168.19 0 a 338168.19 338168.19 0 1 1 676336.37 0a 338168.19 338168.19 0 1 1 -676336.37 0M 13779528.44 39401573.65 m -180637.35 0 a 180637.35 180637.35 0 1 1 361274.69 0a 180637.35 180637.35 0 1 1 -361274.69 0"/>
<path id="N" d="M 41338583.61 41448819.35 m -338168.19 0 a 338168.19 338168.19 0 1 1 676336.37 0a 338168.19 338168.19 0 1 1 -676336.37 0M 41338583.44 41448818.65 m -180637.35 0 a 180637.35 180637.35 0 1 1 361274.69 0a 180637.35 180637.35 0 1 1 -361274.69 0"/>
<path id="N" d="M 13779528.61 43322834.35 m -338168.19 0 a 338168.19 338168.19 0 1 1 676336.37 0a 338168.19 338168.19 0 1 1 -676336.37 0M 13779528.44 43322833.65 m -180637.35 0 a 180637.35 180637.35 0 1 1 361274.69 0a 180637.35 180637.35 0 1 1 -361274.69 0"/>
<path id="N" d="M 13779528.61 38401574.35 m -338168.19 0 a 338168.19 338168.19 0 1 1 676336.37 0a 338168.19 338168.19 0 1 1 -676336.37 0M 13779528.44 38401573.65 m -180637.35 0 a 180637.35 180637.35 0 1 1 361274.69 0a 180637.35 180637.35 0 1 1 -361274.69 0"/>
<path id="N" d="M 17716535.61 35543306.35 m -338168.19 0 a 338168.19 338168.19 0 1 1 676336.37 0a 338168.19 338168.19 0 1 1 -676336.37 0M 17716535.44 35543305.65 m -180637.35 0 a 180637.35 180637.35 0 1 1 361274.69 0a 180637.35 180637.35 0 1 1 -361274.69 0"/>
<path id="N" d="M 22146299.00 46082048.00 L 21475749.00 46082048.00 L 21475749.00 46752598.00 L 22146299.00 46752598.00 L 22146299.00 46082048.00  zM 21811024.44 46417321.65 m -180637.35 0 a 180637.35 180637.35 0 1 1 361274.69 0a 180637.35 180637.35 0 1 1 -361274.69 0"/>
<path id="N" d="M 20669291.61 23685038.35 m -338168.19 0 a 338168.19 338168.19 0 1 1 676336.37 0a 338168.19 338168.19 0 1 1 -676336.37 0M 20669291.44 23685037.65 m -180637.35 0 a 180637.35 180637.35 0 1 1 361274.69 0a 180637.35 180637.35 0 1 1 -361274.69 0"/>
<path id="N" d="M 41338583.61 37448819.35 m -338168.19 0 a 338168.19 338168.19 0 1 1 676336.37 0a 338168.19 338168.19 0 1 1 -676336.37 0M 41338583.44 37448818.65 m -180637.35 0 a 180637.35 180637.35 0 1 1 361274.69 0a 180637.35 180637.35 0 1 1 -361274.69 0"/>
<path id="N" d="M 16716535.61 12795275.35 m -338168.19 0 a 338168.19 338168.19 0 1 1 676336.37 0a 338168.19 338168.19 0 1 1 -676336.37 0M 16716535.44 12795274.65 m -180637.35 0 a 180637.35 180637.35 0 1 1 361274.69 0a 180637.35 180637.35 0 1 1 -361274.69 0"/>
<path id="N" d="M 62007875.61 17732283.35 m -338168.19 0 a 338168.19 338168.19 0 1 1 676336.37 0a 338168.19 338168.19 0 1 1 -676336.37 0M 62007875.44 17732282.65 m -180637.35 0 a 180637.35 180637.35 0 1 1 361274.69 0a 180637.35 180637.35 0 1 1 -361274.69 0"/>
<path id="N" d="M 17716535.61 32543306.35 m -338168.19 0 a 338168.19 338168.19 0 1 1 676336.37 0a 338168.19 338168.19 0 1 1 -676336.37 0M 17716535.44 32543305.65 m -180637.35 0 a 180637.35 180637.35 0 1 1 361274.69 0a 180637.35 180637.35 0 1 1 -361274.69 0"/>
<path id="N" d="M 47039370.61 13763779.35 m -338168.19 0 a 338168.19 338168.19 0 1 1 676336.37 0a 338168.19 338168.19 0 1 1 -676336.37 0M 47039370.44 13763778.65 m -180637.35 0 a 180637.35 180637.35 0 1 1 361274.69 0a 180637.35 180637.35 0 1 1 -361274.69 0"/>
<path id="N" d="M 14114803.00 32145040.00 L 13444253.00 32145040.00 L 13444253.00 32815590.00 L 14114803.00 32815590.00 L 14114803.00 32145040.00  zM 13779528.44 32480313.65 m -180637.35 0 a 180637.35 180637.35 0 1 1 361274.69 0a 180637.35 180637.35 0 1 1 -361274.69 0"/>
<path id="N" d="M 62007875.61 42401575.35 m -338168.19 0 a 338168.19 338168.19 0 1 1 676336.37 0a 338168.19 338168.19 0 1 1 -676336.37 0M 62007875.44 42401574.65 m -180637.35 0 a 180637.35 180637.35 0 1 1 361274.69 0a 180637.35 180637.35 0 1 1 -361274.69 0"/>
<path id="N" d="M 13779528.61 44322834.35 m -338168.19 0 a 338168.19 338168.19 0 1 1 676336.37 0a 338168.19 338168.19 0 1 1 -676336.37 0M 13779528.44 44322833.65 m -180637.35 0 a 180637.35 180637.35 0 1 1 361274.69 0a 180637.35 180637.35 0 1 1 -361274.69 0"/>
<path id="N" d="M 17716535.61 31543306.35 m -338168.19 0 a 338168.19 338168.19 0 1 1 676336.37 0a 338168.19 338168.19 0 1 1 -676336.37 0M 17716535.44 31543305.65 m -180637.35 0 a 180637.35 180637.35 0 1 1 361274.69 0a 180637.35 180637.35 0 1 1 -361274.69 0"/>
<path id="N" d="M 62343150.00 16397009.00 L 61672600.00 16397009.00 L 61672600.00 17067559.00 L 62343150.00 17067559.00 L 62343150.00 16397009.00  zM 62007875.44 16732282.65 m -180637.35 0 a 180637.35 180637.35 0 1 1 361274.69 0a 180637.35 180637.35 0 1 1 -361274.69 0"/>
<path id="N" d="M 45039370.61 13763779.35 m -338168.19 0 a 338168.19 338168.19 0 1 1 676336.37 0a 338168.19 338168.19 0 1 1 -676336.37 0M 45039370.44 13763778.65 m -180637.35 0 a 180637.35 180637.35 0 1 1 361274.69 0a 180637.35 180637.35 0 1 1 -361274.69 0"/>
<path id="N" d="M 17716535.61 15795275.35 m -338168.19 0 a 338168.19 338168.19 0 1 1 676336.37 0a 338168.19 338168.19 0 1 1 -676336.37 0M 17716535.44 15795274.65 m -180637.35 0 a 180637.35 180637.35 0 1 1 361274.69 0a 180637.35 180637.35 0 1 1 -361274.69 0"/>
</g>
</svg>
