<svg width="160.00000004mm" height="115.00000114mm" viewBox="0 0 62992126 45275591"  version="1.1" xmlns="http://www.w3.org/2000/svg" xmlns:xlink="http://www.w3.org/1999/xlink">
<desc>
Origin 10000000 10000000 Bound 10000000 10000000 62992126 45275591
</desc>
<g fill-rule="evenodd" fill="rgb(40, 190, 190)" stroke="black" stroke-width="1" transform="translate(0, 45275591) scale(1, -1) translate(-10000000, -10000000)">
<path id="N" d="M 64133857.35 24748033.57 m -297829.90 0 a 297829.90 297829.90 0 1 1 595659.80 0a 297829.90 297829.90 0 1 1 -595659.80 0M 64133860.44 24748038.65 m -180637.35 0 a 180637.35 180637.35 0 1 1 361274.69 0a 180637.35 180637.35 0 1 1 -361274.69 0"/>
<path id="N" d="M 22763777.35 31653533.57 m -297829.90 0 a 297829.90 297829.90 0 1 1 595659.80 0a 297829.90 297829.90 0 1 1 -595659.80 0M 22763780.44 31653538.65 m -180637.35 0 a 180637.35 180637.35 0 1 1 361274.69 0a 180637.35 180637.35 0 1 1 -361274.69 0"/>
<path id="N" d="M 32606297.35 31653533.57 m -297829.90 0 a 297829.90 297829.90 0 1 1 595659.80 0a 297829.90 297829.90 0 1 1 -595659.80 0M 32606300.44 31653538.65 m -180637.35 0 a 180637.35 180637.35 0 1 1 361274.69 0a 180637.35 180637.35 0 1 1 -361274.69 0"/>
<path id="N" d="M 48133857.35 18874013.57 m -297829.90 0 a 297829.90 297829.90 0 1 1 595659.80 0a 297829.90 297829.90 0 1 1 -595659.80 0M 48133860.44 18874018.65 m -180637.35 0 a 180637.35 180637.35 0 1 1 361274.69 0a 180637.35 180637.35 0 1 1 -361274.69 0"/>
<path id="N" d="M 64133857.35 23748033.57 m -297829.90 0 a 297829.90 297829.90 0 1 1 595659.80 0a 297829.90 297829.90 0 1 1 -595659.80 0M 64133860.44 23748038.65 m -180637.35 0 a 180637.35 180637.35 0 1 1 361274.69 0a 180637.35 180637.35 0 1 1 -361274.69 0"/>
<path id="N" d="M 23763777.35 31653533.57 m -297829.90 0 a 297829.90 297829.90 0 1 1 595659.80 0a 297829.90 297829.90 0 1 1 -595659.80 0M 23763780.44 31653538.65 m -180637.35 0 a 180637.35 180637.35 0 1 1 361274.69 0a 180637.35 180637.35 0 1 1 -361274.69 0"/>
<path id="N" d="M 64133850.01 37669281.86 m -297844.08 0 a 297844.08 297844.08 0 1 1 595688.15 0a 297844.08 297844.08 0 1 1 -595688.15 0M 64133860.44 37669299.65 m -180637.35 0 a 180637.35 180637.35 0 1 1 361274.69 0a 180637.35 180637.35 0 1 1 -361274.69 0"/>
<path id="N" d="M 33606297.35 31653533.57 m -297829.90 0 a 297829.90 297829.90 0 1 1 595659.80 0a 297829.90 297829.90 0 1 1 -595659.80 0M 33606300.44 31653538.65 m -180637.35 0 a 180637.35 180637.35 0 1 1 361274.69 0a 180637.35 180637.35 0 1 1 -361274.69 0"/>
<path id="N" d="M 32606297.35 30653533.57 m -297829.90 0 a 297829.90 297829.90 0 1 1 595659.80 0a 297829.90 297829.90 0 1 1 -595659.80 0M 32606300.44 30653538.65 m -180637.35 0 a 180637.35 180637.35 0 1 1 361274.69 0a 180637.35 180637.35 0 1 1 -361274.69 0"/>
<path id="N" d="M 49133857.35 17874013.57 m -297829.90 0 a 297829.90 297829.90 0 1 1 595659.80 0a 297829.90 297829.90 0 1 1 -595659.80 0M 49133860.44 17874018.65 m -180637.35 0 a 180637.35 180637.35 0 1 1 361274.69 0a 180637.35 180637.35 0 1 1 -361274.69 0"/>
<path id="N" d="M 21763777.35 31653533.57 m -297829.90 0 a 297829.90 297829.90 0 1 1 595659.80 0a 297829.90 297829.90 0 1 1 -595659.80 0M 21763780.44 31653538.65 m -180637.35 0 a 180637.35 180637.35 0 1 1 361274.69 0a 180637.35 180637.35 0 1 1 -361274.69 0"/>
<path id="N" d="M 32622037.35 45433073.57 m -297829.90 0 a 297829.90 297829.90 0 1 1 595659.80 0a 297829.90 297829.90 0 1 1 -595659.80 0M 32622040.44 45433078.65 m -180637.35 0 a 180637.35 180637.35 0 1 1 361274.69 0a 180637.35 180637.35 0 1 1 -361274.69 0"/>
<path id="N" d="M 32622037.35 49370073.57 m -297829.90 0 a 297829.90 297829.90 0 1 1 595659.80 0a 297829.90 297829.90 0 1 1 -595659.80 0M 32622040.44 49370078.65 m -180637.35 0 a 180637.35 180637.35 0 1 1 361274.69 0a 180637.35 180637.35 0 1 1 -361274.69 0"/>
<path id="N" d="M 44448817.35 40433053.57 m -297829.90 0 a 297829.90 297829.90 0 1 1 595659.80 0a 297829.90 297829.90 0 1 1 -595659.80 0M 44448820.44 40433058.65 m -180637.35 0 a 180637.35 180637.35 0 1 1 361274.69 0a 180637.35 180637.35 0 1 1 -361274.69 0"/>
<path id="N" d="M 25669297.35 39527553.57 m -297829.90 0 a 297829.90 297829.90 0 1 1 595659.80 0a 297829.90 297829.90 0 1 1 -595659.80 0M 25669300.44 39527558.65 m -180637.35 0 a 180637.35 180637.35 0 1 1 361274.69 0a 180637.35 180637.35 0 1 1 -361274.69 0"/>
<path id="N" d="M 23090555.00 45137805.00 L 22500005.00 45137805.00 L 22500005.00 45728355.00 L 23090555.00 45728355.00 L 23090555.00 45137805.00  zM 22795280.44 45433078.65 m -180637.35 0 a 180637.35 180637.35 0 1 1 361274.69 0a 180637.35 180637.35 0 1 1 -361274.69 0"/>
<path id="N" d="M 34901575.00 31358265.00 L 34311025.00 31358265.00 L 34311025.00 31948815.00 L 34901575.00 31948815.00 L 34901575.00 31358265.00  zM 34606300.44 31653538.65 m -180637.35 0 a 180637.35 180637.35 0 1 1 361274.69 0a 180637.35 180637.35 0 1 1 -361274.69 0"/>
<path id="N" d="M 23090555.00 49074805.00 L 22500005.00 49074805.00 L 22500005.00 49665355.00 L 23090555.00 49665355.00 L 23090555.00 49074805.00  zM 22795280.44 49370078.65 m -180637.35 0 a 180637.35 180637.35 0 1 1 361274.69 0a 180637.35 180637.35 0 1 1 -361274.69 0"/>
<path id="N" d="M 33606297.35 30653533.57 m -297829.90 0 a 297829.90 297829.90 0 1 1 595659.80 0a 297829.90 297829.90 0 1 1 -595659.80 0M 33606300.44 30653538.65 m -180637.35 0 a 180637.35 180637.35 0 1 1 361274.69 0a 180637.35 180637.35 0 1 1 -361274.69 0"/>
<path id="N" d="M 64429135.00 39232286.00 L 63838585.00 39232286.00 L 63838585.00 39822836.00 L 64429135.00 39822836.00 L 64429135.00 39232286.00  zM 64133860.44 39527559.65 m -180637.35 0 a 180637.35 180637.35 0 1 1 361274.69 0a 180637.35 180637.35 0 1 1 -361274.69 0"/>
<path id="N" d="M 44448817.35 43433053.57 m -297829.90 0 a 297829.90 297829.90 0 1 1 595659.80 0a 297829.90 297829.90 0 1 1 -595659.80 0M 44448820.44 43433058.65 m -180637.35 0 a 180637.35 180637.35 0 1 1 361274.69 0a 180637.35 180637.35 0 1 1 -361274.69 0"/>
<path id="N" d="M 44448817.35 33574813.57 m -297829.90 0 a 297829.90 297829.90 0 1 1 595659.80 0a 297829.90 297829.90 0 1 1 -595659.80 0M 44448820.44 33574818.65 m -180637.35 0 a 180637.35 180637.35 0 1 1 361274.69 0a 180637.35 180637.35 0 1 1 -361274.69 0"/>
<path id="N" d="M 24669297.35 39527553.57 m -297829.90 0 a 297829.90 297829.90 0 1 1 595659.80 0a 297829.90 297829.90 0 1 1 -595659.80 0M 24669300.44 39527558.65 m -180637.35 0 a 180637.35 180637.35 0 1 1 361274.69 0a 180637.35 180637.35 0 1 1 -361274.69 0"/>
<path id="N" d="M 44448817.35 32574813.57 m -297829.90 0 a 297829.90 297829.90 0 1 1 595659.80 0a 297829.90 297829.90 0 1 1 -595659.80 0M 44448820.44 32574818.65 m -180637.35 0 a 180637.35 180637.35 0 1 1 361274.69 0a 180637.35 180637.35 0 1 1 -361274.69 0"/>
<path id="N" d="M 31606297.35 30653533.57 m -297829.90 0 a 297829.90 297829.90 0 1 1 595659.80 0a 297829.90 297829.90 0 1 1 -595659.80 0M 31606300.44 30653538.65 m -180637.35 0 a 180637.35 180637.35 0 1 1 361274.69 0a 180637.35 180637.35 0 1 1 -361274.69 0"/>
<path id="N" d="M 44448817.35 44433053.57 m -297829.90 0 a 297829.90 297829.90 0 1 1 595659.80 0a 297829.90 297829.90 0 1 1 -595659.80 0M 44448820.44 44433058.65 m -180637.35 0 a 180637.35 180637.35 0 1 1 361274.69 0a 180637.35 180637.35 0 1 1 -361274.69 0"/>
<path id="N" d="M 28669297.35 39527553.57 m -297829.90 0 a 297829.90 297829.90 0 1 1 595659.80 0a 297829.90 297829.90 0 1 1 -595659.80 0M 28669300.44 39527558.65 m -180637.35 0 a 180637.35 180637.35 0 1 1 361274.69 0a 180637.35 180637.35 0 1 1 -361274.69 0"/>
<path id="N" d="M 44448817.35 39433053.57 m -297829.90 0 a 297829.90 297829.90 0 1 1 595659.80 0a 297829.90 297829.90 0 1 1 -595659.80 0M 44448820.44 39433058.65 m -180637.35 0 a 180637.35 180637.35 0 1 1 361274.69 0a 180637.35 180637.35 0 1 1 -361274.69 0"/>
<path id="N" d="M 44448817.35 24716533.57 m -297829.90 0 a 297829.90 297829.90 0 1 1 595659.80 0a 297829.90 297829.90 0 1 1 -595659.80 0M 44448820.44 24716538.65 m -180637.35 0 a 180637.35 180637.35 0 1 1 361274.69 0a 180637.35 180637.35 0 1 1 -361274.69 0"/>
<path id="N" d="M 44448817.35 25716533.57 m -297829.90 0 a 297829.90 297829.90 0 1 1 595659.80 0a 297829.90 297829.90 0 1 1 -595659.80 0M 44448820.44 25716538.65 m -180637.35 0 a 180637.35 180637.35 0 1 1 361274.69 0a 180637.35 180637.35 0 1 1 -361274.69 0"/>
<path id="N" d="M 29669297.35 39527553.57 m -297829.90 0 a 297829.90 297829.90 0 1 1 595659.80 0a 297829.90 297829.90 0 1 1 -595659.80 0M 29669300.44 39527558.65 m -180637.35 0 a 180637.35 180637.35 0 1 1 361274.69 0a 180637.35 180637.35 0 1 1 -361274.69 0"/>
<path id="N" d="M 44448817.35 34574813.57 m -297829.90 0 a 297829.90 297829.90 0 1 1 595659.80 0a 297829.90 297829.90 0 1 1 -595659.80 0M 44448820.44 34574818.65 m -180637.35 0 a 180637.35 180637.35 0 1 1 361274.69 0a 180637.35 180637.35 0 1 1 -361274.69 0"/>
<path id="N" d="M 44448817.35 35574813.57 m -297829.90 0 a 297829.90 297829.90 0 1 1 595659.80 0a 297829.90 297829.90 0 1 1 -595659.80 0M 44448820.44 35574818.65 m -180637.35 0 a 180637.35 180637.35 0 1 1 361274.69 0a 180637.35 180637.35 0 1 1 -361274.69 0"/>
<path id="N" d="M 60133857.35 17874013.57 m -297829.90 0 a 297829.90 297829.90 0 1 1 595659.80 0a 297829.90 297829.90 0 1 1 -595659.80 0M 60133860.44 17874018.65 m -180637.35 0 a 180637.35 180637.35 0 1 1 361274.69 0a 180637.35 180637.35 0 1 1 -361274.69 0"/>
<path id="N" d="M 61133857.35 17874013.57 m -297829.90 0 a 297829.90 297829.90 0 1 1 595659.80 0a 297829.90 297829.90 0 1 1 -595659.80 0M 61133860.44 17874018.65 m -180637.35 0 a 180637.35 180637.35 0 1 1 361274.69 0a 180637.35 180637.35 0 1 1 -361274.69 0"/>
<path id="N" d="M 62133857.35 17874013.57 m -297829.90 0 a 297829.90 297829.90 0 1 1 595659.80 0a 297829.90 297829.90 0 1 1 -595659.80 0M 62133860.44 17874018.65 m -180637.35 0 a 180637.35 180637.35 0 1 1 361274.69 0a 180637.35 180637.35 0 1 1 -361274.69 0"/>
<path id="N" d="M 48133857.35 17874013.57 m -297829.90 0 a 297829.90 297829.90 0 1 1 595659.80 0a 297829.90 297829.90 0 1 1 -595659.80 0M 48133860.44 17874018.65 m -180637.35 0 a 180637.35 180637.35 0 1 1 361274.69 0a 180637.35 180637.35 0 1 1 -361274.69 0"/>
<path id="N" d="M 50133857.35 17874013.57 m -297829.90 0 a 297829.90 297829.90 0 1 1 595659.80 0a 297829.90 297829.90 0 1 1 -595659.80 0M 50133860.44 17874018.65 m -180637.35 0 a 180637.35 180637.35 0 1 1 361274.69 0a 180637.35 180637.35 0 1 1 -361274.69 0"/>
<path id="N" d="M 55133857.35 17874013.57 m -297829.90 0 a 297829.90 297829.90 0 1 1 595659.80 0a 297829.90 297829.90 0 1 1 -595659.80 0M 55133860.44 17874018.65 m -180637.35 0 a 180637.35 180637.35 0 1 1 361274.69 0a 180637.35 180637.35 0 1 1 -361274.69 0"/>
<path id="N" d="M 59133857.35 17874013.57 m -297829.90 0 a 297829.90 297829.90 0 1 1 595659.80 0a 297829.90 297829.90 0 1 1 -595659.80 0M 59133860.44 17874018.65 m -180637.35 0 a 180637.35 180637.35 0 1 1 361274.69 0a 180637.35 180637.35 0 1 1 -361274.69 0"/>
<path id="N" d="M 44448817.35 20716533.57 m -297829.90 0 a 297829.90 297829.90 0 1 1 595659.80 0a 297829.90 297829.90 0 1 1 -595659.80 0M 44448820.44 20716538.65 m -180637.35 0 a 180637.35 180637.35 0 1 1 361274.69 0a 180637.35 180637.35 0 1 1 -361274.69 0"/>
<path id="N" d="M 44448817.35 31574813.57 m -297829.90 0 a 297829.90 297829.90 0 1 1 595659.80 0a 297829.90 297829.90 0 1 1 -595659.80 0M 44448820.44 31574818.65 m -180637.35 0 a 180637.35 180637.35 0 1 1 361274.69 0a 180637.35 180637.35 0 1 1 -361274.69 0"/>
<path id="N" d="M 44448817.35 41433053.57 m -297829.90 0 a 297829.90 297829.90 0 1 1 595659.80 0a 297829.90 297829.90 0 1 1 -595659.80 0M 44448820.44 41433058.65 m -180637.35 0 a 180637.35 180637.35 0 1 1 361274.69 0a 180637.35 180637.35 0 1 1 -361274.69 0"/>
<path id="N" d="M 56133857.35 17874013.57 m -297829.90 0 a 297829.90 297829.90 0 1 1 595659.80 0a 297829.90 297829.90 0 1 1 -595659.80 0M 56133860.44 17874018.65 m -180637.35 0 a 180637.35 180637.35 0 1 1 361274.69 0a 180637.35 180637.35 0 1 1 -361274.69 0"/>
<path id="N" d="M 57133857.35 17874013.57 m -297829.90 0 a 297829.90 297829.90 0 1 1 595659.80 0a 297829.90 297829.90 0 1 1 -595659.80 0M 57133860.44 17874018.65 m -180637.35 0 a 180637.35 180637.35 0 1 1 361274.69 0a 180637.35 180637.35 0 1 1 -361274.69 0"/>
<path id="N" d="M 58133857.35 17874013.57 m -297829.90 0 a 297829.90 297829.90 0 1 1 595659.80 0a 297829.90 297829.90 0 1 1 -595659.80 0M 58133860.44 17874018.65 m -180637.35 0 a 180637.35 180637.35 0 1 1 361274.69 0a 180637.35 180637.35 0 1 1 -361274.69 0"/>
<path id="N" d="M 64133857.35 25748033.57 m -297829.90 0 a 297829.90 297829.90 0 1 1 595659.80 0a 297829.90 297829.90 0 1 1 -595659.80 0M 64133860.44 25748038.65 m -180637.35 0 a 180637.35 180637.35 0 1 1 361274.69 0a 180637.35 180637.35 0 1 1 -361274.69 0"/>
<path id="N" d="M 44448817.35 26716533.57 m -297829.90 0 a 297829.90 297829.90 0 1 1 595659.80 0a 297829.90 297829.90 0 1 1 -595659.80 0M 44448820.44 26716538.65 m -180637.35 0 a 180637.35 180637.35 0 1 1 361274.69 0a 180637.35 180637.35 0 1 1 -361274.69 0"/>
<path id="N" d="M 64133857.35 28748033.57 m -297829.90 0 a 297829.90 297829.90 0 1 1 595659.80 0a 297829.90 297829.90 0 1 1 -595659.80 0M 64133860.44 28748038.65 m -180637.35 0 a 180637.35 180637.35 0 1 1 361274.69 0a 180637.35 180637.35 0 1 1 -361274.69 0"/>
<path id="N" d="M 44448817.35 29574813.57 m -297829.90 0 a 297829.90 297829.90 0 1 1 595659.80 0a 297829.90 297829.90 0 1 1 -595659.80 0M 44448820.44 29574818.65 m -180637.35 0 a 180637.35 180637.35 0 1 1 361274.69 0a 180637.35 180637.35 0 1 1 -361274.69 0"/>
<path id="N" d="M 44448817.35 21716533.57 m -297829.90 0 a 297829.90 297829.90 0 1 1 595659.80 0a 297829.90 297829.90 0 1 1 -595659.80 0M 44448820.44 21716538.65 m -180637.35 0 a 180637.35 180637.35 0 1 1 361274.69 0a 180637.35 180637.35 0 1 1 -361274.69 0"/>
<path id="N" d="M 44448817.35 22716533.57 m -297829.90 0 a 297829.90 297829.90 0 1 1 595659.80 0a 297829.90 297829.90 0 1 1 -595659.80 0M 44448820.44 22716538.65 m -180637.35 0 a 180637.35 180637.35 0 1 1 361274.69 0a 180637.35 180637.35 0 1 1 -361274.69 0"/>
<path id="N" d="M 44448817.35 23716533.57 m -297829.90 0 a 297829.90 297829.90 0 1 1 595659.80 0a 297829.90 297829.90 0 1 1 -595659.80 0M 44448820.44 23716538.65 m -180637.35 0 a 180637.35 180637.35 0 1 1 361274.69 0a 180637.35 180637.35 0 1 1 -361274.69 0"/>
<path id="N" d="M 44448817.35 30574813.57 m -297829.90 0 a 297829.90 297829.90 0 1 1 595659.80 0a 297829.90 297829.90 0 1 1 -595659.80 0M 44448820.44 30574818.65 m -180637.35 0 a 180637.35 180637.35 0 1 1 361274.69 0a 180637.35 180637.35 0 1 1 -361274.69 0"/>
<path id="N" d="M 64133857.35 27748033.57 m -297829.90 0 a 297829.90 297829.90 0 1 1 595659.80 0a 297829.90 297829.90 0 1 1 -595659.80 0M 64133860.44 27748038.65 m -180637.35 0 a 180637.35 180637.35 0 1 1 361274.69 0a 180637.35 180637.35 0 1 1 -361274.69 0"/>
<path id="N" d="M 64133857.35 26748033.57 m -297829.90 0 a 297829.90 297829.90 0 1 1 595659.80 0a 297829.90 297829.90 0 1 1 -595659.80 0M 64133860.44 26748038.65 m -180637.35 0 a 180637.35 180637.35 0 1 1 361274.69 0a 180637.35 180637.35 0 1 1 -361274.69 0"/>
<path id="N" d="M 47133857.35 17874013.57 m -297829.90 0 a 297829.90 297829.90 0 1 1 595659.80 0a 297829.90 297829.90 0 1 1 -595659.80 0M 47133860.44 17874018.65 m -180637.35 0 a 180637.35 180637.35 0 1 1 361274.69 0a 180637.35 180637.35 0 1 1 -361274.69 0"/>
<path id="N" d="M 64133850.01 42527541.86 m -297844.08 0 a 297844.08 297844.08 0 1 1 595688.15 0a 297844.08 297844.08 0 1 1 -595688.15 0M 64133860.44 42527559.65 m -180637.35 0 a 180637.35 180637.35 0 1 1 361274.69 0a 180637.35 180637.35 0 1 1 -361274.69 0"/>
<path id="N" d="M 64133850.01 34669281.86 m -297844.08 0 a 297844.08 297844.08 0 1 1 595688.15 0a 297844.08 297844.08 0 1 1 -595688.15 0M 64133860.44 34669299.65 m -180637.35 0 a 180637.35 180637.35 0 1 1 361274.69 0a 180637.35 180637.35 0 1 1 -361274.69 0"/>
<path id="N" d="M 64133850.01 40527541.86 m -297844.08 0 a 297844.08 297844.08 0 1 1 595688.15 0a 297844.08 297844.08 0 1 1 -595688.15 0M 64133860.44 40527559.65 m -180637.35 0 a 180637.35 180637.35 0 1 1 361274.69 0a 180637.35 180637.35 0 1 1 -361274.69 0"/>
<path id="N" d="M 64133850.01 32669281.86 m -297844.08 0 a 297844.08 297844.08 0 1 1 595688.15 0a 297844.08 297844.08 0 1 1 -595688.15 0M 64133860.44 32669299.65 m -180637.35 0 a 180637.35 180637.35 0 1 1 361274.69 0a 180637.35 180637.35 0 1 1 -361274.69 0"/>
<path id="N" d="M 64133850.01 46527541.86 m -297844.08 0 a 297844.08 297844.08 0 1 1 595688.15 0a 297844.08 297844.08 0 1 1 -595688.15 0M 64133860.44 46527559.65 m -180637.35 0 a 180637.35 180637.35 0 1 1 361274.69 0a 180637.35 180637.35 0 1 1 -361274.69 0"/>
<path id="N" d="M 64133850.01 43527541.86 m -297844.08 0 a 297844.08 297844.08 0 1 1 595688.15 0a 297844.08 297844.08 0 1 1 -595688.15 0M 64133860.44 43527559.65 m -180637.35 0 a 180637.35 180637.35 0 1 1 361274.69 0a 180637.35 180637.35 0 1 1 -361274.69 0"/>
<path id="N" d="M 64133850.01 41527541.86 m -297844.08 0 a 297844.08 297844.08 0 1 1 595688.15 0a 297844.08 297844.08 0 1 1 -595688.15 0M 64133860.44 41527559.65 m -180637.35 0 a 180637.35 180637.35 0 1 1 361274.69 0a 180637.35 180637.35 0 1 1 -361274.69 0"/>
<path id="N" d="M 64133850.01 33669281.86 m -297844.08 0 a 297844.08 297844.08 0 1 1 595688.15 0a 297844.08 297844.08 0 1 1 -595688.15 0M 64133860.44 33669299.65 m -180637.35 0 a 180637.35 180637.35 0 1 1 361274.69 0a 180637.35 180637.35 0 1 1 -361274.69 0"/>
<path id="N" d="M 64133850.01 47527541.86 m -297844.08 0 a 297844.08 297844.08 0 1 1 595688.15 0a 297844.08 297844.08 0 1 1 -595688.15 0M 64133860.44 47527559.65 m -180637.35 0 a 180637.35 180637.35 0 1 1 361274.69 0a 180637.35 180637.35 0 1 1 -361274.69 0"/>
<path id="N" d="M 59133857.35 18874013.57 m -297829.90 0 a 297829.90 297829.90 0 1 1 595659.80 0a 297829.90 297829.90 0 1 1 -595659.80 0M 59133860.44 18874018.65 m -180637.35 0 a 180637.35 180637.35 0 1 1 361274.69 0a 180637.35 180637.35 0 1 1 -361274.69 0"/>
<path id="N" d="M 56133857.35 18874013.57 m -297829.90 0 a 297829.90 297829.90 0 1 1 595659.80 0a 297829.90 297829.90 0 1 1 -595659.80 0M 56133860.44 18874018.65 m -180637.35 0 a 180637.35 180637.35 0 1 1 361274.69 0a 180637.35 180637.35 0 1 1 -361274.69 0"/>
<path id="N" d="M 57133857.35 18874013.57 m -297829.90 0 a 297829.90 297829.90 0 1 1 595659.80 0a 297829.90 297829.90 0 1 1 -595659.80 0M 57133860.44 18874018.65 m -180637.35 0 a 180637.35 180637.35 0 1 1 361274.69 0a 180637.35 180637.35 0 1 1 -361274.69 0"/>
<path id="N" d="M 52133857.35 17874013.57 m -297829.90 0 a 297829.90 297829.90 0 1 1 595659.80 0a 297829.90 297829.90 0 1 1 -595659.80 0M 52133860.44 17874018.65 m -180637.35 0 a 180637.35 180637.35 0 1 1 361274.69 0a 180637.35 180637.35 0 1 1 -361274.69 0"/>
<path id="N" d="M 63133857.35 17874013.57 m -297829.90 0 a 297829.90 297829.90 0 1 1 595659.80 0a 297829.90 297829.90 0 1 1 -595659.80 0M 63133860.44 17874018.65 m -180637.35 0 a 180637.35 180637.35 0 1 1 361274.69 0a 180637.35 180637.35 0 1 1 -361274.69 0"/>
<path id="N" d="M 58133857.35 18874013.57 m -297829.90 0 a 297829.90 297829.90 0 1 1 595659.80 0a 297829.90 297829.90 0 1 1 -595659.80 0M 58133860.44 18874018.65 m -180637.35 0 a 180637.35 180637.35 0 1 1 361274.69 0a 180637.35 180637.35 0 1 1 -361274.69 0"/>
<path id="N" d="M 64133857.35 18874013.57 m -297829.90 0 a 297829.90 297829.90 0 1 1 595659.80 0a 297829.90 297829.90 0 1 1 -595659.80 0M 64133860.44 18874018.65 m -180637.35 0 a 180637.35 180637.35 0 1 1 361274.69 0a 180637.35 180637.35 0 1 1 -361274.69 0"/>
<path id="N" d="M 60133857.35 18874013.57 m -297829.90 0 a 297829.90 297829.90 0 1 1 595659.80 0a 297829.90 297829.90 0 1 1 -595659.80 0M 60133860.44 18874018.65 m -180637.35 0 a 180637.35 180637.35 0 1 1 361274.69 0a 180637.35 180637.35 0 1 1 -361274.69 0"/>
<path id="N" d="M 63133857.35 18874013.57 m -297829.90 0 a 297829.90 297829.90 0 1 1 595659.80 0a 297829.90 297829.90 0 1 1 -595659.80 0M 63133860.44 18874018.65 m -180637.35 0 a 180637.35 180637.35 0 1 1 361274.69 0a 180637.35 180637.35 0 1 1 -361274.69 0"/>
<path id="N" d="M 55133857.35 18874013.57 m -297829.90 0 a 297829.90 297829.90 0 1 1 595659.80 0a 297829.90 297829.90 0 1 1 -595659.80 0M 55133860.44 18874018.65 m -180637.35 0 a 180637.35 180637.35 0 1 1 361274.69 0a 180637.35 180637.35 0 1 1 -361274.69 0"/>
<path id="N" d="M 62133857.35 18874013.57 m -297829.90 0 a 297829.90 297829.90 0 1 1 595659.80 0a 297829.90 297829.90 0 1 1 -595659.80 0M 62133860.44 18874018.65 m -180637.35 0 a 180637.35 180637.35 0 1 1 361274.69 0a 180637.35 180637.35 0 1 1 -361274.69 0"/>
<path id="N" d="M 61133857.35 18874013.57 m -297829.90 0 a 297829.90 297829.90 0 1 1 595659.80 0a 297829.90 297829.90 0 1 1 -595659.80 0M 61133860.44 18874018.65 m -180637.35 0 a 180637.35 180637.35 0 1 1 361274.69 0a 180637.35 180637.35 0 1 1 -361274.69 0"/>
<path id="N" d="M 53133857.35 17874013.57 m -297829.90 0 a 297829.90 297829.90 0 1 1 595659.80 0a 297829.90 297829.90 0 1 1 -595659.80 0M 53133860.44 17874018.65 m -180637.35 0 a 180637.35 180637.35 0 1 1 361274.69 0a 180637.35 180637.35 0 1 1 -361274.69 0"/>
<path id="N" d="M 64133850.01 44527541.86 m -297844.08 0 a 297844.08 297844.08 0 1 1 595688.15 0a 297844.08 297844.08 0 1 1 -595688.15 0M 64133860.44 44527559.65 m -180637.35 0 a 180637.35 180637.35 0 1 1 361274.69 0a 180637.35 180637.35 0 1 1 -361274.69 0"/>
<path id="N" d="M 54133857.35 18874013.57 m -297829.90 0 a 297829.90 297829.90 0 1 1 595659.80 0a 297829.90 297829.90 0 1 1 -595659.80 0M 54133860.44 18874018.65 m -180637.35 0 a 180637.35 180637.35 0 1 1 361274.69 0a 180637.35 180637.35 0 1 1 -361274.69 0"/>
<path id="N" d="M 53133857.35 18874013.57 m -297829.90 0 a 297829.90 297829.90 0 1 1 595659.80 0a 297829.90 297829.90 0 1 1 -595659.80 0M 53133860.44 18874018.65 m -180637.35 0 a 180637.35 180637.35 0 1 1 361274.69 0a 180637.35 180637.35 0 1 1 -361274.69 0"/>
<path id="N" d="M 64133850.01 48527541.86 m -297844.08 0 a 297844.08 297844.08 0 1 1 595688.15 0a 297844.08 297844.08 0 1 1 -595688.15 0M 64133860.44 48527559.65 m -180637.35 0 a 180637.35 180637.35 0 1 1 361274.69 0a 180637.35 180637.35 0 1 1 -361274.69 0"/>
<path id="N" d="M 64133850.01 45527541.86 m -297844.08 0 a 297844.08 297844.08 0 1 1 595688.15 0a 297844.08 297844.08 0 1 1 -595688.15 0M 64133860.44 45527559.65 m -180637.35 0 a 180637.35 180637.35 0 1 1 361274.69 0a 180637.35 180637.35 0 1 1 -361274.69 0"/>
<path id="N" d="M 64133850.01 31669281.86 m -297844.08 0 a 297844.08 297844.08 0 1 1 595688.15 0a 297844.08 297844.08 0 1 1 -595688.15 0M 64133860.44 31669299.65 m -180637.35 0 a 180637.35 180637.35 0 1 1 361274.69 0a 180637.35 180637.35 0 1 1 -361274.69 0"/>
<path id="N" d="M 47133857.35 18874013.57 m -297829.90 0 a 297829.90 297829.90 0 1 1 595659.80 0a 297829.90 297829.90 0 1 1 -595659.80 0M 47133860.44 18874018.65 m -180637.35 0 a 180637.35 180637.35 0 1 1 361274.69 0a 180637.35 180637.35 0 1 1 -361274.69 0"/>
<path id="N" d="M 52133857.35 18874013.57 m -297829.90 0 a 297829.90 297829.90 0 1 1 595659.80 0a 297829.90 297829.90 0 1 1 -595659.80 0M 52133860.44 18874018.65 m -180637.35 0 a 180637.35 180637.35 0 1 1 361274.69 0a 180637.35 180637.35 0 1 1 -361274.69 0"/>
<path id="N" d="M 54133857.35 17874013.57 m -297829.90 0 a 297829.90 297829.90 0 1 1 595659.80 0a 297829.90 297829.90 0 1 1 -595659.80 0M 54133860.44 17874018.65 m -180637.35 0 a 180637.35 180637.35 0 1 1 361274.69 0a 180637.35 180637.35 0 1 1 -361274.69 0"/>
<path id="N" d="M 51133857.35 17874013.57 m -297829.90 0 a 297829.90 297829.90 0 1 1 595659.80 0a 297829.90 297829.90 0 1 1 -595659.80 0M 51133860.44 17874018.65 m -180637.35 0 a 180637.35 180637.35 0 1 1 361274.69 0a 180637.35 180637.35 0 1 1 -361274.69 0"/>
<path id="N" d="M 50133857.35 18874013.57 m -297829.90 0 a 297829.90 297829.90 0 1 1 595659.80 0a 297829.90 297829.90 0 1 1 -595659.80 0M 50133860.44 18874018.65 m -180637.35 0 a 180637.35 180637.35 0 1 1 361274.69 0a 180637.35 180637.35 0 1 1 -361274.69 0"/>
<path id="N" d="M 30964575.00 39232285.00 L 30374025.00 39232285.00 L 30374025.00 39822835.00 L 30964575.00 39822835.00 L 30964575.00 39232285.00  zM 30669300.44 39527558.65 m -180637.35 0 a 180637.35 180637.35 0 1 1 361274.69 0a 180637.35 180637.35 0 1 1 -361274.69 0"/>
<path id="N" d="M 64429135.00 30374026.00 L 63838585.00 30374026.00 L 63838585.00 30964576.00 L 64429135.00 30964576.00 L 64429135.00 30374026.00  zM 64133860.44 30669299.65 m -180637.35 0 a 180637.35 180637.35 0 1 1 361274.69 0a 180637.35 180637.35 0 1 1 -361274.69 0"/>
<path id="N" d="M 44744095.00 27421265.00 L 44153545.00 27421265.00 L 44153545.00 28011815.00 L 44744095.00 28011815.00 L 44744095.00 27421265.00  zM 44448820.44 27716538.65 m -180637.35 0 a 180637.35 180637.35 0 1 1 361274.69 0a 180637.35 180637.35 0 1 1 -361274.69 0"/>
<path id="N" d="M 44744095.00 45137785.00 L 44153545.00 45137785.00 L 44153545.00 45728335.00 L 44744095.00 45728335.00 L 44744095.00 45137785.00  zM 44448820.44 45433058.65 m -180637.35 0 a 180637.35 180637.35 0 1 1 361274.69 0a 180637.35 180637.35 0 1 1 -361274.69 0"/>
<path id="N" d="M 64429135.00 17578745.00 L 63838585.00 17578745.00 L 63838585.00 18169295.00 L 64429135.00 18169295.00 L 64429135.00 17578745.00  zM 64133860.44 17874018.65 m -180637.35 0 a 180637.35 180637.35 0 1 1 361274.69 0a 180637.35 180637.35 0 1 1 -361274.69 0"/>
<path id="N" d="M 44744095.00 36279545.00 L 44153545.00 36279545.00 L 44153545.00 36870095.00 L 44744095.00 36870095.00 L 44744095.00 36279545.00  zM 44448820.44 36574818.65 m -180637.35 0 a 180637.35 180637.35 0 1 1 361274.69 0a 180637.35 180637.35 0 1 1 -361274.69 0"/>
<path id="N" d="M 25059055.00 31358265.00 L 24468505.00 31358265.00 L 24468505.00 31948815.00 L 25059055.00 31948815.00 L 25059055.00 31358265.00  zM 24763780.44 31653538.65 m -180637.35 0 a 180637.35 180637.35 0 1 1 361274.69 0a 180637.35 180637.35 0 1 1 -361274.69 0"/>
<path id="N" d="M 20795277.35 49370073.57 m -297829.90 0 a 297829.90 297829.90 0 1 1 595659.80 0a 297829.90 297829.90 0 1 1 -595659.80 0M 20795280.44 49370078.65 m -180637.35 0 a 180637.35 180637.35 0 1 1 361274.69 0a 180637.35 180637.35 0 1 1 -361274.69 0"/>
<path id="N" d="M 64133850.01 36669281.86 m -297844.08 0 a 297844.08 297844.08 0 1 1 595688.15 0a 297844.08 297844.08 0 1 1 -595688.15 0M 64133860.44 36669299.65 m -180637.35 0 a 180637.35 180637.35 0 1 1 361274.69 0a 180637.35 180637.35 0 1 1 -361274.69 0"/>
<path id="N" d="M 21795277.35 45433073.57 m -297829.90 0 a 297829.90 297829.90 0 1 1 595659.80 0a 297829.90 297829.90 0 1 1 -595659.80 0M 21795280.44 45433078.65 m -180637.35 0 a 180637.35 180637.35 0 1 1 361274.69 0a 180637.35 180637.35 0 1 1 -361274.69 0"/>
<path id="N" d="M 21795277.35 49370073.57 m -297829.90 0 a 297829.90 297829.90 0 1 1 595659.80 0a 297829.90 297829.90 0 1 1 -595659.80 0M 21795280.44 49370078.65 m -180637.35 0 a 180637.35 180637.35 0 1 1 361274.69 0a 180637.35 180637.35 0 1 1 -361274.69 0"/>
<path id="N" d="M 23669297.35 39527553.57 m -297829.90 0 a 297829.90 297829.90 0 1 1 595659.80 0a 297829.90 297829.90 0 1 1 -595659.80 0M 23669300.44 39527558.65 m -180637.35 0 a 180637.35 180637.35 0 1 1 361274.69 0a 180637.35 180637.35 0 1 1 -361274.69 0"/>
<path id="N" d="M 44448817.35 38433053.57 m -297829.90 0 a 297829.90 297829.90 0 1 1 595659.80 0a 297829.90 297829.90 0 1 1 -595659.80 0M 44448820.44 38433058.65 m -180637.35 0 a 180637.35 180637.35 0 1 1 361274.69 0a 180637.35 180637.35 0 1 1 -361274.69 0"/>
<path id="N" d="M 33917315.00 49074805.00 L 33326765.00 49074805.00 L 33326765.00 49665355.00 L 33917315.00 49665355.00 L 33917315.00 49074805.00  zM 33622040.44 49370078.65 m -180637.35 0 a 180637.35 180637.35 0 1 1 361274.69 0a 180637.35 180637.35 0 1 1 -361274.69 0"/>
<path id="N" d="M 51133857.35 18874013.57 m -297829.90 0 a 297829.90 297829.90 0 1 1 595659.80 0a 297829.90 297829.90 0 1 1 -595659.80 0M 51133860.44 18874018.65 m -180637.35 0 a 180637.35 180637.35 0 1 1 361274.69 0a 180637.35 180637.35 0 1 1 -361274.69 0"/>
<path id="N" d="M 33917315.00 45137805.00 L 33326765.00 45137805.00 L 33326765.00 45728355.00 L 33917315.00 45728355.00 L 33917315.00 45137805.00  zM 33622040.44 45433078.65 m -180637.35 0 a 180637.35 180637.35 0 1 1 361274.69 0a 180637.35 180637.35 0 1 1 -361274.69 0"/>
<path id="N" d="M 64133857.35 22748033.57 m -297829.90 0 a 297829.90 297829.90 0 1 1 595659.80 0a 297829.90 297829.90 0 1 1 -595659.80 0M 64133860.44 22748038.65 m -180637.35 0 a 180637.35 180637.35 0 1 1 361274.69 0a 180637.35 180637.35 0 1 1 -361274.69 0"/>
<path id="N" d="M 26669297.35 39527553.57 m -297829.90 0 a 297829.90 297829.90 0 1 1 595659.80 0a 297829.90 297829.90 0 1 1 -595659.80 0M 26669300.44 39527558.65 m -180637.35 0 a 180637.35 180637.35 0 1 1 361274.69 0a 180637.35 180637.35 0 1 1 -361274.69 0"/>
<path id="N" d="M 20763777.35 31653533.57 m -297829.90 0 a 297829.90 297829.90 0 1 1 595659.80 0a 297829.90 297829.90 0 1 1 -595659.80 0M 20763780.44 31653538.65 m -180637.35 0 a 180637.35 180637.35 0 1 1 361274.69 0a 180637.35 180637.35 0 1 1 -361274.69 0"/>
<path id="N" d="M 44448817.35 42433053.57 m -297829.90 0 a 297829.90 297829.90 0 1 1 595659.80 0a 297829.90 297829.90 0 1 1 -595659.80 0M 44448820.44 42433058.65 m -180637.35 0 a 180637.35 180637.35 0 1 1 361274.69 0a 180637.35 180637.35 0 1 1 -361274.69 0"/>
<path id="N" d="M 34606297.35 30653533.57 m -297829.90 0 a 297829.90 297829.90 0 1 1 595659.80 0a 297829.90 297829.90 0 1 1 -595659.80 0M 34606300.44 30653538.65 m -180637.35 0 a 180637.35 180637.35 0 1 1 361274.69 0a 180637.35 180637.35 0 1 1 -361274.69 0"/>
<path id="N" d="M 64133850.01 35669281.86 m -297844.08 0 a 297844.08 297844.08 0 1 1 595688.15 0a 297844.08 297844.08 0 1 1 -595688.15 0M 64133860.44 35669299.65 m -180637.35 0 a 180637.35 180637.35 0 1 1 361274.69 0a 180637.35 180637.35 0 1 1 -361274.69 0"/>
<path id="N" d="M 20795277.35 45433073.57 m -297829.90 0 a 297829.90 297829.90 0 1 1 595659.80 0a 297829.90 297829.90 0 1 1 -595659.80 0M 20795280.44 45433078.65 m -180637.35 0 a 180637.35 180637.35 0 1 1 361274.69 0a 180637.35 180637.35 0 1 1 -361274.69 0"/>
<path id="N" d="M 27669297.35 39527553.57 m -297829.90 0 a 297829.90 297829.90 0 1 1 595659.80 0a 297829.90 297829.90 0 1 1 -595659.80 0M 27669300.44 39527558.65 m -180637.35 0 a 180637.35 180637.35 0 1 1 361274.69 0a 180637.35 180637.35 0 1 1 -361274.69 0"/>
<path id="N" d="M 64429135.00 21452765.00 L 63838585.00 21452765.00 L 63838585.00 22043315.00 L 64429135.00 22043315.00 L 64429135.00 21452765.00  zM 64133860.44 21748038.65 m -180637.35 0 a 180637.35 180637.35 0 1 1 361274.69 0a 180637.35 180637.35 0 1 1 -361274.69 0"/>
<path id="N" d="M 49133857.35 18874013.57 m -297829.90 0 a 297829.90 297829.90 0 1 1 595659.80 0a 297829.90 297829.90 0 1 1 -595659.80 0M 49133860.44 18874018.65 m -180637.35 0 a 180637.35 180637.35 0 1 1 361274.69 0a 180637.35 180637.35 0 1 1 -361274.69 0"/>
<path id="N" d="M 31606297.35 31653533.57 m -297829.90 0 a 297829.90 297829.90 0 1 1 595659.80 0a 297829.90 297829.90 0 1 1 -595659.80 0M 31606300.44 31653538.65 m -180637.35 0 a 180637.35 180637.35 0 1 1 361274.69 0a 180637.35 180637.35 0 1 1 -361274.69 0"/>
</g>
</svg>
