<svg width="160.00000004mm" height="115.00000114mm" viewBox="0 0 62992126 45275591"  version="1.1" xmlns="http://www.w3.org/2000/svg" xmlns:xlink="http://www.w3.org/1999/xlink">
<desc>
Origin 10000000 10000000 Bound 10000000 10000000 62992126 45275591
</desc>
<g fill-rule="evenodd" fill="rgb(174, 78, 0)" stroke="black" stroke-width="1" transform="translate(0, 45275591) scale(1, -1) translate(-10000000, -10000000)">
<path id="N" d="M 64133860.61 24748039.35 m -338168.19 0 a 338168.19 338168.19 0 1 1 676336.37 0a 338168.19 338168.19 0 1 1 -676336.37 0M 64133860.44 24748038.65 m -180637.35 0 a 180637.35 180637.35 0 1 1 361274.69 0a 180637.35 180637.35 0 1 1 -361274.69 0"/>
<path id="N" d="M 22763780.61 31653539.35 m -338168.19 0 a 338168.19 338168.19 0 1 1 676336.37 0a 338168.19 338168.19 0 1 1 -676336.37 0M 22763780.44 31653538.65 m -180637.35 0 a 180637.35 180637.35 0 1 1 361274.69 0a 180637.35 180637.35 0 1 1 -361274.69 0"/>
<path id="N" d="M 32606300.61 31653539.35 m -338168.19 0 a 338168.19 338168.19 0 1 1 676336.37 0a 338168.19 338168.19 0 1 1 -676336.37 0M 32606300.44 31653538.65 m -180637.35 0 a 180637.35 180637.35 0 1 1 361274.69 0a 180637.35 180637.35 0 1 1 -361274.69 0"/>
<path id="N" d="M 48133860.61 18874019.35 m -338168.19 0 a 338168.19 338168.19 0 1 1 676336.37 0a 338168.19 338168.19 0 1 1 -676336.37 0M 48133860.44 18874018.65 m -180637.35 0 a 180637.35 180637.35 0 1 1 361274.69 0a 180637.35 180637.35 0 1 1 -361274.69 0"/>
<path id="N" d="M 64133860.61 23748039.35 m -338168.19 0 a 338168.19 338168.19 0 1 1 676336.37 0a 338168.19 338168.19 0 1 1 -676336.37 0M 64133860.44 23748038.65 m -180637.35 0 a 180637.35 180637.35 0 1 1 361274.69 0a 180637.35 180637.35 0 1 1 -361274.69 0"/>
<path id="N" d="M 23763780.61 31653539.35 m -338168.19 0 a 338168.19 338168.19 0 1 1 676336.37 0a 338168.19 338168.19 0 1 1 -676336.37 0M 23763780.44 31653538.65 m -180637.35 0 a 180637.35 180637.35 0 1 1 361274.69 0a 180637.35 180637.35 0 1 1 -361274.69 0"/>
<path id="N" d="M 33606300.61 31653539.35 m -338168.19 0 a 338168.19 338168.19 0 1 1 676336.37 0a 338168.19 338168.19 0 1 1 -676336.37 0M 33606300.44 31653538.65 m -180637.35 0 a 180637.35 180637.35 0 1 1 361274.69 0a 180637.35 180637.35 0 1 1 -361274.69 0"/>
<path id="N" d="M 64133860.61 37669300.35 m -338168.19 0 a 338168.19 338168.19 0 1 1 676336.37 0a 338168.19 338168.19 0 1 1 -676336.37 0M 64133860.44 37669299.65 m -180637.35 0 a 180637.35 180637.35 0 1 1 361274.69 0a 180637.35 180637.35 0 1 1 -361274.69 0"/>
<path id="N" d="M 32606300.61 30653539.35 m -338168.19 0 a 338168.19 338168.19 0 1 1 676336.37 0a 338168.19 338168.19 0 1 1 -676336.37 0M 32606300.44 30653538.65 m -180637.35 0 a 180637.35 180637.35 0 1 1 361274.69 0a 180637.35 180637.35 0 1 1 -361274.69 0"/>
<path id="N" d="M 49133860.61 17874019.35 m -338168.19 0 a 338168.19 338168.19 0 1 1 676336.37 0a 338168.19 338168.19 0 1 1 -676336.37 0M 49133860.44 17874018.65 m -180637.35 0 a 180637.35 180637.35 0 1 1 361274.69 0a 180637.35 180637.35 0 1 1 -361274.69 0"/>
<path id="N" d="M 21763780.61 31653539.35 m -338168.19 0 a 338168.19 338168.19 0 1 1 676336.37 0a 338168.19 338168.19 0 1 1 -676336.37 0M 21763780.44 31653538.65 m -180637.35 0 a 180637.35 180637.35 0 1 1 361274.69 0a 180637.35 180637.35 0 1 1 -361274.69 0"/>
<path id="N" d="M 32622040.61 45433079.35 m -338168.19 0 a 338168.19 338168.19 0 1 1 676336.37 0a 338168.19 338168.19 0 1 1 -676336.37 0M 32622040.44 45433078.65 m -180637.35 0 a 180637.35 180637.35 0 1 1 361274.69 0a 180637.35 180637.35 0 1 1 -361274.69 0"/>
<path id="N" d="M 32622040.61 49370079.35 m -338168.19 0 a 338168.19 338168.19 0 1 1 676336.37 0a 338168.19 338168.19 0 1 1 -676336.37 0M 32622040.44 49370078.65 m -180637.35 0 a 180637.35 180637.35 0 1 1 361274.69 0a 180637.35 180637.35 0 1 1 -361274.69 0"/>
<path id="N" d="M 44448820.61 40433059.35 m -338168.19 0 a 338168.19 338168.19 0 1 1 676336.37 0a 338168.19 338168.19 0 1 1 -676336.37 0M 44448820.44 40433058.65 m -180637.35 0 a 180637.35 180637.35 0 1 1 361274.69 0a 180637.35 180637.35 0 1 1 -361274.69 0"/>
<path id="N" d="M 25669300.61 39527559.35 m -338168.19 0 a 338168.19 338168.19 0 1 1 676336.37 0a 338168.19 338168.19 0 1 1 -676336.37 0M 25669300.44 39527558.65 m -180637.35 0 a 180637.35 180637.35 0 1 1 361274.69 0a 180637.35 180637.35 0 1 1 -361274.69 0"/>
<path id="N" d="M 23130555.00 45097805.00 L 22460005.00 45097805.00 L 22460005.00 45768355.00 L 23130555.00 45768355.00 L 23130555.00 45097805.00  zM 22795280.44 45433078.65 m -180637.35 0 a 180637.35 180637.35 0 1 1 361274.69 0a 180637.35 180637.35 0 1 1 -361274.69 0"/>
<path id="N" d="M 34941575.00 31318265.00 L 34271025.00 31318265.00 L 34271025.00 31988815.00 L 34941575.00 31988815.00 L 34941575.00 31318265.00  zM 34606300.44 31653538.65 m -180637.35 0 a 180637.35 180637.35 0 1 1 361274.69 0a 180637.35 180637.35 0 1 1 -361274.69 0"/>
<path id="N" d="M 23130555.00 49034805.00 L 22460005.00 49034805.00 L 22460005.00 49705355.00 L 23130555.00 49705355.00 L 23130555.00 49034805.00  zM 22795280.44 49370078.65 m -180637.35 0 a 180637.35 180637.35 0 1 1 361274.69 0a 180637.35 180637.35 0 1 1 -361274.69 0"/>
<path id="N" d="M 33606300.61 30653539.35 m -338168.19 0 a 338168.19 338168.19 0 1 1 676336.37 0a 338168.19 338168.19 0 1 1 -676336.37 0M 33606300.44 30653538.65 m -180637.35 0 a 180637.35 180637.35 0 1 1 361274.69 0a 180637.35 180637.35 0 1 1 -361274.69 0"/>
<path id="N" d="M 64469135.00 39192286.00 L 63798585.00 39192286.00 L 63798585.00 39862836.00 L 64469135.00 39862836.00 L 64469135.00 39192286.00  zM 64133860.44 39527559.65 m -180637.35 0 a 180637.35 180637.35 0 1 1 361274.69 0a 180637.35 180637.35 0 1 1 -361274.69 0"/>
<path id="N" d="M 64133860.61 40527560.35 m -338168.19 0 a 338168.19 338168.19 0 1 1 676336.37 0a 338168.19 338168.19 0 1 1 -676336.37 0M 64133860.44 40527559.65 m -180637.35 0 a 180637.35 180637.35 0 1 1 361274.69 0a 180637.35 180637.35 0 1 1 -361274.69 0"/>
<path id="N" d="M 64133860.61 44527560.35 m -338168.19 0 a 338168.19 338168.19 0 1 1 676336.37 0a 338168.19 338168.19 0 1 1 -676336.37 0M 64133860.44 44527559.65 m -180637.35 0 a 180637.35 180637.35 0 1 1 361274.69 0a 180637.35 180637.35 0 1 1 -361274.69 0"/>
<path id="N" d="M 64133860.61 41527560.35 m -338168.19 0 a 338168.19 338168.19 0 1 1 676336.37 0a 338168.19 338168.19 0 1 1 -676336.37 0M 64133860.44 41527559.65 m -180637.35 0 a 180637.35 180637.35 0 1 1 361274.69 0a 180637.35 180637.35 0 1 1 -361274.69 0"/>
<path id="N" d="M 64133860.61 42527560.35 m -338168.19 0 a 338168.19 338168.19 0 1 1 676336.37 0a 338168.19 338168.19 0 1 1 -676336.37 0M 64133860.44 42527559.65 m -180637.35 0 a 180637.35 180637.35 0 1 1 361274.69 0a 180637.35 180637.35 0 1 1 -361274.69 0"/>
<path id="N" d="M 44448820.61 44433059.35 m -338168.19 0 a 338168.19 338168.19 0 1 1 676336.37 0a 338168.19 338168.19 0 1 1 -676336.37 0M 44448820.44 44433058.65 m -180637.35 0 a 180637.35 180637.35 0 1 1 361274.69 0a 180637.35 180637.35 0 1 1 -361274.69 0"/>
<path id="N" d="M 64133860.61 43527560.35 m -338168.19 0 a 338168.19 338168.19 0 1 1 676336.37 0a 338168.19 338168.19 0 1 1 -676336.37 0M 64133860.44 43527559.65 m -180637.35 0 a 180637.35 180637.35 0 1 1 361274.69 0a 180637.35 180637.35 0 1 1 -361274.69 0"/>
<path id="N" d="M 44448820.61 41433059.35 m -338168.19 0 a 338168.19 338168.19 0 1 1 676336.37 0a 338168.19 338168.19 0 1 1 -676336.37 0M 44448820.44 41433058.65 m -180637.35 0 a 180637.35 180637.35 0 1 1 361274.69 0a 180637.35 180637.35 0 1 1 -361274.69 0"/>
<path id="N" d="M 44448820.61 30574819.35 m -338168.19 0 a 338168.19 338168.19 0 1 1 676336.37 0a 338168.19 338168.19 0 1 1 -676336.37 0M 44448820.44 30574818.65 m -180637.35 0 a 180637.35 180637.35 0 1 1 361274.69 0a 180637.35 180637.35 0 1 1 -361274.69 0"/>
<path id="N" d="M 64133860.61 26748039.35 m -338168.19 0 a 338168.19 338168.19 0 1 1 676336.37 0a 338168.19 338168.19 0 1 1 -676336.37 0M 64133860.44 26748038.65 m -180637.35 0 a 180637.35 180637.35 0 1 1 361274.69 0a 180637.35 180637.35 0 1 1 -361274.69 0"/>
<path id="N" d="M 44448820.61 26716539.35 m -338168.19 0 a 338168.19 338168.19 0 1 1 676336.37 0a 338168.19 338168.19 0 1 1 -676336.37 0M 44448820.44 26716538.65 m -180637.35 0 a 180637.35 180637.35 0 1 1 361274.69 0a 180637.35 180637.35 0 1 1 -361274.69 0"/>
<path id="N" d="M 44448820.61 29574819.35 m -338168.19 0 a 338168.19 338168.19 0 1 1 676336.37 0a 338168.19 338168.19 0 1 1 -676336.37 0M 44448820.44 29574818.65 m -180637.35 0 a 180637.35 180637.35 0 1 1 361274.69 0a 180637.35 180637.35 0 1 1 -361274.69 0"/>
<path id="N" d="M 64133860.61 28748039.35 m -338168.19 0 a 338168.19 338168.19 0 1 1 676336.37 0a 338168.19 338168.19 0 1 1 -676336.37 0M 64133860.44 28748038.65 m -180637.35 0 a 180637.35 180637.35 0 1 1 361274.69 0a 180637.35 180637.35 0 1 1 -361274.69 0"/>
<path id="N" d="M 31606300.61 30653539.35 m -338168.19 0 a 338168.19 338168.19 0 1 1 676336.37 0a 338168.19 338168.19 0 1 1 -676336.37 0M 31606300.44 30653538.65 m -180637.35 0 a 180637.35 180637.35 0 1 1 361274.69 0a 180637.35 180637.35 0 1 1 -361274.69 0"/>
<path id="N" d="M 60133860.61 17874019.35 m -338168.19 0 a 338168.19 338168.19 0 1 1 676336.37 0a 338168.19 338168.19 0 1 1 -676336.37 0M 60133860.44 17874018.65 m -180637.35 0 a 180637.35 180637.35 0 1 1 361274.69 0a 180637.35 180637.35 0 1 1 -361274.69 0"/>
<path id="N" d="M 24669300.61 39527559.35 m -338168.19 0 a 338168.19 338168.19 0 1 1 676336.37 0a 338168.19 338168.19 0 1 1 -676336.37 0M 24669300.44 39527558.65 m -180637.35 0 a 180637.35 180637.35 0 1 1 361274.69 0a 180637.35 180637.35 0 1 1 -361274.69 0"/>
<path id="N" d="M 44448820.61 39433059.35 m -338168.19 0 a 338168.19 338168.19 0 1 1 676336.37 0a 338168.19 338168.19 0 1 1 -676336.37 0M 44448820.44 39433058.65 m -180637.35 0 a 180637.35 180637.35 0 1 1 361274.69 0a 180637.35 180637.35 0 1 1 -361274.69 0"/>
<path id="N" d="M 59133860.61 17874019.35 m -338168.19 0 a 338168.19 338168.19 0 1 1 676336.37 0a 338168.19 338168.19 0 1 1 -676336.37 0M 59133860.44 17874018.65 m -180637.35 0 a 180637.35 180637.35 0 1 1 361274.69 0a 180637.35 180637.35 0 1 1 -361274.69 0"/>
<path id="N" d="M 58133860.61 17874019.35 m -338168.19 0 a 338168.19 338168.19 0 1 1 676336.37 0a 338168.19 338168.19 0 1 1 -676336.37 0M 58133860.44 17874018.65 m -180637.35 0 a 180637.35 180637.35 0 1 1 361274.69 0a 180637.35 180637.35 0 1 1 -361274.69 0"/>
<path id="N" d="M 61133860.61 17874019.35 m -338168.19 0 a 338168.19 338168.19 0 1 1 676336.37 0a 338168.19 338168.19 0 1 1 -676336.37 0M 61133860.44 17874018.65 m -180637.35 0 a 180637.35 180637.35 0 1 1 361274.69 0a 180637.35 180637.35 0 1 1 -361274.69 0"/>
<path id="N" d="M 29669300.61 39527559.35 m -338168.19 0 a 338168.19 338168.19 0 1 1 676336.37 0a 338168.19 338168.19 0 1 1 -676336.37 0M 29669300.44 39527558.65 m -180637.35 0 a 180637.35 180637.35 0 1 1 361274.69 0a 180637.35 180637.35 0 1 1 -361274.69 0"/>
<path id="N" d="M 64133860.61 45527560.35 m -338168.19 0 a 338168.19 338168.19 0 1 1 676336.37 0a 338168.19 338168.19 0 1 1 -676336.37 0M 64133860.44 45527559.65 m -180637.35 0 a 180637.35 180637.35 0 1 1 361274.69 0a 180637.35 180637.35 0 1 1 -361274.69 0"/>
<path id="N" d="M 44448820.61 35574819.35 m -338168.19 0 a 338168.19 338168.19 0 1 1 676336.37 0a 338168.19 338168.19 0 1 1 -676336.37 0M 44448820.44 35574818.65 m -180637.35 0 a 180637.35 180637.35 0 1 1 361274.69 0a 180637.35 180637.35 0 1 1 -361274.69 0"/>
<path id="N" d="M 44448820.61 43433059.35 m -338168.19 0 a 338168.19 338168.19 0 1 1 676336.37 0a 338168.19 338168.19 0 1 1 -676336.37 0M 44448820.44 43433058.65 m -180637.35 0 a 180637.35 180637.35 0 1 1 361274.69 0a 180637.35 180637.35 0 1 1 -361274.69 0"/>
<path id="N" d="M 28669300.61 39527559.35 m -338168.19 0 a 338168.19 338168.19 0 1 1 676336.37 0a 338168.19 338168.19 0 1 1 -676336.37 0M 28669300.44 39527558.65 m -180637.35 0 a 180637.35 180637.35 0 1 1 361274.69 0a 180637.35 180637.35 0 1 1 -361274.69 0"/>
<path id="N" d="M 64133860.61 34669300.35 m -338168.19 0 a 338168.19 338168.19 0 1 1 676336.37 0a 338168.19 338168.19 0 1 1 -676336.37 0M 64133860.44 34669299.65 m -180637.35 0 a 180637.35 180637.35 0 1 1 361274.69 0a 180637.35 180637.35 0 1 1 -361274.69 0"/>
<path id="N" d="M 44448820.61 34574819.35 m -338168.19 0 a 338168.19 338168.19 0 1 1 676336.37 0a 338168.19 338168.19 0 1 1 -676336.37 0M 44448820.44 34574818.65 m -180637.35 0 a 180637.35 180637.35 0 1 1 361274.69 0a 180637.35 180637.35 0 1 1 -361274.69 0"/>
<path id="N" d="M 64133860.61 27748039.35 m -338168.19 0 a 338168.19 338168.19 0 1 1 676336.37 0a 338168.19 338168.19 0 1 1 -676336.37 0M 64133860.44 27748038.65 m -180637.35 0 a 180637.35 180637.35 0 1 1 361274.69 0a 180637.35 180637.35 0 1 1 -361274.69 0"/>
<path id="N" d="M 44448820.61 32574819.35 m -338168.19 0 a 338168.19 338168.19 0 1 1 676336.37 0a 338168.19 338168.19 0 1 1 -676336.37 0M 44448820.44 32574818.65 m -180637.35 0 a 180637.35 180637.35 0 1 1 361274.69 0a 180637.35 180637.35 0 1 1 -361274.69 0"/>
<path id="N" d="M 64133860.61 33669300.35 m -338168.19 0 a 338168.19 338168.19 0 1 1 676336.37 0a 338168.19 338168.19 0 1 1 -676336.37 0M 64133860.44 33669299.65 m -180637.35 0 a 180637.35 180637.35 0 1 1 361274.69 0a 180637.35 180637.35 0 1 1 -361274.69 0"/>
<path id="N" d="M 44448820.61 33574819.35 m -338168.19 0 a 338168.19 338168.19 0 1 1 676336.37 0a 338168.19 338168.19 0 1 1 -676336.37 0M 44448820.44 33574818.65 m -180637.35 0 a 180637.35 180637.35 0 1 1 361274.69 0a 180637.35 180637.35 0 1 1 -361274.69 0"/>
<path id="N" d="M 64133860.61 48527560.35 m -338168.19 0 a 338168.19 338168.19 0 1 1 676336.37 0a 338168.19 338168.19 0 1 1 -676336.37 0M 64133860.44 48527559.65 m -180637.35 0 a 180637.35 180637.35 0 1 1 361274.69 0a 180637.35 180637.35 0 1 1 -361274.69 0"/>
<path id="N" d="M 64133860.61 47527560.35 m -338168.19 0 a 338168.19 338168.19 0 1 1 676336.37 0a 338168.19 338168.19 0 1 1 -676336.37 0M 64133860.44 47527559.65 m -180637.35 0 a 180637.35 180637.35 0 1 1 361274.69 0a 180637.35 180637.35 0 1 1 -361274.69 0"/>
<path id="N" d="M 64133860.61 32669300.35 m -338168.19 0 a 338168.19 338168.19 0 1 1 676336.37 0a 338168.19 338168.19 0 1 1 -676336.37 0M 64133860.44 32669299.65 m -180637.35 0 a 180637.35 180637.35 0 1 1 361274.69 0a 180637.35 180637.35 0 1 1 -361274.69 0"/>
<path id="N" d="M 44448820.61 31574819.35 m -338168.19 0 a 338168.19 338168.19 0 1 1 676336.37 0a 338168.19 338168.19 0 1 1 -676336.37 0M 44448820.44 31574818.65 m -180637.35 0 a 180637.35 180637.35 0 1 1 361274.69 0a 180637.35 180637.35 0 1 1 -361274.69 0"/>
<path id="N" d="M 64133860.61 46527560.35 m -338168.19 0 a 338168.19 338168.19 0 1 1 676336.37 0a 338168.19 338168.19 0 1 1 -676336.37 0M 64133860.44 46527559.65 m -180637.35 0 a 180637.35 180637.35 0 1 1 361274.69 0a 180637.35 180637.35 0 1 1 -361274.69 0"/>
<path id="N" d="M 64133860.61 31669300.35 m -338168.19 0 a 338168.19 338168.19 0 1 1 676336.37 0a 338168.19 338168.19 0 1 1 -676336.37 0M 64133860.44 31669299.65 m -180637.35 0 a 180637.35 180637.35 0 1 1 361274.69 0a 180637.35 180637.35 0 1 1 -361274.69 0"/>
<path id="N" d="M 62133860.61 17874019.35 m -338168.19 0 a 338168.19 338168.19 0 1 1 676336.37 0a 338168.19 338168.19 0 1 1 -676336.37 0M 62133860.44 17874018.65 m -180637.35 0 a 180637.35 180637.35 0 1 1 361274.69 0a 180637.35 180637.35 0 1 1 -361274.69 0"/>
<path id="N" d="M 59133860.61 18874019.35 m -338168.19 0 a 338168.19 338168.19 0 1 1 676336.37 0a 338168.19 338168.19 0 1 1 -676336.37 0M 59133860.44 18874018.65 m -180637.35 0 a 180637.35 180637.35 0 1 1 361274.69 0a 180637.35 180637.35 0 1 1 -361274.69 0"/>
<path id="N" d="M 58133860.61 18874019.35 m -338168.19 0 a 338168.19 338168.19 0 1 1 676336.37 0a 338168.19 338168.19 0 1 1 -676336.37 0M 58133860.44 18874018.65 m -180637.35 0 a 180637.35 180637.35 0 1 1 361274.69 0a 180637.35 180637.35 0 1 1 -361274.69 0"/>
<path id="N" d="M 54133860.61 18874019.35 m -338168.19 0 a 338168.19 338168.19 0 1 1 676336.37 0a 338168.19 338168.19 0 1 1 -676336.37 0M 54133860.44 18874018.65 m -180637.35 0 a 180637.35 180637.35 0 1 1 361274.69 0a 180637.35 180637.35 0 1 1 -361274.69 0"/>
<path id="N" d="M 53133860.61 18874019.35 m -338168.19 0 a 338168.19 338168.19 0 1 1 676336.37 0a 338168.19 338168.19 0 1 1 -676336.37 0M 53133860.44 18874018.65 m -180637.35 0 a 180637.35 180637.35 0 1 1 361274.69 0a 180637.35 180637.35 0 1 1 -361274.69 0"/>
<path id="N" d="M 56133860.61 18874019.35 m -338168.19 0 a 338168.19 338168.19 0 1 1 676336.37 0a 338168.19 338168.19 0 1 1 -676336.37 0M 56133860.44 18874018.65 m -180637.35 0 a 180637.35 180637.35 0 1 1 361274.69 0a 180637.35 180637.35 0 1 1 -361274.69 0"/>
<path id="N" d="M 61133860.61 18874019.35 m -338168.19 0 a 338168.19 338168.19 0 1 1 676336.37 0a 338168.19 338168.19 0 1 1 -676336.37 0M 61133860.44 18874018.65 m -180637.35 0 a 180637.35 180637.35 0 1 1 361274.69 0a 180637.35 180637.35 0 1 1 -361274.69 0"/>
<path id="N" d="M 60133860.61 18874019.35 m -338168.19 0 a 338168.19 338168.19 0 1 1 676336.37 0a 338168.19 338168.19 0 1 1 -676336.37 0M 60133860.44 18874018.65 m -180637.35 0 a 180637.35 180637.35 0 1 1 361274.69 0a 180637.35 180637.35 0 1 1 -361274.69 0"/>
<path id="N" d="M 57133860.61 18874019.35 m -338168.19 0 a 338168.19 338168.19 0 1 1 676336.37 0a 338168.19 338168.19 0 1 1 -676336.37 0M 57133860.44 18874018.65 m -180637.35 0 a 180637.35 180637.35 0 1 1 361274.69 0a 180637.35 180637.35 0 1 1 -361274.69 0"/>
<path id="N" d="M 55133860.61 18874019.35 m -338168.19 0 a 338168.19 338168.19 0 1 1 676336.37 0a 338168.19 338168.19 0 1 1 -676336.37 0M 55133860.44 18874018.65 m -180637.35 0 a 180637.35 180637.35 0 1 1 361274.69 0a 180637.35 180637.35 0 1 1 -361274.69 0"/>
<path id="N" d="M 51133860.61 17874019.35 m -338168.19 0 a 338168.19 338168.19 0 1 1 676336.37 0a 338168.19 338168.19 0 1 1 -676336.37 0M 51133860.44 17874018.65 m -180637.35 0 a 180637.35 180637.35 0 1 1 361274.69 0a 180637.35 180637.35 0 1 1 -361274.69 0"/>
<path id="N" d="M 47133860.61 17874019.35 m -338168.19 0 a 338168.19 338168.19 0 1 1 676336.37 0a 338168.19 338168.19 0 1 1 -676336.37 0M 47133860.44 17874018.65 m -180637.35 0 a 180637.35 180637.35 0 1 1 361274.69 0a 180637.35 180637.35 0 1 1 -361274.69 0"/>
<path id="N" d="M 48133860.61 17874019.35 m -338168.19 0 a 338168.19 338168.19 0 1 1 676336.37 0a 338168.19 338168.19 0 1 1 -676336.37 0M 48133860.44 17874018.65 m -180637.35 0 a 180637.35 180637.35 0 1 1 361274.69 0a 180637.35 180637.35 0 1 1 -361274.69 0"/>
<path id="N" d="M 47133860.61 18874019.35 m -338168.19 0 a 338168.19 338168.19 0 1 1 676336.37 0a 338168.19 338168.19 0 1 1 -676336.37 0M 47133860.44 18874018.65 m -180637.35 0 a 180637.35 180637.35 0 1 1 361274.69 0a 180637.35 180637.35 0 1 1 -361274.69 0"/>
<path id="N" d="M 57133860.61 17874019.35 m -338168.19 0 a 338168.19 338168.19 0 1 1 676336.37 0a 338168.19 338168.19 0 1 1 -676336.37 0M 57133860.44 17874018.65 m -180637.35 0 a 180637.35 180637.35 0 1 1 361274.69 0a 180637.35 180637.35 0 1 1 -361274.69 0"/>
<path id="N" d="M 50133860.61 17874019.35 m -338168.19 0 a 338168.19 338168.19 0 1 1 676336.37 0a 338168.19 338168.19 0 1 1 -676336.37 0M 50133860.44 17874018.65 m -180637.35 0 a 180637.35 180637.35 0 1 1 361274.69 0a 180637.35 180637.35 0 1 1 -361274.69 0"/>
<path id="N" d="M 56133860.61 17874019.35 m -338168.19 0 a 338168.19 338168.19 0 1 1 676336.37 0a 338168.19 338168.19 0 1 1 -676336.37 0M 56133860.44 17874018.65 m -180637.35 0 a 180637.35 180637.35 0 1 1 361274.69 0a 180637.35 180637.35 0 1 1 -361274.69 0"/>
<path id="N" d="M 52133860.61 17874019.35 m -338168.19 0 a 338168.19 338168.19 0 1 1 676336.37 0a 338168.19 338168.19 0 1 1 -676336.37 0M 52133860.44 17874018.65 m -180637.35 0 a 180637.35 180637.35 0 1 1 361274.69 0a 180637.35 180637.35 0 1 1 -361274.69 0"/>
<path id="N" d="M 55133860.61 17874019.35 m -338168.19 0 a 338168.19 338168.19 0 1 1 676336.37 0a 338168.19 338168.19 0 1 1 -676336.37 0M 55133860.44 17874018.65 m -180637.35 0 a 180637.35 180637.35 0 1 1 361274.69 0a 180637.35 180637.35 0 1 1 -361274.69 0"/>
<path id="N" d="M 44448820.61 20716539.35 m -338168.19 0 a 338168.19 338168.19 0 1 1 676336.37 0a 338168.19 338168.19 0 1 1 -676336.37 0M 44448820.44 20716538.65 m -180637.35 0 a 180637.35 180637.35 0 1 1 361274.69 0a 180637.35 180637.35 0 1 1 -361274.69 0"/>
<path id="N" d="M 54133860.61 17874019.35 m -338168.19 0 a 338168.19 338168.19 0 1 1 676336.37 0a 338168.19 338168.19 0 1 1 -676336.37 0M 54133860.44 17874018.65 m -180637.35 0 a 180637.35 180637.35 0 1 1 361274.69 0a 180637.35 180637.35 0 1 1 -361274.69 0"/>
<path id="N" d="M 53133860.61 17874019.35 m -338168.19 0 a 338168.19 338168.19 0 1 1 676336.37 0a 338168.19 338168.19 0 1 1 -676336.37 0M 53133860.44 17874018.65 m -180637.35 0 a 180637.35 180637.35 0 1 1 361274.69 0a 180637.35 180637.35 0 1 1 -361274.69 0"/>
<path id="N" d="M 63133860.61 17874019.35 m -338168.19 0 a 338168.19 338168.19 0 1 1 676336.37 0a 338168.19 338168.19 0 1 1 -676336.37 0M 63133860.44 17874018.65 m -180637.35 0 a 180637.35 180637.35 0 1 1 361274.69 0a 180637.35 180637.35 0 1 1 -361274.69 0"/>
<path id="N" d="M 64133860.61 25748039.35 m -338168.19 0 a 338168.19 338168.19 0 1 1 676336.37 0a 338168.19 338168.19 0 1 1 -676336.37 0M 64133860.44 25748038.65 m -180637.35 0 a 180637.35 180637.35 0 1 1 361274.69 0a 180637.35 180637.35 0 1 1 -361274.69 0"/>
<path id="N" d="M 44448820.61 25716539.35 m -338168.19 0 a 338168.19 338168.19 0 1 1 676336.37 0a 338168.19 338168.19 0 1 1 -676336.37 0M 44448820.44 25716538.65 m -180637.35 0 a 180637.35 180637.35 0 1 1 361274.69 0a 180637.35 180637.35 0 1 1 -361274.69 0"/>
<path id="N" d="M 44448820.61 22716539.35 m -338168.19 0 a 338168.19 338168.19 0 1 1 676336.37 0a 338168.19 338168.19 0 1 1 -676336.37 0M 44448820.44 22716538.65 m -180637.35 0 a 180637.35 180637.35 0 1 1 361274.69 0a 180637.35 180637.35 0 1 1 -361274.69 0"/>
<path id="N" d="M 62133860.61 18874019.35 m -338168.19 0 a 338168.19 338168.19 0 1 1 676336.37 0a 338168.19 338168.19 0 1 1 -676336.37 0M 62133860.44 18874018.65 m -180637.35 0 a 180637.35 180637.35 0 1 1 361274.69 0a 180637.35 180637.35 0 1 1 -361274.69 0"/>
<path id="N" d="M 44448820.61 24716539.35 m -338168.19 0 a 338168.19 338168.19 0 1 1 676336.37 0a 338168.19 338168.19 0 1 1 -676336.37 0M 44448820.44 24716538.65 m -180637.35 0 a 180637.35 180637.35 0 1 1 361274.69 0a 180637.35 180637.35 0 1 1 -361274.69 0"/>
<path id="N" d="M 44448820.61 23716539.35 m -338168.19 0 a 338168.19 338168.19 0 1 1 676336.37 0a 338168.19 338168.19 0 1 1 -676336.37 0M 44448820.44 23716538.65 m -180637.35 0 a 180637.35 180637.35 0 1 1 361274.69 0a 180637.35 180637.35 0 1 1 -361274.69 0"/>
<path id="N" d="M 64133860.61 18874019.35 m -338168.19 0 a 338168.19 338168.19 0 1 1 676336.37 0a 338168.19 338168.19 0 1 1 -676336.37 0M 64133860.44 18874018.65 m -180637.35 0 a 180637.35 180637.35 0 1 1 361274.69 0a 180637.35 180637.35 0 1 1 -361274.69 0"/>
<path id="N" d="M 44448820.61 21716539.35 m -338168.19 0 a 338168.19 338168.19 0 1 1 676336.37 0a 338168.19 338168.19 0 1 1 -676336.37 0M 44448820.44 21716538.65 m -180637.35 0 a 180637.35 180637.35 0 1 1 361274.69 0a 180637.35 180637.35 0 1 1 -361274.69 0"/>
<path id="N" d="M 52133860.61 18874019.35 m -338168.19 0 a 338168.19 338168.19 0 1 1 676336.37 0a 338168.19 338168.19 0 1 1 -676336.37 0M 52133860.44 18874018.65 m -180637.35 0 a 180637.35 180637.35 0 1 1 361274.69 0a 180637.35 180637.35 0 1 1 -361274.69 0"/>
<path id="N" d="M 50133860.61 18874019.35 m -338168.19 0 a 338168.19 338168.19 0 1 1 676336.37 0a 338168.19 338168.19 0 1 1 -676336.37 0M 50133860.44 18874018.65 m -180637.35 0 a 180637.35 180637.35 0 1 1 361274.69 0a 180637.35 180637.35 0 1 1 -361274.69 0"/>
<path id="N" d="M 63133860.61 18874019.35 m -338168.19 0 a 338168.19 338168.19 0 1 1 676336.37 0a 338168.19 338168.19 0 1 1 -676336.37 0M 63133860.44 18874018.65 m -180637.35 0 a 180637.35 180637.35 0 1 1 361274.69 0a 180637.35 180637.35 0 1 1 -361274.69 0"/>
<path id="N" d="M 25099055.00 31318265.00 L 24428505.00 31318265.00 L 24428505.00 31988815.00 L 25099055.00 31988815.00 L 25099055.00 31318265.00  zM 24763780.44 31653538.65 m -180637.35 0 a 180637.35 180637.35 0 1 1 361274.69 0a 180637.35 180637.35 0 1 1 -361274.69 0"/>
<path id="N" d="M 64469135.00 30334026.00 L 63798585.00 30334026.00 L 63798585.00 31004576.00 L 64469135.00 31004576.00 L 64469135.00 30334026.00  zM 64133860.44 30669299.65 m -180637.35 0 a 180637.35 180637.35 0 1 1 361274.69 0a 180637.35 180637.35 0 1 1 -361274.69 0"/>
<path id="N" d="M 44784095.00 27381265.00 L 44113545.00 27381265.00 L 44113545.00 28051815.00 L 44784095.00 28051815.00 L 44784095.00 27381265.00  zM 44448820.44 27716538.65 m -180637.35 0 a 180637.35 180637.35 0 1 1 361274.69 0a 180637.35 180637.35 0 1 1 -361274.69 0"/>
<path id="N" d="M 44784095.00 45097785.00 L 44113545.00 45097785.00 L 44113545.00 45768335.00 L 44784095.00 45768335.00 L 44784095.00 45097785.00  zM 44448820.44 45433058.65 m -180637.35 0 a 180637.35 180637.35 0 1 1 361274.69 0a 180637.35 180637.35 0 1 1 -361274.69 0"/>
<path id="N" d="M 31004575.00 39192285.00 L 30334025.00 39192285.00 L 30334025.00 39862835.00 L 31004575.00 39862835.00 L 31004575.00 39192285.00  zM 30669300.44 39527558.65 m -180637.35 0 a 180637.35 180637.35 0 1 1 361274.69 0a 180637.35 180637.35 0 1 1 -361274.69 0"/>
<path id="N" d="M 64469135.00 17538745.00 L 63798585.00 17538745.00 L 63798585.00 18209295.00 L 64469135.00 18209295.00 L 64469135.00 17538745.00  zM 64133860.44 17874018.65 m -180637.35 0 a 180637.35 180637.35 0 1 1 361274.69 0a 180637.35 180637.35 0 1 1 -361274.69 0"/>
<path id="N" d="M 44784095.00 36239545.00 L 44113545.00 36239545.00 L 44113545.00 36910095.00 L 44784095.00 36910095.00 L 44784095.00 36239545.00  zM 44448820.44 36574818.65 m -180637.35 0 a 180637.35 180637.35 0 1 1 361274.69 0a 180637.35 180637.35 0 1 1 -361274.69 0"/>
<path id="N" d="M 20795280.61 49370079.35 m -338168.19 0 a 338168.19 338168.19 0 1 1 676336.37 0a 338168.19 338168.19 0 1 1 -676336.37 0M 20795280.44 49370078.65 m -180637.35 0 a 180637.35 180637.35 0 1 1 361274.69 0a 180637.35 180637.35 0 1 1 -361274.69 0"/>
<path id="N" d="M 64133860.61 36669300.35 m -338168.19 0 a 338168.19 338168.19 0 1 1 676336.37 0a 338168.19 338168.19 0 1 1 -676336.37 0M 64133860.44 36669299.65 m -180637.35 0 a 180637.35 180637.35 0 1 1 361274.69 0a 180637.35 180637.35 0 1 1 -361274.69 0"/>
<path id="N" d="M 21795280.61 45433079.35 m -338168.19 0 a 338168.19 338168.19 0 1 1 676336.37 0a 338168.19 338168.19 0 1 1 -676336.37 0M 21795280.44 45433078.65 m -180637.35 0 a 180637.35 180637.35 0 1 1 361274.69 0a 180637.35 180637.35 0 1 1 -361274.69 0"/>
<path id="N" d="M 21795280.61 49370079.35 m -338168.19 0 a 338168.19 338168.19 0 1 1 676336.37 0a 338168.19 338168.19 0 1 1 -676336.37 0M 21795280.44 49370078.65 m -180637.35 0 a 180637.35 180637.35 0 1 1 361274.69 0a 180637.35 180637.35 0 1 1 -361274.69 0"/>
<path id="N" d="M 23669300.61 39527559.35 m -338168.19 0 a 338168.19 338168.19 0 1 1 676336.37 0a 338168.19 338168.19 0 1 1 -676336.37 0M 23669300.44 39527558.65 m -180637.35 0 a 180637.35 180637.35 0 1 1 361274.69 0a 180637.35 180637.35 0 1 1 -361274.69 0"/>
<path id="N" d="M 44448820.61 38433059.35 m -338168.19 0 a 338168.19 338168.19 0 1 1 676336.37 0a 338168.19 338168.19 0 1 1 -676336.37 0M 44448820.44 38433058.65 m -180637.35 0 a 180637.35 180637.35 0 1 1 361274.69 0a 180637.35 180637.35 0 1 1 -361274.69 0"/>
<path id="N" d="M 33957315.00 49034805.00 L 33286765.00 49034805.00 L 33286765.00 49705355.00 L 33957315.00 49705355.00 L 33957315.00 49034805.00  zM 33622040.44 49370078.65 m -180637.35 0 a 180637.35 180637.35 0 1 1 361274.69 0a 180637.35 180637.35 0 1 1 -361274.69 0"/>
<path id="N" d="M 51133860.61 18874019.35 m -338168.19 0 a 338168.19 338168.19 0 1 1 676336.37 0a 338168.19 338168.19 0 1 1 -676336.37 0M 51133860.44 18874018.65 m -180637.35 0 a 180637.35 180637.35 0 1 1 361274.69 0a 180637.35 180637.35 0 1 1 -361274.69 0"/>
<path id="N" d="M 33957315.00 45097805.00 L 33286765.00 45097805.00 L 33286765.00 45768355.00 L 33957315.00 45768355.00 L 33957315.00 45097805.00  zM 33622040.44 45433078.65 m -180637.35 0 a 180637.35 180637.35 0 1 1 361274.69 0a 180637.35 180637.35 0 1 1 -361274.69 0"/>
<path id="N" d="M 64133860.61 22748039.35 m -338168.19 0 a 338168.19 338168.19 0 1 1 676336.37 0a 338168.19 338168.19 0 1 1 -676336.37 0M 64133860.44 22748038.65 m -180637.35 0 a 180637.35 180637.35 0 1 1 361274.69 0a 180637.35 180637.35 0 1 1 -361274.69 0"/>
<path id="N" d="M 26669300.61 39527559.35 m -338168.19 0 a 338168.19 338168.19 0 1 1 676336.37 0a 338168.19 338168.19 0 1 1 -676336.37 0M 26669300.44 39527558.65 m -180637.35 0 a 180637.35 180637.35 0 1 1 361274.69 0a 180637.35 180637.35 0 1 1 -361274.69 0"/>
<path id="N" d="M 20763780.61 31653539.35 m -338168.19 0 a 338168.19 338168.19 0 1 1 676336.37 0a 338168.19 338168.19 0 1 1 -676336.37 0M 20763780.44 31653538.65 m -180637.35 0 a 180637.35 180637.35 0 1 1 361274.69 0a 180637.35 180637.35 0 1 1 -361274.69 0"/>
<path id="N" d="M 44448820.61 42433059.35 m -338168.19 0 a 338168.19 338168.19 0 1 1 676336.37 0a 338168.19 338168.19 0 1 1 -676336.37 0M 44448820.44 42433058.65 m -180637.35 0 a 180637.35 180637.35 0 1 1 361274.69 0a 180637.35 180637.35 0 1 1 -361274.69 0"/>
<path id="N" d="M 34606300.61 30653539.35 m -338168.19 0 a 338168.19 338168.19 0 1 1 676336.37 0a 338168.19 338168.19 0 1 1 -676336.37 0M 34606300.44 30653538.65 m -180637.35 0 a 180637.35 180637.35 0 1 1 361274.69 0a 180637.35 180637.35 0 1 1 -361274.69 0"/>
<path id="N" d="M 64133860.61 35669300.35 m -338168.19 0 a 338168.19 338168.19 0 1 1 676336.37 0a 338168.19 338168.19 0 1 1 -676336.37 0M 64133860.44 35669299.65 m -180637.35 0 a 180637.35 180637.35 0 1 1 361274.69 0a 180637.35 180637.35 0 1 1 -361274.69 0"/>
<path id="N" d="M 20795280.61 45433079.35 m -338168.19 0 a 338168.19 338168.19 0 1 1 676336.37 0a 338168.19 338168.19 0 1 1 -676336.37 0M 20795280.44 45433078.65 m -180637.35 0 a 180637.35 180637.35 0 1 1 361274.69 0a 180637.35 180637.35 0 1 1 -361274.69 0"/>
<path id="N" d="M 27669300.61 39527559.35 m -338168.19 0 a 338168.19 338168.19 0 1 1 676336.37 0a 338168.19 338168.19 0 1 1 -676336.37 0M 27669300.44 39527558.65 m -180637.35 0 a 180637.35 180637.35 0 1 1 361274.69 0a 180637.35 180637.35 0 1 1 -361274.69 0"/>
<path id="N" d="M 64469135.00 21412765.00 L 63798585.00 21412765.00 L 63798585.00 22083315.00 L 64469135.00 22083315.00 L 64469135.00 21412765.00  zM 64133860.44 21748038.65 m -180637.35 0 a 180637.35 180637.35 0 1 1 361274.69 0a 180637.35 180637.35 0 1 1 -361274.69 0"/>
<path id="N" d="M 49133860.61 18874019.35 m -338168.19 0 a 338168.19 338168.19 0 1 1 676336.37 0a 338168.19 338168.19 0 1 1 -676336.37 0M 49133860.44 18874018.65 m -180637.35 0 a 180637.35 180637.35 0 1 1 361274.69 0a 180637.35 180637.35 0 1 1 -361274.69 0"/>
<path id="N" d="M 31606300.61 31653539.35 m -338168.19 0 a 338168.19 338168.19 0 1 1 676336.37 0a 338168.19 338168.19 0 1 1 -676336.37 0M 31606300.44 31653538.65 m -180637.35 0 a 180637.35 180637.35 0 1 1 361274.69 0a 180637.35 180637.35 0 1 1 -361274.69 0"/>
</g>
</svg>
