<svg width="160.00000004mm" height="115.00000114mm" viewBox="0 0 62992126 45275591"  version="1.1" xmlns="http://www.w3.org/2000/svg" xmlns:xlink="http://www.w3.org/1999/xlink">
<desc>
Origin 10000000 10000000 Bound 10000000 10000000 62992126 45275591
</desc>
<g fill-rule="evenodd" fill="rgb(40, 190, 190)" stroke="black" stroke-width="1" transform="translate(0, 45275591) scale(1, -1) translate(-10000000, -10000000)">
<path id="N" d="M 64133857.35 24748033.57 m -297829.90 0 a 297829.90 297829.90 0 1 1 595659.80 0a 297829.90 297829.90 0 1 1 -595659.80 0M 64133860.44 24748038.65 m -180637.35 0 a 180637.35 180637.35 0 1 1 361274.69 0a 180637.35 180637.35 0 1 1 -361274.69 0"/>
<path id="N" d="M 22763777.35 31653533.57 m -297829.90 0 a 297829.90 297829.90 0 1 1 595659.80 0a 297829.90 297829.90 0 1 1 -595659.80 0M 22763780.44 31653538.65 m -180637.35 0 a 180637.35 180637.35 0 1 1 361274.69 0a 180637.35 180637.35 0 1 1 -361274.69 0"/>
<path id="N" d="M 32691915.00 32637795.00 L 32691915.00 31937680.51 L 32755212.00 31911462.00 A 297809.61 297809.61 0 1 0 32529218.00 31941215.00 L 32583675.00 31948384.37 L 32583675.00 32583675.00 L 27770655.00 32583675.00 L 27770655.00 17928136.00 L 46363203.00 17928136.00 L 46363203.00 19842520.00 L 46379054.00 19880789.00 L 46417323.00 19896640.00 L 47401575.00 19896641.00 L 47439844.00 19880789.00 L 48151052.45 19169579.58 L 48210942.00 19161695.00 A 297829.90 297829.90 0 1 0 47984948.00 19131942.00 L 48020775.60 19146782.30 L 47379157.02 19788400.00 L 46471443.00 19788400.00 L 46471443.00 17874016.00 L 46455592.00 17835747.00 L 46417323.00 17819896.00 L 27716535.00 17819896.00 L 27678266.00 17835747.00 L 27662415.00 17874016.00 L 27662415.00 32637795.00 L 27678266.00 32676064.00 L 27716535.00 32691915.00 L 32637795.00 32691915.00 L 32676064.00 32676064.00 L 32691915.00 32637795.00  zM 32606300.44 31653538.65 m -180637.35 0 a 180637.35 180637.35 0 1 1 361274.69 0a 180637.35 180637.35 0 1 1 -361274.69 0M 48133860.44 18874018.65 m -180637.35 0 a 180637.35 180637.35 0 1 1 361274.69 0a 180637.35 180637.35 0 1 1 -361274.69 0"/>
<path id="N" d="M 23763777.35 31653533.57 m -297829.90 0 a 297829.90 297829.90 0 1 1 595659.80 0a 297829.90 297829.90 0 1 1 -595659.80 0M 23763780.44 31653538.65 m -180637.35 0 a 180637.35 180637.35 0 1 1 361274.69 0a 180637.35 180637.35 0 1 1 -361274.69 0"/>
<path id="N" d="M 64133857.35 23748033.57 m -297829.90 0 a 297829.90 297829.90 0 1 1 595659.80 0a 297829.90 297829.90 0 1 1 -595659.80 0M 64133860.44 23748038.65 m -180637.35 0 a 180637.35 180637.35 0 1 1 361274.69 0a 180637.35 180637.35 0 1 1 -361274.69 0"/>
<path id="N" d="M 64133850.01 37669281.86 m -297844.08 0 a 297844.08 297844.08 0 1 1 595688.15 0a 297844.08 297844.08 0 1 1 -595688.15 0M 64133860.44 37669299.65 m -180637.35 0 a 180637.35 180637.35 0 1 1 361274.69 0a 180637.35 180637.35 0 1 1 -361274.69 0"/>
<path id="N" d="M 33606297.35 31653533.57 m -297829.90 0 a 297829.90 297829.90 0 1 1 595659.80 0a 297829.90 297829.90 0 1 1 -595659.80 0M 33606300.44 31653538.65 m -180637.35 0 a 180637.35 180637.35 0 1 1 361274.69 0a 180637.35 180637.35 0 1 1 -361274.69 0"/>
<path id="N" d="M 49133857.35 17874013.57 m -297829.90 0 a 297829.90 297829.90 0 1 1 595659.80 0a 297829.90 297829.90 0 1 1 -595659.80 0M 49133860.44 17874018.65 m -180637.35 0 a 180637.35 180637.35 0 1 1 361274.69 0a 180637.35 180637.35 0 1 1 -361274.69 0"/>
<path id="N" d="M 32606297.35 30653533.57 m -297829.90 0 a 297829.90 297829.90 0 1 1 595659.80 0a 297829.90 297829.90 0 1 1 -595659.80 0M 32606300.44 30653538.65 m -180637.35 0 a 180637.35 180637.35 0 1 1 361274.69 0a 180637.35 180637.35 0 1 1 -361274.69 0"/>
<path id="N" d="M 32699122.00 49082405.00 L 32676160.00 49079382.01 L 32676160.00 48439947.00 L 46417323.00 48439947.00 L 46455592.00 48424096.00 L 46471443.00 48385827.00 L 46471444.00 40511811.00 L 46455590.29 40473541.29 L 46376841.00 40394791.00 L 46338569.59 40378940.00 L 44739517.99 40378940.00 L 44736495.00 40355978.00 A 297829.90 297829.90 0 1 0 44736495.00 40510142.00 L 44739517.99 40487180.00 L 46316154.20 40487180.00 L 46363203.00 40534228.20 L 46363203.00 48331707.00 L 35644671.00 48331707.00 L 35644671.00 31653543.00 L 35628817.00 31615271.00 L 35590545.59 31599420.00 L 34901575.00 31599420.00 L 34901575.00 31358265.00 L 34311025.00 31358265.00 L 34311025.00 31948815.00 L 34901575.00 31948815.00 L 34901575.00 31707660.00 L 35536431.00 31707660.00 L 35536431.00 42426195.00 L 25802151.00 42426195.00 L 25802151.00 39792134.69 L 25818212.00 39785482.00 A 297809.61 297809.61 0 0 0 25746382.00 39239885.00 L 25723420.00 39236862.01 L 25723420.00 36675951.80 L 25786300.00 36613072.00 A 54121.84 54121.84 0 0 0 25748031.00 36520683.00 L 21833442.00 36520683.00 L 21817900.00 36505141.00 L 21817900.00 31944237.99 L 21840862.00 31941215.00 A 297829.90 297829.90 0 1 0 21686698.00 31941215.00 L 21709660.00 31944237.99 L 21709659.00 36527559.00 L 21725511.00 36565828.00 L 21772755.00 36613072.00 L 21811024.00 36628923.00 L 25625373.51 36628923.00 L 25615180.00 36653536.41 L 25615180.00 39236862.01 L 25592218.00 39239885.00 A 297829.90 297829.90 0 0 0 25669300.00 39825383.00 L 25693911.00 39822142.91 L 25693911.00 45378951.00 L 23090555.00 45378951.00 L 23090555.00 45137805.00 L 22500005.00 45137805.00 L 22500005.00 45728355.00 L 22741160.00 45728355.00 L 22741160.00 49074805.00 L 22500005.00 49074805.00 L 22500005.00 49665355.00 L 23090555.00 49665355.00 L 23090555.00 49074805.00 L 22849400.00 49074805.00 L 22849400.00 45728355.00 L 23090555.00 45728355.00 L 23090555.00 45487191.00 L 25748031.00 45487191.00 L 25786300.00 45471340.00 L 25802151.00 45433071.00 L 25802151.00 42534435.00 L 35536431.00 42534435.00 L 35536431.00 48331707.00 L 32676160.00 48331707.00 L 32676160.00 45723777.99 L 32699122.00 45720755.00 A 297829.90 297829.90 0 1 0 32544958.00 45720755.00 L 32567920.00 45723777.99 L 32567920.00 49079382.01 L 32544958.00 49082405.00 A 297829.90 297829.90 0 1 0 32699122.00 49082405.00  zM 21763780.44 31653538.65 m -180637.35 0 a 180637.35 180637.35 0 1 1 361274.69 0a 180637.35 180637.35 0 1 1 -361274.69 0M 25669300.44 39527558.65 m -180637.35 0 a 180637.35 180637.35 0 1 1 361274.69 0a 180637.35 180637.35 0 1 1 -361274.69 0M 22795280.44 45433078.65 m -180637.35 0 a 180637.35 180637.35 0 1 1 361274.69 0a 180637.35 180637.35 0 1 1 -361274.69 0M 22795280.44 49370078.65 m -180637.35 0 a 180637.35 180637.35 0 1 1 361274.69 0a 180637.35 180637.35 0 1 1 -361274.69 0M 34606300.44 31653538.65 m -180637.35 0 a 180637.35 180637.35 0 1 1 361274.69 0a 180637.35 180637.35 0 1 1 -361274.69 0M 44448820.44 40433058.65 m -180637.35 0 a 180637.35 180637.35 0 1 1 361274.69 0a 180637.35 180637.35 0 1 1 -361274.69 0M 32622040.44 45433078.65 m -180637.35 0 a 180637.35 180637.35 0 1 1 361274.69 0a 180637.35 180637.35 0 1 1 -361274.69 0M 32622040.44 49370078.65 m -180637.35 0 a 180637.35 180637.35 0 1 1 361274.69 0a 180637.35 180637.35 0 1 1 -361274.69 0"/>
<path id="N" d="M 33606297.35 30653533.57 m -297829.90 0 a 297829.90 297829.90 0 1 1 595659.80 0a 297829.90 297829.90 0 1 1 -595659.80 0M 33606300.44 30653538.65 m -180637.35 0 a 180637.35 180637.35 0 1 1 361274.69 0a 180637.35 180637.35 0 1 1 -361274.69 0"/>
<path id="N" d="M 64429135.00 39232286.00 L 63838585.00 39232286.00 L 63838585.00 39822836.00 L 64429135.00 39822836.00 L 64429135.00 39232286.00  zM 64133860.44 39527559.65 m -180637.35 0 a 180637.35 180637.35 0 1 1 361274.69 0a 180637.35 180637.35 0 1 1 -361274.69 0"/>
<path id="N" d="M 44448817.35 32574813.57 m -297829.90 0 a 297829.90 297829.90 0 1 1 595659.80 0a 297829.90 297829.90 0 1 1 -595659.80 0M 44448820.44 32574818.65 m -180637.35 0 a 180637.35 180637.35 0 1 1 361274.69 0a 180637.35 180637.35 0 1 1 -361274.69 0"/>
<path id="N" d="M 31606297.35 30653533.57 m -297829.90 0 a 297829.90 297829.90 0 1 1 595659.80 0a 297829.90 297829.90 0 1 1 -595659.80 0M 31606300.44 30653538.65 m -180637.35 0 a 180637.35 180637.35 0 1 1 361274.69 0a 180637.35 180637.35 0 1 1 -361274.69 0"/>
<path id="N" d="M 44448817.35 31574813.57 m -297829.90 0 a 297829.90 297829.90 0 1 1 595659.80 0a 297829.90 297829.90 0 1 1 -595659.80 0M 44448820.44 31574818.65 m -180637.35 0 a 180637.35 180637.35 0 1 1 361274.69 0a 180637.35 180637.35 0 1 1 -361274.69 0"/>
<path id="N" d="M 44448817.35 41433053.57 m -297829.90 0 a 297829.90 297829.90 0 1 1 595659.80 0a 297829.90 297829.90 0 1 1 -595659.80 0M 44448820.44 41433058.65 m -180637.35 0 a 180637.35 180637.35 0 1 1 361274.69 0a 180637.35 180637.35 0 1 1 -361274.69 0"/>
<path id="N" d="M 44448817.35 44433053.57 m -297829.90 0 a 297829.90 297829.90 0 1 1 595659.80 0a 297829.90 297829.90 0 1 1 -595659.80 0M 44448820.44 44433058.65 m -180637.35 0 a 180637.35 180637.35 0 1 1 361274.69 0a 180637.35 180637.35 0 1 1 -361274.69 0"/>
<path id="N" d="M 24669297.35 39527553.57 m -297829.90 0 a 297829.90 297829.90 0 1 1 595659.80 0a 297829.90 297829.90 0 1 1 -595659.80 0M 24669300.44 39527558.65 m -180637.35 0 a 180637.35 180637.35 0 1 1 361274.69 0a 180637.35 180637.35 0 1 1 -361274.69 0"/>
<path id="N" d="M 28669297.35 39527553.57 m -297829.90 0 a 297829.90 297829.90 0 1 1 595659.80 0a 297829.90 297829.90 0 1 1 -595659.80 0M 28669300.44 39527558.65 m -180637.35 0 a 180637.35 180637.35 0 1 1 361274.69 0a 180637.35 180637.35 0 1 1 -361274.69 0"/>
<path id="N" d="M 44448817.35 43433053.57 m -297829.90 0 a 297829.90 297829.90 0 1 1 595659.80 0a 297829.90 297829.90 0 1 1 -595659.80 0M 44448820.44 43433058.65 m -180637.35 0 a 180637.35 180637.35 0 1 1 361274.69 0a 180637.35 180637.35 0 1 1 -361274.69 0"/>
<path id="N" d="M 44448817.35 33574813.57 m -297829.90 0 a 297829.90 297829.90 0 1 1 595659.80 0a 297829.90 297829.90 0 1 1 -595659.80 0M 44448820.44 33574818.65 m -180637.35 0 a 180637.35 180637.35 0 1 1 361274.69 0a 180637.35 180637.35 0 1 1 -361274.69 0"/>
<path id="N" d="M 61133857.35 17874013.57 m -297829.90 0 a 297829.90 297829.90 0 1 1 595659.80 0a 297829.90 297829.90 0 1 1 -595659.80 0M 61133860.44 17874018.65 m -180637.35 0 a 180637.35 180637.35 0 1 1 361274.69 0a 180637.35 180637.35 0 1 1 -361274.69 0"/>
<path id="N" d="M 62133857.35 17874013.57 m -297829.90 0 a 297829.90 297829.90 0 1 1 595659.80 0a 297829.90 297829.90 0 1 1 -595659.80 0M 62133860.44 17874018.65 m -180637.35 0 a 180637.35 180637.35 0 1 1 361274.69 0a 180637.35 180637.35 0 1 1 -361274.69 0"/>
<path id="N" d="M 55133857.35 17874013.57 m -297829.90 0 a 297829.90 297829.90 0 1 1 595659.80 0a 297829.90 297829.90 0 1 1 -595659.80 0M 55133860.44 17874018.65 m -180637.35 0 a 180637.35 180637.35 0 1 1 361274.69 0a 180637.35 180637.35 0 1 1 -361274.69 0"/>
<path id="N" d="M 60133857.35 17874013.57 m -297829.90 0 a 297829.90 297829.90 0 1 1 595659.80 0a 297829.90 297829.90 0 1 1 -595659.80 0M 60133860.44 17874018.65 m -180637.35 0 a 180637.35 180637.35 0 1 1 361274.69 0a 180637.35 180637.35 0 1 1 -361274.69 0"/>
<path id="N" d="M 59133857.35 17874013.57 m -297829.90 0 a 297829.90 297829.90 0 1 1 595659.80 0a 297829.90 297829.90 0 1 1 -595659.80 0M 59133860.44 17874018.65 m -180637.35 0 a 180637.35 180637.35 0 1 1 361274.69 0a 180637.35 180637.35 0 1 1 -361274.69 0"/>
<path id="N" d="M 58133857.35 17874013.57 m -297829.90 0 a 297829.90 297829.90 0 1 1 595659.80 0a 297829.90 297829.90 0 1 1 -595659.80 0M 58133860.44 17874018.65 m -180637.35 0 a 180637.35 180637.35 0 1 1 361274.69 0a 180637.35 180637.35 0 1 1 -361274.69 0"/>
<path id="N" d="M 44448817.35 20716533.57 m -297829.90 0 a 297829.90 297829.90 0 1 1 595659.80 0a 297829.90 297829.90 0 1 1 -595659.80 0M 44448820.44 20716538.65 m -180637.35 0 a 180637.35 180637.35 0 1 1 361274.69 0a 180637.35 180637.35 0 1 1 -361274.69 0"/>
<path id="N" d="M 56133857.35 17874013.57 m -297829.90 0 a 297829.90 297829.90 0 1 1 595659.80 0a 297829.90 297829.90 0 1 1 -595659.80 0M 56133860.44 17874018.65 m -180637.35 0 a 180637.35 180637.35 0 1 1 361274.69 0a 180637.35 180637.35 0 1 1 -361274.69 0"/>
<path id="N" d="M 57133857.35 17874013.57 m -297829.90 0 a 297829.90 297829.90 0 1 1 595659.80 0a 297829.90 297829.90 0 1 1 -595659.80 0M 57133860.44 17874018.65 m -180637.35 0 a 180637.35 180637.35 0 1 1 361274.69 0a 180637.35 180637.35 0 1 1 -361274.69 0"/>
<path id="N" d="M 64133857.35 28748033.57 m -297829.90 0 a 297829.90 297829.90 0 1 1 595659.80 0a 297829.90 297829.90 0 1 1 -595659.80 0M 64133860.44 28748038.65 m -180637.35 0 a 180637.35 180637.35 0 1 1 361274.69 0a 180637.35 180637.35 0 1 1 -361274.69 0"/>
<path id="N" d="M 44448817.35 29574813.57 m -297829.90 0 a 297829.90 297829.90 0 1 1 595659.80 0a 297829.90 297829.90 0 1 1 -595659.80 0M 44448820.44 29574818.65 m -180637.35 0 a 180637.35 180637.35 0 1 1 361274.69 0a 180637.35 180637.35 0 1 1 -361274.69 0"/>
<path id="N" d="M 44448817.35 23716533.57 m -297829.90 0 a 297829.90 297829.90 0 1 1 595659.80 0a 297829.90 297829.90 0 1 1 -595659.80 0M 44448820.44 23716538.65 m -180637.35 0 a 180637.35 180637.35 0 1 1 361274.69 0a 180637.35 180637.35 0 1 1 -361274.69 0"/>
<path id="N" d="M 44448817.35 26716533.57 m -297829.90 0 a 297829.90 297829.90 0 1 1 595659.80 0a 297829.90 297829.90 0 1 1 -595659.80 0M 44448820.44 26716538.65 m -180637.35 0 a 180637.35 180637.35 0 1 1 361274.69 0a 180637.35 180637.35 0 1 1 -361274.69 0"/>
<path id="N" d="M 44448817.35 30574813.57 m -297829.90 0 a 297829.90 297829.90 0 1 1 595659.80 0a 297829.90 297829.90 0 1 1 -595659.80 0M 44448820.44 30574818.65 m -180637.35 0 a 180637.35 180637.35 0 1 1 361274.69 0a 180637.35 180637.35 0 1 1 -361274.69 0"/>
<path id="N" d="M 64133857.35 27748033.57 m -297829.90 0 a 297829.90 297829.90 0 1 1 595659.80 0a 297829.90 297829.90 0 1 1 -595659.80 0M 64133860.44 27748038.65 m -180637.35 0 a 180637.35 180637.35 0 1 1 361274.69 0a 180637.35 180637.35 0 1 1 -361274.69 0"/>
<path id="N" d="M 64133857.35 26748033.57 m -297829.90 0 a 297829.90 297829.90 0 1 1 595659.80 0a 297829.90 297829.90 0 1 1 -595659.80 0M 64133860.44 26748038.65 m -180637.35 0 a 180637.35 180637.35 0 1 1 361274.69 0a 180637.35 180637.35 0 1 1 -361274.69 0"/>
<path id="N" d="M 44448817.35 35574813.57 m -297829.90 0 a 297829.90 297829.90 0 1 1 595659.80 0a 297829.90 297829.90 0 1 1 -595659.80 0M 44448820.44 35574818.65 m -180637.35 0 a 180637.35 180637.35 0 1 1 361274.69 0a 180637.35 180637.35 0 1 1 -361274.69 0"/>
<path id="N" d="M 44448817.35 39433053.57 m -297829.90 0 a 297829.90 297829.90 0 1 1 595659.80 0a 297829.90 297829.90 0 1 1 -595659.80 0M 44448820.44 39433058.65 m -180637.35 0 a 180637.35 180637.35 0 1 1 361274.69 0a 180637.35 180637.35 0 1 1 -361274.69 0"/>
<path id="N" d="M 29669297.35 39527553.57 m -297829.90 0 a 297829.90 297829.90 0 1 1 595659.80 0a 297829.90 297829.90 0 1 1 -595659.80 0M 29669300.44 39527558.65 m -180637.35 0 a 180637.35 180637.35 0 1 1 361274.69 0a 180637.35 180637.35 0 1 1 -361274.69 0"/>
<path id="N" d="M 44448817.35 34574813.57 m -297829.90 0 a 297829.90 297829.90 0 1 1 595659.80 0a 297829.90 297829.90 0 1 1 -595659.80 0M 44448820.44 34574818.65 m -180637.35 0 a 180637.35 180637.35 0 1 1 361274.69 0a 180637.35 180637.35 0 1 1 -361274.69 0"/>
<path id="N" d="M 44448817.35 24716533.57 m -297829.90 0 a 297829.90 297829.90 0 1 1 595659.80 0a 297829.90 297829.90 0 1 1 -595659.80 0M 44448820.44 24716538.65 m -180637.35 0 a 180637.35 180637.35 0 1 1 361274.69 0a 180637.35 180637.35 0 1 1 -361274.69 0"/>
<path id="N" d="M 44448817.35 21716533.57 m -297829.90 0 a 297829.90 297829.90 0 1 1 595659.80 0a 297829.90 297829.90 0 1 1 -595659.80 0M 44448820.44 21716538.65 m -180637.35 0 a 180637.35 180637.35 0 1 1 361274.69 0a 180637.35 180637.35 0 1 1 -361274.69 0"/>
<path id="N" d="M 44448817.35 22716533.57 m -297829.90 0 a 297829.90 297829.90 0 1 1 595659.80 0a 297829.90 297829.90 0 1 1 -595659.80 0M 44448820.44 22716538.65 m -180637.35 0 a 180637.35 180637.35 0 1 1 361274.69 0a 180637.35 180637.35 0 1 1 -361274.69 0"/>
<path id="N" d="M 44448817.35 25716533.57 m -297829.90 0 a 297829.90 297829.90 0 1 1 595659.80 0a 297829.90 297829.90 0 1 1 -595659.80 0M 44448820.44 25716538.65 m -180637.35 0 a 180637.35 180637.35 0 1 1 361274.69 0a 180637.35 180637.35 0 1 1 -361274.69 0"/>
<path id="N" d="M 64133857.35 25748033.57 m -297829.90 0 a 297829.90 297829.90 0 1 1 595659.80 0a 297829.90 297829.90 0 1 1 -595659.80 0M 64133860.44 25748038.65 m -180637.35 0 a 180637.35 180637.35 0 1 1 361274.69 0a 180637.35 180637.35 0 1 1 -361274.69 0"/>
<path id="N" d="M 50133857.35 17874013.57 m -297829.90 0 a 297829.90 297829.90 0 1 1 595659.80 0a 297829.90 297829.90 0 1 1 -595659.80 0M 50133860.44 17874018.65 m -180637.35 0 a 180637.35 180637.35 0 1 1 361274.69 0a 180637.35 180637.35 0 1 1 -361274.69 0"/>
<path id="N" d="M 64133850.01 40527541.86 m -297844.08 0 a 297844.08 297844.08 0 1 1 595688.15 0a 297844.08 297844.08 0 1 1 -595688.15 0M 64133860.44 40527559.65 m -180637.35 0 a 180637.35 180637.35 0 1 1 361274.69 0a 180637.35 180637.35 0 1 1 -361274.69 0"/>
<path id="N" d="M 64133850.01 32669281.86 m -297844.08 0 a 297844.08 297844.08 0 1 1 595688.15 0a 297844.08 297844.08 0 1 1 -595688.15 0M 64133860.44 32669299.65 m -180637.35 0 a 180637.35 180637.35 0 1 1 361274.69 0a 180637.35 180637.35 0 1 1 -361274.69 0"/>
<path id="N" d="M 64133850.01 33669281.86 m -297844.08 0 a 297844.08 297844.08 0 1 1 595688.15 0a 297844.08 297844.08 0 1 1 -595688.15 0M 64133860.44 33669299.65 m -180637.35 0 a 180637.35 180637.35 0 1 1 361274.69 0a 180637.35 180637.35 0 1 1 -361274.69 0"/>
<path id="N" d="M 64133850.01 43527541.86 m -297844.08 0 a 297844.08 297844.08 0 1 1 595688.15 0a 297844.08 297844.08 0 1 1 -595688.15 0M 64133860.44 43527559.65 m -180637.35 0 a 180637.35 180637.35 0 1 1 361274.69 0a 180637.35 180637.35 0 1 1 -361274.69 0"/>
<path id="N" d="M 64133850.01 41527541.86 m -297844.08 0 a 297844.08 297844.08 0 1 1 595688.15 0a 297844.08 297844.08 0 1 1 -595688.15 0M 64133860.44 41527559.65 m -180637.35 0 a 180637.35 180637.35 0 1 1 361274.69 0a 180637.35 180637.35 0 1 1 -361274.69 0"/>
<path id="N" d="M 64133850.01 46527541.86 m -297844.08 0 a 297844.08 297844.08 0 1 1 595688.15 0a 297844.08 297844.08 0 1 1 -595688.15 0M 64133860.44 46527559.65 m -180637.35 0 a 180637.35 180637.35 0 1 1 361274.69 0a 180637.35 180637.35 0 1 1 -361274.69 0"/>
<path id="N" d="M 64133850.01 31669281.86 m -297844.08 0 a 297844.08 297844.08 0 1 1 595688.15 0a 297844.08 297844.08 0 1 1 -595688.15 0M 64133860.44 31669299.65 m -180637.35 0 a 180637.35 180637.35 0 1 1 361274.69 0a 180637.35 180637.35 0 1 1 -361274.69 0"/>
<path id="N" d="M 64133850.01 44527541.86 m -297844.08 0 a 297844.08 297844.08 0 1 1 595688.15 0a 297844.08 297844.08 0 1 1 -595688.15 0M 64133860.44 44527559.65 m -180637.35 0 a 180637.35 180637.35 0 1 1 361274.69 0a 180637.35 180637.35 0 1 1 -361274.69 0"/>
<path id="N" d="M 64133850.01 45527541.86 m -297844.08 0 a 297844.08 297844.08 0 1 1 595688.15 0a 297844.08 297844.08 0 1 1 -595688.15 0M 64133860.44 45527559.65 m -180637.35 0 a 180637.35 180637.35 0 1 1 361274.69 0a 180637.35 180637.35 0 1 1 -361274.69 0"/>
<path id="N" d="M 64133850.01 47527541.86 m -297844.08 0 a 297844.08 297844.08 0 1 1 595688.15 0a 297844.08 297844.08 0 1 1 -595688.15 0M 64133860.44 47527559.65 m -180637.35 0 a 180637.35 180637.35 0 1 1 361274.69 0a 180637.35 180637.35 0 1 1 -361274.69 0"/>
<path id="N" d="M 64133850.01 48527541.86 m -297844.08 0 a 297844.08 297844.08 0 1 1 595688.15 0a 297844.08 297844.08 0 1 1 -595688.15 0M 64133860.44 48527559.65 m -180637.35 0 a 180637.35 180637.35 0 1 1 361274.69 0a 180637.35 180637.35 0 1 1 -361274.69 0"/>
<path id="N" d="M 64133850.01 42527541.86 m -297844.08 0 a 297844.08 297844.08 0 1 1 595688.15 0a 297844.08 297844.08 0 1 1 -595688.15 0M 64133860.44 42527559.65 m -180637.35 0 a 180637.35 180637.35 0 1 1 361274.69 0a 180637.35 180637.35 0 1 1 -361274.69 0"/>
<path id="N" d="M 64133850.01 34669281.86 m -297844.08 0 a 297844.08 297844.08 0 1 1 595688.15 0a 297844.08 297844.08 0 1 1 -595688.15 0M 64133860.44 34669299.65 m -180637.35 0 a 180637.35 180637.35 0 1 1 361274.69 0a 180637.35 180637.35 0 1 1 -361274.69 0"/>
<path id="N" d="M 51133857.35 17874013.57 m -297829.90 0 a 297829.90 297829.90 0 1 1 595659.80 0a 297829.90 297829.90 0 1 1 -595659.80 0M 51133860.44 17874018.65 m -180637.35 0 a 180637.35 180637.35 0 1 1 361274.69 0a 180637.35 180637.35 0 1 1 -361274.69 0"/>
<path id="N" d="M 54133857.35 17874013.57 m -297829.90 0 a 297829.90 297829.90 0 1 1 595659.80 0a 297829.90 297829.90 0 1 1 -595659.80 0M 54133860.44 17874018.65 m -180637.35 0 a 180637.35 180637.35 0 1 1 361274.69 0a 180637.35 180637.35 0 1 1 -361274.69 0"/>
<path id="N" d="M 47133857.35 17874013.57 m -297829.90 0 a 297829.90 297829.90 0 1 1 595659.80 0a 297829.90 297829.90 0 1 1 -595659.80 0M 47133860.44 17874018.65 m -180637.35 0 a 180637.35 180637.35 0 1 1 361274.69 0a 180637.35 180637.35 0 1 1 -361274.69 0"/>
<path id="N" d="M 57133857.35 18874013.57 m -297829.90 0 a 297829.90 297829.90 0 1 1 595659.80 0a 297829.90 297829.90 0 1 1 -595659.80 0M 57133860.44 18874018.65 m -180637.35 0 a 180637.35 180637.35 0 1 1 361274.69 0a 180637.35 180637.35 0 1 1 -361274.69 0"/>
<path id="N" d="M 48133857.35 17874013.57 m -297829.90 0 a 297829.90 297829.90 0 1 1 595659.80 0a 297829.90 297829.90 0 1 1 -595659.80 0M 48133860.44 17874018.65 m -180637.35 0 a 180637.35 180637.35 0 1 1 361274.69 0a 180637.35 180637.35 0 1 1 -361274.69 0"/>
<path id="N" d="M 53133857.35 17874013.57 m -297829.90 0 a 297829.90 297829.90 0 1 1 595659.80 0a 297829.90 297829.90 0 1 1 -595659.80 0M 53133860.44 17874018.65 m -180637.35 0 a 180637.35 180637.35 0 1 1 361274.69 0a 180637.35 180637.35 0 1 1 -361274.69 0"/>
<path id="N" d="M 58133857.35 18874013.57 m -297829.90 0 a 297829.90 297829.90 0 1 1 595659.80 0a 297829.90 297829.90 0 1 1 -595659.80 0M 58133860.44 18874018.65 m -180637.35 0 a 180637.35 180637.35 0 1 1 361274.69 0a 180637.35 180637.35 0 1 1 -361274.69 0"/>
<path id="N" d="M 59133857.35 18874013.57 m -297829.90 0 a 297829.90 297829.90 0 1 1 595659.80 0a 297829.90 297829.90 0 1 1 -595659.80 0M 59133860.44 18874018.65 m -180637.35 0 a 180637.35 180637.35 0 1 1 361274.69 0a 180637.35 180637.35 0 1 1 -361274.69 0"/>
<path id="N" d="M 56133857.35 18874013.57 m -297829.90 0 a 297829.90 297829.90 0 1 1 595659.80 0a 297829.90 297829.90 0 1 1 -595659.80 0M 56133860.44 18874018.65 m -180637.35 0 a 180637.35 180637.35 0 1 1 361274.69 0a 180637.35 180637.35 0 1 1 -361274.69 0"/>
<path id="N" d="M 52133857.35 17874013.57 m -297829.90 0 a 297829.90 297829.90 0 1 1 595659.80 0a 297829.90 297829.90 0 1 1 -595659.80 0M 52133860.44 17874018.65 m -180637.35 0 a 180637.35 180637.35 0 1 1 361274.69 0a 180637.35 180637.35 0 1 1 -361274.69 0"/>
<path id="N" d="M 63133857.35 17874013.57 m -297829.90 0 a 297829.90 297829.90 0 1 1 595659.80 0a 297829.90 297829.90 0 1 1 -595659.80 0M 63133860.44 17874018.65 m -180637.35 0 a 180637.35 180637.35 0 1 1 361274.69 0a 180637.35 180637.35 0 1 1 -361274.69 0"/>
<path id="N" d="M 50133857.35 18874013.57 m -297829.90 0 a 297829.90 297829.90 0 1 1 595659.80 0a 297829.90 297829.90 0 1 1 -595659.80 0M 50133860.44 18874018.65 m -180637.35 0 a 180637.35 180637.35 0 1 1 361274.69 0a 180637.35 180637.35 0 1 1 -361274.69 0"/>
<path id="N" d="M 52133857.35 18874013.57 m -297829.90 0 a 297829.90 297829.90 0 1 1 595659.80 0a 297829.90 297829.90 0 1 1 -595659.80 0M 52133860.44 18874018.65 m -180637.35 0 a 180637.35 180637.35 0 1 1 361274.69 0a 180637.35 180637.35 0 1 1 -361274.69 0"/>
<path id="N" d="M 47133857.35 18874013.57 m -297829.90 0 a 297829.90 297829.90 0 1 1 595659.80 0a 297829.90 297829.90 0 1 1 -595659.80 0M 47133860.44 18874018.65 m -180637.35 0 a 180637.35 180637.35 0 1 1 361274.69 0a 180637.35 180637.35 0 1 1 -361274.69 0"/>
<path id="N" d="M 54133857.35 18874013.57 m -297829.90 0 a 297829.90 297829.90 0 1 1 595659.80 0a 297829.90 297829.90 0 1 1 -595659.80 0M 54133860.44 18874018.65 m -180637.35 0 a 180637.35 180637.35 0 1 1 361274.69 0a 180637.35 180637.35 0 1 1 -361274.69 0"/>
<path id="N" d="M 53133857.35 18874013.57 m -297829.90 0 a 297829.90 297829.90 0 1 1 595659.80 0a 297829.90 297829.90 0 1 1 -595659.80 0M 53133860.44 18874018.65 m -180637.35 0 a 180637.35 180637.35 0 1 1 361274.69 0a 180637.35 180637.35 0 1 1 -361274.69 0"/>
<path id="N" d="M 55133857.35 18874013.57 m -297829.90 0 a 297829.90 297829.90 0 1 1 595659.80 0a 297829.90 297829.90 0 1 1 -595659.80 0M 55133860.44 18874018.65 m -180637.35 0 a 180637.35 180637.35 0 1 1 361274.69 0a 180637.35 180637.35 0 1 1 -361274.69 0"/>
<path id="N" d="M 63133857.35 18874013.57 m -297829.90 0 a 297829.90 297829.90 0 1 1 595659.80 0a 297829.90 297829.90 0 1 1 -595659.80 0M 63133860.44 18874018.65 m -180637.35 0 a 180637.35 180637.35 0 1 1 361274.69 0a 180637.35 180637.35 0 1 1 -361274.69 0"/>
<path id="N" d="M 60133857.35 18874013.57 m -297829.90 0 a 297829.90 297829.90 0 1 1 595659.80 0a 297829.90 297829.90 0 1 1 -595659.80 0M 60133860.44 18874018.65 m -180637.35 0 a 180637.35 180637.35 0 1 1 361274.69 0a 180637.35 180637.35 0 1 1 -361274.69 0"/>
<path id="N" d="M 64133857.35 18874013.57 m -297829.90 0 a 297829.90 297829.90 0 1 1 595659.80 0a 297829.90 297829.90 0 1 1 -595659.80 0M 64133860.44 18874018.65 m -180637.35 0 a 180637.35 180637.35 0 1 1 361274.69 0a 180637.35 180637.35 0 1 1 -361274.69 0"/>
<path id="N" d="M 62133857.35 18874013.57 m -297829.90 0 a 297829.90 297829.90 0 1 1 595659.80 0a 297829.90 297829.90 0 1 1 -595659.80 0M 62133860.44 18874018.65 m -180637.35 0 a 180637.35 180637.35 0 1 1 361274.69 0a 180637.35 180637.35 0 1 1 -361274.69 0"/>
<path id="N" d="M 61133857.35 18874013.57 m -297829.90 0 a 297829.90 297829.90 0 1 1 595659.80 0a 297829.90 297829.90 0 1 1 -595659.80 0M 61133860.44 18874018.65 m -180637.35 0 a 180637.35 180637.35 0 1 1 361274.69 0a 180637.35 180637.35 0 1 1 -361274.69 0"/>
<path id="N" d="M 64429135.00 30374026.00 L 63838585.00 30374026.00 L 63838585.00 30964576.00 L 64429135.00 30964576.00 L 64429135.00 30374026.00  zM 64133860.44 30669299.65 m -180637.35 0 a 180637.35 180637.35 0 1 1 361274.69 0a 180637.35 180637.35 0 1 1 -361274.69 0"/>
<path id="N" d="M 44744095.00 27421265.00 L 44153545.00 27421265.00 L 44153545.00 28011815.00 L 44744095.00 28011815.00 L 44744095.00 27421265.00  zM 44448820.44 27716538.65 m -180637.35 0 a 180637.35 180637.35 0 1 1 361274.69 0a 180637.35 180637.35 0 1 1 -361274.69 0"/>
<path id="N" d="M 44744095.00 45137785.00 L 44153545.00 45137785.00 L 44153545.00 45728335.00 L 44744095.00 45728335.00 L 44744095.00 45137785.00  zM 44448820.44 45433058.65 m -180637.35 0 a 180637.35 180637.35 0 1 1 361274.69 0a 180637.35 180637.35 0 1 1 -361274.69 0"/>
<path id="N" d="M 30964575.00 39232285.00 L 30374025.00 39232285.00 L 30374025.00 39822835.00 L 30964575.00 39822835.00 L 30964575.00 39232285.00  zM 30669300.44 39527558.65 m -180637.35 0 a 180637.35 180637.35 0 1 1 361274.69 0a 180637.35 180637.35 0 1 1 -361274.69 0"/>
<path id="N" d="M 25059055.00 31358265.00 L 24468505.00 31358265.00 L 24468505.00 31948815.00 L 25059055.00 31948815.00 L 25059055.00 31358265.00  zM 24763780.44 31653538.65 m -180637.35 0 a 180637.35 180637.35 0 1 1 361274.69 0a 180637.35 180637.35 0 1 1 -361274.69 0"/>
<path id="N" d="M 64429135.00 17578745.00 L 63838585.00 17578745.00 L 63838585.00 18169295.00 L 64429135.00 18169295.00 L 64429135.00 17578745.00  zM 64133860.44 17874018.65 m -180637.35 0 a 180637.35 180637.35 0 1 1 361274.69 0a 180637.35 180637.35 0 1 1 -361274.69 0"/>
<path id="N" d="M 44744095.00 36279545.00 L 44153545.00 36279545.00 L 44153545.00 36870095.00 L 44744095.00 36870095.00 L 44744095.00 36279545.00  zM 44448820.44 36574818.65 m -180637.35 0 a 180637.35 180637.35 0 1 1 361274.69 0a 180637.35 180637.35 0 1 1 -361274.69 0"/>
<path id="N" d="M 65140738.00 52291343.00 L 65140738.00 36606295.00 L 65124887.00 36568026.00 L 65086618.00 36552175.00 L 64404948.21 36552175.00 L 64391782.00 36520389.00 A 297802.27 297802.27 0 1 0 64431683.00 36669301.00 L 64430513.14 36660415.00 L 65032498.00 36660415.00 L 65032498.00 52237223.00 L 20849400.00 52237223.00 L 20849400.00 49660777.99 L 20872362.00 49657755.00 A 297829.90 297829.90 0 1 0 20718198.00 49657755.00 L 20741160.00 49660777.99 L 20741160.00 52291343.00 L 20757011.00 52329612.00 L 20795280.00 52345463.00 L 65086618.00 52345463.00 L 65124887.00 52329612.00 L 65140738.00 52291343.00  zM 20795280.44 49370078.65 m -180637.35 0 a 180637.35 180637.35 0 1 1 361274.69 0a 180637.35 180637.35 0 1 1 -361274.69 0M 64133860.44 36669299.65 m -180637.35 0 a 180637.35 180637.35 0 1 1 361274.69 0a 180637.35 180637.35 0 1 1 -361274.69 0"/>
<path id="N" d="M 21872362.00 45145405.00 L 21849400.00 45142382.01 L 21849400.00 39597423.00 L 23380674.60 39597423.00 L 23381625.00 39604642.00 A 297829.90 297829.90 0 1 0 23381625.00 39450478.00 L 23376529.41 39489183.00 L 21795280.00 39489183.00 L 21757011.00 39505034.00 L 21741160.00 39543303.00 L 21741160.00 45142382.01 L 21718198.00 45145405.00 A 297829.90 297829.90 0 1 0 21872362.00 45145405.00  zM 23669300.44 39527558.65 m -180637.35 0 a 180637.35 180637.35 0 1 1 361274.69 0a 180637.35 180637.35 0 1 1 -361274.69 0M 21795280.44 45433078.65 m -180637.35 0 a 180637.35 180637.35 0 1 1 361274.69 0a 180637.35 180637.35 0 1 1 -361274.69 0"/>
<path id="N" d="M 33917315.00 49424200.00 L 47401574.00 49424201.00 L 47439844.00 49408348.00 L 47455695.00 49370079.00 L 47455696.00 38543307.00 L 47439842.29 38505037.29 L 47329597.00 38394791.00 L 47291325.59 38378940.00 L 44739517.99 38378940.00 L 44736495.00 38355978.00 A 297829.90 297829.90 0 1 0 44736495.00 38510142.00 L 44739517.99 38487180.00 L 47268910.14 38487180.00 L 47347455.00 38565724.14 L 47347455.00 49315960.00 L 33917315.00 49315960.00 L 33917315.00 49074805.00 L 33326765.00 49074805.00 L 33326765.00 49665355.00 L 33917315.00 49665355.00 L 33917315.00 49424200.00  zM 44448820.44 38433058.65 m -180637.35 0 a 180637.35 180637.35 0 1 1 361274.69 0a 180637.35 180637.35 0 1 1 -361274.69 0M 33622040.44 49370078.65 m -180637.35 0 a 180637.35 180637.35 0 1 1 361274.69 0a 180637.35 180637.35 0 1 1 -361274.69 0"/>
<path id="N" d="M 21795277.35 49370073.57 m -297829.90 0 a 297829.90 297829.90 0 1 1 595659.80 0a 297829.90 297829.90 0 1 1 -595659.80 0M 21795280.44 49370078.65 m -180637.35 0 a 180637.35 180637.35 0 1 1 361274.69 0a 180637.35 180637.35 0 1 1 -361274.69 0"/>
<path id="N" d="M 44151900.79 42426195.00 L 40565931.00 42426195.00 L 40565931.00 30669291.00 L 40550078.29 30631021.29 L 40534329.00 30615271.00 L 40496057.59 30599420.00 L 34896997.99 30599420.00 L 34893975.00 30576458.00 A 297829.90 297829.90 0 1 0 34893975.00 30730622.00 L 34896997.99 30707660.00 L 40457691.00 30707660.00 L 40457691.00 42480315.00 L 40473542.00 42518584.00 L 40511811.00 42534435.00 L 44171207.50 42534435.00 L 44190898.00 42581972.00 A 297809.61 297809.61 0 1 0 44151900.79 42426195.00  zM 34606300.44 30653538.65 m -180637.35 0 a 180637.35 180637.35 0 1 1 361274.69 0a 180637.35 180637.35 0 1 1 -361274.69 0M 44448820.44 42433058.65 m -180637.35 0 a 180637.35 180637.35 0 1 1 361274.69 0a 180637.35 180637.35 0 1 1 -361274.69 0"/>
<path id="N" d="M 20763777.35 31653533.57 m -297829.90 0 a 297829.90 297829.90 0 1 1 595659.80 0a 297829.90 297829.90 0 1 1 -595659.80 0M 20763780.44 31653538.65 m -180637.35 0 a 180637.35 180637.35 0 1 1 361274.69 0a 180637.35 180637.35 0 1 1 -361274.69 0"/>
<path id="N" d="M 26746382.00 39239885.00 L 26723420.00 39236862.01 L 26723420.00 34669282.00 L 26707569.00 34631013.00 L 26669300.00 34615162.00 L 25865134.00 34615162.00 L 25865134.00 15990912.75 L 25896414.25 15959632.00 L 66048242.00 15959632.00 L 66048242.00 22741156.00 L 64430776.71 22741156.00 L 64421535.00 22670958.00 A 297829.90 297829.90 0 1 0 64391782.00 22896952.00 L 64411480.37 22849396.00 L 66102362.00 22849396.00 L 66140631.00 22833545.00 L 66156482.00 22795276.00 L 66156482.00 15905512.00 L 66140631.00 15867243.00 L 66102362.00 15851392.00 L 25873997.00 15851392.00 L 25835727.29 15867244.71 L 25772745.00 15930226.00 L 25756894.00 15968497.41 L 25756894.00 34669282.00 L 25772745.00 34707551.00 L 25811014.00 34723402.00 L 26615180.00 34723402.00 L 26615180.00 39236862.01 L 26592218.00 39239885.00 A 297829.90 297829.90 0 1 0 26746382.00 39239885.00  zM 26669300.44 39527558.65 m -180637.35 0 a 180637.35 180637.35 0 1 1 361274.69 0a 180637.35 180637.35 0 1 1 -361274.69 0M 64133860.44 22748038.65 m -180637.35 0 a 180637.35 180637.35 0 1 1 361274.69 0a 180637.35 180637.35 0 1 1 -361274.69 0"/>
<path id="N" d="M 51392696.00 51338576.00 L 51392696.00 19078736.00 L 51377364.56 19041721.37 L 51391782.00 19022932.00 A 297823.01 297823.01 0 1 0 51284456.00 19130649.83 L 51284456.00 51284456.00 L 30723418.00 51284456.00 L 30723418.00 44502946.00 L 33567920.00 44502946.00 L 33567920.00 45137805.00 L 33326765.00 45137805.00 L 33326765.00 45728355.00 L 33917315.00 45728355.00 L 33917315.00 45137805.00 L 33676160.00 45137805.00 L 33676160.00 44448826.00 L 33660309.00 44410557.00 L 33622040.00 44394706.00 L 30669298.00 44394706.00 L 30631029.00 44410557.00 L 30615178.00 44448826.00 L 30615178.00 51338576.00 L 30631029.00 51376845.00 L 30669298.00 51392696.00 L 51338576.00 51392696.00 L 51376845.00 51376845.00 L 51392696.00 51338576.00  zM 51133860.44 18874018.65 m -180637.35 0 a 180637.35 180637.35 0 1 1 361274.69 0a 180637.35 180637.35 0 1 1 -361274.69 0M 33622040.44 45433078.65 m -180637.35 0 a 180637.35 180637.35 0 1 1 361274.69 0a 180637.35 180637.35 0 1 1 -361274.69 0"/>
<path id="N" d="M 66156473.00 53307078.00 L 66156473.00 35590560.00 A 54118.70 54118.70 0 0 0 66048233.00 35590560.00 L 66048233.00 35625378.65 L 66023609.59 35615181.00 L 64424557.99 35615181.00 L 64421535.00 35592219.00 A 297829.90 297829.90 0 1 0 64421535.00 35746383.00 L 64424557.99 35723421.00 L 66001194.20 35723421.00 L 66048233.00 35770459.20 L 66048233.00 53252958.00 L 18912397.00 53252958.00 L 18912397.00 45487200.00 L 20504582.01 45487200.00 L 20507605.00 45510162.00 A 297829.90 297829.90 0 1 0 20507605.00 45355998.00 L 20504582.01 45378960.00 L 18858277.00 45378960.00 L 18820008.00 45394811.00 L 18804157.00 45433080.00 L 18804157.00 53307078.00 L 18820008.00 53345347.00 L 18858277.00 53361198.00 L 66102353.00 53361198.00 L 66140622.00 53345347.00 L 66156473.00 53307078.00  zM 20795280.44 45433078.65 m -180637.35 0 a 180637.35 180637.35 0 1 1 361274.69 0a 180637.35 180637.35 0 1 1 -361274.69 0M 64133860.44 35669299.65 m -180637.35 0 a 180637.35 180637.35 0 1 1 361274.69 0a 180637.35 180637.35 0 1 1 -361274.69 0"/>
<path id="N" d="M 27746382.00 39239885.00 L 27723420.00 39236862.01 L 27723420.00 33691699.66 L 27754804.00 33660316.00 L 27770655.00 33622047.00 L 27754804.00 33583778.00 L 27716535.00 33567927.00 L 26880668.25 33567927.00 L 26849387.00 33536645.25 L 26849387.00 17006868.00 L 65001006.00 17006868.00 L 65001006.00 21693920.00 L 64429135.00 21693920.00 L 64429135.00 21452765.00 L 63838585.00 21452765.00 L 63838585.00 22043315.00 L 64429135.00 22043315.00 L 64429135.00 21802160.00 L 65055126.00 21802160.00 L 65093395.00 21786309.00 L 65109246.00 21748040.00 L 65109246.00 16952748.00 L 65093395.00 16914479.00 L 65055126.00 16898628.00 L 26795267.00 16898628.00 L 26756998.00 16914479.00 L 26741147.00 16952748.00 L 26741146.00 33559063.00 L 26756998.00 33597332.00 L 26819982.00 33660316.00 L 26858253.41 33676167.00 L 27615180.00 33676167.00 L 27615180.00 39236862.01 L 27592218.00 39239885.00 A 297829.90 297829.90 0 1 0 27746382.00 39239885.00  zM 27669300.44 39527558.65 m -180637.35 0 a 180637.35 180637.35 0 1 1 361274.69 0a 180637.35 180637.35 0 1 1 -361274.69 0M 64133860.44 21748038.65 m -180637.35 0 a 180637.35 180637.35 0 1 1 361274.69 0a 180637.35 180637.35 0 1 1 -361274.69 0"/>
<path id="N" d="M 31318625.00 31576458.00 L 31315601.61 31599423.00 L 28754907.00 31599423.00 L 28754907.00 18912388.00 L 45378951.00 18912388.00 L 45378951.00 20826772.00 L 45394802.00 20865041.00 L 45433071.00 20880892.00 L 48897641.00 20880893.00 L 48935910.00 20865041.00 L 49172129.00 20628822.00 L 49187980.00 20590553.00 L 49187980.00 19164717.99 L 49210942.00 19161695.00 A 297829.90 297829.90 0 1 0 49056778.00 19161695.00 L 49079740.00 19164717.99 L 49079740.00 20568135.00 L 48875223.00 20772652.00 L 45487191.00 20772652.00 L 45487191.00 18858268.00 L 45471340.00 18819999.00 L 45433071.00 18804148.00 L 28700787.00 18804148.00 L 28662518.00 18819999.00 L 28646667.00 18858268.00 L 28646667.00 31653543.00 L 28662518.00 31691812.00 L 28700787.00 31707663.00 L 31315602.40 31707663.00 L 31318625.00 31730622.00 A 297829.90 297829.90 0 1 0 31318625.00 31576458.00  zM 31606300.44 31653538.65 m -180637.35 0 a 180637.35 180637.35 0 1 1 361274.69 0a 180637.35 180637.35 0 1 1 -361274.69 0M 49133860.44 18874018.65 m -180637.35 0 a 180637.35 180637.35 0 1 1 361274.69 0a 180637.35 180637.35 0 1 1 -361274.69 0"/>
</g>
</svg>
