<svg width="160.00000004mm" height="115.00000114mm" viewBox="0 0 62992126 45275591"  version="1.1" xmlns="http://www.w3.org/2000/svg" xmlns:xlink="http://www.w3.org/1999/xlink">
<desc>
Origin 10000000 10000000 Bound 10000000 10000000 62992126 45275591
</desc>
<g fill-rule="evenodd" fill="rgb(174, 78, 0)" stroke="black" stroke-width="1" transform="translate(0, 45275591) scale(1, -1) translate(-10000000, -10000000)">
<path id="N" d="M 20669291.61 21685038.35 m -338168.19 0 a 338168.19 338168.19 0 1 1 676336.37 0a 338168.19 338168.19 0 1 1 -676336.37 0M 20669291.44 21685037.65 m -180637.35 0 a 180637.35 180637.35 0 1 1 361274.69 0a 180637.35 180637.35 0 1 1 -361274.69 0"/>
<path id="N" d="M 65944883.61 23669291.35 m -338168.19 0 a 338168.19 338168.19 0 1 1 676336.37 0a 338168.19 338168.19 0 1 1 -676336.37 0M 65944883.44 23669290.65 m -180637.35 0 a 180637.35 180637.35 0 1 1 361274.69 0a 180637.35 180637.35 0 1 1 -361274.69 0"/>
<path id="N" d="M 47976378.61 17700787.35 m -338168.19 0 a 338168.19 338168.19 0 1 1 676336.37 0a 338168.19 338168.19 0 1 1 -676336.37 0M 47976378.44 17700786.65 m -180637.35 0 a 180637.35 180637.35 0 1 1 361274.69 0a 180637.35 180637.35 0 1 1 -361274.69 0"/>
<path id="N" d="M 17716535.61 14795275.35 m -338168.19 0 a 338168.19 338168.19 0 1 1 676336.37 0a 338168.19 338168.19 0 1 1 -676336.37 0M 17716535.44 14795274.65 m -180637.35 0 a 180637.35 180637.35 0 1 1 361274.69 0a 180637.35 180637.35 0 1 1 -361274.69 0"/>
<path id="N" d="M 20669291.61 20685038.35 m -338168.19 0 a 338168.19 338168.19 0 1 1 676336.37 0a 338168.19 338168.19 0 1 1 -676336.37 0M 20669291.44 20685037.65 m -180637.35 0 a 180637.35 180637.35 0 1 1 361274.69 0a 180637.35 180637.35 0 1 1 -361274.69 0"/>
<path id="N" d="M 65944883.61 22669291.35 m -338168.19 0 a 338168.19 338168.19 0 1 1 676336.37 0a 338168.19 338168.19 0 1 1 -676336.37 0M 65944883.44 22669290.65 m -180637.35 0 a 180637.35 180637.35 0 1 1 361274.69 0a 180637.35 180637.35 0 1 1 -361274.69 0"/>
<path id="N" d="M 17716535.61 13795275.35 m -338168.19 0 a 338168.19 338168.19 0 1 1 676336.37 0a 338168.19 338168.19 0 1 1 -676336.37 0M 17716535.44 13795274.65 m -180637.35 0 a 180637.35 180637.35 0 1 1 361274.69 0a 180637.35 180637.35 0 1 1 -361274.69 0"/>
<path id="N" d="M 65944883.61 48338583.35 m -338168.19 0 a 338168.19 338168.19 0 1 1 676336.37 0a 338168.19 338168.19 0 1 1 -676336.37 0M 65944883.44 48338582.65 m -180637.35 0 a 180637.35 180637.35 0 1 1 361274.69 0a 180637.35 180637.35 0 1 1 -361274.69 0"/>
<path id="N" d="M 48976378.61 18700787.35 m -338168.19 0 a 338168.19 338168.19 0 1 1 676336.37 0a 338168.19 338168.19 0 1 1 -676336.37 0M 48976378.44 18700786.65 m -180637.35 0 a 180637.35 180637.35 0 1 1 361274.69 0a 180637.35 180637.35 0 1 1 -361274.69 0"/>
<path id="N" d="M 16716535.61 14795275.35 m -338168.19 0 a 338168.19 338168.19 0 1 1 676336.37 0a 338168.19 338168.19 0 1 1 -676336.37 0M 16716535.44 14795274.65 m -180637.35 0 a 180637.35 180637.35 0 1 1 361274.69 0a 180637.35 180637.35 0 1 1 -361274.69 0"/>
<path id="N" d="M 13779528.61 33480314.35 m -338168.19 0 a 338168.19 338168.19 0 1 1 676336.37 0a 338168.19 338168.19 0 1 1 -676336.37 0M 13779528.44 33480313.65 m -180637.35 0 a 180637.35 180637.35 0 1 1 361274.69 0a 180637.35 180637.35 0 1 1 -361274.69 0"/>
<path id="N" d="M 30653543.61 49370078.35 m -338168.19 0 a 338168.19 338168.19 0 1 1 676336.37 0a 338168.19 338168.19 0 1 1 -676336.37 0M 30653543.44 49370077.65 m -180637.35 0 a 180637.35 180637.35 0 1 1 361274.69 0a 180637.35 180637.35 0 1 1 -361274.69 0"/>
<path id="N" d="M 45275591.61 43385827.35 m -338168.19 0 a 338168.19 338168.19 0 1 1 676336.37 0a 338168.19 338168.19 0 1 1 -676336.37 0M 45275591.44 43385826.65 m -180637.35 0 a 180637.35 180637.35 0 1 1 361274.69 0a 180637.35 180637.35 0 1 1 -361274.69 0"/>
<path id="N" d="M 20669291.61 22685038.35 m -338168.19 0 a 338168.19 338168.19 0 1 1 676336.37 0a 338168.19 338168.19 0 1 1 -676336.37 0M 20669291.44 22685037.65 m -180637.35 0 a 180637.35 180637.35 0 1 1 361274.69 0a 180637.35 180637.35 0 1 1 -361274.69 0"/>
<path id="N" d="M 17716535.61 33543306.35 m -338168.19 0 a 338168.19 338168.19 0 1 1 676336.37 0a 338168.19 338168.19 0 1 1 -676336.37 0M 17716535.44 33543305.65 m -180637.35 0 a 180637.35 180637.35 0 1 1 361274.69 0a 180637.35 180637.35 0 1 1 -361274.69 0"/>
<path id="N" d="M 14114803.00 37066300.00 L 13444253.00 37066300.00 L 13444253.00 37736850.00 L 14114803.00 37736850.00 L 14114803.00 37066300.00  zM 13779528.44 37401573.65 m -180637.35 0 a 180637.35 180637.35 0 1 1 361274.69 0a 180637.35 180637.35 0 1 1 -361274.69 0"/>
<path id="N" d="M 14114803.00 41987560.00 L 13444253.00 41987560.00 L 13444253.00 42658110.00 L 14114803.00 42658110.00 L 14114803.00 41987560.00  zM 13779528.44 42322833.65 m -180637.35 0 a 180637.35 180637.35 0 1 1 361274.69 0a 180637.35 180637.35 0 1 1 -361274.69 0"/>
<path id="N" d="M 18051810.00 12460001.00 L 17381260.00 12460001.00 L 17381260.00 13130551.00 L 18051810.00 13130551.00 L 18051810.00 12460001.00  zM 17716535.44 12795274.65 m -180637.35 0 a 180637.35 180637.35 0 1 1 361274.69 0a 180637.35 180637.35 0 1 1 -361274.69 0"/>
<path id="N" d="M 16716535.61 13795275.35 m -338168.19 0 a 338168.19 338168.19 0 1 1 676336.37 0a 338168.19 338168.19 0 1 1 -676336.37 0M 16716535.44 13795274.65 m -180637.35 0 a 180637.35 180637.35 0 1 1 361274.69 0a 180637.35 180637.35 0 1 1 -361274.69 0"/>
<path id="N" d="M 66280158.00 30176537.00 L 65609608.00 30176537.00 L 65609608.00 30847087.00 L 66280158.00 30847087.00 L 66280158.00 30176537.00  zM 65944883.44 30511810.65 m -180637.35 0 a 180637.35 180637.35 0 1 1 361274.69 0a 180637.35 180637.35 0 1 1 -361274.69 0"/>
<path id="N" d="M 45275591.61 44385827.35 m -338168.19 0 a 338168.19 338168.19 0 1 1 676336.37 0a 338168.19 338168.19 0 1 1 -676336.37 0M 45275591.44 44385826.65 m -180637.35 0 a 180637.35 180637.35 0 1 1 361274.69 0a 180637.35 180637.35 0 1 1 -361274.69 0"/>
<path id="N" d="M 45275591.61 42385827.35 m -338168.19 0 a 338168.19 338168.19 0 1 1 676336.37 0a 338168.19 338168.19 0 1 1 -676336.37 0M 45275591.44 42385826.65 m -180637.35 0 a 180637.35 180637.35 0 1 1 361274.69 0a 180637.35 180637.35 0 1 1 -361274.69 0"/>
<path id="N" d="M 65944883.61 39511811.35 m -338168.19 0 a 338168.19 338168.19 0 1 1 676336.37 0a 338168.19 338168.19 0 1 1 -676336.37 0M 65944883.44 39511810.65 m -180637.35 0 a 180637.35 180637.35 0 1 1 361274.69 0a 180637.35 180637.35 0 1 1 -361274.69 0"/>
<path id="N" d="M 65944883.61 44338583.35 m -338168.19 0 a 338168.19 338168.19 0 1 1 676336.37 0a 338168.19 338168.19 0 1 1 -676336.37 0M 65944883.44 44338582.65 m -180637.35 0 a 180637.35 180637.35 0 1 1 361274.69 0a 180637.35 180637.35 0 1 1 -361274.69 0"/>
<path id="N" d="M 65944883.61 43338583.35 m -338168.19 0 a 338168.19 338168.19 0 1 1 676336.37 0a 338168.19 338168.19 0 1 1 -676336.37 0M 65944883.44 43338582.65 m -180637.35 0 a 180637.35 180637.35 0 1 1 361274.69 0a 180637.35 180637.35 0 1 1 -361274.69 0"/>
<path id="N" d="M 65944883.61 45338583.35 m -338168.19 0 a 338168.19 338168.19 0 1 1 676336.37 0a 338168.19 338168.19 0 1 1 -676336.37 0M 65944883.44 45338582.65 m -180637.35 0 a 180637.35 180637.35 0 1 1 361274.69 0a 180637.35 180637.35 0 1 1 -361274.69 0"/>
<path id="N" d="M 45275591.61 39385827.35 m -338168.19 0 a 338168.19 338168.19 0 1 1 676336.37 0a 338168.19 338168.19 0 1 1 -676336.37 0M 45275591.44 39385826.65 m -180637.35 0 a 180637.35 180637.35 0 1 1 361274.69 0a 180637.35 180637.35 0 1 1 -361274.69 0"/>
<path id="N" d="M 45275591.61 25669291.35 m -338168.19 0 a 338168.19 338168.19 0 1 1 676336.37 0a 338168.19 338168.19 0 1 1 -676336.37 0M 45275591.44 25669290.65 m -180637.35 0 a 180637.35 180637.35 0 1 1 361274.69 0a 180637.35 180637.35 0 1 1 -361274.69 0"/>
<path id="N" d="M 17716535.61 29543306.35 m -338168.19 0 a 338168.19 338168.19 0 1 1 676336.37 0a 338168.19 338168.19 0 1 1 -676336.37 0M 17716535.44 29543305.65 m -180637.35 0 a 180637.35 180637.35 0 1 1 361274.69 0a 180637.35 180637.35 0 1 1 -361274.69 0"/>
<path id="N" d="M 45275591.61 26669291.35 m -338168.19 0 a 338168.19 338168.19 0 1 1 676336.37 0a 338168.19 338168.19 0 1 1 -676336.37 0M 45275591.44 26669290.65 m -180637.35 0 a 180637.35 180637.35 0 1 1 361274.69 0a 180637.35 180637.35 0 1 1 -361274.69 0"/>
<path id="N" d="M 65944883.61 42338583.35 m -338168.19 0 a 338168.19 338168.19 0 1 1 676336.37 0a 338168.19 338168.19 0 1 1 -676336.37 0M 65944883.44 42338582.65 m -180637.35 0 a 180637.35 180637.35 0 1 1 361274.69 0a 180637.35 180637.35 0 1 1 -361274.69 0"/>
<path id="N" d="M 45275591.61 40385827.35 m -338168.19 0 a 338168.19 338168.19 0 1 1 676336.37 0a 338168.19 338168.19 0 1 1 -676336.37 0M 45275591.44 40385826.65 m -180637.35 0 a 180637.35 180637.35 0 1 1 361274.69 0a 180637.35 180637.35 0 1 1 -361274.69 0"/>
<path id="N" d="M 65944883.61 25669291.35 m -338168.19 0 a 338168.19 338168.19 0 1 1 676336.37 0a 338168.19 338168.19 0 1 1 -676336.37 0M 65944883.44 25669290.65 m -180637.35 0 a 180637.35 180637.35 0 1 1 361274.69 0a 180637.35 180637.35 0 1 1 -361274.69 0"/>
<path id="N" d="M 65944883.61 36511811.35 m -338168.19 0 a 338168.19 338168.19 0 1 1 676336.37 0a 338168.19 338168.19 0 1 1 -676336.37 0M 65944883.44 36511810.65 m -180637.35 0 a 180637.35 180637.35 0 1 1 361274.69 0a 180637.35 180637.35 0 1 1 -361274.69 0"/>
<path id="N" d="M 45275591.61 35527559.35 m -338168.19 0 a 338168.19 338168.19 0 1 1 676336.37 0a 338168.19 338168.19 0 1 1 -676336.37 0M 45275591.44 35527558.65 m -180637.35 0 a 180637.35 180637.35 0 1 1 361274.69 0a 180637.35 180637.35 0 1 1 -361274.69 0"/>
<path id="N" d="M 65944883.61 37511811.35 m -338168.19 0 a 338168.19 338168.19 0 1 1 676336.37 0a 338168.19 338168.19 0 1 1 -676336.37 0M 65944883.44 37511810.65 m -180637.35 0 a 180637.35 180637.35 0 1 1 361274.69 0a 180637.35 180637.35 0 1 1 -361274.69 0"/>
<path id="N" d="M 57976378.61 17700787.35 m -338168.19 0 a 338168.19 338168.19 0 1 1 676336.37 0a 338168.19 338168.19 0 1 1 -676336.37 0M 57976378.44 17700786.65 m -180637.35 0 a 180637.35 180637.35 0 1 1 361274.69 0a 180637.35 180637.35 0 1 1 -361274.69 0"/>
<path id="N" d="M 60976378.61 17700787.35 m -338168.19 0 a 338168.19 338168.19 0 1 1 676336.37 0a 338168.19 338168.19 0 1 1 -676336.37 0M 60976378.44 17700786.65 m -180637.35 0 a 180637.35 180637.35 0 1 1 361274.69 0a 180637.35 180637.35 0 1 1 -361274.69 0"/>
<path id="N" d="M 59976378.61 17700787.35 m -338168.19 0 a 338168.19 338168.19 0 1 1 676336.37 0a 338168.19 338168.19 0 1 1 -676336.37 0M 59976378.44 17700786.65 m -180637.35 0 a 180637.35 180637.35 0 1 1 361274.69 0a 180637.35 180637.35 0 1 1 -361274.69 0"/>
<path id="N" d="M 45275591.61 36527559.35 m -338168.19 0 a 338168.19 338168.19 0 1 1 676336.37 0a 338168.19 338168.19 0 1 1 -676336.37 0M 45275591.44 36527558.65 m -180637.35 0 a 180637.35 180637.35 0 1 1 361274.69 0a 180637.35 180637.35 0 1 1 -361274.69 0"/>
<path id="N" d="M 17716535.61 34543306.35 m -338168.19 0 a 338168.19 338168.19 0 1 1 676336.37 0a 338168.19 338168.19 0 1 1 -676336.37 0M 17716535.44 34543305.65 m -180637.35 0 a 180637.35 180637.35 0 1 1 361274.69 0a 180637.35 180637.35 0 1 1 -361274.69 0"/>
<path id="N" d="M 45275591.61 34527559.35 m -338168.19 0 a 338168.19 338168.19 0 1 1 676336.37 0a 338168.19 338168.19 0 1 1 -676336.37 0M 45275591.44 34527558.65 m -180637.35 0 a 180637.35 180637.35 0 1 1 361274.69 0a 180637.35 180637.35 0 1 1 -361274.69 0"/>
<path id="N" d="M 65944883.61 38511811.35 m -338168.19 0 a 338168.19 338168.19 0 1 1 676336.37 0a 338168.19 338168.19 0 1 1 -676336.37 0M 65944883.44 38511810.65 m -180637.35 0 a 180637.35 180637.35 0 1 1 361274.69 0a 180637.35 180637.35 0 1 1 -361274.69 0"/>
<path id="N" d="M 65944883.61 35511811.35 m -338168.19 0 a 338168.19 338168.19 0 1 1 676336.37 0a 338168.19 338168.19 0 1 1 -676336.37 0M 65944883.44 35511810.65 m -180637.35 0 a 180637.35 180637.35 0 1 1 361274.69 0a 180637.35 180637.35 0 1 1 -361274.69 0"/>
<path id="N" d="M 65944883.61 34511811.35 m -338168.19 0 a 338168.19 338168.19 0 1 1 676336.37 0a 338168.19 338168.19 0 1 1 -676336.37 0M 65944883.44 34511810.65 m -180637.35 0 a 180637.35 180637.35 0 1 1 361274.69 0a 180637.35 180637.35 0 1 1 -361274.69 0"/>
<path id="N" d="M 45275591.61 33527559.35 m -338168.19 0 a 338168.19 338168.19 0 1 1 676336.37 0a 338168.19 338168.19 0 1 1 -676336.37 0M 45275591.44 33527558.65 m -180637.35 0 a 180637.35 180637.35 0 1 1 361274.69 0a 180637.35 180637.35 0 1 1 -361274.69 0"/>
<path id="N" d="M 45275591.61 27669291.35 m -338168.19 0 a 338168.19 338168.19 0 1 1 676336.37 0a 338168.19 338168.19 0 1 1 -676336.37 0M 45275591.44 27669290.65 m -180637.35 0 a 180637.35 180637.35 0 1 1 361274.69 0a 180637.35 180637.35 0 1 1 -361274.69 0"/>
<path id="N" d="M 45275591.61 32527559.35 m -338168.19 0 a 338168.19 338168.19 0 1 1 676336.37 0a 338168.19 338168.19 0 1 1 -676336.37 0M 45275591.44 32527558.65 m -180637.35 0 a 180637.35 180637.35 0 1 1 361274.69 0a 180637.35 180637.35 0 1 1 -361274.69 0"/>
<path id="N" d="M 65944883.61 33511811.35 m -338168.19 0 a 338168.19 338168.19 0 1 1 676336.37 0a 338168.19 338168.19 0 1 1 -676336.37 0M 65944883.44 33511810.65 m -180637.35 0 a 180637.35 180637.35 0 1 1 361274.69 0a 180637.35 180637.35 0 1 1 -361274.69 0"/>
<path id="N" d="M 45275591.61 31527559.35 m -338168.19 0 a 338168.19 338168.19 0 1 1 676336.37 0a 338168.19 338168.19 0 1 1 -676336.37 0M 45275591.44 31527558.65 m -180637.35 0 a 180637.35 180637.35 0 1 1 361274.69 0a 180637.35 180637.35 0 1 1 -361274.69 0"/>
<path id="N" d="M 65944883.61 26669291.35 m -338168.19 0 a 338168.19 338168.19 0 1 1 676336.37 0a 338168.19 338168.19 0 1 1 -676336.37 0M 65944883.44 26669290.65 m -180637.35 0 a 180637.35 180637.35 0 1 1 361274.69 0a 180637.35 180637.35 0 1 1 -361274.69 0"/>
<path id="N" d="M 65944883.61 27669291.35 m -338168.19 0 a 338168.19 338168.19 0 1 1 676336.37 0a 338168.19 338168.19 0 1 1 -676336.37 0M 65944883.44 27669290.65 m -180637.35 0 a 180637.35 180637.35 0 1 1 361274.69 0a 180637.35 180637.35 0 1 1 -361274.69 0"/>
<path id="N" d="M 65944883.61 32511811.35 m -338168.19 0 a 338168.19 338168.19 0 1 1 676336.37 0a 338168.19 338168.19 0 1 1 -676336.37 0M 65944883.44 32511810.65 m -180637.35 0 a 180637.35 180637.35 0 1 1 361274.69 0a 180637.35 180637.35 0 1 1 -361274.69 0"/>
<path id="N" d="M 45275591.61 30527559.35 m -338168.19 0 a 338168.19 338168.19 0 1 1 676336.37 0a 338168.19 338168.19 0 1 1 -676336.37 0M 45275591.44 30527558.65 m -180637.35 0 a 180637.35 180637.35 0 1 1 361274.69 0a 180637.35 180637.35 0 1 1 -361274.69 0"/>
<path id="N" d="M 17716535.61 30543306.35 m -338168.19 0 a 338168.19 338168.19 0 1 1 676336.37 0a 338168.19 338168.19 0 1 1 -676336.37 0M 17716535.44 30543305.65 m -180637.35 0 a 180637.35 180637.35 0 1 1 361274.69 0a 180637.35 180637.35 0 1 1 -361274.69 0"/>
<path id="N" d="M 65944883.61 31511811.35 m -338168.19 0 a 338168.19 338168.19 0 1 1 676336.37 0a 338168.19 338168.19 0 1 1 -676336.37 0M 65944883.44 31511810.65 m -180637.35 0 a 180637.35 180637.35 0 1 1 361274.69 0a 180637.35 180637.35 0 1 1 -361274.69 0"/>
<path id="N" d="M 58976378.61 17700787.35 m -338168.19 0 a 338168.19 338168.19 0 1 1 676336.37 0a 338168.19 338168.19 0 1 1 -676336.37 0M 58976378.44 17700786.65 m -180637.35 0 a 180637.35 180637.35 0 1 1 361274.69 0a 180637.35 180637.35 0 1 1 -361274.69 0"/>
<path id="N" d="M 56976378.61 18700787.35 m -338168.19 0 a 338168.19 338168.19 0 1 1 676336.37 0a 338168.19 338168.19 0 1 1 -676336.37 0M 56976378.44 18700786.65 m -180637.35 0 a 180637.35 180637.35 0 1 1 361274.69 0a 180637.35 180637.35 0 1 1 -361274.69 0"/>
<path id="N" d="M 55976378.61 18700787.35 m -338168.19 0 a 338168.19 338168.19 0 1 1 676336.37 0a 338168.19 338168.19 0 1 1 -676336.37 0M 55976378.44 18700786.65 m -180637.35 0 a 180637.35 180637.35 0 1 1 361274.69 0a 180637.35 180637.35 0 1 1 -361274.69 0"/>
<path id="N" d="M 51976378.61 18700787.35 m -338168.19 0 a 338168.19 338168.19 0 1 1 676336.37 0a 338168.19 338168.19 0 1 1 -676336.37 0M 51976378.44 18700786.65 m -180637.35 0 a 180637.35 180637.35 0 1 1 361274.69 0a 180637.35 180637.35 0 1 1 -361274.69 0"/>
<path id="N" d="M 50976378.61 18700787.35 m -338168.19 0 a 338168.19 338168.19 0 1 1 676336.37 0a 338168.19 338168.19 0 1 1 -676336.37 0M 50976378.44 18700786.65 m -180637.35 0 a 180637.35 180637.35 0 1 1 361274.69 0a 180637.35 180637.35 0 1 1 -361274.69 0"/>
<path id="N" d="M 53976378.61 18700787.35 m -338168.19 0 a 338168.19 338168.19 0 1 1 676336.37 0a 338168.19 338168.19 0 1 1 -676336.37 0M 53976378.44 18700786.65 m -180637.35 0 a 180637.35 180637.35 0 1 1 361274.69 0a 180637.35 180637.35 0 1 1 -361274.69 0"/>
<path id="N" d="M 58976378.61 18700787.35 m -338168.19 0 a 338168.19 338168.19 0 1 1 676336.37 0a 338168.19 338168.19 0 1 1 -676336.37 0M 58976378.44 18700786.65 m -180637.35 0 a 180637.35 180637.35 0 1 1 361274.69 0a 180637.35 180637.35 0 1 1 -361274.69 0"/>
<path id="N" d="M 57976378.61 18700787.35 m -338168.19 0 a 338168.19 338168.19 0 1 1 676336.37 0a 338168.19 338168.19 0 1 1 -676336.37 0M 57976378.44 18700786.65 m -180637.35 0 a 180637.35 180637.35 0 1 1 361274.69 0a 180637.35 180637.35 0 1 1 -361274.69 0"/>
<path id="N" d="M 54976378.61 18700787.35 m -338168.19 0 a 338168.19 338168.19 0 1 1 676336.37 0a 338168.19 338168.19 0 1 1 -676336.37 0M 54976378.44 18700786.65 m -180637.35 0 a 180637.35 180637.35 0 1 1 361274.69 0a 180637.35 180637.35 0 1 1 -361274.69 0"/>
<path id="N" d="M 52976378.61 18700787.35 m -338168.19 0 a 338168.19 338168.19 0 1 1 676336.37 0a 338168.19 338168.19 0 1 1 -676336.37 0M 52976378.44 18700786.65 m -180637.35 0 a 180637.35 180637.35 0 1 1 361274.69 0a 180637.35 180637.35 0 1 1 -361274.69 0"/>
<path id="N" d="M 51976378.61 17700787.35 m -338168.19 0 a 338168.19 338168.19 0 1 1 676336.37 0a 338168.19 338168.19 0 1 1 -676336.37 0M 51976378.44 17700786.65 m -180637.35 0 a 180637.35 180637.35 0 1 1 361274.69 0a 180637.35 180637.35 0 1 1 -361274.69 0"/>
<path id="N" d="M 16716535.61 15795275.35 m -338168.19 0 a 338168.19 338168.19 0 1 1 676336.37 0a 338168.19 338168.19 0 1 1 -676336.37 0M 16716535.44 15795274.65 m -180637.35 0 a 180637.35 180637.35 0 1 1 361274.69 0a 180637.35 180637.35 0 1 1 -361274.69 0"/>
<path id="N" d="M 46976378.61 17700787.35 m -338168.19 0 a 338168.19 338168.19 0 1 1 676336.37 0a 338168.19 338168.19 0 1 1 -676336.37 0M 46976378.44 17700786.65 m -180637.35 0 a 180637.35 180637.35 0 1 1 361274.69 0a 180637.35 180637.35 0 1 1 -361274.69 0"/>
<path id="N" d="M 62976378.61 17700787.35 m -338168.19 0 a 338168.19 338168.19 0 1 1 676336.37 0a 338168.19 338168.19 0 1 1 -676336.37 0M 62976378.44 17700786.65 m -180637.35 0 a 180637.35 180637.35 0 1 1 361274.69 0a 180637.35 180637.35 0 1 1 -361274.69 0"/>
<path id="N" d="M 63976378.61 17700787.35 m -338168.19 0 a 338168.19 338168.19 0 1 1 676336.37 0a 338168.19 338168.19 0 1 1 -676336.37 0M 63976378.44 17700786.65 m -180637.35 0 a 180637.35 180637.35 0 1 1 361274.69 0a 180637.35 180637.35 0 1 1 -361274.69 0"/>
<path id="N" d="M 49976378.61 17700787.35 m -338168.19 0 a 338168.19 338168.19 0 1 1 676336.37 0a 338168.19 338168.19 0 1 1 -676336.37 0M 49976378.44 17700786.65 m -180637.35 0 a 180637.35 180637.35 0 1 1 361274.69 0a 180637.35 180637.35 0 1 1 -361274.69 0"/>
<path id="N" d="M 53976378.61 17700787.35 m -338168.19 0 a 338168.19 338168.19 0 1 1 676336.37 0a 338168.19 338168.19 0 1 1 -676336.37 0M 53976378.44 17700786.65 m -180637.35 0 a 180637.35 180637.35 0 1 1 361274.69 0a 180637.35 180637.35 0 1 1 -361274.69 0"/>
<path id="N" d="M 56976378.61 17700787.35 m -338168.19 0 a 338168.19 338168.19 0 1 1 676336.37 0a 338168.19 338168.19 0 1 1 -676336.37 0M 56976378.44 17700786.65 m -180637.35 0 a 180637.35 180637.35 0 1 1 361274.69 0a 180637.35 180637.35 0 1 1 -361274.69 0"/>
<path id="N" d="M 55976378.61 17700787.35 m -338168.19 0 a 338168.19 338168.19 0 1 1 676336.37 0a 338168.19 338168.19 0 1 1 -676336.37 0M 55976378.44 17700786.65 m -180637.35 0 a 180637.35 180637.35 0 1 1 361274.69 0a 180637.35 180637.35 0 1 1 -361274.69 0"/>
<path id="N" d="M 52976378.61 17700787.35 m -338168.19 0 a 338168.19 338168.19 0 1 1 676336.37 0a 338168.19 338168.19 0 1 1 -676336.37 0M 52976378.44 17700786.65 m -180637.35 0 a 180637.35 180637.35 0 1 1 361274.69 0a 180637.35 180637.35 0 1 1 -361274.69 0"/>
<path id="N" d="M 49976378.61 18700787.35 m -338168.19 0 a 338168.19 338168.19 0 1 1 676336.37 0a 338168.19 338168.19 0 1 1 -676336.37 0M 49976378.44 18700786.65 m -180637.35 0 a 180637.35 180637.35 0 1 1 361274.69 0a 180637.35 180637.35 0 1 1 -361274.69 0"/>
<path id="N" d="M 54976378.61 17700787.35 m -338168.19 0 a 338168.19 338168.19 0 1 1 676336.37 0a 338168.19 338168.19 0 1 1 -676336.37 0M 54976378.44 17700786.65 m -180637.35 0 a 180637.35 180637.35 0 1 1 361274.69 0a 180637.35 180637.35 0 1 1 -361274.69 0"/>
<path id="N" d="M 47976378.61 18700787.35 m -338168.19 0 a 338168.19 338168.19 0 1 1 676336.37 0a 338168.19 338168.19 0 1 1 -676336.37 0M 47976378.44 18700786.65 m -180637.35 0 a 180637.35 180637.35 0 1 1 361274.69 0a 180637.35 180637.35 0 1 1 -361274.69 0"/>
<path id="N" d="M 45275591.61 24669291.35 m -338168.19 0 a 338168.19 338168.19 0 1 1 676336.37 0a 338168.19 338168.19 0 1 1 -676336.37 0M 45275591.44 24669290.65 m -180637.35 0 a 180637.35 180637.35 0 1 1 361274.69 0a 180637.35 180637.35 0 1 1 -361274.69 0"/>
<path id="N" d="M 45275591.61 21669291.35 m -338168.19 0 a 338168.19 338168.19 0 1 1 676336.37 0a 338168.19 338168.19 0 1 1 -676336.37 0M 45275591.44 21669290.65 m -180637.35 0 a 180637.35 180637.35 0 1 1 361274.69 0a 180637.35 180637.35 0 1 1 -361274.69 0"/>
<path id="N" d="M 60976378.61 18700787.35 m -338168.19 0 a 338168.19 338168.19 0 1 1 676336.37 0a 338168.19 338168.19 0 1 1 -676336.37 0M 60976378.44 18700786.65 m -180637.35 0 a 180637.35 180637.35 0 1 1 361274.69 0a 180637.35 180637.35 0 1 1 -361274.69 0"/>
<path id="N" d="M 45275591.61 23669291.35 m -338168.19 0 a 338168.19 338168.19 0 1 1 676336.37 0a 338168.19 338168.19 0 1 1 -676336.37 0M 45275591.44 23669290.65 m -180637.35 0 a 180637.35 180637.35 0 1 1 361274.69 0a 180637.35 180637.35 0 1 1 -361274.69 0"/>
<path id="N" d="M 45275591.61 22669291.35 m -338168.19 0 a 338168.19 338168.19 0 1 1 676336.37 0a 338168.19 338168.19 0 1 1 -676336.37 0M 45275591.44 22669290.65 m -180637.35 0 a 180637.35 180637.35 0 1 1 361274.69 0a 180637.35 180637.35 0 1 1 -361274.69 0"/>
<path id="N" d="M 65944883.61 24669291.35 m -338168.19 0 a 338168.19 338168.19 0 1 1 676336.37 0a 338168.19 338168.19 0 1 1 -676336.37 0M 65944883.44 24669290.65 m -180637.35 0 a 180637.35 180637.35 0 1 1 361274.69 0a 180637.35 180637.35 0 1 1 -361274.69 0"/>
<path id="N" d="M 61976378.61 18700787.35 m -338168.19 0 a 338168.19 338168.19 0 1 1 676336.37 0a 338168.19 338168.19 0 1 1 -676336.37 0M 61976378.44 18700786.65 m -180637.35 0 a 180637.35 180637.35 0 1 1 361274.69 0a 180637.35 180637.35 0 1 1 -361274.69 0"/>
<path id="N" d="M 46976378.61 18700787.35 m -338168.19 0 a 338168.19 338168.19 0 1 1 676336.37 0a 338168.19 338168.19 0 1 1 -676336.37 0M 46976378.44 18700786.65 m -180637.35 0 a 180637.35 180637.35 0 1 1 361274.69 0a 180637.35 180637.35 0 1 1 -361274.69 0"/>
<path id="N" d="M 61976378.61 17700787.35 m -338168.19 0 a 338168.19 338168.19 0 1 1 676336.37 0a 338168.19 338168.19 0 1 1 -676336.37 0M 61976378.44 17700786.65 m -180637.35 0 a 180637.35 180637.35 0 1 1 361274.69 0a 180637.35 180637.35 0 1 1 -361274.69 0"/>
<path id="N" d="M 59976378.61 18700787.35 m -338168.19 0 a 338168.19 338168.19 0 1 1 676336.37 0a 338168.19 338168.19 0 1 1 -676336.37 0M 59976378.44 18700786.65 m -180637.35 0 a 180637.35 180637.35 0 1 1 361274.69 0a 180637.35 180637.35 0 1 1 -361274.69 0"/>
<path id="N" d="M 62976378.61 18700787.35 m -338168.19 0 a 338168.19 338168.19 0 1 1 676336.37 0a 338168.19 338168.19 0 1 1 -676336.37 0M 62976378.44 18700786.65 m -180637.35 0 a 180637.35 180637.35 0 1 1 361274.69 0a 180637.35 180637.35 0 1 1 -361274.69 0"/>
<path id="N" d="M 18051810.00 28208032.00 L 17381260.00 28208032.00 L 17381260.00 28878582.00 L 18051810.00 28878582.00 L 18051810.00 28208032.00  zM 17716535.44 28543305.65 m -180637.35 0 a 180637.35 180637.35 0 1 1 361274.69 0a 180637.35 180637.35 0 1 1 -361274.69 0"/>
<path id="N" d="M 45610866.00 38050553.00 L 44940316.00 38050553.00 L 44940316.00 38721103.00 L 45610866.00 38721103.00 L 45610866.00 38050553.00  zM 45275591.44 38385826.65 m -180637.35 0 a 180637.35 180637.35 0 1 1 361274.69 0a 180637.35 180637.35 0 1 1 -361274.69 0"/>
<path id="N" d="M 45610866.00 29192285.00 L 44940316.00 29192285.00 L 44940316.00 29862835.00 L 45610866.00 29862835.00 L 45610866.00 29192285.00  zM 45275591.44 29527558.65 m -180637.35 0 a 180637.35 180637.35 0 1 1 361274.69 0a 180637.35 180637.35 0 1 1 -361274.69 0"/>
<path id="N" d="M 45610866.00 20334017.00 L 44940316.00 20334017.00 L 44940316.00 21004567.00 L 45610866.00 21004567.00 L 45610866.00 20334017.00  zM 45275591.44 20669290.65 m -180637.35 0 a 180637.35 180637.35 0 1 1 361274.69 0a 180637.35 180637.35 0 1 1 -361274.69 0"/>
<path id="N" d="M 66280158.00 41003309.00 L 65609608.00 41003309.00 L 65609608.00 41673859.00 L 66280158.00 41673859.00 L 66280158.00 41003309.00  zM 65944883.44 41338582.65 m -180637.35 0 a 180637.35 180637.35 0 1 1 361274.69 0a 180637.35 180637.35 0 1 1 -361274.69 0"/>
<path id="N" d="M 21004566.00 19349764.00 L 20334016.00 19349764.00 L 20334016.00 20020314.00 L 21004566.00 20020314.00 L 21004566.00 19349764.00  zM 20669291.44 19685037.65 m -180637.35 0 a 180637.35 180637.35 0 1 1 361274.69 0a 180637.35 180637.35 0 1 1 -361274.69 0"/>
<path id="N" d="M 64311653.00 18365513.00 L 63641103.00 18365513.00 L 63641103.00 19036063.00 L 64311653.00 19036063.00 L 64311653.00 18365513.00  zM 63976378.44 18700786.65 m -180637.35 0 a 180637.35 180637.35 0 1 1 361274.69 0a 180637.35 180637.35 0 1 1 -361274.69 0"/>
<path id="N" d="M 65944883.61 47338583.35 m -338168.19 0 a 338168.19 338168.19 0 1 1 676336.37 0a 338168.19 338168.19 0 1 1 -676336.37 0M 65944883.44 47338582.65 m -180637.35 0 a 180637.35 180637.35 0 1 1 361274.69 0a 180637.35 180637.35 0 1 1 -361274.69 0"/>
<path id="N" d="M 13779528.61 39401574.35 m -338168.19 0 a 338168.19 338168.19 0 1 1 676336.37 0a 338168.19 338168.19 0 1 1 -676336.37 0M 13779528.44 39401573.65 m -180637.35 0 a 180637.35 180637.35 0 1 1 361274.69 0a 180637.35 180637.35 0 1 1 -361274.69 0"/>
<path id="N" d="M 13779528.61 43322834.35 m -338168.19 0 a 338168.19 338168.19 0 1 1 676336.37 0a 338168.19 338168.19 0 1 1 -676336.37 0M 13779528.44 43322833.65 m -180637.35 0 a 180637.35 180637.35 0 1 1 361274.69 0a 180637.35 180637.35 0 1 1 -361274.69 0"/>
<path id="N" d="M 45275591.61 45385827.35 m -338168.19 0 a 338168.19 338168.19 0 1 1 676336.37 0a 338168.19 338168.19 0 1 1 -676336.37 0M 45275591.44 45385826.65 m -180637.35 0 a 180637.35 180637.35 0 1 1 361274.69 0a 180637.35 180637.35 0 1 1 -361274.69 0"/>
<path id="N" d="M 13779528.61 38401574.35 m -338168.19 0 a 338168.19 338168.19 0 1 1 676336.37 0a 338168.19 338168.19 0 1 1 -676336.37 0M 13779528.44 38401573.65 m -180637.35 0 a 180637.35 180637.35 0 1 1 361274.69 0a 180637.35 180637.35 0 1 1 -361274.69 0"/>
<path id="N" d="M 17716535.61 35543306.35 m -338168.19 0 a 338168.19 338168.19 0 1 1 676336.37 0a 338168.19 338168.19 0 1 1 -676336.37 0M 17716535.44 35543305.65 m -180637.35 0 a 180637.35 180637.35 0 1 1 361274.69 0a 180637.35 180637.35 0 1 1 -361274.69 0"/>
<path id="N" d="M 31988818.00 49034804.00 L 31318268.00 49034804.00 L 31318268.00 49705354.00 L 31988818.00 49705354.00 L 31988818.00 49034804.00  zM 31653543.44 49370077.65 m -180637.35 0 a 180637.35 180637.35 0 1 1 361274.69 0a 180637.35 180637.35 0 1 1 -361274.69 0"/>
<path id="N" d="M 50976378.61 17700787.35 m -338168.19 0 a 338168.19 338168.19 0 1 1 676336.37 0a 338168.19 338168.19 0 1 1 -676336.37 0M 50976378.44 17700786.65 m -180637.35 0 a 180637.35 180637.35 0 1 1 361274.69 0a 180637.35 180637.35 0 1 1 -361274.69 0"/>
<path id="N" d="M 14114803.00 32145040.00 L 13444253.00 32145040.00 L 13444253.00 32815590.00 L 14114803.00 32815590.00 L 14114803.00 32145040.00  zM 13779528.44 32480313.65 m -180637.35 0 a 180637.35 180637.35 0 1 1 361274.69 0a 180637.35 180637.35 0 1 1 -361274.69 0"/>
<path id="N" d="M 16716535.61 12795275.35 m -338168.19 0 a 338168.19 338168.19 0 1 1 676336.37 0a 338168.19 338168.19 0 1 1 -676336.37 0M 16716535.44 12795274.65 m -180637.35 0 a 180637.35 180637.35 0 1 1 361274.69 0a 180637.35 180637.35 0 1 1 -361274.69 0"/>
<path id="N" d="M 20669291.61 23685038.35 m -338168.19 0 a 338168.19 338168.19 0 1 1 676336.37 0a 338168.19 338168.19 0 1 1 -676336.37 0M 20669291.44 23685037.65 m -180637.35 0 a 180637.35 180637.35 0 1 1 361274.69 0a 180637.35 180637.35 0 1 1 -361274.69 0"/>
<path id="N" d="M 45275591.61 41385827.35 m -338168.19 0 a 338168.19 338168.19 0 1 1 676336.37 0a 338168.19 338168.19 0 1 1 -676336.37 0M 45275591.44 41385826.65 m -180637.35 0 a 180637.35 180637.35 0 1 1 361274.69 0a 180637.35 180637.35 0 1 1 -361274.69 0"/>
<path id="N" d="M 65944883.61 21669291.35 m -338168.19 0 a 338168.19 338168.19 0 1 1 676336.37 0a 338168.19 338168.19 0 1 1 -676336.37 0M 65944883.44 21669290.65 m -180637.35 0 a 180637.35 180637.35 0 1 1 361274.69 0a 180637.35 180637.35 0 1 1 -361274.69 0"/>
<path id="N" d="M 17716535.61 32543306.35 m -338168.19 0 a 338168.19 338168.19 0 1 1 676336.37 0a 338168.19 338168.19 0 1 1 -676336.37 0M 17716535.44 32543305.65 m -180637.35 0 a 180637.35 180637.35 0 1 1 361274.69 0a 180637.35 180637.35 0 1 1 -361274.69 0"/>
<path id="N" d="M 13779528.61 44322834.35 m -338168.19 0 a 338168.19 338168.19 0 1 1 676336.37 0a 338168.19 338168.19 0 1 1 -676336.37 0M 13779528.44 44322833.65 m -180637.35 0 a 180637.35 180637.35 0 1 1 361274.69 0a 180637.35 180637.35 0 1 1 -361274.69 0"/>
<path id="N" d="M 65944883.61 46338583.35 m -338168.19 0 a 338168.19 338168.19 0 1 1 676336.37 0a 338168.19 338168.19 0 1 1 -676336.37 0M 65944883.44 46338582.65 m -180637.35 0 a 180637.35 180637.35 0 1 1 361274.69 0a 180637.35 180637.35 0 1 1 -361274.69 0"/>
<path id="N" d="M 17716535.61 31543306.35 m -338168.19 0 a 338168.19 338168.19 0 1 1 676336.37 0a 338168.19 338168.19 0 1 1 -676336.37 0M 17716535.44 31543305.65 m -180637.35 0 a 180637.35 180637.35 0 1 1 361274.69 0a 180637.35 180637.35 0 1 1 -361274.69 0"/>
<path id="N" d="M 66280158.00 20334017.00 L 65609608.00 20334017.00 L 65609608.00 21004567.00 L 66280158.00 21004567.00 L 66280158.00 20334017.00  zM 65944883.44 20669290.65 m -180637.35 0 a 180637.35 180637.35 0 1 1 361274.69 0a 180637.35 180637.35 0 1 1 -361274.69 0"/>
<path id="N" d="M 17716535.61 15795275.35 m -338168.19 0 a 338168.19 338168.19 0 1 1 676336.37 0a 338168.19 338168.19 0 1 1 -676336.37 0M 17716535.44 15795274.65 m -180637.35 0 a 180637.35 180637.35 0 1 1 361274.69 0a 180637.35 180637.35 0 1 1 -361274.69 0"/>
<path id="N" d="M 48976378.61 17700787.35 m -338168.19 0 a 338168.19 338168.19 0 1 1 676336.37 0a 338168.19 338168.19 0 1 1 -676336.37 0M 48976378.44 17700786.65 m -180637.35 0 a 180637.35 180637.35 0 1 1 361274.69 0a 180637.35 180637.35 0 1 1 -361274.69 0"/>
</g>
</svg>
