<svg width="160.00000004mm" height="115.00000114mm" viewBox="0 0 62992126 45275591"  version="1.1" xmlns="http://www.w3.org/2000/svg" xmlns:xlink="http://www.w3.org/1999/xlink">
<desc>
Origin 10000000 10000000 Bound 10000000 10000000 62992126 45275591
</desc>
<g fill-rule="evenodd" fill="rgb(207, 224, 229)" stroke="black" stroke-width="1" transform="translate(0, 45275591) scale(1, -1) translate(-10000000, -10000000)">
<path id="N" d="M 30908817.00 30858625.00 L 30940695.00 30852157.00 L 30959637.00 30844303.00 L 30977655.00 30831367.00 L 30991977.00 30811963.00 L 31001679.00 30790249.00 A 94739.29 94739.29 0 0 0 30995673.00 30717715.00 L 30984123.00 30702469.00 L 30964719.00 30688147.00 L 30946239.00 30680293.00 L 30965181.00 30670591.00 L 30982275.00 30654421.00 L 30989667.00 30638251.00 L 30993363.00 30613765.00 L 30987357.00 30585583.00 L 30979965.00 30570799.00 L 30965643.00 30554167.00 A 99372.96 99372.96 0 0 0 30891261.00 30533377.00 L 30866775.00 30538459.00 L 30850143.00 30545389.00 L 30832125.00 30559249.00 L 30816879.00 30582349.00 L 30809487.00 30604063.00 L 30808563.00 30617461.00 L 30811335.00 30635941.00 L 30821037.00 30656269.00 L 30834435.00 30668743.00 L 30855687.00 30680755.00 L 30845523.00 30684913.00 L 30824733.00 30697849.00 L 30810873.00 30712633.00 L 30803481.00 30726031.00 L 30796089.00 30751903.00 L 30796089.00 30769459.00 L 30802557.00 30797179.00 L 30811335.00 30814735.00 L 30824733.00 30831367.00 L 30840441.00 30842455.00 L 30862617.00 30852619.00 L 30892185.00 30858625.00 L 30908817.00 30858625.00  zM 30887565.00 30663661.00 L 30869085.00 30655807.00 A 51102.99 51102.99 0 0 1 30848757.00 30612379.00 A 53595.95 53595.95 0 0 1 30952707.00 30606835.00 L 30952707.00 30617923.00 L 30947163.00 30639175.00 L 30938385.00 30651649.00 L 30928683.00 30658117.00 L 30909279.00 30665047.00 L 30900039.00 30665509.00 L 30887565.00 30663661.00  zM 30890799.00 30825823.00 A 61487.06 61487.06 0 0 1 30843675.00 30731575.00 L 30855687.00 30715405.00 L 30874629.00 30703393.00 A 67909.37 67909.37 0 0 1 30949011.00 30716791.00 L 30960561.00 30735271.00 A 68727.98 68727.98 0 0 1 30949473.00 30806881.00 L 30934227.00 30818893.00 L 30919905.00 30823975.00 L 30890799.00 30825823.00  z"/>
<path id="N" d="M 19929791.00 45246106.00 L 19950326.00 45235561.00 L 19965311.00 45222796.00 L 19985846.00 45196711.00 L 19994171.00 45179506.00 L 20004716.00 45140101.00 L 20006936.00 45102361.00 L 20000831.00 45052411.00 L 19991951.00 45023551.00 L 19985846.00 45011896.00 L 19966421.00 44985811.00 L 19945886.00 44968606.00 L 19934786.00 44962501.00 L 19904261.00 44951401.00 L 19877066.00 44948071.00 L 19872626.00 44995801.00 L 19905371.00 45003571.00 L 19923131.00 45013561.00 L 19940891.00 45032431.00 L 19950326.00 45049636.00 L 19958096.00 45075721.00 L 19961426.00 45109021.00 L 19958096.00 45142876.00 A 88495.45 88495.45 0 0 1 19928681.00 45193936.00 A 55223.25 55223.25 0 0 1 19869851.00 45197266.00 L 19853756.00 45180616.00 L 19842101.00 45158416.00 L 19826006.00 45100141.00 L 19808246.00 45036871.00 L 19797146.00 45011896.00 L 19778831.00 44988031.00 L 19759961.00 44973601.00 L 19734431.00 44964721.00 L 19711121.00 44962501.00 L 19680596.00 44969161.00 L 19661726.00 44978596.00 L 19652846.00 44985811.00 L 19634531.00 45005791.00 L 19620656.00 45032431.00 L 19611776.00 45070171.00 L 19609556.00 45097921.00 L 19611221.00 45122896.00 L 19618991.00 45160081.00 L 19628981.00 45183391.00 L 19646741.00 45207256.00 L 19664501.00 45222241.00 L 19681706.00 45231121.00 L 19701131.00 45237781.00 L 19724441.00 45241666.00 L 19728326.00 45192826.00 L 19707791.00 45187831.00 L 19690031.00 45179506.00 L 19673936.00 45165631.00 L 19667831.00 45156196.00 L 19657841.00 45128446.00 L 19655066.00 45098476.00 L 19659506.00 45062401.00 L 19666721.00 45040756.00 L 19675046.00 45028546.00 L 19696136.00 45014671.00 L 19712786.00 45011341.00 L 19724441.00 45013006.00 L 19741091.00 45020776.00 L 19750526.00 45031321.00 L 19764401.00 45064621.00 L 19774391.00 45102916.00 L 19794926.00 45177286.00 L 19804916.00 45198931.00 L 19822121.00 45222796.00 L 19842101.00 45240001.00 L 19870961.00 45251101.00 L 19892606.00 45253321.00 L 19929791.00 45246106.00  z"/>
<path id="N" d="M 63121468.00 27797661.00 L 63150328.00 27792666.00 L 63176968.00 27783231.00 L 63194173.00 27771021.00 L 63209713.00 27749376.00 L 63216373.00 27731061.00 L 63218593.00 27708306.00 L 63172528.00 27714411.00 L 63169753.00 27726621.00 L 63161428.00 27741606.00 L 63153658.00 27747711.00 L 63129238.00 27757146.00 L 63103153.00 27759366.00 L 63073738.00 27753816.00 L 63057643.00 27745491.00 L 63048208.00 27736611.00 L 63036553.00 27717741.00 L 63032113.00 27696651.00 L 63031003.00 27649476.00 L 63042658.00 27660576.00 L 63063193.00 27673896.00 L 63083173.00 27682221.00 L 63110368.00 27685551.00 L 63140338.00 27680556.00 L 63169753.00 27668346.00 L 63190843.00 27651696.00 L 63204163.00 27632826.00 L 63218038.00 27601746.00 L 63226918.00 27566226.00 L 63228028.00 27538476.00 L 63221923.00 27497406.00 L 63213598.00 27471321.00 L 63203053.00 27452451.00 L 63181408.00 27426921.00 L 63169198.00 27418041.00 L 63144223.00 27406941.00 L 63120913.00 27401391.00 L 63102598.00 27400836.00 L 63072628.00 27408051.00 L 63045433.00 27422481.00 L 63026008.00 27441351.00 L 63026008.00 27406941.00 L 62982718.00 27406941.00 L 62982718.00 27648366.00 L 62986048.00 27698316.00 L 62991598.00 27727731.00 L 63001588.00 27748821.00 L 63019348.00 27768801.00 L 63038218.00 27782121.00 L 63067633.00 27793221.00 L 63093718.00 27797661.00 L 63121468.00 27797661.00  zM 63100378.00 27646701.00 L 63075958.00 27640596.00 L 63057643.00 27630051.00 L 63046543.00 27618951.00 L 63035443.00 27597306.00 L 63028783.00 27570666.00 L 63026563.00 27538476.00 L 63032113.00 27501846.00 L 63041548.00 27476316.00 L 63053203.00 27461886.00 L 63072628.00 27448011.00 L 63092608.00 27440796.00 L 63107038.00 27439686.00 L 63131458.00 27445791.00 L 63140338.00 27450786.00 A 72630.45 72630.45 0 0 1 63173083.00 27495741.00 L 63179743.00 27532371.00 L 63178633.00 27560676.00 L 63170863.00 27598416.00 L 63165313.00 27611181.00 L 63154213.00 27625611.00 A 75650.02 75650.02 0 0 1 63100378.00 27646701.00  z"/>
<path id="N" d="M 63121468.00 18939393.00 L 63150328.00 18934398.00 L 63176968.00 18924963.00 L 63194173.00 18912753.00 L 63209713.00 18891108.00 L 63216373.00 18872793.00 L 63218593.00 18850038.00 L 63172528.00 18856143.00 L 63169753.00 18868353.00 L 63161428.00 18883338.00 L 63153658.00 18889443.00 L 63129238.00 18898878.00 L 63103153.00 18901098.00 L 63073738.00 18895548.00 L 63057643.00 18887223.00 L 63048208.00 18878343.00 L 63036553.00 18859473.00 L 63032113.00 18838383.00 L 63031003.00 18791208.00 L 63042658.00 18802308.00 L 63063193.00 18815628.00 L 63083173.00 18823953.00 L 63110368.00 18827283.00 L 63140338.00 18822288.00 L 63169753.00 18810078.00 L 63190843.00 18793428.00 L 63204163.00 18774558.00 L 63218038.00 18743478.00 L 63226918.00 18707958.00 L 63228028.00 18680208.00 L 63221923.00 18639138.00 L 63213598.00 18613053.00 L 63203053.00 18594183.00 L 63181408.00 18568653.00 L 63169198.00 18559773.00 L 63144223.00 18548673.00 L 63120913.00 18543123.00 L 63102598.00 18542568.00 L 63072628.00 18549783.00 L 63045433.00 18564213.00 L 63026008.00 18583083.00 L 63026008.00 18548673.00 L 62982718.00 18548673.00 L 62982718.00 18790098.00 L 62986048.00 18840048.00 L 62991598.00 18869463.00 L 63001588.00 18890553.00 L 63019348.00 18910533.00 L 63038218.00 18923853.00 L 63067633.00 18934953.00 L 63093718.00 18939393.00 L 63121468.00 18939393.00  zM 63100378.00 18788433.00 L 63075958.00 18782328.00 L 63057643.00 18771783.00 L 63046543.00 18760683.00 L 63035443.00 18739038.00 L 63028783.00 18712398.00 L 63026563.00 18680208.00 L 63032113.00 18643578.00 L 63041548.00 18618048.00 L 63053203.00 18603618.00 L 63072628.00 18589743.00 L 63092608.00 18582528.00 L 63107038.00 18581418.00 L 63131458.00 18587523.00 L 63140338.00 18592518.00 A 72630.45 72630.45 0 0 1 63173083.00 18637473.00 L 63179743.00 18674103.00 L 63178633.00 18702408.00 L 63170863.00 18740148.00 L 63165313.00 18752913.00 L 63154213.00 18767343.00 A 75650.02 75650.02 0 0 1 63100378.00 18788433.00  z"/>
<path id="N" d="M 31729812.00 50235949.00 L 31759227.00 50230399.00 L 31780317.00 50220409.00 L 31800297.00 50202649.00 L 31813617.00 50183779.00 L 31824717.00 50154364.00 A 160959.45 160959.45 0 0 0 31824162.00 50071669.00 L 31814727.00 50045029.00 L 31802517.00 50027824.00 L 31780872.00 50012284.00 L 31762557.00 50005624.00 L 31739802.00 50003404.00 L 31745907.00 50049469.00 L 31758117.00 50052244.00 L 31773102.00 50060569.00 L 31779207.00 50068339.00 L 31788642.00 50092759.00 L 31790862.00 50118844.00 L 31785312.00 50148259.00 L 31776987.00 50164354.00 L 31768107.00 50173789.00 L 31749237.00 50185444.00 L 31728147.00 50189884.00 L 31680972.00 50190994.00 L 31692072.00 50179339.00 L 31705392.00 50158804.00 L 31713717.00 50138824.00 L 31717047.00 50111629.00 L 31712052.00 50081659.00 L 31699842.00 50052244.00 L 31683192.00 50031154.00 L 31664322.00 50017834.00 L 31633242.00 50003959.00 L 31597722.00 49995079.00 L 31569972.00 49993969.00 L 31528902.00 50000074.00 L 31502817.00 50008399.00 L 31483947.00 50018944.00 L 31458417.00 50040589.00 L 31449537.00 50052799.00 L 31438437.00 50077774.00 L 31432887.00 50101084.00 L 31432332.00 50119399.00 L 31439547.00 50149369.00 L 31453977.00 50176564.00 L 31472847.00 50195989.00 L 31438437.00 50195989.00 L 31438437.00 50239279.00 L 31729812.00 50235949.00  zM 31569972.00 50195434.00 L 31533342.00 50189884.00 L 31507812.00 50180449.00 L 31493382.00 50168794.00 L 31479507.00 50149369.00 L 31472292.00 50129389.00 L 31471182.00 50114959.00 L 31477287.00 50090539.00 L 31482282.00 50081659.00 A 72630.45 72630.45 0 0 1 31527237.00 50048914.00 L 31563867.00 50042254.00 L 31592172.00 50043364.00 L 31629912.00 50051134.00 L 31642677.00 50056684.00 L 31657107.00 50067784.00 A 75650.02 75650.02 0 0 1 31678197.00 50121619.00 L 31672092.00 50146039.00 L 31661547.00 50164354.00 L 31650447.00 50175454.00 L 31628802.00 50186554.00 L 31602162.00 50193214.00 L 31569972.00 50195434.00  z"/>
<path id="N" d="M 22773736.00 40673704.00 L 22768741.00 40672039.00 L 22739326.00 40664824.00 L 22747096.00 40655944.00 L 22767631.00 40623754.00 L 22774291.00 40604884.00 L 22779841.00 40572139.00 L 22779286.00 40546054.00 L 22770961.00 40512754.00 L 22758196.00 40491664.00 L 22749316.00 40483894.00 A 81112.63 81112.63 0 0 0 22630546.00 40510534.00 L 22619446.00 40541059.00 L 22609456.00 40608769.00 L 22597246.00 40660939.00 L 22575046.00 40660939.00 L 22555621.00 40655389.00 L 22543966.00 40647064.00 L 22536196.00 40634299.00 L 22530646.00 40617649.00 L 22528426.00 40593229.00 L 22530091.00 40574914.00 L 22536196.00 40551049.00 L 22542301.00 40541614.00 L 22555066.00 40532179.00 L 22581151.00 40521634.00 L 22575046.00 40475569.00 L 22557841.00 40480564.00 A 85728.33 85728.33 0 0 0 22503451.00 40528294.00 L 22496236.00 40548274.00 L 22490131.00 40587679.00 L 22490686.00 40621534.00 L 22495681.00 40649839.00 L 22507336.00 40677034.00 L 22520101.00 40692574.00 L 22537861.00 40702564.00 L 22561171.00 40708114.00 L 22706581.00 40709779.00 L 22747096.00 40713109.00 L 22774291.00 40723654.00 L 22773736.00 40673704.00  zM 22634431.00 40661494.00 L 22644976.00 40624864.00 L 22654411.00 40573804.00 L 22662181.00 40542169.00 L 22670506.00 40529404.00 L 22677721.00 40523854.00 L 22683826.00 40521079.00 L 22699366.00 40517749.00 L 22715461.00 40521079.00 L 22731556.00 40532179.00 L 22734886.00 40537729.00 L 22741546.00 40555489.00 L 22743211.00 40573804.00 L 22740436.00 40597669.00 L 22731556.00 40622089.00 L 22712686.00 40644289.00 L 22698256.00 40653724.00 L 22680496.00 40658719.00 L 22652191.00 40660939.00 L 22634431.00 40661494.00  z"/>
<path id="N" d="M 46229329.00 29826636.00 L 46257634.00 29821641.00 L 46284829.00 29809986.00 L 46300369.00 29797221.00 L 46310359.00 29779461.00 L 46315909.00 29756151.00 L 46317574.00 29610741.00 L 46320904.00 29570226.00 L 46331449.00 29543031.00 L 46281499.00 29543586.00 L 46279834.00 29548581.00 L 46272619.00 29577996.00 L 46263739.00 29570226.00 L 46231549.00 29549691.00 L 46212679.00 29543031.00 L 46179934.00 29537481.00 L 46153849.00 29538036.00 L 46120549.00 29546361.00 L 46099459.00 29559126.00 L 46091689.00 29568006.00 A 81112.63 81112.63 0 0 0 46143304.00 29696211.00 L 46229884.00 29710641.00 L 46268734.00 29720631.00 L 46268734.00 29742276.00 L 46263184.00 29761701.00 L 46254859.00 29773356.00 L 46242094.00 29781126.00 L 46225444.00 29786676.00 L 46201579.00 29788896.00 L 46182709.00 29787231.00 L 46158844.00 29781126.00 L 46149409.00 29775021.00 L 46139974.00 29762256.00 L 46129429.00 29736171.00 L 46083364.00 29742276.00 L 46088359.00 29759481.00 A 85728.33 85728.33 0 0 0 46136089.00 29813871.00 L 46156069.00 29821086.00 L 46195474.00 29827191.00 L 46229329.00 29826636.00  zM 46269289.00 29682891.00 L 46232659.00 29672346.00 L 46181599.00 29662911.00 L 46149964.00 29655141.00 L 46137199.00 29646816.00 L 46131649.00 29639601.00 L 46128874.00 29633496.00 L 46125544.00 29617401.00 L 46128874.00 29601861.00 L 46139974.00 29585766.00 L 46145524.00 29582436.00 L 46163284.00 29575776.00 L 46181599.00 29574111.00 L 46205464.00 29576886.00 L 46229884.00 29585766.00 L 46252084.00 29604636.00 L 46261519.00 29619066.00 L 46266514.00 29636826.00 L 46268734.00 29665131.00 L 46269289.00 29682891.00  z"/>
<path id="N" d="M 30480744.00 30739638.00 L 30475749.00 30737973.00 L 30446334.00 30730758.00 L 30454104.00 30721878.00 L 30474639.00 30689688.00 L 30481299.00 30670818.00 L 30486849.00 30638073.00 L 30486294.00 30611988.00 L 30477969.00 30578688.00 L 30465204.00 30557598.00 L 30456324.00 30549828.00 A 81112.63 81112.63 0 0 0 30337554.00 30576468.00 L 30326454.00 30606993.00 L 30316464.00 30674703.00 L 30304254.00 30726873.00 L 30282054.00 30726873.00 L 30262629.00 30721323.00 L 30250974.00 30712998.00 L 30243204.00 30700233.00 L 30237654.00 30683583.00 L 30235434.00 30659163.00 L 30237099.00 30640848.00 L 30243204.00 30616983.00 L 30249309.00 30607548.00 L 30262074.00 30598113.00 L 30288159.00 30587568.00 L 30282054.00 30541503.00 L 30264849.00 30546498.00 A 85728.33 85728.33 0 0 0 30210459.00 30594228.00 L 30203244.00 30614208.00 L 30197139.00 30653613.00 L 30197694.00 30687468.00 L 30202689.00 30715773.00 L 30214344.00 30742968.00 L 30227109.00 30758508.00 L 30244869.00 30768498.00 L 30268179.00 30774048.00 L 30413589.00 30775713.00 L 30454104.00 30779043.00 L 30481299.00 30789588.00 L 30480744.00 30739638.00  zM 30341439.00 30727428.00 L 30351984.00 30690798.00 L 30361419.00 30639738.00 L 30369189.00 30608103.00 L 30377514.00 30595338.00 L 30384729.00 30589788.00 L 30390834.00 30587013.00 L 30406374.00 30583683.00 L 30422469.00 30587013.00 L 30438564.00 30598113.00 L 30441894.00 30603663.00 L 30448554.00 30621423.00 L 30450219.00 30639738.00 L 30447444.00 30663603.00 L 30438564.00 30688023.00 L 30419694.00 30710223.00 L 30405264.00 30719658.00 L 30387504.00 30724653.00 L 30359199.00 30726873.00 L 30341439.00 30727428.00  z"/>
<path id="N" d="M 31716492.00 50620564.00 L 31711497.00 50618899.00 L 31682082.00 50611684.00 L 31689852.00 50602804.00 L 31710387.00 50570614.00 L 31717047.00 50551744.00 L 31722597.00 50518999.00 L 31722042.00 50492914.00 L 31713717.00 50459614.00 L 31700952.00 50438524.00 L 31692072.00 50430754.00 A 81112.63 81112.63 0 0 0 31573302.00 50457394.00 L 31562202.00 50487919.00 L 31552212.00 50555629.00 L 31540002.00 50607799.00 L 31517802.00 50607799.00 L 31498377.00 50602249.00 L 31486722.00 50593924.00 L 31478952.00 50581159.00 L 31473402.00 50564509.00 L 31471182.00 50540089.00 L 31472847.00 50521774.00 L 31478952.00 50497909.00 L 31485057.00 50488474.00 L 31497822.00 50479039.00 L 31523907.00 50468494.00 L 31517802.00 50422429.00 L 31500597.00 50427424.00 A 85728.33 85728.33 0 0 0 31446207.00 50475154.00 L 31438992.00 50495134.00 L 31432887.00 50534539.00 L 31433442.00 50568394.00 L 31438437.00 50596699.00 L 31450092.00 50623894.00 L 31462857.00 50639434.00 L 31480617.00 50649424.00 L 31503927.00 50654974.00 L 31649337.00 50656639.00 L 31689852.00 50659969.00 L 31717047.00 50670514.00 L 31716492.00 50620564.00  zM 31577187.00 50608354.00 L 31587732.00 50571724.00 L 31597167.00 50520664.00 L 31604937.00 50489029.00 L 31613262.00 50476264.00 L 31620477.00 50470714.00 L 31626582.00 50467939.00 L 31642122.00 50464609.00 L 31658217.00 50467939.00 L 31674312.00 50479039.00 L 31677642.00 50484589.00 L 31684302.00 50502349.00 L 31685967.00 50520664.00 L 31683192.00 50544529.00 L 31674312.00 50568949.00 L 31655442.00 50591149.00 L 31641012.00 50600584.00 L 31623252.00 50605579.00 L 31594947.00 50607799.00 L 31577187.00 50608354.00  z"/>
<path id="N" d="M 22729336.00 41253679.00 L 22744321.00 41243689.00 L 22759306.00 41226484.00 L 22769296.00 41209279.00 L 22774846.00 41192074.00 L 22779841.00 41162659.00 L 22779286.00 41131579.00 L 22770961.00 41092729.00 L 22762081.00 41073304.00 L 22748761.00 41058319.00 L 22720456.00 41040559.00 L 22691041.00 41031679.00 L 22683826.00 41078299.00 L 22684936.00 41078299.00 L 22713796.00 41088844.00 L 22727116.00 41099944.00 L 22731556.00 41107714.00 L 22739326.00 41128804.00 L 22741546.00 41151004.00 L 22739881.00 41168764.00 L 22733221.00 41192074.00 L 22726561.00 41201509.00 L 22709911.00 41212609.00 L 22697701.00 41214829.00 L 22688266.00 41213164.00 L 22676056.00 41205394.00 L 22668286.00 41190964.00 L 22655521.00 41147119.00 L 22635541.00 41083849.00 L 22623331.00 41063869.00 L 22607236.00 41048884.00 L 22591141.00 41042779.00 L 22570051.00 41039449.00 L 22547296.00 41042779.00 L 22535086.00 41048329.00 L 22517326.00 41061094.00 L 22506226.00 41075524.00 L 22495126.00 41102164.00 L 22489576.00 41133799.00 L 22491796.00 41170429.00 L 22499566.00 41199289.00 L 22510111.00 41219269.00 L 22525651.00 41236474.00 L 22542856.00 41245354.00 L 22567831.00 41252569.00 L 22573936.00 41206504.00 L 22566721.00 41204839.00 L 22551181.00 41197069.00 L 22540081.00 41187079.00 L 22530091.00 41163769.00 L 22528426.00 41139904.00 L 22532866.00 41112154.00 L 22540081.00 41098279.00 L 22550071.00 41089399.00 L 22564501.00 41084959.00 L 22575601.00 41087179.00 L 22583926.00 41092729.00 L 22593361.00 41109379.00 L 22613341.00 41178199.00 L 22629436.00 41223709.00 L 22641646.00 41242024.00 L 22658296.00 41255344.00 A 76899.32 76899.32 0 0 0 22729336.00 41253679.00  z"/>
<path id="N" d="M 22729336.00 40985059.00 L 22744321.00 40975069.00 L 22759306.00 40957864.00 L 22769296.00 40940659.00 L 22774846.00 40923454.00 L 22779841.00 40894039.00 L 22779286.00 40862959.00 L 22770961.00 40824109.00 L 22762081.00 40804684.00 L 22748761.00 40789699.00 L 22720456.00 40771939.00 L 22691041.00 40763059.00 L 22683826.00 40809679.00 L 22684936.00 40809679.00 L 22713796.00 40820224.00 L 22727116.00 40831324.00 L 22731556.00 40839094.00 L 22739326.00 40860184.00 L 22741546.00 40882384.00 L 22739881.00 40900144.00 L 22733221.00 40923454.00 L 22726561.00 40932889.00 L 22709911.00 40943989.00 L 22697701.00 40946209.00 L 22688266.00 40944544.00 L 22676056.00 40936774.00 L 22668286.00 40922344.00 L 22655521.00 40878499.00 L 22635541.00 40815229.00 L 22623331.00 40795249.00 L 22607236.00 40780264.00 L 22591141.00 40774159.00 L 22570051.00 40770829.00 L 22547296.00 40774159.00 L 22535086.00 40779709.00 L 22517326.00 40792474.00 L 22506226.00 40806904.00 L 22495126.00 40833544.00 L 22489576.00 40865179.00 L 22491796.00 40901809.00 L 22499566.00 40930669.00 L 22510111.00 40950649.00 L 22525651.00 40967854.00 L 22542856.00 40976734.00 L 22567831.00 40983949.00 L 22573936.00 40937884.00 L 22566721.00 40936219.00 L 22551181.00 40928449.00 L 22540081.00 40918459.00 L 22530091.00 40895149.00 L 22528426.00 40871284.00 L 22532866.00 40843534.00 L 22540081.00 40829659.00 L 22550071.00 40820779.00 L 22564501.00 40816339.00 L 22575601.00 40818559.00 L 22583926.00 40824109.00 L 22593361.00 40840759.00 L 22613341.00 40909579.00 L 22629436.00 40955089.00 L 22641646.00 40973404.00 L 22658296.00 40986724.00 A 76899.32 76899.32 0 0 0 22729336.00 40985059.00  z"/>
<path id="N" d="M 31782092.00 46311706.00 L 31797077.00 46301716.00 L 31812062.00 46284511.00 L 31822052.00 46267306.00 L 31827602.00 46250101.00 L 31832597.00 46220686.00 L 31832042.00 46189606.00 L 31823717.00 46150756.00 L 31814837.00 46131331.00 L 31801517.00 46116346.00 L 31773212.00 46098586.00 L 31743797.00 46089706.00 L 31736582.00 46136326.00 L 31737692.00 46136326.00 L 31766552.00 46146871.00 L 31779872.00 46157971.00 L 31784312.00 46165741.00 L 31792082.00 46186831.00 L 31794302.00 46209031.00 L 31792637.00 46226791.00 L 31785977.00 46250101.00 L 31779317.00 46259536.00 L 31762667.00 46270636.00 L 31750457.00 46272856.00 L 31741022.00 46271191.00 L 31728812.00 46263421.00 L 31721042.00 46248991.00 L 31708277.00 46205146.00 L 31688297.00 46141876.00 L 31676087.00 46121896.00 L 31659992.00 46106911.00 L 31643897.00 46100806.00 L 31622807.00 46097476.00 L 31600052.00 46100806.00 L 31587842.00 46106356.00 L 31570082.00 46119121.00 L 31558982.00 46133551.00 L 31547882.00 46160191.00 L 31542332.00 46191826.00 L 31544552.00 46228456.00 L 31552322.00 46257316.00 L 31562867.00 46277296.00 L 31578407.00 46294501.00 L 31595612.00 46303381.00 L 31620587.00 46310596.00 L 31626692.00 46264531.00 L 31619477.00 46262866.00 L 31603937.00 46255096.00 L 31592837.00 46245106.00 L 31582847.00 46221796.00 L 31581182.00 46197931.00 L 31585622.00 46170181.00 L 31592837.00 46156306.00 L 31602827.00 46147426.00 L 31617257.00 46142986.00 L 31628357.00 46145206.00 L 31636682.00 46150756.00 L 31646117.00 46167406.00 L 31666097.00 46236226.00 L 31682192.00 46281736.00 L 31694402.00 46300051.00 L 31711052.00 46313371.00 A 76899.32 76899.32 0 0 0 31782092.00 46311706.00  z"/>
<path id="N" d="M 63863503.00 27690546.00 L 63896803.00 27682221.00 L 63917893.00 27669456.00 L 63925663.00 27660576.00 A 81112.63 81112.63 0 0 0 63874048.00 27532371.00 L 63787468.00 27517941.00 L 63748618.00 27507951.00 L 63748618.00 27486306.00 L 63754168.00 27466881.00 L 63762493.00 27455226.00 L 63775258.00 27447456.00 L 63791908.00 27441906.00 L 63815773.00 27439686.00 L 63834643.00 27441351.00 L 63858508.00 27447456.00 L 63867943.00 27453561.00 L 63877378.00 27466326.00 L 63887923.00 27492411.00 L 63933988.00 27486306.00 L 63928993.00 27469101.00 A 85728.33 85728.33 0 0 0 63881263.00 27414711.00 L 63861283.00 27407496.00 L 63821878.00 27401391.00 L 63788023.00 27401946.00 L 63759718.00 27406941.00 L 63732523.00 27418596.00 L 63716983.00 27431361.00 L 63706993.00 27449121.00 L 63701443.00 27472431.00 L 63699778.00 27617841.00 L 63696448.00 27658356.00 L 63685903.00 27685551.00 L 63735853.00 27684996.00 L 63745288.00 27651696.00 L 63776923.00 27673896.00 L 63795238.00 27682776.00 L 63827428.00 27689991.00 L 63863503.00 27690546.00  zM 63835753.00 27654471.00 L 63811888.00 27651696.00 L 63787468.00 27642816.00 L 63765268.00 27623946.00 L 63755833.00 27609516.00 L 63750838.00 27591756.00 L 63748063.00 27545691.00 L 63784693.00 27556236.00 L 63835753.00 27565671.00 L 63867388.00 27573441.00 L 63880153.00 27581766.00 L 63885703.00 27588981.00 L 63888478.00 27595086.00 L 63891808.00 27611181.00 L 63888478.00 27626721.00 L 63877378.00 27642816.00 L 63871828.00 27646146.00 L 63854068.00 27652806.00 L 63835753.00 27654471.00  z"/>
<path id="N" d="M 63863503.00 18832278.00 L 63896803.00 18823953.00 L 63917893.00 18811188.00 L 63925663.00 18802308.00 A 81112.63 81112.63 0 0 0 63874048.00 18674103.00 L 63787468.00 18659673.00 L 63748618.00 18649683.00 L 63748618.00 18628038.00 L 63754168.00 18608613.00 L 63762493.00 18596958.00 L 63775258.00 18589188.00 L 63791908.00 18583638.00 L 63815773.00 18581418.00 L 63834643.00 18583083.00 L 63858508.00 18589188.00 L 63867943.00 18595293.00 L 63877378.00 18608058.00 L 63887923.00 18634143.00 L 63933988.00 18628038.00 L 63928993.00 18610833.00 A 85728.33 85728.33 0 0 0 63881263.00 18556443.00 L 63861283.00 18549228.00 L 63821878.00 18543123.00 L 63788023.00 18543678.00 L 63759718.00 18548673.00 L 63732523.00 18560328.00 L 63716983.00 18573093.00 L 63706993.00 18590853.00 L 63701443.00 18614163.00 L 63699778.00 18759573.00 L 63696448.00 18800088.00 L 63685903.00 18827283.00 L 63735853.00 18826728.00 L 63745288.00 18793428.00 L 63776923.00 18815628.00 L 63795238.00 18824508.00 L 63827428.00 18831723.00 L 63863503.00 18832278.00  zM 63835753.00 18796203.00 L 63811888.00 18793428.00 L 63787468.00 18784548.00 L 63765268.00 18765678.00 L 63755833.00 18751248.00 L 63750838.00 18733488.00 L 63748063.00 18687423.00 L 63784693.00 18697968.00 L 63835753.00 18707403.00 L 63867388.00 18715173.00 L 63880153.00 18723498.00 L 63885703.00 18730713.00 L 63888478.00 18736818.00 L 63891808.00 18752913.00 L 63888478.00 18768453.00 L 63877378.00 18784548.00 L 63871828.00 18787878.00 L 63854068.00 18794538.00 L 63835753.00 18796203.00  z"/>
<path id="N" d="M 44178604.00 29929866.00 L 44218564.00 29918211.00 L 44242429.00 29903781.00 L 44255194.00 29892126.00 A 184718.96 184718.96 0 0 0 44296819.00 29821641.00 L 44246869.00 29810541.00 L 44241319.00 29824416.00 L 44224669.00 29853276.00 L 44207464.00 29871036.00 L 44190259.00 29881026.00 L 44170279.00 29887686.00 L 44143639.00 29890461.00 L 44117554.00 29887686.00 L 44093689.00 29881581.00 L 44068714.00 29868816.00 L 44059279.00 29860491.00 L 44039299.00 29836071.00 L 44027089.00 29809986.00 L 44017654.00 29765586.00 L 44015989.00 29737281.00 L 44019319.00 29695656.00 L 44029864.00 29651811.00 L 44035969.00 29639601.00 L 44054839.00 29613516.00 L 44074819.00 29597421.00 L 44093689.00 29588541.00 L 44126989.00 29580216.00 L 44143639.00 29579661.00 L 44176384.00 29585766.00 L 44206354.00 29599641.00 L 44225224.00 29617956.00 L 44241874.00 29645151.00 L 44252419.00 29677341.00 L 44303479.00 29664021.00 L 44290159.00 29629056.00 L 44272399.00 29597976.00 L 44253529.00 29575776.00 L 44238544.00 29564121.00 L 44210239.00 29549691.00 L 44175829.00 29539146.00 L 44144194.00 29536371.00 L 44115889.00 29538591.00 L 44075374.00 29546916.00 L 44050954.00 29556906.00 L 44033749.00 29568561.00 L 44011549.00 29590206.00 L 43992124.00 29617956.00 L 43983799.00 29635161.00 L 43972144.00 29672901.00 L 43964929.00 29717856.00 L 43964374.00 29753376.00 L 43969369.00 29789451.00 L 43978804.00 29824971.00 L 43993234.00 29853276.00 L 44012659.00 29878806.00 L 44036524.00 29901006.00 L 44052064.00 29910996.00 L 44079259.00 29922096.00 L 44108674.00 29929866.00 L 44144749.00 29933751.00 L 44178604.00 29929866.00  z"/>
<path id="N" d="M 22719346.00 39351139.00 L 22741546.00 39332269.00 L 22753201.00 39317284.00 L 22767631.00 39288979.00 L 22778176.00 39254569.00 L 22780951.00 39222379.00 L 22778731.00 39194629.00 L 22770406.00 39154114.00 L 22760416.00 39129694.00 L 22748761.00 39112489.00 L 22727116.00 39090289.00 L 22699366.00 39070864.00 L 22682161.00 39062539.00 L 22644421.00 39050884.00 L 22599466.00 39043669.00 L 22563946.00 39043114.00 L 22527871.00 39048109.00 L 22492351.00 39057544.00 L 22464046.00 39071974.00 L 22438516.00 39091399.00 L 22416316.00 39115264.00 L 22406326.00 39130804.00 L 22395226.00 39157999.00 L 22387456.00 39187414.00 L 22383571.00 39224044.00 L 22387456.00 39257344.00 L 22399111.00 39297304.00 L 22413541.00 39321169.00 L 22425196.00 39333934.00 A 184718.96 184718.96 0 0 0 22495681.00 39375559.00 L 22506781.00 39325609.00 L 22492906.00 39320059.00 L 22464046.00 39303409.00 L 22446286.00 39286204.00 L 22436296.00 39268999.00 L 22429636.00 39249019.00 L 22426861.00 39221824.00 L 22429636.00 39196294.00 L 22435741.00 39172429.00 L 22448506.00 39147454.00 L 22456831.00 39138019.00 L 22481251.00 39118039.00 L 22507336.00 39105829.00 L 22551736.00 39096394.00 L 22579486.00 39094729.00 L 22621666.00 39098059.00 L 22665511.00 39108604.00 L 22677721.00 39114709.00 L 22703806.00 39133579.00 L 22719901.00 39153559.00 L 22728781.00 39172429.00 L 22737106.00 39205729.00 L 22737661.00 39222379.00 L 22731556.00 39255124.00 L 22717681.00 39285094.00 L 22699366.00 39303964.00 L 22672171.00 39320614.00 L 22639981.00 39331159.00 L 22653301.00 39382219.00 L 22688266.00 39368899.00 L 22719346.00 39351139.00  z"/>
<path id="N" d="M 63429493.00 18828948.00 L 63460573.00 18817848.00 L 63483328.00 18802863.00 L 63496093.00 18788988.00 L 63511633.00 18761238.00 L 63522733.00 18724053.00 L 63526063.00 18687978.00 L 63523843.00 18661338.00 L 63515518.00 18626373.00 L 63503308.00 18598068.00 L 63491098.00 18580863.00 L 63473338.00 18566433.00 L 63446143.00 18552558.00 L 63413953.00 18543678.00 L 63395638.00 18542568.00 L 63369553.00 18545898.00 L 63347353.00 18552003.00 L 63324043.00 18562548.00 L 63301288.00 18580863.00 A 155562.55 155562.55 0 0 0 63265768.00 18671883.00 L 63266323.00 18708513.00 L 63272428.00 18742368.00 L 63281863.00 18769008.00 L 63288523.00 18779553.00 L 63308503.00 18801753.00 L 63329038.00 18816738.00 L 63349018.00 18825063.00 L 63382318.00 18832833.00 L 63429493.00 18828948.00  zM 63395638.00 18794538.00 L 63375103.00 18791208.00 L 63356233.00 18783438.00 L 63346798.00 18776778.00 L 63335143.00 18765123.00 L 63322933.00 18742368.00 L 63314608.00 18705738.00 L 63313498.00 18681318.00 L 63319048.00 18644688.00 L 63329593.00 18619158.00 L 63337363.00 18607503.00 L 63353458.00 18594738.00 L 63371773.00 18585303.00 L 63388978.00 18581973.00 L 63407848.00 18582528.00 L 63435598.00 18592518.00 L 63455578.00 18609168.00 L 63468343.00 18633588.00 L 63475558.00 18660783.00 L 63477778.00 18692973.00 L 63472228.00 18731268.00 L 63462238.00 18757353.00 L 63453913.00 18768453.00 L 63445033.00 18776778.00 L 63420058.00 18790653.00 L 63408403.00 18793428.00 L 63395638.00 18794538.00  z"/>
<path id="N" d="M 63429493.00 27687216.00 L 63460573.00 27676116.00 L 63483328.00 27661131.00 L 63496093.00 27647256.00 L 63511633.00 27619506.00 L 63522733.00 27582321.00 L 63526063.00 27546246.00 L 63523843.00 27519606.00 L 63515518.00 27484641.00 L 63503308.00 27456336.00 L 63491098.00 27439131.00 L 63473338.00 27424701.00 L 63446143.00 27410826.00 L 63413953.00 27401946.00 L 63395638.00 27400836.00 L 63369553.00 27404166.00 L 63347353.00 27410271.00 L 63324043.00 27420816.00 L 63301288.00 27439131.00 A 155562.55 155562.55 0 0 0 63265768.00 27530151.00 L 63266323.00 27566781.00 L 63272428.00 27600636.00 L 63281863.00 27627276.00 L 63288523.00 27637821.00 L 63308503.00 27660021.00 L 63329038.00 27675006.00 L 63349018.00 27683331.00 L 63382318.00 27691101.00 L 63429493.00 27687216.00  zM 63395638.00 27652806.00 L 63375103.00 27649476.00 L 63356233.00 27641706.00 L 63346798.00 27635046.00 L 63335143.00 27623391.00 L 63322933.00 27600636.00 L 63314608.00 27564006.00 L 63313498.00 27539586.00 L 63319048.00 27502956.00 L 63329593.00 27477426.00 L 63337363.00 27465771.00 L 63353458.00 27453006.00 L 63371773.00 27443571.00 L 63388978.00 27440241.00 L 63407848.00 27440796.00 L 63435598.00 27450786.00 L 63455578.00 27467436.00 L 63468343.00 27491856.00 L 63475558.00 27519051.00 L 63477778.00 27551241.00 L 63472228.00 27589536.00 L 63462238.00 27615621.00 L 63453913.00 27626721.00 L 63445033.00 27635046.00 L 63420058.00 27648921.00 L 63408403.00 27651696.00 L 63395638.00 27652806.00  z"/>
<path id="N" d="M 64188178.00 36655484.00 L 64219258.00 36644384.00 L 64242013.00 36629399.00 L 64254778.00 36615524.00 L 64270318.00 36587774.00 L 64281418.00 36550589.00 L 64284748.00 36514514.00 L 64282528.00 36487874.00 L 64274203.00 36452909.00 L 64261993.00 36424604.00 L 64249783.00 36407399.00 L 64232023.00 36392969.00 L 64204828.00 36379094.00 L 64172638.00 36370214.00 L 64154323.00 36369104.00 L 64128238.00 36372434.00 L 64106038.00 36378539.00 L 64082728.00 36389084.00 L 64059973.00 36407399.00 A 155562.55 155562.55 0 0 0 64024453.00 36498419.00 L 64025008.00 36535049.00 L 64031113.00 36568904.00 L 64040548.00 36595544.00 L 64047208.00 36606089.00 L 64067188.00 36628289.00 L 64087723.00 36643274.00 L 64107703.00 36651599.00 L 64141003.00 36659369.00 L 64188178.00 36655484.00  zM 64154323.00 36621074.00 L 64133788.00 36617744.00 L 64114918.00 36609974.00 L 64105483.00 36603314.00 L 64093828.00 36591659.00 L 64081618.00 36568904.00 L 64073293.00 36532274.00 L 64072183.00 36507854.00 L 64077733.00 36471224.00 L 64088278.00 36445694.00 L 64096048.00 36434039.00 L 64112143.00 36421274.00 L 64130458.00 36411839.00 L 64147663.00 36408509.00 L 64166533.00 36409064.00 L 64194283.00 36419054.00 L 64214263.00 36435704.00 L 64227028.00 36460124.00 L 64234243.00 36487319.00 L 64236463.00 36519509.00 L 64230913.00 36557804.00 L 64220923.00 36583889.00 L 64212598.00 36594989.00 L 64203718.00 36603314.00 L 64178743.00 36617189.00 L 64167088.00 36619964.00 L 64154323.00 36621074.00  z"/>
<path id="N" d="M 19915361.00 50011729.00 L 19942001.00 50002294.00 L 19966976.00 49983979.00 L 19982516.00 49966219.00 L 19992506.00 49949569.00 L 20003606.00 49914049.00 L 20006381.00 49887964.00 L 20001941.00 49854664.00 L 19990841.00 49823584.00 L 19975856.00 49800829.00 L 19961981.00 49788064.00 L 19934231.00 49772524.00 L 19897046.00 49761424.00 L 19860971.00 49758094.00 L 19834331.00 49760314.00 L 19799366.00 49768639.00 L 19771061.00 49780849.00 L 19753856.00 49793059.00 L 19739426.00 49810819.00 L 19725551.00 49838014.00 L 19716671.00 49870204.00 L 19715561.00 49889074.00 L 19718891.00 49914604.00 L 19724996.00 49936804.00 L 19735541.00 49960114.00 L 19753856.00 49982869.00 A 155562.55 155562.55 0 0 0 19844876.00 50018389.00 L 19881506.00 50017834.00 L 19915361.00 50011729.00  zM 19854311.00 49970659.00 L 19817681.00 49965109.00 L 19792151.00 49954564.00 L 19780496.00 49946794.00 L 19767731.00 49930699.00 L 19758296.00 49912384.00 L 19754966.00 49895179.00 L 19755521.00 49876309.00 L 19765511.00 49848559.00 L 19782161.00 49828579.00 L 19806581.00 49815814.00 L 19833776.00 49808599.00 L 19865966.00 49806379.00 L 19904261.00 49811929.00 L 19930346.00 49821919.00 L 19941446.00 49830244.00 L 19949771.00 49839124.00 A 76718.11 76718.11 0 0 1 19915361.00 49961224.00 L 19878731.00 49969549.00 L 19854311.00 49970659.00  z"/>
<path id="N" d="M 19915361.00 49563844.00 L 19942001.00 49554409.00 L 19966976.00 49536094.00 L 19982516.00 49518334.00 L 19992506.00 49501684.00 L 20003606.00 49466164.00 L 20006381.00 49440079.00 L 20001941.00 49406779.00 L 19990841.00 49375699.00 L 19975856.00 49352944.00 L 19961981.00 49340179.00 L 19934231.00 49324639.00 L 19897046.00 49313539.00 L 19860971.00 49310209.00 L 19834331.00 49312429.00 L 19799366.00 49320754.00 L 19771061.00 49332964.00 L 19753856.00 49345174.00 L 19739426.00 49362934.00 L 19725551.00 49390129.00 L 19716671.00 49422319.00 L 19715561.00 49441189.00 L 19718891.00 49466719.00 L 19724996.00 49488919.00 L 19735541.00 49512229.00 L 19753856.00 49534984.00 A 155562.55 155562.55 0 0 0 19844876.00 49570504.00 L 19881506.00 49569949.00 L 19915361.00 49563844.00  zM 19854311.00 49522774.00 L 19817681.00 49517224.00 L 19792151.00 49506679.00 L 19780496.00 49498909.00 L 19767731.00 49482814.00 L 19758296.00 49464499.00 L 19754966.00 49447294.00 L 19755521.00 49428424.00 L 19765511.00 49400674.00 L 19782161.00 49380694.00 L 19806581.00 49367929.00 L 19833776.00 49360714.00 L 19865966.00 49358494.00 L 19904261.00 49364044.00 L 19930346.00 49374034.00 L 19941446.00 49382359.00 L 19949771.00 49391239.00 A 76718.11 76718.11 0 0 1 19915361.00 49513339.00 L 19878731.00 49521664.00 L 19854311.00 49522774.00  z"/>
<path id="N" d="M 22689376.00 39674704.00 L 22716016.00 39665269.00 L 22740991.00 39646954.00 L 22756531.00 39629194.00 L 22766521.00 39612544.00 L 22777621.00 39577024.00 L 22780396.00 39550939.00 L 22775956.00 39517639.00 L 22764856.00 39486559.00 L 22749871.00 39463804.00 L 22735996.00 39451039.00 L 22708246.00 39435499.00 L 22671061.00 39424399.00 L 22634986.00 39421069.00 L 22608346.00 39423289.00 L 22573381.00 39431614.00 L 22545076.00 39443824.00 L 22527871.00 39456034.00 L 22513441.00 39473794.00 L 22499566.00 39500989.00 L 22490686.00 39533179.00 L 22489576.00 39552049.00 L 22492906.00 39577579.00 L 22499011.00 39599779.00 L 22509556.00 39623089.00 L 22527871.00 39645844.00 A 155562.55 155562.55 0 0 0 22618891.00 39681364.00 L 22655521.00 39680809.00 L 22689376.00 39674704.00  zM 22628326.00 39633634.00 L 22591696.00 39628084.00 L 22566166.00 39617539.00 L 22554511.00 39609769.00 L 22541746.00 39593674.00 L 22532311.00 39575359.00 L 22528981.00 39558154.00 L 22529536.00 39539284.00 L 22539526.00 39511534.00 L 22556176.00 39491554.00 L 22580596.00 39478789.00 L 22607791.00 39471574.00 L 22639981.00 39469354.00 L 22678276.00 39474904.00 L 22704361.00 39484894.00 L 22715461.00 39493219.00 L 22723786.00 39502099.00 A 76718.11 76718.11 0 0 1 22689376.00 39624199.00 L 22652746.00 39632524.00 L 22628326.00 39633634.00  z"/>
<path id="N" d="M 22689376.00 41555044.00 L 22716016.00 41545609.00 L 22740991.00 41527294.00 L 22756531.00 41509534.00 L 22766521.00 41492884.00 L 22777621.00 41457364.00 L 22780396.00 41431279.00 L 22775956.00 41397979.00 L 22764856.00 41366899.00 L 22749871.00 41344144.00 L 22735996.00 41331379.00 L 22708246.00 41315839.00 L 22671061.00 41304739.00 L 22634986.00 41301409.00 L 22608346.00 41303629.00 L 22573381.00 41311954.00 L 22545076.00 41324164.00 L 22527871.00 41336374.00 L 22513441.00 41354134.00 L 22499566.00 41381329.00 L 22490686.00 41413519.00 L 22489576.00 41432389.00 L 22492906.00 41457919.00 L 22499011.00 41480119.00 L 22509556.00 41503429.00 L 22527871.00 41526184.00 A 155562.55 155562.55 0 0 0 22618891.00 41561704.00 L 22655521.00 41561149.00 L 22689376.00 41555044.00  zM 22628326.00 41513974.00 L 22591696.00 41508424.00 L 22566166.00 41497879.00 L 22554511.00 41490109.00 L 22541746.00 41474014.00 L 22532311.00 41455699.00 L 22528981.00 41438494.00 L 22529536.00 41419624.00 L 22539526.00 41391874.00 L 22556176.00 41371894.00 L 22580596.00 41359129.00 L 22607791.00 41351914.00 L 22639981.00 41349694.00 L 22678276.00 41355244.00 L 22704361.00 41365234.00 L 22715461.00 41373559.00 L 22723786.00 41382439.00 A 76718.11 76718.11 0 0 1 22689376.00 41504539.00 L 22652746.00 41512864.00 L 22628326.00 41513974.00  z"/>
<path id="N" d="M 30396384.00 31501653.00 L 30423024.00 31492218.00 L 30447999.00 31473903.00 L 30463539.00 31456143.00 L 30473529.00 31439493.00 L 30484629.00 31403973.00 L 30487404.00 31377888.00 L 30482964.00 31344588.00 L 30471864.00 31313508.00 L 30456879.00 31290753.00 L 30443004.00 31277988.00 L 30415254.00 31262448.00 L 30378069.00 31251348.00 L 30341994.00 31248018.00 L 30315354.00 31250238.00 L 30280389.00 31258563.00 L 30252084.00 31270773.00 L 30234879.00 31282983.00 L 30220449.00 31300743.00 L 30206574.00 31327938.00 L 30197694.00 31360128.00 L 30196584.00 31378998.00 L 30199914.00 31404528.00 L 30206019.00 31426728.00 L 30216564.00 31450038.00 L 30234879.00 31472793.00 A 155562.55 155562.55 0 0 0 30325899.00 31508313.00 L 30362529.00 31507758.00 L 30396384.00 31501653.00  zM 30335334.00 31460583.00 L 30298704.00 31455033.00 L 30273174.00 31444488.00 L 30261519.00 31436718.00 L 30248754.00 31420623.00 L 30239319.00 31402308.00 L 30235989.00 31385103.00 L 30236544.00 31366233.00 L 30246534.00 31338483.00 L 30263184.00 31318503.00 L 30287604.00 31305738.00 L 30314799.00 31298523.00 L 30346989.00 31296303.00 L 30385284.00 31301853.00 L 30411369.00 31311843.00 L 30422469.00 31320168.00 L 30430794.00 31329048.00 A 76718.11 76718.11 0 0 1 30396384.00 31451148.00 L 30359754.00 31459473.00 L 30335334.00 31460583.00  z"/>
<path id="N" d="M 45961264.00 29824971.00 L 45985129.00 29817756.00 L 46009549.00 29804436.00 L 46013434.00 29799996.00 L 46030639.00 29778906.00 L 46042294.00 29755041.00 L 46046179.00 29740056.00 L 46000114.00 29732841.00 L 45999004.00 29737281.00 L 45987349.00 29762256.00 L 45976249.00 29775021.00 L 45965704.00 29781681.00 L 45945169.00 29788341.00 L 45924634.00 29787786.00 L 45897439.00 29778351.00 A 70683.95 70683.95 0 0 1 45868024.00 29743941.00 L 45860254.00 29718411.00 L 45856924.00 29681781.00 L 45861919.00 29637936.00 L 45870799.00 29611851.00 L 45878014.00 29600751.00 L 45892999.00 29588541.00 L 45910759.00 29579661.00 L 45934069.00 29575776.00 L 45950164.00 29577996.00 L 45965149.00 29582991.00 L 45980134.00 29592426.00 L 45986239.00 29599641.00 L 45998449.00 29621841.00 L 46003999.00 29645151.00 L 46050619.00 29638491.00 L 46048954.00 29631276.00 L 46037854.00 29599641.00 L 46021759.00 29574666.00 L 46005664.00 29559681.00 A 122109.29 122109.29 0 0 0 45901879.00 29541366.00 L 45879679.00 29549136.00 L 45856924.00 29561901.00 L 45842494.00 29574666.00 L 45829174.00 29595201.00 L 45816409.00 29625171.00 L 45810304.00 29656806.00 L 45808639.00 29688996.00 L 45814744.00 29733396.00 L 45823624.00 29761701.00 L 45840829.00 29787231.00 L 45858034.00 29803881.00 L 45869134.00 29810541.00 L 45888559.00 29819421.00 L 45921859.00 29827191.00 L 45961264.00 29824971.00  z"/>
<path id="N" d="M 19915361.00 46298941.00 L 19942001.00 46289506.00 L 19966976.00 46271191.00 L 19982516.00 46253431.00 L 19992506.00 46236781.00 L 20003606.00 46201261.00 L 20006381.00 46175176.00 L 20001941.00 46141876.00 L 19990841.00 46110796.00 L 19975856.00 46088041.00 L 19961981.00 46075276.00 L 19934231.00 46059736.00 L 19897046.00 46048636.00 L 19860971.00 46045306.00 L 19834331.00 46047526.00 L 19799366.00 46055851.00 L 19771061.00 46068061.00 L 19753856.00 46080271.00 L 19739426.00 46098031.00 L 19725551.00 46125226.00 L 19716671.00 46157416.00 L 19715561.00 46176286.00 L 19718891.00 46201816.00 L 19724996.00 46224016.00 L 19735541.00 46247326.00 L 19753856.00 46270081.00 A 155562.55 155562.55 0 0 0 19844876.00 46305601.00 L 19881506.00 46305046.00 L 19915361.00 46298941.00  zM 19854311.00 46257871.00 L 19817681.00 46252321.00 L 19792151.00 46241776.00 L 19780496.00 46234006.00 L 19767731.00 46217911.00 L 19758296.00 46199596.00 L 19754966.00 46182391.00 L 19755521.00 46163521.00 L 19765511.00 46135771.00 L 19782161.00 46115791.00 L 19806581.00 46103026.00 L 19833776.00 46095811.00 L 19865966.00 46093591.00 L 19904261.00 46099141.00 L 19930346.00 46109131.00 L 19941446.00 46117456.00 L 19949771.00 46126336.00 A 76718.11 76718.11 0 0 1 19915361.00 46248436.00 L 19878731.00 46256761.00 L 19854311.00 46257871.00  z"/>
<path id="N" d="M 31699952.00 46050301.00 L 31699952.00 45842176.00 L 31707722.00 45842731.00 L 31737137.00 45849391.00 L 31760447.00 45859936.00 L 31774322.00 45872146.00 L 31786532.00 45892681.00 L 31793192.00 45913771.00 L 31794302.00 45930976.00 L 31788752.00 45956506.00 L 31778207.00 45974266.00 L 31756562.00 45990916.00 L 31737137.00 46000351.00 L 31743797.00 46049191.00 L 31778207.00 46033651.00 L 31799852.00 46017001.00 L 31809842.00 46005346.00 L 31821497.00 45984256.00 L 31829267.00 45959281.00 L 31833152.00 45925981.00 L 31829822.00 45898786.00 L 31820942.00 45867706.00 L 31808177.00 45843841.00 L 31792082.00 45826081.00 L 31761557.00 45808321.00 L 31725482.00 45797221.00 L 31690517.00 45793891.00 L 31658327.00 45796666.00 L 31614482.00 45808876.00 L 31588952.00 45823861.00 L 31575077.00 45836626.00 L 31557872.00 45861601.00 L 31545662.00 45893791.00 L 31542332.00 45924316.00 L 31547327.00 45956506.00 L 31558427.00 45985921.00 L 31573967.00 46008676.00 L 31591727.00 46023661.00 L 31623362.00 46039756.00 L 31652222.00 46047526.00 L 31694402.00 46050856.00 L 31699952.00 46050301.00  zM 31661102.00 46000906.00 L 31655552.00 46000351.00 L 31624472.00 45992026.00 L 31608377.00 45982591.00 L 31595057.00 45967051.00 A 74698.00 74698.00 0 0 1 31636682.00 45849946.00 L 31661102.00 45844951.00 L 31661102.00 46000906.00  z"/>
<path id="N" d="M 19873181.00 45557461.00 L 19873181.00 45349336.00 L 19880951.00 45349891.00 L 19910366.00 45356551.00 L 19933676.00 45367096.00 L 19947551.00 45379306.00 L 19959761.00 45399841.00 L 19966421.00 45420931.00 L 19967531.00 45438136.00 L 19961981.00 45463666.00 L 19951436.00 45481426.00 L 19929791.00 45498076.00 L 19910366.00 45507511.00 L 19917026.00 45556351.00 L 19951436.00 45540811.00 L 19973081.00 45524161.00 L 19983071.00 45512506.00 L 19994726.00 45491416.00 L 20002496.00 45466441.00 L 20006381.00 45433141.00 L 20003051.00 45405946.00 L 19994171.00 45374866.00 L 19981406.00 45351001.00 L 19965311.00 45333241.00 L 19934786.00 45315481.00 L 19898711.00 45304381.00 L 19863746.00 45301051.00 L 19831556.00 45303826.00 L 19787711.00 45316036.00 L 19762181.00 45331021.00 L 19748306.00 45343786.00 L 19731101.00 45368761.00 L 19718891.00 45400951.00 L 19715561.00 45431476.00 L 19720556.00 45463666.00 L 19731656.00 45493081.00 L 19747196.00 45515836.00 L 19764956.00 45530821.00 L 19796591.00 45546916.00 L 19825451.00 45554686.00 L 19867631.00 45558016.00 L 19873181.00 45557461.00  zM 19834331.00 45508066.00 L 19828781.00 45507511.00 L 19797701.00 45499186.00 L 19781606.00 45489751.00 L 19768286.00 45474211.00 A 74698.00 74698.00 0 0 1 19809911.00 45357106.00 L 19834331.00 45352111.00 L 19834331.00 45508066.00  z"/>
<path id="N" d="M 31589952.00 49775299.00 L 31589952.00 49567174.00 L 31597722.00 49567729.00 L 31627137.00 49574389.00 L 31650447.00 49584934.00 L 31664322.00 49597144.00 L 31676532.00 49617679.00 L 31683192.00 49638769.00 L 31684302.00 49655974.00 L 31678752.00 49681504.00 L 31668207.00 49699264.00 L 31646562.00 49715914.00 L 31627137.00 49725349.00 L 31633797.00 49774189.00 L 31668207.00 49758649.00 L 31689852.00 49741999.00 L 31699842.00 49730344.00 L 31711497.00 49709254.00 L 31719267.00 49684279.00 L 31723152.00 49650979.00 L 31719822.00 49623784.00 L 31710942.00 49592704.00 L 31698177.00 49568839.00 L 31682082.00 49551079.00 L 31651557.00 49533319.00 L 31615482.00 49522219.00 L 31580517.00 49518889.00 L 31548327.00 49521664.00 L 31504482.00 49533874.00 L 31478952.00 49548859.00 L 31465077.00 49561624.00 L 31447872.00 49586599.00 L 31435662.00 49618789.00 L 31432332.00 49649314.00 L 31437327.00 49681504.00 L 31448427.00 49710919.00 L 31463967.00 49733674.00 L 31481727.00 49748659.00 L 31513362.00 49764754.00 L 31542222.00 49772524.00 L 31584402.00 49775854.00 L 31589952.00 49775299.00  zM 31551102.00 49725904.00 L 31545552.00 49725349.00 L 31514472.00 49717024.00 L 31498377.00 49707589.00 L 31485057.00 49692049.00 A 74698.00 74698.00 0 0 1 31526682.00 49574944.00 L 31551102.00 49569949.00 L 31551102.00 49725904.00  z"/>
<path id="N" d="M 46842604.00 29807766.00 L 46865359.00 29789451.00 L 46883119.00 29762811.00 L 46895884.00 29730066.00 L 46900879.00 29698431.00 L 46900324.00 29661801.00 L 46894219.00 29627946.00 L 46884784.00 29601306.00 L 46866469.00 29576331.00 L 46848709.00 29560791.00 L 46832059.00 29550801.00 L 46796539.00 29539701.00 L 46771009.00 29536926.00 L 46737154.00 29541366.00 L 46706074.00 29552466.00 L 46683319.00 29567451.00 L 46670554.00 29581326.00 L 46655014.00 29609076.00 L 46643914.00 29646261.00 L 46640584.00 29682336.00 L 46642804.00 29708976.00 L 46651129.00 29743941.00 L 46663339.00 29772246.00 L 46675549.00 29789451.00 L 46683874.00 29797221.00 L 46702189.00 29809431.00 L 46735489.00 29822751.00 L 46761574.00 29827191.00 A 155492.01 155492.01 0 0 0 46842604.00 29807766.00  zM 46758799.00 29787786.00 L 46731049.00 29777796.00 L 46711069.00 29761146.00 L 46698304.00 29736726.00 L 46691089.00 29709531.00 L 46688869.00 29677341.00 L 46694419.00 29639046.00 L 46704409.00 29612961.00 L 46712734.00 29601861.00 L 46721614.00 29593536.00 A 76680.81 76680.81 0 0 1 46843714.00 29627946.00 L 46852039.00 29664576.00 L 46853149.00 29688996.00 L 46847599.00 29725626.00 L 46837054.00 29751156.00 L 46829284.00 29762811.00 L 46804864.00 29780571.00 L 46783774.00 29787786.00 L 46758799.00 29787786.00  z"/>
<path id="N" d="M 44544349.00 29807766.00 L 44567104.00 29789451.00 L 44584864.00 29762811.00 L 44597629.00 29730066.00 L 44602624.00 29698431.00 L 44602069.00 29661801.00 L 44595964.00 29627946.00 L 44586529.00 29601306.00 L 44568214.00 29576331.00 L 44550454.00 29560791.00 L 44533804.00 29550801.00 L 44498284.00 29539701.00 L 44472754.00 29536926.00 L 44438899.00 29541366.00 L 44407819.00 29552466.00 L 44385064.00 29567451.00 L 44372299.00 29581326.00 L 44356759.00 29609076.00 L 44345659.00 29646261.00 L 44342329.00 29682336.00 L 44344549.00 29708976.00 L 44352874.00 29743941.00 L 44365084.00 29772246.00 L 44377294.00 29789451.00 L 44385619.00 29797221.00 L 44403934.00 29809431.00 L 44437234.00 29822751.00 L 44463319.00 29827191.00 A 155492.01 155492.01 0 0 0 44544349.00 29807766.00  zM 44460544.00 29787786.00 L 44432794.00 29777796.00 L 44412814.00 29761146.00 L 44400049.00 29736726.00 L 44392834.00 29709531.00 L 44390614.00 29677341.00 L 44396164.00 29639046.00 L 44406154.00 29612961.00 L 44414479.00 29601861.00 L 44423359.00 29593536.00 A 76680.81 76680.81 0 0 1 44545459.00 29627946.00 L 44553784.00 29664576.00 L 44554894.00 29688996.00 L 44549344.00 29725626.00 L 44538799.00 29751156.00 L 44531029.00 29762811.00 L 44506609.00 29780571.00 L 44485519.00 29787786.00 L 44460544.00 29787786.00  z"/>
<path id="N" d="M 63492208.00 36656594.00 L 63523288.00 36647714.00 L 63547153.00 36634949.00 L 63564913.00 36618854.00 L 63582673.00 36588329.00 L 63593773.00 36552254.00 L 63597103.00 36516734.00 L 63594328.00 36485099.00 L 63582118.00 36441254.00 L 63567133.00 36415724.00 L 63554368.00 36401849.00 L 63529393.00 36384644.00 L 63497203.00 36372434.00 L 63467233.00 36369104.00 L 63441703.00 36372434.00 L 63412843.00 36381314.00 L 63389533.00 36394634.00 L 63375103.00 36407954.00 L 63361228.00 36428489.00 L 63348463.00 36459014.00 L 63341803.00 36490094.00 L 63340693.00 36526724.00 L 63548818.00 36527279.00 L 63548263.00 36534494.00 L 63541603.00 36563909.00 L 63531058.00 36587219.00 L 63518848.00 36601094.00 L 63498313.00 36613304.00 L 63477223.00 36619964.00 L 63460018.00 36621074.00 L 63434488.00 36615524.00 L 63416728.00 36604979.00 L 63400078.00 36583334.00 L 63390643.00 36563909.00 L 63341803.00 36570569.00 L 63357343.00 36604979.00 L 63373993.00 36626624.00 L 63385648.00 36636614.00 L 63406738.00 36648269.00 L 63431713.00 36656039.00 L 63464458.00 36659924.00 L 63492208.00 36656594.00  zM 63546043.00 36487874.00 L 63390088.00 36487319.00 L 63390643.00 36482324.00 L 63398968.00 36451244.00 L 63408403.00 36435149.00 L 63423943.00 36421829.00 A 74698.00 74698.00 0 0 1 63537163.00 36453464.00 L 63544378.00 36475109.00 L 63546043.00 36487874.00  z"/>
<path id="N" d="M 62523733.00 27688326.00 L 62554813.00 27679446.00 L 62578678.00 27666681.00 L 62596438.00 27650586.00 L 62614198.00 27620061.00 L 62625298.00 27583986.00 L 62628628.00 27548466.00 L 62625853.00 27516831.00 L 62613643.00 27472986.00 L 62598658.00 27447456.00 L 62585893.00 27433581.00 L 62560918.00 27416376.00 L 62528728.00 27404166.00 L 62498758.00 27400836.00 L 62473228.00 27404166.00 L 62444368.00 27413046.00 L 62421058.00 27426366.00 L 62406628.00 27439686.00 L 62392753.00 27460221.00 L 62379988.00 27490746.00 L 62373328.00 27521826.00 L 62372218.00 27558456.00 L 62580343.00 27559011.00 L 62579788.00 27566226.00 L 62573128.00 27595641.00 L 62562583.00 27618951.00 L 62550373.00 27632826.00 L 62529838.00 27645036.00 L 62508748.00 27651696.00 L 62491543.00 27652806.00 L 62466013.00 27647256.00 L 62448253.00 27636711.00 L 62431603.00 27615066.00 L 62422168.00 27595641.00 L 62373328.00 27602301.00 L 62388868.00 27636711.00 L 62405518.00 27658356.00 L 62417173.00 27668346.00 L 62438263.00 27680001.00 L 62463238.00 27687771.00 L 62495983.00 27691656.00 L 62523733.00 27688326.00  zM 62577568.00 27519606.00 L 62421613.00 27519051.00 L 62422168.00 27514056.00 L 62430493.00 27482976.00 L 62439928.00 27466881.00 L 62455468.00 27453561.00 A 74698.00 74698.00 0 0 1 62568688.00 27485196.00 L 62575903.00 27506841.00 L 62577568.00 27519606.00  z"/>
<path id="N" d="M 62523733.00 18830058.00 L 62554813.00 18821178.00 L 62578678.00 18808413.00 L 62596438.00 18792318.00 L 62614198.00 18761793.00 L 62625298.00 18725718.00 L 62628628.00 18690198.00 L 62625853.00 18658563.00 L 62613643.00 18614718.00 L 62598658.00 18589188.00 L 62585893.00 18575313.00 L 62560918.00 18558108.00 L 62528728.00 18545898.00 L 62498758.00 18542568.00 L 62473228.00 18545898.00 L 62444368.00 18554778.00 L 62421058.00 18568098.00 L 62406628.00 18581418.00 L 62392753.00 18601953.00 L 62379988.00 18632478.00 L 62373328.00 18663558.00 L 62372218.00 18700188.00 L 62580343.00 18700743.00 L 62579788.00 18707958.00 L 62573128.00 18737373.00 L 62562583.00 18760683.00 L 62550373.00 18774558.00 L 62529838.00 18786768.00 L 62508748.00 18793428.00 L 62491543.00 18794538.00 L 62466013.00 18788988.00 L 62448253.00 18778443.00 L 62431603.00 18756798.00 L 62422168.00 18737373.00 L 62373328.00 18744033.00 L 62388868.00 18778443.00 L 62405518.00 18800088.00 L 62417173.00 18810078.00 L 62438263.00 18821733.00 L 62463238.00 18829503.00 L 62495983.00 18833388.00 L 62523733.00 18830058.00  zM 62577568.00 18661338.00 L 62421613.00 18660783.00 L 62422168.00 18655788.00 L 62430493.00 18624708.00 L 62439928.00 18608613.00 L 62455468.00 18595293.00 A 74698.00 74698.00 0 0 1 62568688.00 18626928.00 L 62575903.00 18648573.00 L 62577568.00 18661338.00  z"/>
<path id="N" d="M 22671061.00 40422289.00 L 22711021.00 40410634.00 L 22738216.00 40392874.00 L 22754866.00 40376224.00 L 22768186.00 40355134.00 L 22777621.00 40327939.00 L 22780396.00 40304629.00 L 22776511.00 40276879.00 L 22770406.00 40261894.00 L 22760416.00 40246909.00 L 22745431.00 40231924.00 L 22880851.00 40231924.00 L 22880851.00 40184749.00 L 22495681.00 40184749.00 L 22495681.00 40227484.00 L 22532311.00 40227484.00 L 22525096.00 40233034.00 L 22505116.00 40254679.00 L 22495126.00 40274659.00 L 22490131.00 40297969.00 L 22490686.00 40320724.00 L 22497346.00 40349584.00 L 22508446.00 40371229.00 L 22516216.00 40380109.00 L 22537861.00 40399534.00 L 22560616.00 40411744.00 L 22581706.00 40418959.00 L 22618891.00 40425619.00 L 22671061.00 40422289.00  zM 22627771.00 40377889.00 L 22602796.00 40375114.00 L 22577266.00 40368454.00 L 22552846.00 40355689.00 L 22540081.00 40341259.00 L 22530646.00 40324609.00 L 22526761.00 40303519.00 L 22530091.00 40285759.00 L 22541746.00 40263559.00 L 22555621.00 40250239.00 L 22566721.00 40243024.00 L 22593916.00 40233034.00 L 22626661.00 40227484.00 L 22654966.00 40228594.00 L 22692706.00 40236364.00 L 22711021.00 40245244.00 L 22724341.00 40257454.00 L 22737661.00 40280209.00 L 22741546.00 40301854.00 L 22738216.00 40320169.00 A 73250.58 73250.58 0 0 1 22683271.00 40370674.00 L 22661071.00 40375669.00 L 22627771.00 40377889.00  z"/>
<path id="N" d="M 30481299.00 31027683.00 L 30446889.00 31027128.00 L 30455769.00 31019913.00 L 30474639.00 30997158.00 L 30483519.00 30976068.00 L 30486849.00 30958863.00 L 30486294.00 30937218.00 L 30479634.00 30909468.00 L 30469089.00 30887823.00 L 30455769.00 30872838.00 L 30429684.00 30851193.00 L 30412479.00 30842868.00 L 30372519.00 30832323.00 L 30342549.00 30830103.00 L 30305919.00 30833433.00 L 30266514.00 30843978.00 L 30239319.00 30860073.00 L 30222114.00 30875613.00 L 30214899.00 30885603.00 L 30205464.00 30903918.00 L 30197139.00 30934998.00 L 30197139.00 30956088.00 L 30203799.00 30984948.00 L 30214899.00 31003263.00 L 30234879.00 31024353.00 L 30097239.00 31024353.00 L 30097239.00 31071528.00 L 30481299.00 31071528.00 L 30481299.00 31027683.00  zM 30332559.00 31028238.00 L 30300924.00 31023243.00 L 30273729.00 31013808.00 L 30258189.00 31002708.00 L 30243759.00 30983838.00 L 30236544.00 30963858.00 L 30235434.00 30949428.00 L 30241539.00 30925563.00 L 30252639.00 30907803.00 L 30262074.00 30899478.00 L 30280944.00 30888933.00 L 30314244.00 30880608.00 L 30347544.00 30878388.00 L 30385284.00 30883938.00 L 30411369.00 30893373.00 L 30422469.00 30901143.00 L 30435234.00 30915573.00 L 30444669.00 30932778.00 A 66758.22 66758.22 0 0 1 30438009.00 30989388.00 L 30428019.00 31002708.00 L 30413034.00 31013808.00 L 30386949.00 31023798.00 L 30364749.00 31027683.00 L 30332559.00 31028238.00  z"/>
<path id="N" d="M 22774291.00 40067644.00 L 22583926.00 40067089.00 L 22558396.00 40063204.00 L 22541746.00 40050994.00 A 52035.34 52035.34 0 0 1 22531756.00 40007704.00 L 22538971.00 39984949.00 L 22550626.00 39968854.00 L 22565611.00 39959419.00 L 22585036.00 39952759.00 L 22612786.00 39949429.00 L 22774291.00 39949429.00 L 22774291.00 39902254.00 L 22588921.00 39902254.00 L 22576156.00 39900589.00 L 22553401.00 39894484.00 L 22541746.00 39885604.00 L 22532866.00 39870064.00 L 22530646.00 39851749.00 L 22535086.00 39828994.00 L 22541746.00 39815674.00 L 22553401.00 39802909.00 L 22572271.00 39791809.00 L 22605016.00 39785149.00 L 22774291.00 39784039.00 L 22774291.00 39736864.00 L 22495681.00 39736864.00 L 22495681.00 39779044.00 L 22535641.00 39779044.00 L 22528426.00 39784594.00 L 22507336.00 39806239.00 L 22498456.00 39822334.00 L 22491796.00 39843979.00 L 22489576.00 39866179.00 L 22495126.00 39897814.00 L 22502896.00 39913909.00 L 22517326.00 39929449.00 L 22538416.00 39942769.00 L 22527316.00 39951649.00 L 22509556.00 39971629.00 L 22497346.00 39992719.00 L 22491796.00 40009924.00 L 22489576.00 40032679.00 L 22495126.00 40062649.00 L 22505116.00 40083739.00 L 22512886.00 40092619.00 L 22522321.00 40099834.00 L 22545631.00 40109824.00 L 22574491.00 40114819.00 L 22774291.00 40114819.00 L 22774291.00 40067644.00  z"/>
<path id="N" d="M 44983909.00 29822196.00 L 45004999.00 29812206.00 L 45013879.00 29804436.00 L 45021094.00 29795001.00 L 45031084.00 29771691.00 L 45036079.00 29742831.00 L 45036079.00 29543031.00 L 44988904.00 29543031.00 L 44988349.00 29733396.00 L 44984464.00 29758926.00 L 44972254.00 29775576.00 A 52035.34 52035.34 0 0 1 44928964.00 29785566.00 L 44906209.00 29778351.00 L 44890114.00 29766696.00 L 44880679.00 29751711.00 L 44874019.00 29732286.00 L 44870689.00 29704536.00 L 44870689.00 29543031.00 L 44823514.00 29543031.00 L 44823514.00 29723961.00 L 44821849.00 29741166.00 L 44815744.00 29763921.00 L 44806864.00 29775576.00 L 44791324.00 29784456.00 L 44770789.00 29786676.00 L 44750254.00 29782236.00 L 44736934.00 29775576.00 L 44724169.00 29763921.00 L 44713069.00 29745051.00 L 44706409.00 29712306.00 L 44705299.00 29543031.00 L 44658124.00 29543031.00 L 44658124.00 29821641.00 L 44700304.00 29821641.00 L 44700304.00 29781681.00 L 44705854.00 29788896.00 L 44727499.00 29809986.00 L 44743594.00 29818866.00 L 44765239.00 29825526.00 L 44789659.00 29827746.00 L 44819074.00 29822196.00 L 44835169.00 29814426.00 L 44850709.00 29799996.00 L 44864029.00 29778906.00 L 44872909.00 29790006.00 L 44892889.00 29807766.00 L 44913979.00 29819976.00 L 44940064.00 29827191.00 L 44983909.00 29822196.00  z"/>
<path id="N" d="M 35524063.00 30857239.00 L 35552245.00 30848923.00 A 75857.74 75857.74 0 0 0 35594749.00 30808267.00 L 35603989.00 30784243.00 L 35606299.00 30769921.00 L 35565181.00 30766687.00 L 35562871.00 30776851.00 L 35554555.00 30798565.00 L 35543467.00 30812425.00 L 35532841.00 30819355.00 L 35512513.00 30826285.00 L 35493571.00 30825823.00 L 35471395.00 30817969.00 L 35459383.00 30809191.00 L 35449219.00 30796717.00 L 35439055.00 30772693.00 L 35435821.00 30748669.00 L 35440441.00 30720949.00 L 35448295.00 30703855.00 A 61998.21 61998.21 0 0 1 35493109.00 30677059.00 L 35511127.00 30676597.00 L 35532841.00 30682141.00 L 35547625.00 30690919.00 L 35562409.00 30707551.00 L 35599369.00 30702469.00 L 35568415.00 30537997.00 L 35409487.00 30537997.00 L 35409487.00 30575419.00 L 35537461.00 30575419.00 L 35554555.00 30661813.00 L 35526835.00 30647953.00 L 35505583.00 30642409.00 L 35487103.00 30641947.00 L 35458459.00 30648415.00 L 35440441.00 30657193.00 L 35423347.00 30670591.00 L 35408563.00 30690919.00 L 35397013.00 30721411.00 L 35394241.00 30747283.00 L 35400247.00 30782857.00 L 35407639.00 30801799.00 L 35421037.00 30822127.00 L 35441827.00 30839683.00 A 108197.35 108197.35 0 0 0 35524063.00 30857239.00  z"/>
<path id="N" d="M 30481299.00 30442713.00 L 30400824.00 30392208.00 L 30348099.00 30355023.00 L 30326454.00 30333933.00 L 30319239.00 30322278.00 L 30312024.00 30299523.00 L 30310914.00 30219603.00 L 30481299.00 30219603.00 L 30481299.00 30168543.00 L 30097239.00 30168543.00 L 30098349.00 30367788.00 L 30104454.00 30405528.00 L 30112224.00 30426063.00 L 30127764.00 30446043.00 L 30144414.00 30459363.00 L 30161619.00 30467688.00 A 105175.79 105175.79 0 0 0 30271509.00 30448818.00 L 30280389.00 30437718.00 L 30292044.00 30417183.00 L 30300369.00 30394983.00 L 30306474.00 30367233.00 L 30318684.00 30388323.00 L 30334224.00 30406083.00 L 30365859.00 30432168.00 L 30481299.00 30505983.00 L 30481299.00 30442713.00  zM 30193254.00 30422178.00 L 30179934.00 30418293.00 L 30164949.00 30409968.00 L 30154959.00 30399423.00 L 30145524.00 30379443.00 L 30140529.00 30355578.00 L 30139974.00 30219603.00 L 30267069.00 30219603.00 L 30267069.00 30328938.00 L 30265404.00 30357243.00 L 30260409.00 30382773.00 L 30247644.00 30403863.00 L 30236544.00 30413298.00 L 30221559.00 30419958.00 L 30193254.00 30422178.00  z"/>
<path id="N" d="M 64618858.00 36269759.00 L 64461238.00 36269759.00 L 64424053.00 36272534.00 L 64399078.00 36277529.00 L 64368553.00 36291959.00 L 64357453.00 36301394.00 L 64341913.00 36320264.00 L 64331368.00 36344129.00 L 64326373.00 36370769.00 L 64326928.00 36393524.00 L 64333588.00 36422939.00 L 64343023.00 36444029.00 L 64358008.00 36464564.00 L 64366888.00 36471779.00 L 64390198.00 36483989.00 L 64417948.00 36492314.00 L 64455133.00 36497309.00 L 64567798.00 36497864.00 L 64567798.00 36653819.00 L 64618858.00 36653819.00 L 64618858.00 36269759.00  zM 64567798.00 36452354.00 L 64464568.00 36452354.00 L 64430158.00 36447914.00 L 64407958.00 36440144.00 L 64399078.00 36434039.00 A 69930.23 69930.23 0 0 1 64377988.00 36381869.00 L 64382983.00 36355229.00 A 61953.71 61953.71 0 0 1 64439593.00 36316379.00 L 64567798.00 36315269.00 L 64567798.00 36452354.00  z"/>
<path id="N" d="M 44158624.00 49693844.00 L 44183599.00 49688849.00 L 44214124.00 49674419.00 L 44225224.00 49664984.00 L 44240764.00 49646114.00 L 44251309.00 49622249.00 L 44256304.00 49595609.00 L 44255749.00 49572854.00 L 44249089.00 49543439.00 L 44239654.00 49522349.00 L 44224669.00 49501814.00 L 44215789.00 49494599.00 L 44192479.00 49482389.00 L 44164729.00 49474064.00 L 44127544.00 49469069.00 L 44014879.00 49468514.00 L 44014879.00 49312559.00 L 43963819.00 49312559.00 L 43963819.00 49696619.00 L 44158624.00 49693844.00  zM 44014879.00 49651109.00 L 44014879.00 49514024.00 L 44118109.00 49514024.00 L 44152519.00 49518464.00 L 44174719.00 49526234.00 L 44183599.00 49532339.00 A 69930.23 69930.23 0 0 1 44204689.00 49584509.00 L 44199694.00 49611149.00 A 61953.71 61953.71 0 0 1 44143084.00 49649999.00 L 44014879.00 49651109.00  z"/>
<path id="N" d="M 44158624.00 38835576.00 L 44183599.00 38830581.00 L 44214124.00 38816151.00 L 44225224.00 38806716.00 L 44240764.00 38787846.00 L 44251309.00 38763981.00 L 44256304.00 38737341.00 L 44255749.00 38714586.00 L 44249089.00 38685171.00 L 44239654.00 38664081.00 L 44224669.00 38643546.00 L 44215789.00 38636331.00 L 44192479.00 38624121.00 L 44164729.00 38615796.00 L 44127544.00 38610801.00 L 44014879.00 38610246.00 L 44014879.00 38454291.00 L 43963819.00 38454291.00 L 43963819.00 38838351.00 L 44158624.00 38835576.00  zM 44014879.00 38792841.00 L 44014879.00 38655756.00 L 44118109.00 38655756.00 L 44152519.00 38660196.00 L 44174719.00 38667966.00 L 44183599.00 38674071.00 A 69930.23 69930.23 0 0 1 44204689.00 38726241.00 L 44199694.00 38752881.00 A 61953.71 61953.71 0 0 1 44143084.00 38791731.00 L 44014879.00 38792841.00  z"/>
<path id="N" d="M 64224808.00 27406941.00 L 64182628.00 27406941.00 L 64182073.00 27446346.00 L 64165423.00 27428031.00 L 64140448.00 27411381.00 L 64114918.00 27403056.00 L 64089943.00 27400836.00 L 64056088.00 27406941.00 L 64036663.00 27416376.00 L 64021123.00 27428586.00 L 64010578.00 27443571.00 L 64001698.00 27469101.00 L 63999478.00 27493521.00 L 63998923.00 27685551.00 L 64046098.00 27685551.00 L 64046653.00 27500736.00 L 64051648.00 27472986.00 L 64058863.00 27461886.00 L 64072183.00 27450231.00 L 64085503.00 27444681.00 L 64104373.00 27441906.00 L 64122133.00 27444126.00 L 64147663.00 27454671.00 L 64155988.00 27461331.00 L 64164868.00 27473541.00 L 64172638.00 27493521.00 L 64177633.00 27524601.00 L 64177633.00 27685551.00 L 64224808.00 27685551.00 L 64224808.00 27406941.00  z"/>
<path id="N" d="M 31827047.00 45425371.00 L 31787087.00 45424816.00 L 31790972.00 45422041.00 L 31809842.00 45402061.00 A 104870.43 104870.43 0 0 0 31832597.00 45327691.00 L 31827047.00 45298831.00 L 31813727.00 45273301.00 L 31799852.00 45258316.00 L 31785422.00 45250546.00 L 31764887.00 45244441.00 L 31741022.00 45242221.00 L 31548437.00 45241666.00 L 31548437.00 45288841.00 L 31715492.00 45288841.00 L 31753787.00 45291616.00 L 31768217.00 45298276.00 L 31782647.00 45311041.00 L 31789307.00 45325471.00 L 31792637.00 45346006.00 L 31789862.00 45364876.00 A 63497.80 63497.80 0 0 1 31752677.00 45412606.00 L 31721597.00 45419266.00 L 31548437.00 45420376.00 L 31548437.00 45467551.00 L 31827047.00 45467551.00 L 31827047.00 45425371.00  z"/>
<path id="N" d="M 31717047.00 49415104.00 L 31532232.00 49414549.00 L 31504482.00 49409554.00 L 31493382.00 49402339.00 L 31481727.00 49389019.00 L 31476177.00 49375699.00 L 31473402.00 49356829.00 L 31475622.00 49339069.00 L 31486167.00 49313539.00 L 31492827.00 49305214.00 L 31505037.00 49296334.00 L 31525017.00 49288564.00 L 31556097.00 49283569.00 L 31717047.00 49283569.00 L 31717047.00 49236394.00 L 31438437.00 49236394.00 L 31438437.00 49278574.00 L 31477842.00 49279129.00 L 31459527.00 49295779.00 L 31442877.00 49320754.00 L 31434552.00 49346284.00 L 31432332.00 49371259.00 L 31438437.00 49405114.00 L 31447872.00 49424539.00 L 31460082.00 49440079.00 L 31475067.00 49450624.00 L 31500597.00 49459504.00 L 31525017.00 49461724.00 L 31717047.00 49462279.00 L 31717047.00 49415104.00  z"/>
<path id="N" d="M 64224808.00 18548673.00 L 64182628.00 18548673.00 L 64182073.00 18588078.00 L 64165423.00 18569763.00 L 64140448.00 18553113.00 L 64114918.00 18544788.00 L 64089943.00 18542568.00 L 64056088.00 18548673.00 L 64036663.00 18558108.00 L 64021123.00 18570318.00 L 64010578.00 18585303.00 L 64001698.00 18610833.00 L 63999478.00 18635253.00 L 63998923.00 18827283.00 L 64046098.00 18827283.00 L 64046653.00 18642468.00 L 64051648.00 18614718.00 L 64058863.00 18603618.00 L 64072183.00 18591963.00 L 64085503.00 18586413.00 L 64104373.00 18583638.00 L 64122133.00 18585858.00 L 64147663.00 18596403.00 L 64155988.00 18603063.00 L 64164868.00 18615273.00 L 64172638.00 18635253.00 L 64177633.00 18666333.00 L 64177633.00 18827283.00 L 64224808.00 18827283.00 L 64224808.00 18548673.00  z"/>
<path id="N" d="M 45573319.00 29821641.00 L 45592744.00 29812206.00 L 45608284.00 29799996.00 L 45618829.00 29785011.00 L 45627709.00 29759481.00 L 45629929.00 29735061.00 L 45630484.00 29543031.00 L 45583309.00 29543031.00 L 45582754.00 29727846.00 L 45577759.00 29755596.00 L 45570544.00 29766696.00 L 45557224.00 29778351.00 L 45543904.00 29783901.00 L 45525034.00 29786676.00 L 45507274.00 29784456.00 L 45481744.00 29773911.00 L 45473419.00 29767251.00 L 45464539.00 29755041.00 L 45456769.00 29735061.00 L 45451774.00 29703981.00 L 45451774.00 29543031.00 L 45404599.00 29543031.00 L 45404599.00 29821641.00 L 45446779.00 29821641.00 L 45447334.00 29782236.00 L 45455659.00 29792226.00 L 45475084.00 29808876.00 L 45496729.00 29820531.00 L 45524479.00 29827191.00 L 45573319.00 29821641.00  z"/>
<path id="N" d="M 62826208.00 27691101.00 L 62855068.00 27685551.00 L 62880598.00 27672231.00 L 62895583.00 27658356.00 L 62903353.00 27643926.00 L 62909458.00 27623391.00 L 62911678.00 27599526.00 L 62912233.00 27406941.00 L 62865058.00 27406941.00 L 62865058.00 27562341.00 L 62862283.00 27612291.00 L 62855623.00 27626721.00 L 62842858.00 27641151.00 L 62828428.00 27647811.00 L 62807893.00 27651141.00 L 62789023.00 27648366.00 A 63497.80 63497.80 0 0 1 62741293.00 27611181.00 L 62734633.00 27580101.00 L 62733523.00 27406941.00 L 62686348.00 27406941.00 L 62686348.00 27685551.00 L 62728528.00 27685551.00 L 62729083.00 27645591.00 L 62731858.00 27649476.00 L 62751838.00 27668346.00 A 104870.43 104870.43 0 0 0 62826208.00 27691101.00  z"/>
<path id="N" d="M 45330784.00 29543031.00 L 45288604.00 29543031.00 L 45288049.00 29582991.00 L 45285274.00 29579106.00 L 45265294.00 29560236.00 A 104870.43 104870.43 0 0 0 45190924.00 29537481.00 L 45162064.00 29543031.00 L 45136534.00 29556351.00 L 45121549.00 29570226.00 L 45113779.00 29584656.00 L 45107674.00 29605191.00 L 45105454.00 29629056.00 L 45104899.00 29821641.00 L 45152074.00 29821641.00 L 45152074.00 29666241.00 L 45154849.00 29616291.00 L 45161509.00 29601861.00 L 45174274.00 29587431.00 L 45188704.00 29580771.00 L 45209239.00 29577441.00 L 45228109.00 29580216.00 A 63497.80 63497.80 0 0 1 45275839.00 29617401.00 L 45282499.00 29648481.00 L 45283609.00 29821641.00 L 45330784.00 29821641.00 L 45330784.00 29543031.00  z"/>
<path id="N" d="M 62826208.00 18832833.00 L 62855068.00 18827283.00 L 62880598.00 18813963.00 L 62895583.00 18800088.00 L 62903353.00 18785658.00 L 62909458.00 18765123.00 L 62911678.00 18741258.00 L 62912233.00 18548673.00 L 62865058.00 18548673.00 L 62865058.00 18704073.00 L 62862283.00 18754023.00 L 62855623.00 18768453.00 L 62842858.00 18782883.00 L 62828428.00 18789543.00 L 62807893.00 18792873.00 L 62789023.00 18790098.00 A 63497.80 63497.80 0 0 1 62741293.00 18752913.00 L 62734633.00 18721833.00 L 62733523.00 18548673.00 L 62686348.00 18548673.00 L 62686348.00 18827283.00 L 62728528.00 18827283.00 L 62729083.00 18787323.00 L 62731858.00 18791208.00 L 62751838.00 18810078.00 A 104870.43 104870.43 0 0 0 62826208.00 18832833.00  z"/>
<path id="N" d="M 47125654.00 29821641.00 L 47145079.00 29812206.00 L 47160619.00 29799996.00 L 47171164.00 29785011.00 L 47180044.00 29759481.00 L 47182264.00 29735061.00 L 47182819.00 29543031.00 L 47135644.00 29543031.00 L 47135089.00 29727846.00 L 47130094.00 29755596.00 L 47122879.00 29766696.00 L 47109559.00 29778351.00 L 47096239.00 29783901.00 L 47077369.00 29786676.00 L 47059609.00 29784456.00 L 47034079.00 29773911.00 L 47025754.00 29767251.00 L 47016874.00 29755041.00 L 47009104.00 29735061.00 L 47004109.00 29703981.00 L 47004109.00 29543031.00 L 46956934.00 29543031.00 L 46956934.00 29821641.00 L 46999114.00 29821641.00 L 46999669.00 29782236.00 L 47007994.00 29792226.00 L 47027419.00 29808876.00 L 47049064.00 29820531.00 L 47076814.00 29827191.00 L 47125654.00 29821641.00  z"/>
<path id="N" d="M 46444669.00 29821641.00 L 46492399.00 29821641.00 L 46492399.00 29785011.00 L 46444669.00 29785011.00 L 46444669.00 29621286.00 L 46446889.00 29595201.00 L 46455214.00 29586321.00 L 46471309.00 29582991.00 L 46492399.00 29584656.00 L 46498504.00 29543031.00 L 46462429.00 29539146.00 L 46441339.00 29540811.00 L 46421914.00 29547471.00 L 46408594.00 29559681.00 L 46401934.00 29571336.00 L 46398049.00 29603526.00 L 46397494.00 29785011.00 L 46362529.00 29785011.00 L 46362529.00 29821641.00 L 46397494.00 29821641.00 L 46397494.00 29890461.00 L 46444669.00 29918766.00 L 46444669.00 29821641.00  z"/>
<path id="N" d="M 20004161.00 49699264.00 L 20002496.00 49678174.00 L 19995836.00 49658749.00 L 19983626.00 49645429.00 L 19971971.00 49638769.00 L 19939781.00 49634884.00 L 19758296.00 49634329.00 L 19758296.00 49599364.00 L 19721666.00 49599364.00 L 19721666.00 49634329.00 L 19652846.00 49634329.00 L 19624541.00 49681504.00 L 19721666.00 49681504.00 L 19721666.00 49729234.00 L 19758296.00 49729234.00 L 19758296.00 49681504.00 L 19928681.00 49681504.00 L 19948106.00 49683724.00 L 19956986.00 49692049.00 L 19960316.00 49708699.00 L 19958651.00 49729234.00 L 20000276.00 49735339.00 L 20004161.00 49699264.00  z"/>
<path id="N" d="M 44675329.00 38454291.00 L 44625379.00 38454291.00 L 44532694.00 38791731.00 L 44531584.00 38787291.00 L 44440009.00 38454291.00 L 44386729.00 38454291.00 L 44286274.00 38838351.00 L 44338999.00 38838351.00 L 44396164.00 38585826.00 L 44412814.00 38508126.00 L 44420584.00 38539761.00 L 44503279.00 38838351.00 L 44564884.00 38838351.00 L 44633704.00 38589156.00 L 44649799.00 38508126.00 L 44652019.00 38517561.00 L 44729164.00 38838351.00 L 44780779.00 38838351.00 L 44675329.00 38454291.00  z"/>
<path id="N" d="M 44675329.00 49312559.00 L 44625379.00 49312559.00 L 44532694.00 49649999.00 L 44531584.00 49645559.00 L 44440009.00 49312559.00 L 44386729.00 49312559.00 L 44286274.00 49696619.00 L 44338999.00 49696619.00 L 44396164.00 49444094.00 L 44412814.00 49366394.00 L 44420584.00 49398029.00 L 44503279.00 49696619.00 L 44564884.00 49696619.00 L 44633704.00 49447424.00 L 44649799.00 49366394.00 L 44652019.00 49375829.00 L 44729164.00 49696619.00 L 44780779.00 49696619.00 L 44675329.00 49312559.00  z"/>
<path id="N" d="M 31490607.00 49966219.00 L 31484502.00 49951234.00 L 31481172.00 49930144.00 L 31487277.00 49909609.00 L 31497267.00 49898509.00 L 31516692.00 49887964.00 L 31550547.00 49881304.00 L 31717047.00 49880194.00 L 31717047.00 49833019.00 L 31438437.00 49833019.00 L 31438437.00 49875754.00 L 31480062.00 49876309.00 L 31458972.00 49890184.00 L 31441767.00 49905724.00 L 31437327.00 49914049.00 L 31432332.00 49935694.00 L 31436217.00 49957894.00 L 31447872.00 49983979.00 L 31490607.00 49966219.00  z"/>
<path id="N" d="M 19773836.00 50207089.00 L 19767731.00 50192104.00 L 19764401.00 50171014.00 L 19770506.00 50150479.00 L 19780496.00 50139379.00 L 19799921.00 50128834.00 L 19833776.00 50122174.00 L 20000276.00 50121064.00 L 20000276.00 50073889.00 L 19721666.00 50073889.00 L 19721666.00 50116624.00 L 19763291.00 50117179.00 L 19742201.00 50131054.00 L 19724996.00 50146594.00 L 19720556.00 50154919.00 L 19715561.00 50176564.00 L 19719446.00 50198764.00 L 19731101.00 50224849.00 L 19773836.00 50207089.00  z"/>
<path id="N" d="M 63282973.00 36375209.00 L 63240238.00 36375209.00 L 63239683.00 36416834.00 L 63225808.00 36395744.00 L 63210268.00 36378539.00 L 63201943.00 36374099.00 L 63180298.00 36369104.00 L 63158098.00 36372989.00 L 63132013.00 36384644.00 L 63149773.00 36427379.00 L 63164758.00 36421274.00 L 63185848.00 36417944.00 L 63206383.00 36424049.00 L 63217483.00 36434039.00 L 63228028.00 36453464.00 L 63234688.00 36487319.00 L 63235798.00 36653819.00 L 63282973.00 36653819.00 L 63282973.00 36375209.00  z"/>
<path id="N" d="M 19773836.00 45748381.00 L 19767731.00 45733396.00 L 19764401.00 45712306.00 L 19770506.00 45691771.00 L 19780496.00 45680671.00 L 19799921.00 45670126.00 L 19833776.00 45663466.00 L 20000276.00 45662356.00 L 20000276.00 45615181.00 L 19721666.00 45615181.00 L 19721666.00 45657916.00 L 19763291.00 45658471.00 L 19742201.00 45672346.00 L 19724996.00 45687886.00 L 19720556.00 45696211.00 L 19715561.00 45717856.00 L 19719446.00 45740056.00 L 19731101.00 45766141.00 L 19773836.00 45748381.00  z"/>
<path id="N" d="M 34152173.00 45963213.00 L 34164654.00 45933080.00 L 34164654.00 44933080.00 L 34152173.00 44902947.00 L 34122040.00 44890466.00 L 32122040.00 44890466.00 L 32091907.00 44902947.00 L 32079426.00 44933080.00 L 32079426.00 45933080.00 L 32091907.00 45963213.00 L 32122040.00 45975694.00 L 34122040.00 45975694.00 L 34152173.00 45963213.00  zM 34079426.00 45890466.00 L 32164654.00 45890466.00 L 32164654.00 44975694.00 L 34079426.00 44975694.00 L 34079426.00 45890466.00  z"/>
<path id="N" d="M 34152173.00 49900213.00 L 34164654.00 49870080.00 L 34164654.00 48870080.00 L 34152173.00 48839947.00 L 34122040.00 48827466.00 L 32122040.00 48827466.00 L 32091907.00 48839947.00 L 32079426.00 48870080.00 L 32079426.00 49870080.00 L 32091907.00 49900213.00 L 32122040.00 49912694.00 L 34122040.00 49912694.00 L 34152173.00 49900213.00  zM 34079426.00 49827466.00 L 32164654.00 49827466.00 L 32164654.00 48912694.00 L 34079426.00 48912694.00 L 34079426.00 49827466.00  z"/>
<path id="N" d="M 23325413.00 49900213.00 L 23337894.00 49870080.00 L 23337894.00 48870080.00 L 23325413.00 48839947.00 L 23295280.00 48827466.00 L 20295280.00 48827466.00 L 20265147.00 48839947.00 L 20252666.00 48870080.00 L 20252666.00 49870080.00 L 20265147.00 49900213.00 L 20295280.00 49912694.00 L 23295280.00 49912694.00 L 23325413.00 49900213.00  zM 23252666.00 49827466.00 L 20337894.00 49827466.00 L 20337894.00 48912694.00 L 23252666.00 48912694.00 L 23252666.00 49827466.00  z"/>
<path id="N" d="M 23325413.00 45963213.00 L 23337894.00 45933080.00 L 23337894.00 44933080.00 L 23325413.00 44902947.00 L 23295280.00 44890466.00 L 20295280.00 44890466.00 L 20265147.00 44902947.00 L 20252666.00 44933080.00 L 20252666.00 45933080.00 L 20265147.00 45963213.00 L 20295280.00 45975694.00 L 23295280.00 45975694.00 L 23325413.00 45963213.00  zM 23252666.00 45890466.00 L 20337894.00 45890466.00 L 20337894.00 44975694.00 L 23252666.00 44975694.00 L 23252666.00 45890466.00  z"/>
<path id="N" d="M 44978954.00 29278173.00 L 44991435.00 29248040.00 L 44991435.00 21248040.00 L 44978954.00 21217907.00 L 44948821.00 21205426.00 L 43948821.00 21205426.00 L 43918688.00 21217907.00 L 43906207.00 21248040.00 L 43906207.00 29248040.00 L 43918688.00 29278173.00 L 43948821.00 29290654.00 L 44948821.00 29290654.00 L 44978954.00 29278173.00  zM 44906207.00 29205426.00 L 43991435.00 29205426.00 L 43991435.00 21290654.00 L 44906207.00 21290654.00 L 44906207.00 29205426.00  z"/>
<path id="N" d="M 64663992.00 27262421.00 L 64676473.00 27232288.00 L 64676473.00 19232288.00 L 64663992.00 19202155.00 L 64633859.00 19189674.00 L 63633859.00 19189674.00 L 63603726.00 19202155.00 L 63591245.00 19232288.00 L 63591245.00 27232288.00 L 63603726.00 27262421.00 L 63633859.00 27274902.00 L 64633859.00 27274902.00 L 64663992.00 27262421.00  zM 64591245.00 27189674.00 L 63676473.00 27189674.00 L 63676473.00 19274902.00 L 64591245.00 19274902.00 L 64591245.00 27189674.00  z"/>
<path id="N" d="M 44978954.00 49057694.00 L 44991435.00 49027561.00 L 44991435.00 39027561.00 L 44978954.00 38997428.00 L 44948821.00 38984947.00 L 43948821.00 38984947.00 L 43918688.00 38997428.00 L 43906207.00 39027561.00 L 43906207.00 49027561.00 L 43918688.00 49057694.00 L 43948821.00 49070175.00 L 44948821.00 49070175.00 L 44978954.00 49057694.00  zM 44906207.00 48984947.00 L 43991435.00 48984947.00 L 43991435.00 39070175.00 L 44906207.00 39070175.00 L 44906207.00 48984947.00  z"/>
<path id="N" d="M 44978954.00 38199434.00 L 44991435.00 38169301.00 L 44991435.00 30169301.00 L 44978954.00 30139168.00 L 44948821.00 30126687.00 L 43948821.00 30126687.00 L 43918688.00 30139168.00 L 43906207.00 30169301.00 L 43906207.00 38169301.00 L 43918688.00 38199434.00 L 43948821.00 38211915.00 L 44948821.00 38211915.00 L 44978954.00 38199434.00  zM 44906207.00 38126687.00 L 43991435.00 38126687.00 L 43991435.00 30211915.00 L 44906207.00 30211915.00 L 44906207.00 38126687.00  z"/>
<path id="N" d="M 64663992.00 44978941.00 L 64676473.00 44948808.00 L 64676473.00 36948808.00 L 64663992.00 36918675.00 L 64633859.00 36906194.00 L 63633859.00 36906194.00 L 63603726.00 36918675.00 L 63591245.00 36948808.00 L 63591245.00 44948808.00 L 63603726.00 44978941.00 L 63633859.00 44991422.00 L 64633859.00 44991422.00 L 64663992.00 44978941.00  zM 64591245.00 44906194.00 L 63676473.00 44906194.00 L 63676473.00 36991422.00 L 64591245.00 36991422.00 L 64591245.00 44906194.00  z"/>
<path id="N" d="M 35136433.00 32183673.00 L 35148914.00 32153540.00 L 35148914.00 30153540.00 L 35136433.00 30123407.00 L 35106300.00 30110926.00 L 31106300.00 30110926.00 L 31076167.00 30123407.00 L 31063686.00 30153540.00 L 31063686.00 32153540.00 L 31076167.00 32183673.00 L 31106300.00 32196154.00 L 35106300.00 32196154.00 L 35136433.00 32183673.00  zM 35063686.00 32110926.00 L 31148914.00 32110926.00 L 31148914.00 30196154.00 L 35063686.00 30196154.00 L 35063686.00 32110926.00  z"/>
<path id="N" d="M 64663992.00 36120701.00 L 64676473.00 36090568.00 L 64676473.00 28090568.00 L 64663992.00 28060435.00 L 64633859.00 28047954.00 L 63633859.00 28047954.00 L 63603726.00 28060435.00 L 63591245.00 28090568.00 L 63591245.00 36090568.00 L 63603726.00 36120701.00 L 63633859.00 36133182.00 L 64633859.00 36133182.00 L 64663992.00 36120701.00  zM 64591245.00 36047954.00 L 63676473.00 36047954.00 L 63676473.00 28133182.00 L 64591245.00 28133182.00 L 64591245.00 36047954.00  z"/>
<path id="N" d="M 31199433.00 40057693.00 L 31211914.00 40027560.00 L 31211914.00 39027560.00 L 31199433.00 38997427.00 L 31169300.00 38984946.00 L 23169300.00 38984946.00 L 23139167.00 38997427.00 L 23126686.00 39027560.00 L 23126686.00 40027560.00 L 23139167.00 40057693.00 L 23169300.00 40070174.00 L 31169300.00 40070174.00 L 31199433.00 40057693.00  zM 31126686.00 39984946.00 L 23211914.00 39984946.00 L 23211914.00 39070174.00 L 31126686.00 39070174.00 L 31126686.00 39984946.00  z"/>
<path id="N" d="M 30867237.00 31776851.00 L 31006299.00 31776851.00 L 31006299.00 31740815.00 L 30859845.00 31533839.00 L 30827967.00 31533839.00 L 30827967.00 31740815.00 L 30784539.00 31740815.00 L 30784539.00 31776851.00 L 30827967.00 31776851.00 L 30827967.00 31853543.00 L 30867237.00 31853543.00 L 30867237.00 31776851.00  zM 30967953.00 31740815.00 L 30867237.00 31740815.00 L 30867237.00 31597595.00 L 30967953.00 31740815.00  z"/>
<path id="N" d="M 64002808.00 36375209.00 L 63953413.00 36375209.00 L 63893473.00 36595544.00 L 63834643.00 36375209.00 L 63786358.00 36375209.00 L 63730858.00 36590549.00 L 63667033.00 36375209.00 L 63620968.00 36375209.00 L 63708658.00 36653819.00 L 63756943.00 36653819.00 L 63801343.00 36487319.00 L 63812443.00 36439589.00 L 63868498.00 36653819.00 L 63918448.00 36653819.00 L 64002808.00 36375209.00  z"/>
<path id="N" d="M 64472338.00 27301491.00 L 64416838.00 27301491.00 L 64259773.00 27685551.00 L 64317493.00 27685551.00 L 64362448.00 27569001.00 L 64523398.00 27569001.00 L 64565023.00 27685551.00 L 64618858.00 27685551.00 L 64472338.00 27301491.00  zM 64508413.00 27527376.00 L 64378543.00 27527376.00 L 64418503.00 27421371.00 L 64445698.00 27342006.00 L 64451248.00 27364761.00 L 64466788.00 27415266.00 L 64508413.00 27527376.00  z"/>
<path id="N" d="M 64472338.00 18443223.00 L 64416838.00 18443223.00 L 64259773.00 18827283.00 L 64317493.00 18827283.00 L 64362448.00 18710733.00 L 64523398.00 18710733.00 L 64565023.00 18827283.00 L 64618858.00 18827283.00 L 64472338.00 18443223.00  zM 64508413.00 18669108.00 L 64378543.00 18669108.00 L 64418503.00 18563103.00 L 64445698.00 18483738.00 L 64451248.00 18506493.00 L 64466788.00 18556998.00 L 64508413.00 18669108.00  z"/>
<path id="N" d="M 45193144.00 49312559.00 L 45144304.00 49312559.00 L 45144304.00 49633904.00 L 45032194.00 49312559.00 L 44986684.00 49312559.00 L 44875684.00 49639454.00 L 44875684.00 49312559.00 L 44826844.00 49312559.00 L 44826844.00 49696619.00 L 44902879.00 49696619.00 L 45012214.00 49367504.00 L 45124879.00 49696619.00 L 45193144.00 49696619.00 L 45193144.00 49312559.00  z"/>
<path id="N" d="M 20000276.00 49202539.00 L 19678931.00 49202539.00 L 20000276.00 49090429.00 L 20000276.00 49044919.00 L 19673381.00 48933919.00 L 20000276.00 48933919.00 L 20000276.00 48885079.00 L 19616216.00 48885079.00 L 19616216.00 48961114.00 L 19945331.00 49070449.00 L 19616216.00 49183114.00 L 19616216.00 49251379.00 L 20000276.00 49251379.00 L 20000276.00 49202539.00  z"/>
<path id="N" d="M 45193144.00 38454291.00 L 45144304.00 38454291.00 L 45144304.00 38775636.00 L 45032194.00 38454291.00 L 44986684.00 38454291.00 L 44875684.00 38781186.00 L 44875684.00 38454291.00 L 44826844.00 38454291.00 L 44826844.00 38838351.00 L 44902879.00 38838351.00 L 45012214.00 38509236.00 L 45124879.00 38838351.00 L 45193144.00 38838351.00 L 45193144.00 38454291.00  z"/>
<path id="N" d="M 31717047.00 48885079.00 L 31332987.00 48885079.00 L 31332987.00 49163134.00 L 31378497.00 49163134.00 L 31378497.00 48936139.00 L 31495602.00 48936139.00 L 31495602.00 49148704.00 L 31541112.00 49148704.00 L 31541112.00 48936139.00 L 31671537.00 48936139.00 L 31671537.00 49172014.00 L 31717047.00 49172014.00 L 31717047.00 48885079.00  z"/>
<path id="N" d="M 35328221.00 31604063.00 L 35333303.00 31608683.00 L 35366105.00 31631321.00 L 35406299.00 31650725.00 L 35406299.00 31612841.00 L 35377655.00 31597133.00 L 35348087.00 31574495.00 L 35329607.00 31555091.00 L 35313899.00 31532453.00 L 35288489.00 31532453.00 L 35288489.00 31853543.00 L 35327759.00 31853543.00 L 35328221.00 31604063.00  z"/>
<path id="N" d="M 45583309.00 38454291.00 L 45536134.00 38454291.00 L 45535579.00 38753991.00 L 45529474.00 38748441.00 L 45491179.00 38721801.00 L 45441784.00 38697936.00 L 45442339.00 38743446.00 L 45476194.00 38762316.00 L 45510604.00 38788401.00 L 45533914.00 38812821.00 L 45552784.00 38840016.00 L 45583309.00 38840016.00 L 45583309.00 38454291.00  z"/>
<path id="N" d="M 31827047.00 45515836.00 L 31789307.00 45515836.00 L 31585067.00 45692881.00 L 31585622.00 45682336.00 L 31586732.00 45526381.00 L 31548437.00 45526381.00 L 31548437.00 45753931.00 L 31580072.00 45753931.00 L 31789307.00 45574111.00 L 31787642.00 45592981.00 L 31786532.00 45762256.00 L 31827047.00 45762256.00 L 31827047.00 45515836.00  z"/>
<path id="N" d="M 62048098.00 18527583.00 L 62054203.00 18533133.00 L 62092498.00 18559773.00 L 62141893.00 18583638.00 L 62141338.00 18538128.00 L 62107483.00 18519258.00 L 62073073.00 18493173.00 L 62049763.00 18468753.00 L 62030893.00 18441558.00 L 62000368.00 18441558.00 L 62000368.00 18827283.00 L 62047543.00 18827283.00 L 62048098.00 18527583.00  z"/>
<path id="N" d="M 20000276.00 45914881.00 L 20000276.00 45869926.00 L 19721666.00 45765031.00 L 19721666.00 45814981.00 L 19888721.00 45874921.00 L 19944776.00 45892681.00 L 19929791.00 45897121.00 L 19721666.00 45972046.00 L 19721666.00 46020886.00 L 20000276.00 45914881.00  z"/>
<path id="N" d="M 31827047.00 44948071.00 L 31442987.00 44948071.00 L 31442987.00 44999131.00 L 31781537.00 44999131.00 L 31781537.00 45188386.00 L 31827047.00 45188386.00 L 31827047.00 44948071.00  z"/>
<path id="N" d="M 45750364.00 29873256.00 L 45703189.00 29873256.00 L 45703189.00 29927091.00 L 45750364.00 29927091.00 L 45750364.00 29873256.00  z"/>
<path id="N" d="M 31386822.00 50310874.00 L 31332987.00 50310874.00 L 31332987.00 50358049.00 L 31386822.00 50358049.00 L 31386822.00 50310874.00  z"/>
<path id="N" d="M 46586194.00 29873256.00 L 46539019.00 29873256.00 L 46539019.00 29927091.00 L 46586194.00 29927091.00 L 46586194.00 29873256.00  z"/>
<path id="N" d="M 30151074.00 31146453.00 L 30097239.00 31146453.00 L 30097239.00 31193628.00 L 30151074.00 31193628.00 L 30151074.00 31146453.00  z"/>
<path id="N" d="M 45750364.00 29543031.00 L 45703189.00 29543031.00 L 45703189.00 29821641.00 L 45750364.00 29821641.00 L 45750364.00 29543031.00  z"/>
<path id="N" d="M 31717047.00 50310874.00 L 31438437.00 50310874.00 L 31438437.00 50358049.00 L 31717047.00 50358049.00 L 31717047.00 50310874.00  z"/>
<path id="N" d="M 46586194.00 29543031.00 L 46539019.00 29543031.00 L 46539019.00 29821641.00 L 46586194.00 29821641.00 L 46586194.00 29543031.00  z"/>
<path id="N" d="M 63628738.00 18443223.00 L 63581563.00 18443223.00 L 63581563.00 18827283.00 L 63628738.00 18827283.00 L 63628738.00 18443223.00  z"/>
<path id="N" d="M 63628738.00 27301491.00 L 63581563.00 27301491.00 L 63581563.00 27685551.00 L 63628738.00 27685551.00 L 63628738.00 27301491.00  z"/>
<path id="N" d="M 30481299.00 31146453.00 L 30202689.00 31146453.00 L 30202689.00 31193628.00 L 30481299.00 31193628.00 L 30481299.00 31146453.00  z"/>
</g>
</svg>
