<svg width="160.00000004mm" height="115.00000114mm" viewBox="0 0 62992126 45275591"  version="1.1" xmlns="http://www.w3.org/2000/svg" xmlns:xlink="http://www.w3.org/1999/xlink">
<desc>
Origin 10000000 10000000 Bound 10000000 10000000 62992126 45275591
</desc>
<g fill-rule="evenodd" fill="rgb(207, 224, 229)" stroke="black" stroke-width="1" transform="translate(0, 45275591) scale(1, -1) translate(-10000000, -10000000)">
<path id="N" d="M 30908817.00 30858625.00 L 30940695.00 30852157.00 L 30959637.00 30844303.00 L 30977655.00 30831367.00 L 30991977.00 30811963.00 L 31001679.00 30790249.00 A 94739.29 94739.29 0 0 0 30995673.00 30717715.00 L 30984123.00 30702469.00 L 30964719.00 30688147.00 L 30946239.00 30680293.00 L 30965181.00 30670591.00 L 30982275.00 30654421.00 L 30989667.00 30638251.00 L 30993363.00 30613765.00 L 30987357.00 30585583.00 L 30979965.00 30570799.00 L 30965643.00 30554167.00 A 99372.96 99372.96 0 0 0 30891261.00 30533377.00 L 30866775.00 30538459.00 L 30850143.00 30545389.00 L 30832125.00 30559249.00 L 30816879.00 30582349.00 L 30809487.00 30604063.00 L 30808563.00 30617461.00 L 30811335.00 30635941.00 L 30821037.00 30656269.00 L 30834435.00 30668743.00 L 30855687.00 30680755.00 L 30845523.00 30684913.00 L 30824733.00 30697849.00 L 30810873.00 30712633.00 L 30803481.00 30726031.00 L 30796089.00 30751903.00 L 30796089.00 30769459.00 L 30802557.00 30797179.00 L 30811335.00 30814735.00 L 30824733.00 30831367.00 L 30840441.00 30842455.00 L 30862617.00 30852619.00 L 30892185.00 30858625.00 L 30908817.00 30858625.00  zM 30887565.00 30663661.00 L 30869085.00 30655807.00 A 51102.99 51102.99 0 0 1 30848757.00 30612379.00 A 53595.95 53595.95 0 0 1 30952707.00 30606835.00 L 30952707.00 30617923.00 L 30947163.00 30639175.00 L 30938385.00 30651649.00 L 30928683.00 30658117.00 L 30909279.00 30665047.00 L 30900039.00 30665509.00 L 30887565.00 30663661.00  zM 30890799.00 30825823.00 A 61487.06 61487.06 0 0 1 30843675.00 30731575.00 L 30855687.00 30715405.00 L 30874629.00 30703393.00 A 67909.37 67909.37 0 0 1 30949011.00 30716791.00 L 30960561.00 30735271.00 A 68727.98 68727.98 0 0 1 30949473.00 30806881.00 L 30934227.00 30818893.00 L 30919905.00 30823975.00 L 30890799.00 30825823.00  z"/>
<path id="N" d="M 19929791.00 45246106.00 L 19950326.00 45235561.00 L 19965311.00 45222796.00 L 19985846.00 45196711.00 L 19994171.00 45179506.00 L 20004716.00 45140101.00 L 20006936.00 45102361.00 L 20000831.00 45052411.00 L 19991951.00 45023551.00 L 19985846.00 45011896.00 L 19966421.00 44985811.00 L 19945886.00 44968606.00 L 19934786.00 44962501.00 L 19904261.00 44951401.00 L 19877066.00 44948071.00 L 19872626.00 44995801.00 L 19905371.00 45003571.00 L 19923131.00 45013561.00 L 19940891.00 45032431.00 L 19950326.00 45049636.00 L 19958096.00 45075721.00 L 19961426.00 45109021.00 L 19958096.00 45142876.00 A 88495.45 88495.45 0 0 1 19928681.00 45193936.00 A 55223.25 55223.25 0 0 1 19869851.00 45197266.00 L 19853756.00 45180616.00 L 19842101.00 45158416.00 L 19826006.00 45100141.00 L 19808246.00 45036871.00 L 19797146.00 45011896.00 L 19778831.00 44988031.00 L 19759961.00 44973601.00 L 19734431.00 44964721.00 L 19711121.00 44962501.00 L 19680596.00 44969161.00 L 19661726.00 44978596.00 L 19652846.00 44985811.00 L 19634531.00 45005791.00 L 19620656.00 45032431.00 L 19611776.00 45070171.00 L 19609556.00 45097921.00 L 19611221.00 45122896.00 L 19618991.00 45160081.00 L 19628981.00 45183391.00 L 19646741.00 45207256.00 L 19664501.00 45222241.00 L 19681706.00 45231121.00 L 19701131.00 45237781.00 L 19724441.00 45241666.00 L 19728326.00 45192826.00 L 19707791.00 45187831.00 L 19690031.00 45179506.00 L 19673936.00 45165631.00 L 19667831.00 45156196.00 L 19657841.00 45128446.00 L 19655066.00 45098476.00 L 19659506.00 45062401.00 L 19666721.00 45040756.00 L 19675046.00 45028546.00 L 19696136.00 45014671.00 L 19712786.00 45011341.00 L 19724441.00 45013006.00 L 19741091.00 45020776.00 L 19750526.00 45031321.00 L 19764401.00 45064621.00 L 19774391.00 45102916.00 L 19794926.00 45177286.00 L 19804916.00 45198931.00 L 19822121.00 45222796.00 L 19842101.00 45240001.00 L 19870961.00 45251101.00 L 19892606.00 45253321.00 L 19929791.00 45246106.00  z"/>
<path id="N" d="M 43436429.00 28781913.00 L 43465289.00 28776918.00 L 43491929.00 28767483.00 L 43509134.00 28755273.00 L 43524674.00 28733628.00 L 43531334.00 28715313.00 L 43533554.00 28692558.00 L 43487489.00 28698663.00 L 43484714.00 28710873.00 L 43476389.00 28725858.00 L 43468619.00 28731963.00 L 43444199.00 28741398.00 L 43418114.00 28743618.00 L 43388699.00 28738068.00 L 43372604.00 28729743.00 L 43363169.00 28720863.00 L 43351514.00 28701993.00 L 43347074.00 28680903.00 L 43345964.00 28633728.00 L 43357619.00 28644828.00 L 43378154.00 28658148.00 L 43398134.00 28666473.00 L 43425329.00 28669803.00 L 43455299.00 28664808.00 L 43484714.00 28652598.00 L 43505804.00 28635948.00 L 43519124.00 28617078.00 L 43532999.00 28585998.00 L 43541879.00 28550478.00 L 43542989.00 28522728.00 L 43536884.00 28481658.00 L 43528559.00 28455573.00 L 43518014.00 28436703.00 L 43496369.00 28411173.00 L 43484159.00 28402293.00 L 43459184.00 28391193.00 L 43435874.00 28385643.00 L 43417559.00 28385088.00 L 43387589.00 28392303.00 L 43360394.00 28406733.00 L 43340969.00 28425603.00 L 43340969.00 28391193.00 L 43297679.00 28391193.00 L 43297679.00 28632618.00 L 43301009.00 28682568.00 L 43306559.00 28711983.00 L 43316549.00 28733073.00 L 43334309.00 28753053.00 L 43353179.00 28766373.00 L 43382594.00 28777473.00 L 43408679.00 28781913.00 L 43436429.00 28781913.00  zM 43415339.00 28630953.00 L 43390919.00 28624848.00 L 43372604.00 28614303.00 L 43361504.00 28603203.00 L 43350404.00 28581558.00 L 43343744.00 28554918.00 L 43341524.00 28522728.00 L 43347074.00 28486098.00 L 43356509.00 28460568.00 L 43368164.00 28446138.00 L 43387589.00 28432263.00 L 43407569.00 28425048.00 L 43421999.00 28423938.00 L 43446419.00 28430043.00 L 43455299.00 28435038.00 A 72630.45 72630.45 0 0 1 43488044.00 28479993.00 L 43494704.00 28516623.00 L 43493594.00 28544928.00 L 43485824.00 28582668.00 L 43480274.00 28595433.00 L 43469174.00 28609863.00 A 75650.02 75650.02 0 0 1 43415339.00 28630953.00  z"/>
<path id="N" d="M 43436429.00 19923645.00 L 43465289.00 19918650.00 L 43491929.00 19909215.00 L 43509134.00 19897005.00 L 43524674.00 19875360.00 L 43531334.00 19857045.00 L 43533554.00 19834290.00 L 43487489.00 19840395.00 L 43484714.00 19852605.00 L 43476389.00 19867590.00 L 43468619.00 19873695.00 L 43444199.00 19883130.00 L 43418114.00 19885350.00 L 43388699.00 19879800.00 L 43372604.00 19871475.00 L 43363169.00 19862595.00 L 43351514.00 19843725.00 L 43347074.00 19822635.00 L 43345964.00 19775460.00 L 43357619.00 19786560.00 L 43378154.00 19799880.00 L 43398134.00 19808205.00 L 43425329.00 19811535.00 L 43455299.00 19806540.00 L 43484714.00 19794330.00 L 43505804.00 19777680.00 L 43519124.00 19758810.00 L 43532999.00 19727730.00 L 43541879.00 19692210.00 L 43542989.00 19664460.00 L 43536884.00 19623390.00 L 43528559.00 19597305.00 L 43518014.00 19578435.00 L 43496369.00 19552905.00 L 43484159.00 19544025.00 L 43459184.00 19532925.00 L 43435874.00 19527375.00 L 43417559.00 19526820.00 L 43387589.00 19534035.00 L 43360394.00 19548465.00 L 43340969.00 19567335.00 L 43340969.00 19532925.00 L 43297679.00 19532925.00 L 43297679.00 19774350.00 L 43301009.00 19824300.00 L 43306559.00 19853715.00 L 43316549.00 19874805.00 L 43334309.00 19894785.00 L 43353179.00 19908105.00 L 43382594.00 19919205.00 L 43408679.00 19923645.00 L 43436429.00 19923645.00  zM 43415339.00 19772685.00 L 43390919.00 19766580.00 L 43372604.00 19756035.00 L 43361504.00 19744935.00 L 43350404.00 19723290.00 L 43343744.00 19696650.00 L 43341524.00 19664460.00 L 43347074.00 19627830.00 L 43356509.00 19602300.00 L 43368164.00 19587870.00 L 43387589.00 19573995.00 L 43407569.00 19566780.00 L 43421999.00 19565670.00 L 43446419.00 19571775.00 L 43455299.00 19576770.00 A 72630.45 72630.45 0 0 1 43488044.00 19621725.00 L 43494704.00 19658355.00 L 43493594.00 19686660.00 L 43485824.00 19724400.00 L 43480274.00 19737165.00 L 43469174.00 19751595.00 A 75650.02 75650.02 0 0 1 43415339.00 19772685.00  z"/>
<path id="N" d="M 31729812.00 50235949.00 L 31759227.00 50230399.00 L 31780317.00 50220409.00 L 31800297.00 50202649.00 L 31813617.00 50183779.00 L 31824717.00 50154364.00 A 160959.45 160959.45 0 0 0 31824162.00 50071669.00 L 31814727.00 50045029.00 L 31802517.00 50027824.00 L 31780872.00 50012284.00 L 31762557.00 50005624.00 L 31739802.00 50003404.00 L 31745907.00 50049469.00 L 31758117.00 50052244.00 L 31773102.00 50060569.00 L 31779207.00 50068339.00 L 31788642.00 50092759.00 L 31790862.00 50118844.00 L 31785312.00 50148259.00 L 31776987.00 50164354.00 L 31768107.00 50173789.00 L 31749237.00 50185444.00 L 31728147.00 50189884.00 L 31680972.00 50190994.00 L 31692072.00 50179339.00 L 31705392.00 50158804.00 L 31713717.00 50138824.00 L 31717047.00 50111629.00 L 31712052.00 50081659.00 L 31699842.00 50052244.00 L 31683192.00 50031154.00 L 31664322.00 50017834.00 L 31633242.00 50003959.00 L 31597722.00 49995079.00 L 31569972.00 49993969.00 L 31528902.00 50000074.00 L 31502817.00 50008399.00 L 31483947.00 50018944.00 L 31458417.00 50040589.00 L 31449537.00 50052799.00 L 31438437.00 50077774.00 L 31432887.00 50101084.00 L 31432332.00 50119399.00 L 31439547.00 50149369.00 L 31453977.00 50176564.00 L 31472847.00 50195989.00 L 31438437.00 50195989.00 L 31438437.00 50239279.00 L 31729812.00 50235949.00  zM 31569972.00 50195434.00 L 31533342.00 50189884.00 L 31507812.00 50180449.00 L 31493382.00 50168794.00 L 31479507.00 50149369.00 L 31472292.00 50129389.00 L 31471182.00 50114959.00 L 31477287.00 50090539.00 L 31482282.00 50081659.00 A 72630.45 72630.45 0 0 1 31527237.00 50048914.00 L 31563867.00 50042254.00 L 31592172.00 50043364.00 L 31629912.00 50051134.00 L 31642677.00 50056684.00 L 31657107.00 50067784.00 A 75650.02 75650.02 0 0 1 31678197.00 50121619.00 L 31672092.00 50146039.00 L 31661547.00 50164354.00 L 31650447.00 50175454.00 L 31628802.00 50186554.00 L 31602162.00 50193214.00 L 31569972.00 50195434.00  z"/>
<path id="N" d="M 22773736.00 40673704.00 L 22768741.00 40672039.00 L 22739326.00 40664824.00 L 22747096.00 40655944.00 L 22767631.00 40623754.00 L 22774291.00 40604884.00 L 22779841.00 40572139.00 L 22779286.00 40546054.00 L 22770961.00 40512754.00 L 22758196.00 40491664.00 L 22749316.00 40483894.00 A 81112.63 81112.63 0 0 0 22630546.00 40510534.00 L 22619446.00 40541059.00 L 22609456.00 40608769.00 L 22597246.00 40660939.00 L 22575046.00 40660939.00 L 22555621.00 40655389.00 L 22543966.00 40647064.00 L 22536196.00 40634299.00 L 22530646.00 40617649.00 L 22528426.00 40593229.00 L 22530091.00 40574914.00 L 22536196.00 40551049.00 L 22542301.00 40541614.00 L 22555066.00 40532179.00 L 22581151.00 40521634.00 L 22575046.00 40475569.00 L 22557841.00 40480564.00 A 85728.33 85728.33 0 0 0 22503451.00 40528294.00 L 22496236.00 40548274.00 L 22490131.00 40587679.00 L 22490686.00 40621534.00 L 22495681.00 40649839.00 L 22507336.00 40677034.00 L 22520101.00 40692574.00 L 22537861.00 40702564.00 L 22561171.00 40708114.00 L 22706581.00 40709779.00 L 22747096.00 40713109.00 L 22774291.00 40723654.00 L 22773736.00 40673704.00  zM 22634431.00 40661494.00 L 22644976.00 40624864.00 L 22654411.00 40573804.00 L 22662181.00 40542169.00 L 22670506.00 40529404.00 L 22677721.00 40523854.00 L 22683826.00 40521079.00 L 22699366.00 40517749.00 L 22715461.00 40521079.00 L 22731556.00 40532179.00 L 22734886.00 40537729.00 L 22741546.00 40555489.00 L 22743211.00 40573804.00 L 22740436.00 40597669.00 L 22731556.00 40622089.00 L 22712686.00 40644289.00 L 22698256.00 40653724.00 L 22680496.00 40658719.00 L 22652191.00 40660939.00 L 22634431.00 40661494.00  z"/>
<path id="N" d="M 65914368.00 29826636.00 L 65942673.00 29821641.00 L 65969868.00 29809986.00 L 65985408.00 29797221.00 L 65995398.00 29779461.00 L 66000948.00 29756151.00 L 66002613.00 29610741.00 L 66005943.00 29570226.00 L 66016488.00 29543031.00 L 65966538.00 29543586.00 L 65964873.00 29548581.00 L 65957658.00 29577996.00 L 65948778.00 29570226.00 L 65916588.00 29549691.00 L 65897718.00 29543031.00 L 65864973.00 29537481.00 L 65838888.00 29538036.00 L 65805588.00 29546361.00 L 65784498.00 29559126.00 L 65776728.00 29568006.00 A 81112.63 81112.63 0 0 0 65828343.00 29696211.00 L 65914923.00 29710641.00 L 65953773.00 29720631.00 L 65953773.00 29742276.00 L 65948223.00 29761701.00 L 65939898.00 29773356.00 L 65927133.00 29781126.00 L 65910483.00 29786676.00 L 65886618.00 29788896.00 L 65867748.00 29787231.00 L 65843883.00 29781126.00 L 65834448.00 29775021.00 L 65825013.00 29762256.00 L 65814468.00 29736171.00 L 65768403.00 29742276.00 L 65773398.00 29759481.00 A 85728.33 85728.33 0 0 0 65821128.00 29813871.00 L 65841108.00 29821086.00 L 65880513.00 29827191.00 L 65914368.00 29826636.00  zM 65954328.00 29682891.00 L 65917698.00 29672346.00 L 65866638.00 29662911.00 L 65835003.00 29655141.00 L 65822238.00 29646816.00 L 65816688.00 29639601.00 L 65813913.00 29633496.00 L 65810583.00 29617401.00 L 65813913.00 29601861.00 L 65825013.00 29585766.00 L 65830563.00 29582436.00 L 65848323.00 29575776.00 L 65866638.00 29574111.00 L 65890503.00 29576886.00 L 65914923.00 29585766.00 L 65937123.00 29604636.00 L 65946558.00 29619066.00 L 65951553.00 29636826.00 L 65953773.00 29665131.00 L 65954328.00 29682891.00  z"/>
<path id="N" d="M 30480744.00 30739638.00 L 30475749.00 30737973.00 L 30446334.00 30730758.00 L 30454104.00 30721878.00 L 30474639.00 30689688.00 L 30481299.00 30670818.00 L 30486849.00 30638073.00 L 30486294.00 30611988.00 L 30477969.00 30578688.00 L 30465204.00 30557598.00 L 30456324.00 30549828.00 A 81112.63 81112.63 0 0 0 30337554.00 30576468.00 L 30326454.00 30606993.00 L 30316464.00 30674703.00 L 30304254.00 30726873.00 L 30282054.00 30726873.00 L 30262629.00 30721323.00 L 30250974.00 30712998.00 L 30243204.00 30700233.00 L 30237654.00 30683583.00 L 30235434.00 30659163.00 L 30237099.00 30640848.00 L 30243204.00 30616983.00 L 30249309.00 30607548.00 L 30262074.00 30598113.00 L 30288159.00 30587568.00 L 30282054.00 30541503.00 L 30264849.00 30546498.00 A 85728.33 85728.33 0 0 0 30210459.00 30594228.00 L 30203244.00 30614208.00 L 30197139.00 30653613.00 L 30197694.00 30687468.00 L 30202689.00 30715773.00 L 30214344.00 30742968.00 L 30227109.00 30758508.00 L 30244869.00 30768498.00 L 30268179.00 30774048.00 L 30413589.00 30775713.00 L 30454104.00 30779043.00 L 30481299.00 30789588.00 L 30480744.00 30739638.00  zM 30341439.00 30727428.00 L 30351984.00 30690798.00 L 30361419.00 30639738.00 L 30369189.00 30608103.00 L 30377514.00 30595338.00 L 30384729.00 30589788.00 L 30390834.00 30587013.00 L 30406374.00 30583683.00 L 30422469.00 30587013.00 L 30438564.00 30598113.00 L 30441894.00 30603663.00 L 30448554.00 30621423.00 L 30450219.00 30639738.00 L 30447444.00 30663603.00 L 30438564.00 30688023.00 L 30419694.00 30710223.00 L 30405264.00 30719658.00 L 30387504.00 30724653.00 L 30359199.00 30726873.00 L 30341439.00 30727428.00  z"/>
<path id="N" d="M 31716492.00 50620564.00 L 31711497.00 50618899.00 L 31682082.00 50611684.00 L 31689852.00 50602804.00 L 31710387.00 50570614.00 L 31717047.00 50551744.00 L 31722597.00 50518999.00 L 31722042.00 50492914.00 L 31713717.00 50459614.00 L 31700952.00 50438524.00 L 31692072.00 50430754.00 A 81112.63 81112.63 0 0 0 31573302.00 50457394.00 L 31562202.00 50487919.00 L 31552212.00 50555629.00 L 31540002.00 50607799.00 L 31517802.00 50607799.00 L 31498377.00 50602249.00 L 31486722.00 50593924.00 L 31478952.00 50581159.00 L 31473402.00 50564509.00 L 31471182.00 50540089.00 L 31472847.00 50521774.00 L 31478952.00 50497909.00 L 31485057.00 50488474.00 L 31497822.00 50479039.00 L 31523907.00 50468494.00 L 31517802.00 50422429.00 L 31500597.00 50427424.00 A 85728.33 85728.33 0 0 0 31446207.00 50475154.00 L 31438992.00 50495134.00 L 31432887.00 50534539.00 L 31433442.00 50568394.00 L 31438437.00 50596699.00 L 31450092.00 50623894.00 L 31462857.00 50639434.00 L 31480617.00 50649424.00 L 31503927.00 50654974.00 L 31649337.00 50656639.00 L 31689852.00 50659969.00 L 31717047.00 50670514.00 L 31716492.00 50620564.00  zM 31577187.00 50608354.00 L 31587732.00 50571724.00 L 31597167.00 50520664.00 L 31604937.00 50489029.00 L 31613262.00 50476264.00 L 31620477.00 50470714.00 L 31626582.00 50467939.00 L 31642122.00 50464609.00 L 31658217.00 50467939.00 L 31674312.00 50479039.00 L 31677642.00 50484589.00 L 31684302.00 50502349.00 L 31685967.00 50520664.00 L 31683192.00 50544529.00 L 31674312.00 50568949.00 L 31655442.00 50591149.00 L 31641012.00 50600584.00 L 31623252.00 50605579.00 L 31594947.00 50607799.00 L 31577187.00 50608354.00  z"/>
<path id="N" d="M 22729336.00 41253679.00 L 22744321.00 41243689.00 L 22759306.00 41226484.00 L 22769296.00 41209279.00 L 22774846.00 41192074.00 L 22779841.00 41162659.00 L 22779286.00 41131579.00 L 22770961.00 41092729.00 L 22762081.00 41073304.00 L 22748761.00 41058319.00 L 22720456.00 41040559.00 L 22691041.00 41031679.00 L 22683826.00 41078299.00 L 22684936.00 41078299.00 L 22713796.00 41088844.00 L 22727116.00 41099944.00 L 22731556.00 41107714.00 L 22739326.00 41128804.00 L 22741546.00 41151004.00 L 22739881.00 41168764.00 L 22733221.00 41192074.00 L 22726561.00 41201509.00 L 22709911.00 41212609.00 L 22697701.00 41214829.00 L 22688266.00 41213164.00 L 22676056.00 41205394.00 L 22668286.00 41190964.00 L 22655521.00 41147119.00 L 22635541.00 41083849.00 L 22623331.00 41063869.00 L 22607236.00 41048884.00 L 22591141.00 41042779.00 L 22570051.00 41039449.00 L 22547296.00 41042779.00 L 22535086.00 41048329.00 L 22517326.00 41061094.00 L 22506226.00 41075524.00 L 22495126.00 41102164.00 L 22489576.00 41133799.00 L 22491796.00 41170429.00 L 22499566.00 41199289.00 L 22510111.00 41219269.00 L 22525651.00 41236474.00 L 22542856.00 41245354.00 L 22567831.00 41252569.00 L 22573936.00 41206504.00 L 22566721.00 41204839.00 L 22551181.00 41197069.00 L 22540081.00 41187079.00 L 22530091.00 41163769.00 L 22528426.00 41139904.00 L 22532866.00 41112154.00 L 22540081.00 41098279.00 L 22550071.00 41089399.00 L 22564501.00 41084959.00 L 22575601.00 41087179.00 L 22583926.00 41092729.00 L 22593361.00 41109379.00 L 22613341.00 41178199.00 L 22629436.00 41223709.00 L 22641646.00 41242024.00 L 22658296.00 41255344.00 A 76899.32 76899.32 0 0 0 22729336.00 41253679.00  z"/>
<path id="N" d="M 22729336.00 40985059.00 L 22744321.00 40975069.00 L 22759306.00 40957864.00 L 22769296.00 40940659.00 L 22774846.00 40923454.00 L 22779841.00 40894039.00 L 22779286.00 40862959.00 L 22770961.00 40824109.00 L 22762081.00 40804684.00 L 22748761.00 40789699.00 L 22720456.00 40771939.00 L 22691041.00 40763059.00 L 22683826.00 40809679.00 L 22684936.00 40809679.00 L 22713796.00 40820224.00 L 22727116.00 40831324.00 L 22731556.00 40839094.00 L 22739326.00 40860184.00 L 22741546.00 40882384.00 L 22739881.00 40900144.00 L 22733221.00 40923454.00 L 22726561.00 40932889.00 L 22709911.00 40943989.00 L 22697701.00 40946209.00 L 22688266.00 40944544.00 L 22676056.00 40936774.00 L 22668286.00 40922344.00 L 22655521.00 40878499.00 L 22635541.00 40815229.00 L 22623331.00 40795249.00 L 22607236.00 40780264.00 L 22591141.00 40774159.00 L 22570051.00 40770829.00 L 22547296.00 40774159.00 L 22535086.00 40779709.00 L 22517326.00 40792474.00 L 22506226.00 40806904.00 L 22495126.00 40833544.00 L 22489576.00 40865179.00 L 22491796.00 40901809.00 L 22499566.00 40930669.00 L 22510111.00 40950649.00 L 22525651.00 40967854.00 L 22542856.00 40976734.00 L 22567831.00 40983949.00 L 22573936.00 40937884.00 L 22566721.00 40936219.00 L 22551181.00 40928449.00 L 22540081.00 40918459.00 L 22530091.00 40895149.00 L 22528426.00 40871284.00 L 22532866.00 40843534.00 L 22540081.00 40829659.00 L 22550071.00 40820779.00 L 22564501.00 40816339.00 L 22575601.00 40818559.00 L 22583926.00 40824109.00 L 22593361.00 40840759.00 L 22613341.00 40909579.00 L 22629436.00 40955089.00 L 22641646.00 40973404.00 L 22658296.00 40986724.00 A 76899.32 76899.32 0 0 0 22729336.00 40985059.00  z"/>
<path id="N" d="M 31782092.00 46311706.00 L 31797077.00 46301716.00 L 31812062.00 46284511.00 L 31822052.00 46267306.00 L 31827602.00 46250101.00 L 31832597.00 46220686.00 L 31832042.00 46189606.00 L 31823717.00 46150756.00 L 31814837.00 46131331.00 L 31801517.00 46116346.00 L 31773212.00 46098586.00 L 31743797.00 46089706.00 L 31736582.00 46136326.00 L 31737692.00 46136326.00 L 31766552.00 46146871.00 L 31779872.00 46157971.00 L 31784312.00 46165741.00 L 31792082.00 46186831.00 L 31794302.00 46209031.00 L 31792637.00 46226791.00 L 31785977.00 46250101.00 L 31779317.00 46259536.00 L 31762667.00 46270636.00 L 31750457.00 46272856.00 L 31741022.00 46271191.00 L 31728812.00 46263421.00 L 31721042.00 46248991.00 L 31708277.00 46205146.00 L 31688297.00 46141876.00 L 31676087.00 46121896.00 L 31659992.00 46106911.00 L 31643897.00 46100806.00 L 31622807.00 46097476.00 L 31600052.00 46100806.00 L 31587842.00 46106356.00 L 31570082.00 46119121.00 L 31558982.00 46133551.00 L 31547882.00 46160191.00 L 31542332.00 46191826.00 L 31544552.00 46228456.00 L 31552322.00 46257316.00 L 31562867.00 46277296.00 L 31578407.00 46294501.00 L 31595612.00 46303381.00 L 31620587.00 46310596.00 L 31626692.00 46264531.00 L 31619477.00 46262866.00 L 31603937.00 46255096.00 L 31592837.00 46245106.00 L 31582847.00 46221796.00 L 31581182.00 46197931.00 L 31585622.00 46170181.00 L 31592837.00 46156306.00 L 31602827.00 46147426.00 L 31617257.00 46142986.00 L 31628357.00 46145206.00 L 31636682.00 46150756.00 L 31646117.00 46167406.00 L 31666097.00 46236226.00 L 31682192.00 46281736.00 L 31694402.00 46300051.00 L 31711052.00 46313371.00 A 76899.32 76899.32 0 0 0 31782092.00 46311706.00  z"/>
<path id="N" d="M 44178464.00 28674798.00 L 44211764.00 28666473.00 L 44232854.00 28653708.00 L 44240624.00 28644828.00 A 81112.63 81112.63 0 0 0 44189009.00 28516623.00 L 44102429.00 28502193.00 L 44063579.00 28492203.00 L 44063579.00 28470558.00 L 44069129.00 28451133.00 L 44077454.00 28439478.00 L 44090219.00 28431708.00 L 44106869.00 28426158.00 L 44130734.00 28423938.00 L 44149604.00 28425603.00 L 44173469.00 28431708.00 L 44182904.00 28437813.00 L 44192339.00 28450578.00 L 44202884.00 28476663.00 L 44248949.00 28470558.00 L 44243954.00 28453353.00 A 85728.33 85728.33 0 0 0 44196224.00 28398963.00 L 44176244.00 28391748.00 L 44136839.00 28385643.00 L 44102984.00 28386198.00 L 44074679.00 28391193.00 L 44047484.00 28402848.00 L 44031944.00 28415613.00 L 44021954.00 28433373.00 L 44016404.00 28456683.00 L 44014739.00 28602093.00 L 44011409.00 28642608.00 L 44000864.00 28669803.00 L 44050814.00 28669248.00 L 44060249.00 28635948.00 L 44091884.00 28658148.00 L 44110199.00 28667028.00 L 44142389.00 28674243.00 L 44178464.00 28674798.00  zM 44150714.00 28638723.00 L 44126849.00 28635948.00 L 44102429.00 28627068.00 L 44080229.00 28608198.00 L 44070794.00 28593768.00 L 44065799.00 28576008.00 L 44063024.00 28529943.00 L 44099654.00 28540488.00 L 44150714.00 28549923.00 L 44182349.00 28557693.00 L 44195114.00 28566018.00 L 44200664.00 28573233.00 L 44203439.00 28579338.00 L 44206769.00 28595433.00 L 44203439.00 28610973.00 L 44192339.00 28627068.00 L 44186789.00 28630398.00 L 44169029.00 28637058.00 L 44150714.00 28638723.00  z"/>
<path id="N" d="M 44178464.00 19816530.00 L 44211764.00 19808205.00 L 44232854.00 19795440.00 L 44240624.00 19786560.00 A 81112.63 81112.63 0 0 0 44189009.00 19658355.00 L 44102429.00 19643925.00 L 44063579.00 19633935.00 L 44063579.00 19612290.00 L 44069129.00 19592865.00 L 44077454.00 19581210.00 L 44090219.00 19573440.00 L 44106869.00 19567890.00 L 44130734.00 19565670.00 L 44149604.00 19567335.00 L 44173469.00 19573440.00 L 44182904.00 19579545.00 L 44192339.00 19592310.00 L 44202884.00 19618395.00 L 44248949.00 19612290.00 L 44243954.00 19595085.00 A 85728.33 85728.33 0 0 0 44196224.00 19540695.00 L 44176244.00 19533480.00 L 44136839.00 19527375.00 L 44102984.00 19527930.00 L 44074679.00 19532925.00 L 44047484.00 19544580.00 L 44031944.00 19557345.00 L 44021954.00 19575105.00 L 44016404.00 19598415.00 L 44014739.00 19743825.00 L 44011409.00 19784340.00 L 44000864.00 19811535.00 L 44050814.00 19810980.00 L 44060249.00 19777680.00 L 44091884.00 19799880.00 L 44110199.00 19808760.00 L 44142389.00 19815975.00 L 44178464.00 19816530.00  zM 44150714.00 19780455.00 L 44126849.00 19777680.00 L 44102429.00 19768800.00 L 44080229.00 19749930.00 L 44070794.00 19735500.00 L 44065799.00 19717740.00 L 44063024.00 19671675.00 L 44099654.00 19682220.00 L 44150714.00 19691655.00 L 44182349.00 19699425.00 L 44195114.00 19707750.00 L 44200664.00 19714965.00 L 44203439.00 19721070.00 L 44206769.00 19737165.00 L 44203439.00 19752705.00 L 44192339.00 19768800.00 L 44186789.00 19772130.00 L 44169029.00 19778790.00 L 44150714.00 19780455.00  z"/>
<path id="N" d="M 63863643.00 29929866.00 L 63903603.00 29918211.00 L 63927468.00 29903781.00 L 63940233.00 29892126.00 A 184718.96 184718.96 0 0 0 63981858.00 29821641.00 L 63931908.00 29810541.00 L 63926358.00 29824416.00 L 63909708.00 29853276.00 L 63892503.00 29871036.00 L 63875298.00 29881026.00 L 63855318.00 29887686.00 L 63828678.00 29890461.00 L 63802593.00 29887686.00 L 63778728.00 29881581.00 L 63753753.00 29868816.00 L 63744318.00 29860491.00 L 63724338.00 29836071.00 L 63712128.00 29809986.00 L 63702693.00 29765586.00 L 63701028.00 29737281.00 L 63704358.00 29695656.00 L 63714903.00 29651811.00 L 63721008.00 29639601.00 L 63739878.00 29613516.00 L 63759858.00 29597421.00 L 63778728.00 29588541.00 L 63812028.00 29580216.00 L 63828678.00 29579661.00 L 63861423.00 29585766.00 L 63891393.00 29599641.00 L 63910263.00 29617956.00 L 63926913.00 29645151.00 L 63937458.00 29677341.00 L 63988518.00 29664021.00 L 63975198.00 29629056.00 L 63957438.00 29597976.00 L 63938568.00 29575776.00 L 63923583.00 29564121.00 L 63895278.00 29549691.00 L 63860868.00 29539146.00 L 63829233.00 29536371.00 L 63800928.00 29538591.00 L 63760413.00 29546916.00 L 63735993.00 29556906.00 L 63718788.00 29568561.00 L 63696588.00 29590206.00 L 63677163.00 29617956.00 L 63668838.00 29635161.00 L 63657183.00 29672901.00 L 63649968.00 29717856.00 L 63649413.00 29753376.00 L 63654408.00 29789451.00 L 63663843.00 29824971.00 L 63678273.00 29853276.00 L 63697698.00 29878806.00 L 63721563.00 29901006.00 L 63737103.00 29910996.00 L 63764298.00 29922096.00 L 63793713.00 29929866.00 L 63829788.00 29933751.00 L 63863643.00 29929866.00  z"/>
<path id="N" d="M 22719346.00 39351139.00 L 22741546.00 39332269.00 L 22753201.00 39317284.00 L 22767631.00 39288979.00 L 22778176.00 39254569.00 L 22780951.00 39222379.00 L 22778731.00 39194629.00 L 22770406.00 39154114.00 L 22760416.00 39129694.00 L 22748761.00 39112489.00 L 22727116.00 39090289.00 L 22699366.00 39070864.00 L 22682161.00 39062539.00 L 22644421.00 39050884.00 L 22599466.00 39043669.00 L 22563946.00 39043114.00 L 22527871.00 39048109.00 L 22492351.00 39057544.00 L 22464046.00 39071974.00 L 22438516.00 39091399.00 L 22416316.00 39115264.00 L 22406326.00 39130804.00 L 22395226.00 39157999.00 L 22387456.00 39187414.00 L 22383571.00 39224044.00 L 22387456.00 39257344.00 L 22399111.00 39297304.00 L 22413541.00 39321169.00 L 22425196.00 39333934.00 A 184718.96 184718.96 0 0 0 22495681.00 39375559.00 L 22506781.00 39325609.00 L 22492906.00 39320059.00 L 22464046.00 39303409.00 L 22446286.00 39286204.00 L 22436296.00 39268999.00 L 22429636.00 39249019.00 L 22426861.00 39221824.00 L 22429636.00 39196294.00 L 22435741.00 39172429.00 L 22448506.00 39147454.00 L 22456831.00 39138019.00 L 22481251.00 39118039.00 L 22507336.00 39105829.00 L 22551736.00 39096394.00 L 22579486.00 39094729.00 L 22621666.00 39098059.00 L 22665511.00 39108604.00 L 22677721.00 39114709.00 L 22703806.00 39133579.00 L 22719901.00 39153559.00 L 22728781.00 39172429.00 L 22737106.00 39205729.00 L 22737661.00 39222379.00 L 22731556.00 39255124.00 L 22717681.00 39285094.00 L 22699366.00 39303964.00 L 22672171.00 39320614.00 L 22639981.00 39331159.00 L 22653301.00 39382219.00 L 22688266.00 39368899.00 L 22719346.00 39351139.00  z"/>
<path id="N" d="M 43744454.00 19813200.00 L 43775534.00 19802100.00 L 43798289.00 19787115.00 L 43811054.00 19773240.00 L 43826594.00 19745490.00 L 43837694.00 19708305.00 L 43841024.00 19672230.00 L 43838804.00 19645590.00 L 43830479.00 19610625.00 L 43818269.00 19582320.00 L 43806059.00 19565115.00 L 43788299.00 19550685.00 L 43761104.00 19536810.00 L 43728914.00 19527930.00 L 43710599.00 19526820.00 L 43684514.00 19530150.00 L 43662314.00 19536255.00 L 43639004.00 19546800.00 L 43616249.00 19565115.00 A 155562.55 155562.55 0 0 0 43580729.00 19656135.00 L 43581284.00 19692765.00 L 43587389.00 19726620.00 L 43596824.00 19753260.00 L 43603484.00 19763805.00 L 43623464.00 19786005.00 L 43643999.00 19800990.00 L 43663979.00 19809315.00 L 43697279.00 19817085.00 L 43744454.00 19813200.00  zM 43710599.00 19778790.00 L 43690064.00 19775460.00 L 43671194.00 19767690.00 L 43661759.00 19761030.00 L 43650104.00 19749375.00 L 43637894.00 19726620.00 L 43629569.00 19689990.00 L 43628459.00 19665570.00 L 43634009.00 19628940.00 L 43644554.00 19603410.00 L 43652324.00 19591755.00 L 43668419.00 19578990.00 L 43686734.00 19569555.00 L 43703939.00 19566225.00 L 43722809.00 19566780.00 L 43750559.00 19576770.00 L 43770539.00 19593420.00 L 43783304.00 19617840.00 L 43790519.00 19645035.00 L 43792739.00 19677225.00 L 43787189.00 19715520.00 L 43777199.00 19741605.00 L 43768874.00 19752705.00 L 43759994.00 19761030.00 L 43735019.00 19774905.00 L 43723364.00 19777680.00 L 43710599.00 19778790.00  z"/>
<path id="N" d="M 43744454.00 28671468.00 L 43775534.00 28660368.00 L 43798289.00 28645383.00 L 43811054.00 28631508.00 L 43826594.00 28603758.00 L 43837694.00 28566573.00 L 43841024.00 28530498.00 L 43838804.00 28503858.00 L 43830479.00 28468893.00 L 43818269.00 28440588.00 L 43806059.00 28423383.00 L 43788299.00 28408953.00 L 43761104.00 28395078.00 L 43728914.00 28386198.00 L 43710599.00 28385088.00 L 43684514.00 28388418.00 L 43662314.00 28394523.00 L 43639004.00 28405068.00 L 43616249.00 28423383.00 A 155562.55 155562.55 0 0 0 43580729.00 28514403.00 L 43581284.00 28551033.00 L 43587389.00 28584888.00 L 43596824.00 28611528.00 L 43603484.00 28622073.00 L 43623464.00 28644273.00 L 43643999.00 28659258.00 L 43663979.00 28667583.00 L 43697279.00 28675353.00 L 43744454.00 28671468.00  zM 43710599.00 28637058.00 L 43690064.00 28633728.00 L 43671194.00 28625958.00 L 43661759.00 28619298.00 L 43650104.00 28607643.00 L 43637894.00 28584888.00 L 43629569.00 28548258.00 L 43628459.00 28523838.00 L 43634009.00 28487208.00 L 43644554.00 28461678.00 L 43652324.00 28450023.00 L 43668419.00 28437258.00 L 43686734.00 28427823.00 L 43703939.00 28424493.00 L 43722809.00 28425048.00 L 43750559.00 28435038.00 L 43770539.00 28451688.00 L 43783304.00 28476108.00 L 43790519.00 28503303.00 L 43792739.00 28535493.00 L 43787189.00 28573788.00 L 43777199.00 28599873.00 L 43768874.00 28610973.00 L 43759994.00 28619298.00 L 43735019.00 28633173.00 L 43723364.00 28635948.00 L 43710599.00 28637058.00  z"/>
<path id="N" d="M 44503139.00 37639736.00 L 44534219.00 37628636.00 L 44556974.00 37613651.00 L 44569739.00 37599776.00 L 44585279.00 37572026.00 L 44596379.00 37534841.00 L 44599709.00 37498766.00 L 44597489.00 37472126.00 L 44589164.00 37437161.00 L 44576954.00 37408856.00 L 44564744.00 37391651.00 L 44546984.00 37377221.00 L 44519789.00 37363346.00 L 44487599.00 37354466.00 L 44469284.00 37353356.00 L 44443199.00 37356686.00 L 44420999.00 37362791.00 L 44397689.00 37373336.00 L 44374934.00 37391651.00 A 155562.55 155562.55 0 0 0 44339414.00 37482671.00 L 44339969.00 37519301.00 L 44346074.00 37553156.00 L 44355509.00 37579796.00 L 44362169.00 37590341.00 L 44382149.00 37612541.00 L 44402684.00 37627526.00 L 44422664.00 37635851.00 L 44455964.00 37643621.00 L 44503139.00 37639736.00  zM 44469284.00 37605326.00 L 44448749.00 37601996.00 L 44429879.00 37594226.00 L 44420444.00 37587566.00 L 44408789.00 37575911.00 L 44396579.00 37553156.00 L 44388254.00 37516526.00 L 44387144.00 37492106.00 L 44392694.00 37455476.00 L 44403239.00 37429946.00 L 44411009.00 37418291.00 L 44427104.00 37405526.00 L 44445419.00 37396091.00 L 44462624.00 37392761.00 L 44481494.00 37393316.00 L 44509244.00 37403306.00 L 44529224.00 37419956.00 L 44541989.00 37444376.00 L 44549204.00 37471571.00 L 44551424.00 37503761.00 L 44545874.00 37542056.00 L 44535884.00 37568141.00 L 44527559.00 37579241.00 L 44518679.00 37587566.00 L 44493704.00 37601441.00 L 44482049.00 37604216.00 L 44469284.00 37605326.00  z"/>
<path id="N" d="M 19915361.00 50011729.00 L 19942001.00 50002294.00 L 19966976.00 49983979.00 L 19982516.00 49966219.00 L 19992506.00 49949569.00 L 20003606.00 49914049.00 L 20006381.00 49887964.00 L 20001941.00 49854664.00 L 19990841.00 49823584.00 L 19975856.00 49800829.00 L 19961981.00 49788064.00 L 19934231.00 49772524.00 L 19897046.00 49761424.00 L 19860971.00 49758094.00 L 19834331.00 49760314.00 L 19799366.00 49768639.00 L 19771061.00 49780849.00 L 19753856.00 49793059.00 L 19739426.00 49810819.00 L 19725551.00 49838014.00 L 19716671.00 49870204.00 L 19715561.00 49889074.00 L 19718891.00 49914604.00 L 19724996.00 49936804.00 L 19735541.00 49960114.00 L 19753856.00 49982869.00 A 155562.55 155562.55 0 0 0 19844876.00 50018389.00 L 19881506.00 50017834.00 L 19915361.00 50011729.00  zM 19854311.00 49970659.00 L 19817681.00 49965109.00 L 19792151.00 49954564.00 L 19780496.00 49946794.00 L 19767731.00 49930699.00 L 19758296.00 49912384.00 L 19754966.00 49895179.00 L 19755521.00 49876309.00 L 19765511.00 49848559.00 L 19782161.00 49828579.00 L 19806581.00 49815814.00 L 19833776.00 49808599.00 L 19865966.00 49806379.00 L 19904261.00 49811929.00 L 19930346.00 49821919.00 L 19941446.00 49830244.00 L 19949771.00 49839124.00 A 76718.11 76718.11 0 0 1 19915361.00 49961224.00 L 19878731.00 49969549.00 L 19854311.00 49970659.00  z"/>
<path id="N" d="M 19915361.00 49563844.00 L 19942001.00 49554409.00 L 19966976.00 49536094.00 L 19982516.00 49518334.00 L 19992506.00 49501684.00 L 20003606.00 49466164.00 L 20006381.00 49440079.00 L 20001941.00 49406779.00 L 19990841.00 49375699.00 L 19975856.00 49352944.00 L 19961981.00 49340179.00 L 19934231.00 49324639.00 L 19897046.00 49313539.00 L 19860971.00 49310209.00 L 19834331.00 49312429.00 L 19799366.00 49320754.00 L 19771061.00 49332964.00 L 19753856.00 49345174.00 L 19739426.00 49362934.00 L 19725551.00 49390129.00 L 19716671.00 49422319.00 L 19715561.00 49441189.00 L 19718891.00 49466719.00 L 19724996.00 49488919.00 L 19735541.00 49512229.00 L 19753856.00 49534984.00 A 155562.55 155562.55 0 0 0 19844876.00 49570504.00 L 19881506.00 49569949.00 L 19915361.00 49563844.00  zM 19854311.00 49522774.00 L 19817681.00 49517224.00 L 19792151.00 49506679.00 L 19780496.00 49498909.00 L 19767731.00 49482814.00 L 19758296.00 49464499.00 L 19754966.00 49447294.00 L 19755521.00 49428424.00 L 19765511.00 49400674.00 L 19782161.00 49380694.00 L 19806581.00 49367929.00 L 19833776.00 49360714.00 L 19865966.00 49358494.00 L 19904261.00 49364044.00 L 19930346.00 49374034.00 L 19941446.00 49382359.00 L 19949771.00 49391239.00 A 76718.11 76718.11 0 0 1 19915361.00 49513339.00 L 19878731.00 49521664.00 L 19854311.00 49522774.00  z"/>
<path id="N" d="M 22689376.00 39674704.00 L 22716016.00 39665269.00 L 22740991.00 39646954.00 L 22756531.00 39629194.00 L 22766521.00 39612544.00 L 22777621.00 39577024.00 L 22780396.00 39550939.00 L 22775956.00 39517639.00 L 22764856.00 39486559.00 L 22749871.00 39463804.00 L 22735996.00 39451039.00 L 22708246.00 39435499.00 L 22671061.00 39424399.00 L 22634986.00 39421069.00 L 22608346.00 39423289.00 L 22573381.00 39431614.00 L 22545076.00 39443824.00 L 22527871.00 39456034.00 L 22513441.00 39473794.00 L 22499566.00 39500989.00 L 22490686.00 39533179.00 L 22489576.00 39552049.00 L 22492906.00 39577579.00 L 22499011.00 39599779.00 L 22509556.00 39623089.00 L 22527871.00 39645844.00 A 155562.55 155562.55 0 0 0 22618891.00 39681364.00 L 22655521.00 39680809.00 L 22689376.00 39674704.00  zM 22628326.00 39633634.00 L 22591696.00 39628084.00 L 22566166.00 39617539.00 L 22554511.00 39609769.00 L 22541746.00 39593674.00 L 22532311.00 39575359.00 L 22528981.00 39558154.00 L 22529536.00 39539284.00 L 22539526.00 39511534.00 L 22556176.00 39491554.00 L 22580596.00 39478789.00 L 22607791.00 39471574.00 L 22639981.00 39469354.00 L 22678276.00 39474904.00 L 22704361.00 39484894.00 L 22715461.00 39493219.00 L 22723786.00 39502099.00 A 76718.11 76718.11 0 0 1 22689376.00 39624199.00 L 22652746.00 39632524.00 L 22628326.00 39633634.00  z"/>
<path id="N" d="M 22689376.00 41555044.00 L 22716016.00 41545609.00 L 22740991.00 41527294.00 L 22756531.00 41509534.00 L 22766521.00 41492884.00 L 22777621.00 41457364.00 L 22780396.00 41431279.00 L 22775956.00 41397979.00 L 22764856.00 41366899.00 L 22749871.00 41344144.00 L 22735996.00 41331379.00 L 22708246.00 41315839.00 L 22671061.00 41304739.00 L 22634986.00 41301409.00 L 22608346.00 41303629.00 L 22573381.00 41311954.00 L 22545076.00 41324164.00 L 22527871.00 41336374.00 L 22513441.00 41354134.00 L 22499566.00 41381329.00 L 22490686.00 41413519.00 L 22489576.00 41432389.00 L 22492906.00 41457919.00 L 22499011.00 41480119.00 L 22509556.00 41503429.00 L 22527871.00 41526184.00 A 155562.55 155562.55 0 0 0 22618891.00 41561704.00 L 22655521.00 41561149.00 L 22689376.00 41555044.00  zM 22628326.00 41513974.00 L 22591696.00 41508424.00 L 22566166.00 41497879.00 L 22554511.00 41490109.00 L 22541746.00 41474014.00 L 22532311.00 41455699.00 L 22528981.00 41438494.00 L 22529536.00 41419624.00 L 22539526.00 41391874.00 L 22556176.00 41371894.00 L 22580596.00 41359129.00 L 22607791.00 41351914.00 L 22639981.00 41349694.00 L 22678276.00 41355244.00 L 22704361.00 41365234.00 L 22715461.00 41373559.00 L 22723786.00 41382439.00 A 76718.11 76718.11 0 0 1 22689376.00 41504539.00 L 22652746.00 41512864.00 L 22628326.00 41513974.00  z"/>
<path id="N" d="M 30396384.00 31501653.00 L 30423024.00 31492218.00 L 30447999.00 31473903.00 L 30463539.00 31456143.00 L 30473529.00 31439493.00 L 30484629.00 31403973.00 L 30487404.00 31377888.00 L 30482964.00 31344588.00 L 30471864.00 31313508.00 L 30456879.00 31290753.00 L 30443004.00 31277988.00 L 30415254.00 31262448.00 L 30378069.00 31251348.00 L 30341994.00 31248018.00 L 30315354.00 31250238.00 L 30280389.00 31258563.00 L 30252084.00 31270773.00 L 30234879.00 31282983.00 L 30220449.00 31300743.00 L 30206574.00 31327938.00 L 30197694.00 31360128.00 L 30196584.00 31378998.00 L 30199914.00 31404528.00 L 30206019.00 31426728.00 L 30216564.00 31450038.00 L 30234879.00 31472793.00 A 155562.55 155562.55 0 0 0 30325899.00 31508313.00 L 30362529.00 31507758.00 L 30396384.00 31501653.00  zM 30335334.00 31460583.00 L 30298704.00 31455033.00 L 30273174.00 31444488.00 L 30261519.00 31436718.00 L 30248754.00 31420623.00 L 30239319.00 31402308.00 L 30235989.00 31385103.00 L 30236544.00 31366233.00 L 30246534.00 31338483.00 L 30263184.00 31318503.00 L 30287604.00 31305738.00 L 30314799.00 31298523.00 L 30346989.00 31296303.00 L 30385284.00 31301853.00 L 30411369.00 31311843.00 L 30422469.00 31320168.00 L 30430794.00 31329048.00 A 76718.11 76718.11 0 0 1 30396384.00 31451148.00 L 30359754.00 31459473.00 L 30335334.00 31460583.00  z"/>
<path id="N" d="M 65646303.00 29824971.00 L 65670168.00 29817756.00 L 65694588.00 29804436.00 L 65698473.00 29799996.00 L 65715678.00 29778906.00 L 65727333.00 29755041.00 L 65731218.00 29740056.00 L 65685153.00 29732841.00 L 65684043.00 29737281.00 L 65672388.00 29762256.00 L 65661288.00 29775021.00 L 65650743.00 29781681.00 L 65630208.00 29788341.00 L 65609673.00 29787786.00 L 65582478.00 29778351.00 A 70683.95 70683.95 0 0 1 65553063.00 29743941.00 L 65545293.00 29718411.00 L 65541963.00 29681781.00 L 65546958.00 29637936.00 L 65555838.00 29611851.00 L 65563053.00 29600751.00 L 65578038.00 29588541.00 L 65595798.00 29579661.00 L 65619108.00 29575776.00 L 65635203.00 29577996.00 L 65650188.00 29582991.00 L 65665173.00 29592426.00 L 65671278.00 29599641.00 L 65683488.00 29621841.00 L 65689038.00 29645151.00 L 65735658.00 29638491.00 L 65733993.00 29631276.00 L 65722893.00 29599641.00 L 65706798.00 29574666.00 L 65690703.00 29559681.00 A 122109.29 122109.29 0 0 0 65586918.00 29541366.00 L 65564718.00 29549136.00 L 65541963.00 29561901.00 L 65527533.00 29574666.00 L 65514213.00 29595201.00 L 65501448.00 29625171.00 L 65495343.00 29656806.00 L 65493678.00 29688996.00 L 65499783.00 29733396.00 L 65508663.00 29761701.00 L 65525868.00 29787231.00 L 65543073.00 29803881.00 L 65554173.00 29810541.00 L 65573598.00 29819421.00 L 65606898.00 29827191.00 L 65646303.00 29824971.00  z"/>
<path id="N" d="M 19915361.00 46298941.00 L 19942001.00 46289506.00 L 19966976.00 46271191.00 L 19982516.00 46253431.00 L 19992506.00 46236781.00 L 20003606.00 46201261.00 L 20006381.00 46175176.00 L 20001941.00 46141876.00 L 19990841.00 46110796.00 L 19975856.00 46088041.00 L 19961981.00 46075276.00 L 19934231.00 46059736.00 L 19897046.00 46048636.00 L 19860971.00 46045306.00 L 19834331.00 46047526.00 L 19799366.00 46055851.00 L 19771061.00 46068061.00 L 19753856.00 46080271.00 L 19739426.00 46098031.00 L 19725551.00 46125226.00 L 19716671.00 46157416.00 L 19715561.00 46176286.00 L 19718891.00 46201816.00 L 19724996.00 46224016.00 L 19735541.00 46247326.00 L 19753856.00 46270081.00 A 155562.55 155562.55 0 0 0 19844876.00 46305601.00 L 19881506.00 46305046.00 L 19915361.00 46298941.00  zM 19854311.00 46257871.00 L 19817681.00 46252321.00 L 19792151.00 46241776.00 L 19780496.00 46234006.00 L 19767731.00 46217911.00 L 19758296.00 46199596.00 L 19754966.00 46182391.00 L 19755521.00 46163521.00 L 19765511.00 46135771.00 L 19782161.00 46115791.00 L 19806581.00 46103026.00 L 19833776.00 46095811.00 L 19865966.00 46093591.00 L 19904261.00 46099141.00 L 19930346.00 46109131.00 L 19941446.00 46117456.00 L 19949771.00 46126336.00 A 76718.11 76718.11 0 0 1 19915361.00 46248436.00 L 19878731.00 46256761.00 L 19854311.00 46257871.00  z"/>
<path id="N" d="M 31699952.00 46050301.00 L 31699952.00 45842176.00 L 31707722.00 45842731.00 L 31737137.00 45849391.00 L 31760447.00 45859936.00 L 31774322.00 45872146.00 L 31786532.00 45892681.00 L 31793192.00 45913771.00 L 31794302.00 45930976.00 L 31788752.00 45956506.00 L 31778207.00 45974266.00 L 31756562.00 45990916.00 L 31737137.00 46000351.00 L 31743797.00 46049191.00 L 31778207.00 46033651.00 L 31799852.00 46017001.00 L 31809842.00 46005346.00 L 31821497.00 45984256.00 L 31829267.00 45959281.00 L 31833152.00 45925981.00 L 31829822.00 45898786.00 L 31820942.00 45867706.00 L 31808177.00 45843841.00 L 31792082.00 45826081.00 L 31761557.00 45808321.00 L 31725482.00 45797221.00 L 31690517.00 45793891.00 L 31658327.00 45796666.00 L 31614482.00 45808876.00 L 31588952.00 45823861.00 L 31575077.00 45836626.00 L 31557872.00 45861601.00 L 31545662.00 45893791.00 L 31542332.00 45924316.00 L 31547327.00 45956506.00 L 31558427.00 45985921.00 L 31573967.00 46008676.00 L 31591727.00 46023661.00 L 31623362.00 46039756.00 L 31652222.00 46047526.00 L 31694402.00 46050856.00 L 31699952.00 46050301.00  zM 31661102.00 46000906.00 L 31655552.00 46000351.00 L 31624472.00 45992026.00 L 31608377.00 45982591.00 L 31595057.00 45967051.00 A 74698.00 74698.00 0 0 1 31636682.00 45849946.00 L 31661102.00 45844951.00 L 31661102.00 46000906.00  z"/>
<path id="N" d="M 19873181.00 45557461.00 L 19873181.00 45349336.00 L 19880951.00 45349891.00 L 19910366.00 45356551.00 L 19933676.00 45367096.00 L 19947551.00 45379306.00 L 19959761.00 45399841.00 L 19966421.00 45420931.00 L 19967531.00 45438136.00 L 19961981.00 45463666.00 L 19951436.00 45481426.00 L 19929791.00 45498076.00 L 19910366.00 45507511.00 L 19917026.00 45556351.00 L 19951436.00 45540811.00 L 19973081.00 45524161.00 L 19983071.00 45512506.00 L 19994726.00 45491416.00 L 20002496.00 45466441.00 L 20006381.00 45433141.00 L 20003051.00 45405946.00 L 19994171.00 45374866.00 L 19981406.00 45351001.00 L 19965311.00 45333241.00 L 19934786.00 45315481.00 L 19898711.00 45304381.00 L 19863746.00 45301051.00 L 19831556.00 45303826.00 L 19787711.00 45316036.00 L 19762181.00 45331021.00 L 19748306.00 45343786.00 L 19731101.00 45368761.00 L 19718891.00 45400951.00 L 19715561.00 45431476.00 L 19720556.00 45463666.00 L 19731656.00 45493081.00 L 19747196.00 45515836.00 L 19764956.00 45530821.00 L 19796591.00 45546916.00 L 19825451.00 45554686.00 L 19867631.00 45558016.00 L 19873181.00 45557461.00  zM 19834331.00 45508066.00 L 19828781.00 45507511.00 L 19797701.00 45499186.00 L 19781606.00 45489751.00 L 19768286.00 45474211.00 A 74698.00 74698.00 0 0 1 19809911.00 45357106.00 L 19834331.00 45352111.00 L 19834331.00 45508066.00  z"/>
<path id="N" d="M 31589952.00 49775299.00 L 31589952.00 49567174.00 L 31597722.00 49567729.00 L 31627137.00 49574389.00 L 31650447.00 49584934.00 L 31664322.00 49597144.00 L 31676532.00 49617679.00 L 31683192.00 49638769.00 L 31684302.00 49655974.00 L 31678752.00 49681504.00 L 31668207.00 49699264.00 L 31646562.00 49715914.00 L 31627137.00 49725349.00 L 31633797.00 49774189.00 L 31668207.00 49758649.00 L 31689852.00 49741999.00 L 31699842.00 49730344.00 L 31711497.00 49709254.00 L 31719267.00 49684279.00 L 31723152.00 49650979.00 L 31719822.00 49623784.00 L 31710942.00 49592704.00 L 31698177.00 49568839.00 L 31682082.00 49551079.00 L 31651557.00 49533319.00 L 31615482.00 49522219.00 L 31580517.00 49518889.00 L 31548327.00 49521664.00 L 31504482.00 49533874.00 L 31478952.00 49548859.00 L 31465077.00 49561624.00 L 31447872.00 49586599.00 L 31435662.00 49618789.00 L 31432332.00 49649314.00 L 31437327.00 49681504.00 L 31448427.00 49710919.00 L 31463967.00 49733674.00 L 31481727.00 49748659.00 L 31513362.00 49764754.00 L 31542222.00 49772524.00 L 31584402.00 49775854.00 L 31589952.00 49775299.00  zM 31551102.00 49725904.00 L 31545552.00 49725349.00 L 31514472.00 49717024.00 L 31498377.00 49707589.00 L 31485057.00 49692049.00 A 74698.00 74698.00 0 0 1 31526682.00 49574944.00 L 31551102.00 49569949.00 L 31551102.00 49725904.00  z"/>
<path id="N" d="M 66527643.00 29807766.00 L 66550398.00 29789451.00 L 66568158.00 29762811.00 L 66580923.00 29730066.00 L 66585918.00 29698431.00 L 66585363.00 29661801.00 L 66579258.00 29627946.00 L 66569823.00 29601306.00 L 66551508.00 29576331.00 L 66533748.00 29560791.00 L 66517098.00 29550801.00 L 66481578.00 29539701.00 L 66456048.00 29536926.00 L 66422193.00 29541366.00 L 66391113.00 29552466.00 L 66368358.00 29567451.00 L 66355593.00 29581326.00 L 66340053.00 29609076.00 L 66328953.00 29646261.00 L 66325623.00 29682336.00 L 66327843.00 29708976.00 L 66336168.00 29743941.00 L 66348378.00 29772246.00 L 66360588.00 29789451.00 L 66368913.00 29797221.00 L 66387228.00 29809431.00 L 66420528.00 29822751.00 L 66446613.00 29827191.00 A 155492.01 155492.01 0 0 0 66527643.00 29807766.00  zM 66443838.00 29787786.00 L 66416088.00 29777796.00 L 66396108.00 29761146.00 L 66383343.00 29736726.00 L 66376128.00 29709531.00 L 66373908.00 29677341.00 L 66379458.00 29639046.00 L 66389448.00 29612961.00 L 66397773.00 29601861.00 L 66406653.00 29593536.00 A 76680.81 76680.81 0 0 1 66528753.00 29627946.00 L 66537078.00 29664576.00 L 66538188.00 29688996.00 L 66532638.00 29725626.00 L 66522093.00 29751156.00 L 66514323.00 29762811.00 L 66489903.00 29780571.00 L 66468813.00 29787786.00 L 66443838.00 29787786.00  z"/>
<path id="N" d="M 64229388.00 29807766.00 L 64252143.00 29789451.00 L 64269903.00 29762811.00 L 64282668.00 29730066.00 L 64287663.00 29698431.00 L 64287108.00 29661801.00 L 64281003.00 29627946.00 L 64271568.00 29601306.00 L 64253253.00 29576331.00 L 64235493.00 29560791.00 L 64218843.00 29550801.00 L 64183323.00 29539701.00 L 64157793.00 29536926.00 L 64123938.00 29541366.00 L 64092858.00 29552466.00 L 64070103.00 29567451.00 L 64057338.00 29581326.00 L 64041798.00 29609076.00 L 64030698.00 29646261.00 L 64027368.00 29682336.00 L 64029588.00 29708976.00 L 64037913.00 29743941.00 L 64050123.00 29772246.00 L 64062333.00 29789451.00 L 64070658.00 29797221.00 L 64088973.00 29809431.00 L 64122273.00 29822751.00 L 64148358.00 29827191.00 A 155492.01 155492.01 0 0 0 64229388.00 29807766.00  zM 64145583.00 29787786.00 L 64117833.00 29777796.00 L 64097853.00 29761146.00 L 64085088.00 29736726.00 L 64077873.00 29709531.00 L 64075653.00 29677341.00 L 64081203.00 29639046.00 L 64091193.00 29612961.00 L 64099518.00 29601861.00 L 64108398.00 29593536.00 A 76680.81 76680.81 0 0 1 64230498.00 29627946.00 L 64238823.00 29664576.00 L 64239933.00 29688996.00 L 64234383.00 29725626.00 L 64223838.00 29751156.00 L 64216068.00 29762811.00 L 64191648.00 29780571.00 L 64170558.00 29787786.00 L 64145583.00 29787786.00  z"/>
<path id="N" d="M 43807169.00 37640846.00 L 43838249.00 37631966.00 L 43862114.00 37619201.00 L 43879874.00 37603106.00 L 43897634.00 37572581.00 L 43908734.00 37536506.00 L 43912064.00 37500986.00 L 43909289.00 37469351.00 L 43897079.00 37425506.00 L 43882094.00 37399976.00 L 43869329.00 37386101.00 L 43844354.00 37368896.00 L 43812164.00 37356686.00 L 43782194.00 37353356.00 L 43756664.00 37356686.00 L 43727804.00 37365566.00 L 43704494.00 37378886.00 L 43690064.00 37392206.00 L 43676189.00 37412741.00 L 43663424.00 37443266.00 L 43656764.00 37474346.00 L 43655654.00 37510976.00 L 43863779.00 37511531.00 L 43863224.00 37518746.00 L 43856564.00 37548161.00 L 43846019.00 37571471.00 L 43833809.00 37585346.00 L 43813274.00 37597556.00 L 43792184.00 37604216.00 L 43774979.00 37605326.00 L 43749449.00 37599776.00 L 43731689.00 37589231.00 L 43715039.00 37567586.00 L 43705604.00 37548161.00 L 43656764.00 37554821.00 L 43672304.00 37589231.00 L 43688954.00 37610876.00 L 43700609.00 37620866.00 L 43721699.00 37632521.00 L 43746674.00 37640291.00 L 43779419.00 37644176.00 L 43807169.00 37640846.00  zM 43861004.00 37472126.00 L 43705049.00 37471571.00 L 43705604.00 37466576.00 L 43713929.00 37435496.00 L 43723364.00 37419401.00 L 43738904.00 37406081.00 A 74698.00 74698.00 0 0 1 43852124.00 37437716.00 L 43859339.00 37459361.00 L 43861004.00 37472126.00  z"/>
<path id="N" d="M 42838694.00 28672578.00 L 42869774.00 28663698.00 L 42893639.00 28650933.00 L 42911399.00 28634838.00 L 42929159.00 28604313.00 L 42940259.00 28568238.00 L 42943589.00 28532718.00 L 42940814.00 28501083.00 L 42928604.00 28457238.00 L 42913619.00 28431708.00 L 42900854.00 28417833.00 L 42875879.00 28400628.00 L 42843689.00 28388418.00 L 42813719.00 28385088.00 L 42788189.00 28388418.00 L 42759329.00 28397298.00 L 42736019.00 28410618.00 L 42721589.00 28423938.00 L 42707714.00 28444473.00 L 42694949.00 28474998.00 L 42688289.00 28506078.00 L 42687179.00 28542708.00 L 42895304.00 28543263.00 L 42894749.00 28550478.00 L 42888089.00 28579893.00 L 42877544.00 28603203.00 L 42865334.00 28617078.00 L 42844799.00 28629288.00 L 42823709.00 28635948.00 L 42806504.00 28637058.00 L 42780974.00 28631508.00 L 42763214.00 28620963.00 L 42746564.00 28599318.00 L 42737129.00 28579893.00 L 42688289.00 28586553.00 L 42703829.00 28620963.00 L 42720479.00 28642608.00 L 42732134.00 28652598.00 L 42753224.00 28664253.00 L 42778199.00 28672023.00 L 42810944.00 28675908.00 L 42838694.00 28672578.00  zM 42892529.00 28503858.00 L 42736574.00 28503303.00 L 42737129.00 28498308.00 L 42745454.00 28467228.00 L 42754889.00 28451133.00 L 42770429.00 28437813.00 A 74698.00 74698.00 0 0 1 42883649.00 28469448.00 L 42890864.00 28491093.00 L 42892529.00 28503858.00  z"/>
<path id="N" d="M 42838694.00 19814310.00 L 42869774.00 19805430.00 L 42893639.00 19792665.00 L 42911399.00 19776570.00 L 42929159.00 19746045.00 L 42940259.00 19709970.00 L 42943589.00 19674450.00 L 42940814.00 19642815.00 L 42928604.00 19598970.00 L 42913619.00 19573440.00 L 42900854.00 19559565.00 L 42875879.00 19542360.00 L 42843689.00 19530150.00 L 42813719.00 19526820.00 L 42788189.00 19530150.00 L 42759329.00 19539030.00 L 42736019.00 19552350.00 L 42721589.00 19565670.00 L 42707714.00 19586205.00 L 42694949.00 19616730.00 L 42688289.00 19647810.00 L 42687179.00 19684440.00 L 42895304.00 19684995.00 L 42894749.00 19692210.00 L 42888089.00 19721625.00 L 42877544.00 19744935.00 L 42865334.00 19758810.00 L 42844799.00 19771020.00 L 42823709.00 19777680.00 L 42806504.00 19778790.00 L 42780974.00 19773240.00 L 42763214.00 19762695.00 L 42746564.00 19741050.00 L 42737129.00 19721625.00 L 42688289.00 19728285.00 L 42703829.00 19762695.00 L 42720479.00 19784340.00 L 42732134.00 19794330.00 L 42753224.00 19805985.00 L 42778199.00 19813755.00 L 42810944.00 19817640.00 L 42838694.00 19814310.00  zM 42892529.00 19645590.00 L 42736574.00 19645035.00 L 42737129.00 19640040.00 L 42745454.00 19608960.00 L 42754889.00 19592865.00 L 42770429.00 19579545.00 A 74698.00 74698.00 0 0 1 42883649.00 19611180.00 L 42890864.00 19632825.00 L 42892529.00 19645590.00  z"/>
<path id="N" d="M 22671061.00 40422289.00 L 22711021.00 40410634.00 L 22738216.00 40392874.00 L 22754866.00 40376224.00 L 22768186.00 40355134.00 L 22777621.00 40327939.00 L 22780396.00 40304629.00 L 22776511.00 40276879.00 L 22770406.00 40261894.00 L 22760416.00 40246909.00 L 22745431.00 40231924.00 L 22880851.00 40231924.00 L 22880851.00 40184749.00 L 22495681.00 40184749.00 L 22495681.00 40227484.00 L 22532311.00 40227484.00 L 22525096.00 40233034.00 L 22505116.00 40254679.00 L 22495126.00 40274659.00 L 22490131.00 40297969.00 L 22490686.00 40320724.00 L 22497346.00 40349584.00 L 22508446.00 40371229.00 L 22516216.00 40380109.00 L 22537861.00 40399534.00 L 22560616.00 40411744.00 L 22581706.00 40418959.00 L 22618891.00 40425619.00 L 22671061.00 40422289.00  zM 22627771.00 40377889.00 L 22602796.00 40375114.00 L 22577266.00 40368454.00 L 22552846.00 40355689.00 L 22540081.00 40341259.00 L 22530646.00 40324609.00 L 22526761.00 40303519.00 L 22530091.00 40285759.00 L 22541746.00 40263559.00 L 22555621.00 40250239.00 L 22566721.00 40243024.00 L 22593916.00 40233034.00 L 22626661.00 40227484.00 L 22654966.00 40228594.00 L 22692706.00 40236364.00 L 22711021.00 40245244.00 L 22724341.00 40257454.00 L 22737661.00 40280209.00 L 22741546.00 40301854.00 L 22738216.00 40320169.00 A 73250.58 73250.58 0 0 1 22683271.00 40370674.00 L 22661071.00 40375669.00 L 22627771.00 40377889.00  z"/>
<path id="N" d="M 30481299.00 31027683.00 L 30446889.00 31027128.00 L 30455769.00 31019913.00 L 30474639.00 30997158.00 L 30483519.00 30976068.00 L 30486849.00 30958863.00 L 30486294.00 30937218.00 L 30479634.00 30909468.00 L 30469089.00 30887823.00 L 30455769.00 30872838.00 L 30429684.00 30851193.00 L 30412479.00 30842868.00 L 30372519.00 30832323.00 L 30342549.00 30830103.00 L 30305919.00 30833433.00 L 30266514.00 30843978.00 L 30239319.00 30860073.00 L 30222114.00 30875613.00 L 30214899.00 30885603.00 L 30205464.00 30903918.00 L 30197139.00 30934998.00 L 30197139.00 30956088.00 L 30203799.00 30984948.00 L 30214899.00 31003263.00 L 30234879.00 31024353.00 L 30097239.00 31024353.00 L 30097239.00 31071528.00 L 30481299.00 31071528.00 L 30481299.00 31027683.00  zM 30332559.00 31028238.00 L 30300924.00 31023243.00 L 30273729.00 31013808.00 L 30258189.00 31002708.00 L 30243759.00 30983838.00 L 30236544.00 30963858.00 L 30235434.00 30949428.00 L 30241539.00 30925563.00 L 30252639.00 30907803.00 L 30262074.00 30899478.00 L 30280944.00 30888933.00 L 30314244.00 30880608.00 L 30347544.00 30878388.00 L 30385284.00 30883938.00 L 30411369.00 30893373.00 L 30422469.00 30901143.00 L 30435234.00 30915573.00 L 30444669.00 30932778.00 A 66758.22 66758.22 0 0 1 30438009.00 30989388.00 L 30428019.00 31002708.00 L 30413034.00 31013808.00 L 30386949.00 31023798.00 L 30364749.00 31027683.00 L 30332559.00 31028238.00  z"/>
<path id="N" d="M 22774291.00 40067644.00 L 22583926.00 40067089.00 L 22558396.00 40063204.00 L 22541746.00 40050994.00 A 52035.34 52035.34 0 0 1 22531756.00 40007704.00 L 22538971.00 39984949.00 L 22550626.00 39968854.00 L 22565611.00 39959419.00 L 22585036.00 39952759.00 L 22612786.00 39949429.00 L 22774291.00 39949429.00 L 22774291.00 39902254.00 L 22588921.00 39902254.00 L 22576156.00 39900589.00 L 22553401.00 39894484.00 L 22541746.00 39885604.00 L 22532866.00 39870064.00 L 22530646.00 39851749.00 L 22535086.00 39828994.00 L 22541746.00 39815674.00 L 22553401.00 39802909.00 L 22572271.00 39791809.00 L 22605016.00 39785149.00 L 22774291.00 39784039.00 L 22774291.00 39736864.00 L 22495681.00 39736864.00 L 22495681.00 39779044.00 L 22535641.00 39779044.00 L 22528426.00 39784594.00 L 22507336.00 39806239.00 L 22498456.00 39822334.00 L 22491796.00 39843979.00 L 22489576.00 39866179.00 L 22495126.00 39897814.00 L 22502896.00 39913909.00 L 22517326.00 39929449.00 L 22538416.00 39942769.00 L 22527316.00 39951649.00 L 22509556.00 39971629.00 L 22497346.00 39992719.00 L 22491796.00 40009924.00 L 22489576.00 40032679.00 L 22495126.00 40062649.00 L 22505116.00 40083739.00 L 22512886.00 40092619.00 L 22522321.00 40099834.00 L 22545631.00 40109824.00 L 22574491.00 40114819.00 L 22774291.00 40114819.00 L 22774291.00 40067644.00  z"/>
<path id="N" d="M 64668948.00 29822196.00 L 64690038.00 29812206.00 L 64698918.00 29804436.00 L 64706133.00 29795001.00 L 64716123.00 29771691.00 L 64721118.00 29742831.00 L 64721118.00 29543031.00 L 64673943.00 29543031.00 L 64673388.00 29733396.00 L 64669503.00 29758926.00 L 64657293.00 29775576.00 A 52035.34 52035.34 0 0 1 64614003.00 29785566.00 L 64591248.00 29778351.00 L 64575153.00 29766696.00 L 64565718.00 29751711.00 L 64559058.00 29732286.00 L 64555728.00 29704536.00 L 64555728.00 29543031.00 L 64508553.00 29543031.00 L 64508553.00 29723961.00 L 64506888.00 29741166.00 L 64500783.00 29763921.00 L 64491903.00 29775576.00 L 64476363.00 29784456.00 L 64455828.00 29786676.00 L 64435293.00 29782236.00 L 64421973.00 29775576.00 L 64409208.00 29763921.00 L 64398108.00 29745051.00 L 64391448.00 29712306.00 L 64390338.00 29543031.00 L 64343163.00 29543031.00 L 64343163.00 29821641.00 L 64385343.00 29821641.00 L 64385343.00 29781681.00 L 64390893.00 29788896.00 L 64412538.00 29809986.00 L 64428633.00 29818866.00 L 64450278.00 29825526.00 L 64474698.00 29827746.00 L 64504113.00 29822196.00 L 64520208.00 29814426.00 L 64535748.00 29799996.00 L 64549068.00 29778906.00 L 64557948.00 29790006.00 L 64577928.00 29807766.00 L 64599018.00 29819976.00 L 64625103.00 29827191.00 L 64668948.00 29822196.00  z"/>
<path id="N" d="M 35524063.00 30857239.00 L 35552245.00 30848923.00 A 75857.74 75857.74 0 0 0 35594749.00 30808267.00 L 35603989.00 30784243.00 L 35606299.00 30769921.00 L 35565181.00 30766687.00 L 35562871.00 30776851.00 L 35554555.00 30798565.00 L 35543467.00 30812425.00 L 35532841.00 30819355.00 L 35512513.00 30826285.00 L 35493571.00 30825823.00 L 35471395.00 30817969.00 L 35459383.00 30809191.00 L 35449219.00 30796717.00 L 35439055.00 30772693.00 L 35435821.00 30748669.00 L 35440441.00 30720949.00 L 35448295.00 30703855.00 A 61998.21 61998.21 0 0 1 35493109.00 30677059.00 L 35511127.00 30676597.00 L 35532841.00 30682141.00 L 35547625.00 30690919.00 L 35562409.00 30707551.00 L 35599369.00 30702469.00 L 35568415.00 30537997.00 L 35409487.00 30537997.00 L 35409487.00 30575419.00 L 35537461.00 30575419.00 L 35554555.00 30661813.00 L 35526835.00 30647953.00 L 35505583.00 30642409.00 L 35487103.00 30641947.00 L 35458459.00 30648415.00 L 35440441.00 30657193.00 L 35423347.00 30670591.00 L 35408563.00 30690919.00 L 35397013.00 30721411.00 L 35394241.00 30747283.00 L 35400247.00 30782857.00 L 35407639.00 30801799.00 L 35421037.00 30822127.00 L 35441827.00 30839683.00 A 108197.35 108197.35 0 0 0 35524063.00 30857239.00  z"/>
<path id="N" d="M 30481299.00 30442713.00 L 30400824.00 30392208.00 L 30348099.00 30355023.00 L 30326454.00 30333933.00 L 30319239.00 30322278.00 L 30312024.00 30299523.00 L 30310914.00 30219603.00 L 30481299.00 30219603.00 L 30481299.00 30168543.00 L 30097239.00 30168543.00 L 30098349.00 30367788.00 L 30104454.00 30405528.00 L 30112224.00 30426063.00 L 30127764.00 30446043.00 L 30144414.00 30459363.00 L 30161619.00 30467688.00 A 105175.79 105175.79 0 0 0 30271509.00 30448818.00 L 30280389.00 30437718.00 L 30292044.00 30417183.00 L 30300369.00 30394983.00 L 30306474.00 30367233.00 L 30318684.00 30388323.00 L 30334224.00 30406083.00 L 30365859.00 30432168.00 L 30481299.00 30505983.00 L 30481299.00 30442713.00  zM 30193254.00 30422178.00 L 30179934.00 30418293.00 L 30164949.00 30409968.00 L 30154959.00 30399423.00 L 30145524.00 30379443.00 L 30140529.00 30355578.00 L 30139974.00 30219603.00 L 30267069.00 30219603.00 L 30267069.00 30328938.00 L 30265404.00 30357243.00 L 30260409.00 30382773.00 L 30247644.00 30403863.00 L 30236544.00 30413298.00 L 30221559.00 30419958.00 L 30193254.00 30422178.00  z"/>
<path id="N" d="M 44933819.00 37254011.00 L 44776199.00 37254011.00 L 44739014.00 37256786.00 L 44714039.00 37261781.00 L 44683514.00 37276211.00 L 44672414.00 37285646.00 L 44656874.00 37304516.00 L 44646329.00 37328381.00 L 44641334.00 37355021.00 L 44641889.00 37377776.00 L 44648549.00 37407191.00 L 44657984.00 37428281.00 L 44672969.00 37448816.00 L 44681849.00 37456031.00 L 44705159.00 37468241.00 L 44732909.00 37476566.00 L 44770094.00 37481561.00 L 44882759.00 37482116.00 L 44882759.00 37638071.00 L 44933819.00 37638071.00 L 44933819.00 37254011.00  zM 44882759.00 37436606.00 L 44779529.00 37436606.00 L 44745119.00 37432166.00 L 44722919.00 37424396.00 L 44714039.00 37418291.00 A 69930.23 69930.23 0 0 1 44692949.00 37366121.00 L 44697944.00 37339481.00 A 61953.71 61953.71 0 0 1 44754554.00 37300631.00 L 44882759.00 37299521.00 L 44882759.00 37436606.00  z"/>
<path id="N" d="M 63843663.00 49693844.00 L 63868638.00 49688849.00 L 63899163.00 49674419.00 L 63910263.00 49664984.00 L 63925803.00 49646114.00 L 63936348.00 49622249.00 L 63941343.00 49595609.00 L 63940788.00 49572854.00 L 63934128.00 49543439.00 L 63924693.00 49522349.00 L 63909708.00 49501814.00 L 63900828.00 49494599.00 L 63877518.00 49482389.00 L 63849768.00 49474064.00 L 63812583.00 49469069.00 L 63699918.00 49468514.00 L 63699918.00 49312559.00 L 63648858.00 49312559.00 L 63648858.00 49696619.00 L 63843663.00 49693844.00  zM 63699918.00 49651109.00 L 63699918.00 49514024.00 L 63803148.00 49514024.00 L 63837558.00 49518464.00 L 63859758.00 49526234.00 L 63868638.00 49532339.00 A 69930.23 69930.23 0 0 1 63889728.00 49584509.00 L 63884733.00 49611149.00 A 61953.71 61953.71 0 0 1 63828123.00 49649999.00 L 63699918.00 49651109.00  z"/>
<path id="N" d="M 63843663.00 38835576.00 L 63868638.00 38830581.00 L 63899163.00 38816151.00 L 63910263.00 38806716.00 L 63925803.00 38787846.00 L 63936348.00 38763981.00 L 63941343.00 38737341.00 L 63940788.00 38714586.00 L 63934128.00 38685171.00 L 63924693.00 38664081.00 L 63909708.00 38643546.00 L 63900828.00 38636331.00 L 63877518.00 38624121.00 L 63849768.00 38615796.00 L 63812583.00 38610801.00 L 63699918.00 38610246.00 L 63699918.00 38454291.00 L 63648858.00 38454291.00 L 63648858.00 38838351.00 L 63843663.00 38835576.00  zM 63699918.00 38792841.00 L 63699918.00 38655756.00 L 63803148.00 38655756.00 L 63837558.00 38660196.00 L 63859758.00 38667966.00 L 63868638.00 38674071.00 A 69930.23 69930.23 0 0 1 63889728.00 38726241.00 L 63884733.00 38752881.00 A 61953.71 61953.71 0 0 1 63828123.00 38791731.00 L 63699918.00 38792841.00  z"/>
<path id="N" d="M 44539769.00 28391193.00 L 44497589.00 28391193.00 L 44497034.00 28430598.00 L 44480384.00 28412283.00 L 44455409.00 28395633.00 L 44429879.00 28387308.00 L 44404904.00 28385088.00 L 44371049.00 28391193.00 L 44351624.00 28400628.00 L 44336084.00 28412838.00 L 44325539.00 28427823.00 L 44316659.00 28453353.00 L 44314439.00 28477773.00 L 44313884.00 28669803.00 L 44361059.00 28669803.00 L 44361614.00 28484988.00 L 44366609.00 28457238.00 L 44373824.00 28446138.00 L 44387144.00 28434483.00 L 44400464.00 28428933.00 L 44419334.00 28426158.00 L 44437094.00 28428378.00 L 44462624.00 28438923.00 L 44470949.00 28445583.00 L 44479829.00 28457793.00 L 44487599.00 28477773.00 L 44492594.00 28508853.00 L 44492594.00 28669803.00 L 44539769.00 28669803.00 L 44539769.00 28391193.00  z"/>
<path id="N" d="M 31827047.00 45425371.00 L 31787087.00 45424816.00 L 31790972.00 45422041.00 L 31809842.00 45402061.00 A 104870.43 104870.43 0 0 0 31832597.00 45327691.00 L 31827047.00 45298831.00 L 31813727.00 45273301.00 L 31799852.00 45258316.00 L 31785422.00 45250546.00 L 31764887.00 45244441.00 L 31741022.00 45242221.00 L 31548437.00 45241666.00 L 31548437.00 45288841.00 L 31715492.00 45288841.00 L 31753787.00 45291616.00 L 31768217.00 45298276.00 L 31782647.00 45311041.00 L 31789307.00 45325471.00 L 31792637.00 45346006.00 L 31789862.00 45364876.00 A 63497.80 63497.80 0 0 1 31752677.00 45412606.00 L 31721597.00 45419266.00 L 31548437.00 45420376.00 L 31548437.00 45467551.00 L 31827047.00 45467551.00 L 31827047.00 45425371.00  z"/>
<path id="N" d="M 31717047.00 49415104.00 L 31532232.00 49414549.00 L 31504482.00 49409554.00 L 31493382.00 49402339.00 L 31481727.00 49389019.00 L 31476177.00 49375699.00 L 31473402.00 49356829.00 L 31475622.00 49339069.00 L 31486167.00 49313539.00 L 31492827.00 49305214.00 L 31505037.00 49296334.00 L 31525017.00 49288564.00 L 31556097.00 49283569.00 L 31717047.00 49283569.00 L 31717047.00 49236394.00 L 31438437.00 49236394.00 L 31438437.00 49278574.00 L 31477842.00 49279129.00 L 31459527.00 49295779.00 L 31442877.00 49320754.00 L 31434552.00 49346284.00 L 31432332.00 49371259.00 L 31438437.00 49405114.00 L 31447872.00 49424539.00 L 31460082.00 49440079.00 L 31475067.00 49450624.00 L 31500597.00 49459504.00 L 31525017.00 49461724.00 L 31717047.00 49462279.00 L 31717047.00 49415104.00  z"/>
<path id="N" d="M 44539769.00 19532925.00 L 44497589.00 19532925.00 L 44497034.00 19572330.00 L 44480384.00 19554015.00 L 44455409.00 19537365.00 L 44429879.00 19529040.00 L 44404904.00 19526820.00 L 44371049.00 19532925.00 L 44351624.00 19542360.00 L 44336084.00 19554570.00 L 44325539.00 19569555.00 L 44316659.00 19595085.00 L 44314439.00 19619505.00 L 44313884.00 19811535.00 L 44361059.00 19811535.00 L 44361614.00 19626720.00 L 44366609.00 19598970.00 L 44373824.00 19587870.00 L 44387144.00 19576215.00 L 44400464.00 19570665.00 L 44419334.00 19567890.00 L 44437094.00 19570110.00 L 44462624.00 19580655.00 L 44470949.00 19587315.00 L 44479829.00 19599525.00 L 44487599.00 19619505.00 L 44492594.00 19650585.00 L 44492594.00 19811535.00 L 44539769.00 19811535.00 L 44539769.00 19532925.00  z"/>
<path id="N" d="M 65258358.00 29821641.00 L 65277783.00 29812206.00 L 65293323.00 29799996.00 L 65303868.00 29785011.00 L 65312748.00 29759481.00 L 65314968.00 29735061.00 L 65315523.00 29543031.00 L 65268348.00 29543031.00 L 65267793.00 29727846.00 L 65262798.00 29755596.00 L 65255583.00 29766696.00 L 65242263.00 29778351.00 L 65228943.00 29783901.00 L 65210073.00 29786676.00 L 65192313.00 29784456.00 L 65166783.00 29773911.00 L 65158458.00 29767251.00 L 65149578.00 29755041.00 L 65141808.00 29735061.00 L 65136813.00 29703981.00 L 65136813.00 29543031.00 L 65089638.00 29543031.00 L 65089638.00 29821641.00 L 65131818.00 29821641.00 L 65132373.00 29782236.00 L 65140698.00 29792226.00 L 65160123.00 29808876.00 L 65181768.00 29820531.00 L 65209518.00 29827191.00 L 65258358.00 29821641.00  z"/>
<path id="N" d="M 43141169.00 28675353.00 L 43170029.00 28669803.00 L 43195559.00 28656483.00 L 43210544.00 28642608.00 L 43218314.00 28628178.00 L 43224419.00 28607643.00 L 43226639.00 28583778.00 L 43227194.00 28391193.00 L 43180019.00 28391193.00 L 43180019.00 28546593.00 L 43177244.00 28596543.00 L 43170584.00 28610973.00 L 43157819.00 28625403.00 L 43143389.00 28632063.00 L 43122854.00 28635393.00 L 43103984.00 28632618.00 A 63497.80 63497.80 0 0 1 43056254.00 28595433.00 L 43049594.00 28564353.00 L 43048484.00 28391193.00 L 43001309.00 28391193.00 L 43001309.00 28669803.00 L 43043489.00 28669803.00 L 43044044.00 28629843.00 L 43046819.00 28633728.00 L 43066799.00 28652598.00 A 104870.43 104870.43 0 0 0 43141169.00 28675353.00  z"/>
<path id="N" d="M 65015823.00 29543031.00 L 64973643.00 29543031.00 L 64973088.00 29582991.00 L 64970313.00 29579106.00 L 64950333.00 29560236.00 A 104870.43 104870.43 0 0 0 64875963.00 29537481.00 L 64847103.00 29543031.00 L 64821573.00 29556351.00 L 64806588.00 29570226.00 L 64798818.00 29584656.00 L 64792713.00 29605191.00 L 64790493.00 29629056.00 L 64789938.00 29821641.00 L 64837113.00 29821641.00 L 64837113.00 29666241.00 L 64839888.00 29616291.00 L 64846548.00 29601861.00 L 64859313.00 29587431.00 L 64873743.00 29580771.00 L 64894278.00 29577441.00 L 64913148.00 29580216.00 A 63497.80 63497.80 0 0 1 64960878.00 29617401.00 L 64967538.00 29648481.00 L 64968648.00 29821641.00 L 65015823.00 29821641.00 L 65015823.00 29543031.00  z"/>
<path id="N" d="M 43141169.00 19817085.00 L 43170029.00 19811535.00 L 43195559.00 19798215.00 L 43210544.00 19784340.00 L 43218314.00 19769910.00 L 43224419.00 19749375.00 L 43226639.00 19725510.00 L 43227194.00 19532925.00 L 43180019.00 19532925.00 L 43180019.00 19688325.00 L 43177244.00 19738275.00 L 43170584.00 19752705.00 L 43157819.00 19767135.00 L 43143389.00 19773795.00 L 43122854.00 19777125.00 L 43103984.00 19774350.00 A 63497.80 63497.80 0 0 1 43056254.00 19737165.00 L 43049594.00 19706085.00 L 43048484.00 19532925.00 L 43001309.00 19532925.00 L 43001309.00 19811535.00 L 43043489.00 19811535.00 L 43044044.00 19771575.00 L 43046819.00 19775460.00 L 43066799.00 19794330.00 A 104870.43 104870.43 0 0 0 43141169.00 19817085.00  z"/>
<path id="N" d="M 66810693.00 29821641.00 L 66830118.00 29812206.00 L 66845658.00 29799996.00 L 66856203.00 29785011.00 L 66865083.00 29759481.00 L 66867303.00 29735061.00 L 66867858.00 29543031.00 L 66820683.00 29543031.00 L 66820128.00 29727846.00 L 66815133.00 29755596.00 L 66807918.00 29766696.00 L 66794598.00 29778351.00 L 66781278.00 29783901.00 L 66762408.00 29786676.00 L 66744648.00 29784456.00 L 66719118.00 29773911.00 L 66710793.00 29767251.00 L 66701913.00 29755041.00 L 66694143.00 29735061.00 L 66689148.00 29703981.00 L 66689148.00 29543031.00 L 66641973.00 29543031.00 L 66641973.00 29821641.00 L 66684153.00 29821641.00 L 66684708.00 29782236.00 L 66693033.00 29792226.00 L 66712458.00 29808876.00 L 66734103.00 29820531.00 L 66761853.00 29827191.00 L 66810693.00 29821641.00  z"/>
<path id="N" d="M 66129708.00 29821641.00 L 66177438.00 29821641.00 L 66177438.00 29785011.00 L 66129708.00 29785011.00 L 66129708.00 29621286.00 L 66131928.00 29595201.00 L 66140253.00 29586321.00 L 66156348.00 29582991.00 L 66177438.00 29584656.00 L 66183543.00 29543031.00 L 66147468.00 29539146.00 L 66126378.00 29540811.00 L 66106953.00 29547471.00 L 66093633.00 29559681.00 L 66086973.00 29571336.00 L 66083088.00 29603526.00 L 66082533.00 29785011.00 L 66047568.00 29785011.00 L 66047568.00 29821641.00 L 66082533.00 29821641.00 L 66082533.00 29890461.00 L 66129708.00 29918766.00 L 66129708.00 29821641.00  z"/>
<path id="N" d="M 20004161.00 49699264.00 L 20002496.00 49678174.00 L 19995836.00 49658749.00 L 19983626.00 49645429.00 L 19971971.00 49638769.00 L 19939781.00 49634884.00 L 19758296.00 49634329.00 L 19758296.00 49599364.00 L 19721666.00 49599364.00 L 19721666.00 49634329.00 L 19652846.00 49634329.00 L 19624541.00 49681504.00 L 19721666.00 49681504.00 L 19721666.00 49729234.00 L 19758296.00 49729234.00 L 19758296.00 49681504.00 L 19928681.00 49681504.00 L 19948106.00 49683724.00 L 19956986.00 49692049.00 L 19960316.00 49708699.00 L 19958651.00 49729234.00 L 20000276.00 49735339.00 L 20004161.00 49699264.00  z"/>
<path id="N" d="M 64360368.00 38454291.00 L 64310418.00 38454291.00 L 64217733.00 38791731.00 L 64216623.00 38787291.00 L 64125048.00 38454291.00 L 64071768.00 38454291.00 L 63971313.00 38838351.00 L 64024038.00 38838351.00 L 64081203.00 38585826.00 L 64097853.00 38508126.00 L 64105623.00 38539761.00 L 64188318.00 38838351.00 L 64249923.00 38838351.00 L 64318743.00 38589156.00 L 64334838.00 38508126.00 L 64337058.00 38517561.00 L 64414203.00 38838351.00 L 64465818.00 38838351.00 L 64360368.00 38454291.00  z"/>
<path id="N" d="M 64360368.00 49312559.00 L 64310418.00 49312559.00 L 64217733.00 49649999.00 L 64216623.00 49645559.00 L 64125048.00 49312559.00 L 64071768.00 49312559.00 L 63971313.00 49696619.00 L 64024038.00 49696619.00 L 64081203.00 49444094.00 L 64097853.00 49366394.00 L 64105623.00 49398029.00 L 64188318.00 49696619.00 L 64249923.00 49696619.00 L 64318743.00 49447424.00 L 64334838.00 49366394.00 L 64337058.00 49375829.00 L 64414203.00 49696619.00 L 64465818.00 49696619.00 L 64360368.00 49312559.00  z"/>
<path id="N" d="M 31490607.00 49966219.00 L 31484502.00 49951234.00 L 31481172.00 49930144.00 L 31487277.00 49909609.00 L 31497267.00 49898509.00 L 31516692.00 49887964.00 L 31550547.00 49881304.00 L 31717047.00 49880194.00 L 31717047.00 49833019.00 L 31438437.00 49833019.00 L 31438437.00 49875754.00 L 31480062.00 49876309.00 L 31458972.00 49890184.00 L 31441767.00 49905724.00 L 31437327.00 49914049.00 L 31432332.00 49935694.00 L 31436217.00 49957894.00 L 31447872.00 49983979.00 L 31490607.00 49966219.00  z"/>
<path id="N" d="M 19773836.00 50207089.00 L 19767731.00 50192104.00 L 19764401.00 50171014.00 L 19770506.00 50150479.00 L 19780496.00 50139379.00 L 19799921.00 50128834.00 L 19833776.00 50122174.00 L 20000276.00 50121064.00 L 20000276.00 50073889.00 L 19721666.00 50073889.00 L 19721666.00 50116624.00 L 19763291.00 50117179.00 L 19742201.00 50131054.00 L 19724996.00 50146594.00 L 19720556.00 50154919.00 L 19715561.00 50176564.00 L 19719446.00 50198764.00 L 19731101.00 50224849.00 L 19773836.00 50207089.00  z"/>
<path id="N" d="M 43597934.00 37359461.00 L 43555199.00 37359461.00 L 43554644.00 37401086.00 L 43540769.00 37379996.00 L 43525229.00 37362791.00 L 43516904.00 37358351.00 L 43495259.00 37353356.00 L 43473059.00 37357241.00 L 43446974.00 37368896.00 L 43464734.00 37411631.00 L 43479719.00 37405526.00 L 43500809.00 37402196.00 L 43521344.00 37408301.00 L 43532444.00 37418291.00 L 43542989.00 37437716.00 L 43549649.00 37471571.00 L 43550759.00 37638071.00 L 43597934.00 37638071.00 L 43597934.00 37359461.00  z"/>
<path id="N" d="M 19773836.00 45748381.00 L 19767731.00 45733396.00 L 19764401.00 45712306.00 L 19770506.00 45691771.00 L 19780496.00 45680671.00 L 19799921.00 45670126.00 L 19833776.00 45663466.00 L 20000276.00 45662356.00 L 20000276.00 45615181.00 L 19721666.00 45615181.00 L 19721666.00 45657916.00 L 19763291.00 45658471.00 L 19742201.00 45672346.00 L 19724996.00 45687886.00 L 19720556.00 45696211.00 L 19715561.00 45717856.00 L 19719446.00 45740056.00 L 19731101.00 45766141.00 L 19773836.00 45748381.00  z"/>
<path id="N" d="M 34152173.00 45963213.00 L 34164654.00 45933080.00 L 34164654.00 44933080.00 L 34152173.00 44902947.00 L 34122040.00 44890466.00 L 32122040.00 44890466.00 L 32091907.00 44902947.00 L 32079426.00 44933080.00 L 32079426.00 45933080.00 L 32091907.00 45963213.00 L 32122040.00 45975694.00 L 34122040.00 45975694.00 L 34152173.00 45963213.00  zM 34079426.00 45890466.00 L 32164654.00 45890466.00 L 32164654.00 44975694.00 L 34079426.00 44975694.00 L 34079426.00 45890466.00  z"/>
<path id="N" d="M 34152173.00 49900213.00 L 34164654.00 49870080.00 L 34164654.00 48870080.00 L 34152173.00 48839947.00 L 34122040.00 48827466.00 L 32122040.00 48827466.00 L 32091907.00 48839947.00 L 32079426.00 48870080.00 L 32079426.00 49870080.00 L 32091907.00 49900213.00 L 32122040.00 49912694.00 L 34122040.00 49912694.00 L 34152173.00 49900213.00  zM 34079426.00 49827466.00 L 32164654.00 49827466.00 L 32164654.00 48912694.00 L 34079426.00 48912694.00 L 34079426.00 49827466.00  z"/>
<path id="N" d="M 23325413.00 49900213.00 L 23337894.00 49870080.00 L 23337894.00 48870080.00 L 23325413.00 48839947.00 L 23295280.00 48827466.00 L 20295280.00 48827466.00 L 20265147.00 48839947.00 L 20252666.00 48870080.00 L 20252666.00 49870080.00 L 20265147.00 49900213.00 L 20295280.00 49912694.00 L 23295280.00 49912694.00 L 23325413.00 49900213.00  zM 23252666.00 49827466.00 L 20337894.00 49827466.00 L 20337894.00 48912694.00 L 23252666.00 48912694.00 L 23252666.00 49827466.00  z"/>
<path id="N" d="M 23325413.00 45963213.00 L 23337894.00 45933080.00 L 23337894.00 44933080.00 L 23325413.00 44902947.00 L 23295280.00 44890466.00 L 20295280.00 44890466.00 L 20265147.00 44902947.00 L 20252666.00 44933080.00 L 20252666.00 45933080.00 L 20265147.00 45963213.00 L 20295280.00 45975694.00 L 23295280.00 45975694.00 L 23325413.00 45963213.00  zM 23252666.00 45890466.00 L 20337894.00 45890466.00 L 20337894.00 44975694.00 L 23252666.00 44975694.00 L 23252666.00 45890466.00  z"/>
<path id="N" d="M 64663993.00 29278173.00 L 64676474.00 29248040.00 L 64676474.00 21248040.00 L 64663993.00 21217907.00 L 64633860.00 21205426.00 L 63633860.00 21205426.00 L 63603727.00 21217907.00 L 63591246.00 21248040.00 L 63591246.00 29248040.00 L 63603727.00 29278173.00 L 63633860.00 29290654.00 L 64633860.00 29290654.00 L 64663993.00 29278173.00  zM 64591246.00 29205426.00 L 63676474.00 29205426.00 L 63676474.00 21290654.00 L 64591246.00 21290654.00 L 64591246.00 29205426.00  z"/>
<path id="N" d="M 44978953.00 28246673.00 L 44991434.00 28216540.00 L 44991434.00 20216540.00 L 44978953.00 20186407.00 L 44948820.00 20173926.00 L 43948820.00 20173926.00 L 43918687.00 20186407.00 L 43906206.00 20216540.00 L 43906206.00 28216540.00 L 43918687.00 28246673.00 L 43948820.00 28259154.00 L 44948820.00 28259154.00 L 44978953.00 28246673.00  zM 44906206.00 28173926.00 L 43991434.00 28173926.00 L 43991434.00 20259154.00 L 44906206.00 20259154.00 L 44906206.00 28173926.00  z"/>
<path id="N" d="M 64663993.00 49057694.00 L 64676474.00 49027561.00 L 64676474.00 39027561.00 L 64663993.00 38997428.00 L 64633860.00 38984947.00 L 63633860.00 38984947.00 L 63603727.00 38997428.00 L 63591246.00 39027561.00 L 63591246.00 49027561.00 L 63603727.00 49057694.00 L 63633860.00 49070175.00 L 64633860.00 49070175.00 L 64663993.00 49057694.00  zM 64591246.00 48984947.00 L 63676474.00 48984947.00 L 63676474.00 39070175.00 L 64591246.00 39070175.00 L 64591246.00 48984947.00  z"/>
<path id="N" d="M 64663993.00 38199434.00 L 64676474.00 38169301.00 L 64676474.00 30169301.00 L 64663993.00 30139168.00 L 64633860.00 30126687.00 L 63633860.00 30126687.00 L 63603727.00 30139168.00 L 63591246.00 30169301.00 L 63591246.00 38169301.00 L 63603727.00 38199434.00 L 63633860.00 38211915.00 L 64633860.00 38211915.00 L 64663993.00 38199434.00  zM 64591246.00 38126687.00 L 63676474.00 38126687.00 L 63676474.00 30211915.00 L 64591246.00 30211915.00 L 64591246.00 38126687.00  z"/>
<path id="N" d="M 44978953.00 45963193.00 L 44991434.00 45933060.00 L 44991434.00 37933060.00 L 44978953.00 37902927.00 L 44948820.00 37890446.00 L 43948820.00 37890446.00 L 43918687.00 37902927.00 L 43906206.00 37933060.00 L 43906206.00 45933060.00 L 43918687.00 45963193.00 L 43948820.00 45975674.00 L 44948820.00 45975674.00 L 44978953.00 45963193.00  zM 44906206.00 45890446.00 L 43991434.00 45890446.00 L 43991434.00 37975674.00 L 44906206.00 37975674.00 L 44906206.00 45890446.00  z"/>
<path id="N" d="M 35136433.00 32183673.00 L 35148914.00 32153540.00 L 35148914.00 30153540.00 L 35136433.00 30123407.00 L 35106300.00 30110926.00 L 31106300.00 30110926.00 L 31076167.00 30123407.00 L 31063686.00 30153540.00 L 31063686.00 32153540.00 L 31076167.00 32183673.00 L 31106300.00 32196154.00 L 35106300.00 32196154.00 L 35136433.00 32183673.00  zM 35063686.00 32110926.00 L 31148914.00 32110926.00 L 31148914.00 30196154.00 L 35063686.00 30196154.00 L 35063686.00 32110926.00  z"/>
<path id="N" d="M 44978953.00 37104953.00 L 44991434.00 37074820.00 L 44991434.00 29074820.00 L 44978953.00 29044687.00 L 44948820.00 29032206.00 L 43948820.00 29032206.00 L 43918687.00 29044687.00 L 43906206.00 29074820.00 L 43906206.00 37074820.00 L 43918687.00 37104953.00 L 43948820.00 37117434.00 L 44948820.00 37117434.00 L 44978953.00 37104953.00  zM 44906206.00 37032206.00 L 43991434.00 37032206.00 L 43991434.00 29117434.00 L 44906206.00 29117434.00 L 44906206.00 37032206.00  z"/>
<path id="N" d="M 31199433.00 40057693.00 L 31211914.00 40027560.00 L 31211914.00 39027560.00 L 31199433.00 38997427.00 L 31169300.00 38984946.00 L 23169300.00 38984946.00 L 23139167.00 38997427.00 L 23126686.00 39027560.00 L 23126686.00 40027560.00 L 23139167.00 40057693.00 L 23169300.00 40070174.00 L 31169300.00 40070174.00 L 31199433.00 40057693.00  zM 31126686.00 39984946.00 L 23211914.00 39984946.00 L 23211914.00 39070174.00 L 31126686.00 39070174.00 L 31126686.00 39984946.00  z"/>
<path id="N" d="M 30867237.00 31776851.00 L 31006299.00 31776851.00 L 31006299.00 31740815.00 L 30859845.00 31533839.00 L 30827967.00 31533839.00 L 30827967.00 31740815.00 L 30784539.00 31740815.00 L 30784539.00 31776851.00 L 30827967.00 31776851.00 L 30827967.00 31853543.00 L 30867237.00 31853543.00 L 30867237.00 31776851.00  zM 30967953.00 31740815.00 L 30867237.00 31740815.00 L 30867237.00 31597595.00 L 30967953.00 31740815.00  z"/>
<path id="N" d="M 44317769.00 37359461.00 L 44268374.00 37359461.00 L 44208434.00 37579796.00 L 44149604.00 37359461.00 L 44101319.00 37359461.00 L 44045819.00 37574801.00 L 43981994.00 37359461.00 L 43935929.00 37359461.00 L 44023619.00 37638071.00 L 44071904.00 37638071.00 L 44116304.00 37471571.00 L 44127404.00 37423841.00 L 44183459.00 37638071.00 L 44233409.00 37638071.00 L 44317769.00 37359461.00  z"/>
<path id="N" d="M 44787299.00 28285743.00 L 44731799.00 28285743.00 L 44574734.00 28669803.00 L 44632454.00 28669803.00 L 44677409.00 28553253.00 L 44838359.00 28553253.00 L 44879984.00 28669803.00 L 44933819.00 28669803.00 L 44787299.00 28285743.00  zM 44823374.00 28511628.00 L 44693504.00 28511628.00 L 44733464.00 28405623.00 L 44760659.00 28326258.00 L 44766209.00 28349013.00 L 44781749.00 28399518.00 L 44823374.00 28511628.00  z"/>
<path id="N" d="M 44787299.00 19427475.00 L 44731799.00 19427475.00 L 44574734.00 19811535.00 L 44632454.00 19811535.00 L 44677409.00 19694985.00 L 44838359.00 19694985.00 L 44879984.00 19811535.00 L 44933819.00 19811535.00 L 44787299.00 19427475.00  zM 44823374.00 19653360.00 L 44693504.00 19653360.00 L 44733464.00 19547355.00 L 44760659.00 19467990.00 L 44766209.00 19490745.00 L 44781749.00 19541250.00 L 44823374.00 19653360.00  z"/>
<path id="N" d="M 64878183.00 49312559.00 L 64829343.00 49312559.00 L 64829343.00 49633904.00 L 64717233.00 49312559.00 L 64671723.00 49312559.00 L 64560723.00 49639454.00 L 64560723.00 49312559.00 L 64511883.00 49312559.00 L 64511883.00 49696619.00 L 64587918.00 49696619.00 L 64697253.00 49367504.00 L 64809918.00 49696619.00 L 64878183.00 49696619.00 L 64878183.00 49312559.00  z"/>
<path id="N" d="M 20000276.00 49202539.00 L 19678931.00 49202539.00 L 20000276.00 49090429.00 L 20000276.00 49044919.00 L 19673381.00 48933919.00 L 20000276.00 48933919.00 L 20000276.00 48885079.00 L 19616216.00 48885079.00 L 19616216.00 48961114.00 L 19945331.00 49070449.00 L 19616216.00 49183114.00 L 19616216.00 49251379.00 L 20000276.00 49251379.00 L 20000276.00 49202539.00  z"/>
<path id="N" d="M 64878183.00 38454291.00 L 64829343.00 38454291.00 L 64829343.00 38775636.00 L 64717233.00 38454291.00 L 64671723.00 38454291.00 L 64560723.00 38781186.00 L 64560723.00 38454291.00 L 64511883.00 38454291.00 L 64511883.00 38838351.00 L 64587918.00 38838351.00 L 64697253.00 38509236.00 L 64809918.00 38838351.00 L 64878183.00 38838351.00 L 64878183.00 38454291.00  z"/>
<path id="N" d="M 31717047.00 48885079.00 L 31332987.00 48885079.00 L 31332987.00 49163134.00 L 31378497.00 49163134.00 L 31378497.00 48936139.00 L 31495602.00 48936139.00 L 31495602.00 49148704.00 L 31541112.00 49148704.00 L 31541112.00 48936139.00 L 31671537.00 48936139.00 L 31671537.00 49172014.00 L 31717047.00 49172014.00 L 31717047.00 48885079.00  z"/>
<path id="N" d="M 35328221.00 31604063.00 L 35333303.00 31608683.00 L 35366105.00 31631321.00 L 35406299.00 31650725.00 L 35406299.00 31612841.00 L 35377655.00 31597133.00 L 35348087.00 31574495.00 L 35329607.00 31555091.00 L 35313899.00 31532453.00 L 35288489.00 31532453.00 L 35288489.00 31853543.00 L 35327759.00 31853543.00 L 35328221.00 31604063.00  z"/>
<path id="N" d="M 65268348.00 38454291.00 L 65221173.00 38454291.00 L 65220618.00 38753991.00 L 65214513.00 38748441.00 L 65176218.00 38721801.00 L 65126823.00 38697936.00 L 65127378.00 38743446.00 L 65161233.00 38762316.00 L 65195643.00 38788401.00 L 65218953.00 38812821.00 L 65237823.00 38840016.00 L 65268348.00 38840016.00 L 65268348.00 38454291.00  z"/>
<path id="N" d="M 31827047.00 45515836.00 L 31789307.00 45515836.00 L 31585067.00 45692881.00 L 31585622.00 45682336.00 L 31586732.00 45526381.00 L 31548437.00 45526381.00 L 31548437.00 45753931.00 L 31580072.00 45753931.00 L 31789307.00 45574111.00 L 31787642.00 45592981.00 L 31786532.00 45762256.00 L 31827047.00 45762256.00 L 31827047.00 45515836.00  z"/>
<path id="N" d="M 42363059.00 19511835.00 L 42369164.00 19517385.00 L 42407459.00 19544025.00 L 42456854.00 19567890.00 L 42456299.00 19522380.00 L 42422444.00 19503510.00 L 42388034.00 19477425.00 L 42364724.00 19453005.00 L 42345854.00 19425810.00 L 42315329.00 19425810.00 L 42315329.00 19811535.00 L 42362504.00 19811535.00 L 42363059.00 19511835.00  z"/>
<path id="N" d="M 20000276.00 45914881.00 L 20000276.00 45869926.00 L 19721666.00 45765031.00 L 19721666.00 45814981.00 L 19888721.00 45874921.00 L 19944776.00 45892681.00 L 19929791.00 45897121.00 L 19721666.00 45972046.00 L 19721666.00 46020886.00 L 20000276.00 45914881.00  z"/>
<path id="N" d="M 31827047.00 44948071.00 L 31442987.00 44948071.00 L 31442987.00 44999131.00 L 31781537.00 44999131.00 L 31781537.00 45188386.00 L 31827047.00 45188386.00 L 31827047.00 44948071.00  z"/>
<path id="N" d="M 65435403.00 29873256.00 L 65388228.00 29873256.00 L 65388228.00 29927091.00 L 65435403.00 29927091.00 L 65435403.00 29873256.00  z"/>
<path id="N" d="M 31386822.00 50310874.00 L 31332987.00 50310874.00 L 31332987.00 50358049.00 L 31386822.00 50358049.00 L 31386822.00 50310874.00  z"/>
<path id="N" d="M 66271233.00 29873256.00 L 66224058.00 29873256.00 L 66224058.00 29927091.00 L 66271233.00 29927091.00 L 66271233.00 29873256.00  z"/>
<path id="N" d="M 30151074.00 31146453.00 L 30097239.00 31146453.00 L 30097239.00 31193628.00 L 30151074.00 31193628.00 L 30151074.00 31146453.00  z"/>
<path id="N" d="M 65435403.00 29543031.00 L 65388228.00 29543031.00 L 65388228.00 29821641.00 L 65435403.00 29821641.00 L 65435403.00 29543031.00  z"/>
<path id="N" d="M 31717047.00 50310874.00 L 31438437.00 50310874.00 L 31438437.00 50358049.00 L 31717047.00 50358049.00 L 31717047.00 50310874.00  z"/>
<path id="N" d="M 66271233.00 29543031.00 L 66224058.00 29543031.00 L 66224058.00 29821641.00 L 66271233.00 29821641.00 L 66271233.00 29543031.00  z"/>
<path id="N" d="M 43943699.00 19427475.00 L 43896524.00 19427475.00 L 43896524.00 19811535.00 L 43943699.00 19811535.00 L 43943699.00 19427475.00  z"/>
<path id="N" d="M 43943699.00 28285743.00 L 43896524.00 28285743.00 L 43896524.00 28669803.00 L 43943699.00 28669803.00 L 43943699.00 28285743.00  z"/>
<path id="N" d="M 30481299.00 31146453.00 L 30202689.00 31146453.00 L 30202689.00 31193628.00 L 30481299.00 31193628.00 L 30481299.00 31146453.00  z"/>
</g>
</svg>
